<svg id="Group_25197" data-name="Group 25197" xmlns="http://www.w3.org/2000/svg" width="54.149" height="60.859" viewBox="0 0 54.149 60.859">
  <path id="Subtraction_5" data-name="Subtraction 5" d="M27.074,60.859a5.693,5.693,0,0,1-2.935-.877c-1.725-1.018-7.674-4.437-12.923-7.454l-.14-.081-.362-.208-.507-.292c-3.1-1.785-6.037-3.47-7.585-4.367A5.173,5.173,0,0,1,.633,45.62,5.42,5.42,0,0,1,0,42.968c0-4.18,0-8.429,0-12.539s0-8.359,0-12.539a5,5,0,0,1,2.621-4.612c1.691-.98,4.975-2.868,8.452-4.867l.166-.1.082-.047h0C16.266,5.428,22.413,1.895,24.14.876A5.7,5.7,0,0,1,27.074,0a5.036,5.036,0,0,1,1.4.2,6.442,6.442,0,0,1,1.416.616C33.917,3.142,38.014,5.5,41.975,7.78l.009.005L42.359,8c2.946,1.7,6.08,3.5,9.167,5.279a5.193,5.193,0,0,1,1.959,1.909,5.393,5.393,0,0,1,.662,2.7c0,7.943,0,23.343,0,25.073a5.425,5.425,0,0,1-.633,2.652,5.175,5.175,0,0,1-1.989,1.96c-3.056,1.762-6.215,3.58-9.189,5.292l-.17.1L42.1,53c-4,2.3-8.142,4.686-12.21,7.035a6.437,6.437,0,0,1-1.417.616A5.043,5.043,0,0,1,27.074,60.859Zm0-48.412A18.021,18.021,0,0,0,9.133,29.211c-.027.4-.041.813-.041,1.218,0,.2,0,.4.01.6v.023a17.79,17.79,0,0,0,2.017,7.675c.113.217.232.435.354.646.235.408.488.812.754,1.2h0l0,0,.005.008A18.043,18.043,0,0,0,26.575,48.4c.166,0,.334.007.5.007s.357,0,.533-.008a17.865,17.865,0,0,0,15.084-9.056L34.878,34.82c-.114.2-.237.4-.364.591a9,9,0,0,1-3.432,3.028l0,0-.02.01,0,0,0,0-.008,0-.012.006,0,0-.017.009-.008,0,0,0-.023.011,0,0h0l-.029.014h0a8.9,8.9,0,0,1-3.672.873H27a9.018,9.018,0,0,1-1.7-.176h0l-.03-.006H25.26l-.018,0h-.02l-.018,0h0l-.017,0-.012,0-.026-.006h-.006a8.954,8.954,0,0,1,1.872-17.7h.254a9.015,9.015,0,0,1,1.572.172h0l.024,0h.007l.008,0,.016,0h0l.02,0h.014l.025.005h0A8.871,8.871,0,0,1,31.9,22.887a9.042,9.042,0,0,1,2.919,3.05l7.827-4.507c-.2-.353-.425-.706-.656-1.048A17.975,17.975,0,0,0,27.075,12.448ZM46.518,29.38v2.06h2.059V33.5h2.06V31.44H52.7V29.38h-2.06V27.32h-2.06v2.06ZM39,29.38v2.06h2.06V33.5h2.06V31.44h2.06V29.38h-2.06V27.32h-2.06v2.06Z" transform="translate(0 0)" fill="#9eb3cf"/>
  <path id="Subtraction_4" data-name="Subtraction 4" d="M26.441,30.511h0a5.7,5.7,0,0,1-2.935-.877c-1.733-1.023-7.737-4.474-13.034-7.518h0c-3.491-2.007-6.788-3.9-8.483-4.883A5.172,5.172,0,0,1,0,15.272L10.841,9.03a18.043,18.043,0,0,0,15.6,9.033A18.039,18.039,0,0,0,42.059,9L35.906,5.435,52.883,15.27a5.172,5.172,0,0,1-1.989,1.96c-3.025,1.744-6.1,3.515-9.079,5.228l-.033.019-.012.007c-4.1,2.36-8.342,4.8-12.51,7.208a6.442,6.442,0,0,1-1.417.616A5.043,5.043,0,0,1,26.441,30.511Zm0-21.475a8.966,8.966,0,0,1-2.4-.326,8.9,8.9,0,0,1-2.154-.919,9.012,9.012,0,0,1-3.217-3.266L26.524,0l7.72,4.472a9.007,9.007,0,0,1-3.221,3.3,8.9,8.9,0,0,1-2.165.93A8.964,8.964,0,0,1,26.442,9.036Z" transform="translate(0.633 30.348)" fill="#9eb3cf"/>
  <path id="Path_10744" data-name="Path 10744" d="M91.1,148.033a8.952,8.952,0,0,0,15.576-.052l-7.72-4.472L91.1,148.033" transform="translate(-71.8 -113.161)" fill="#9eb3cf"/>
  <path id="Subtraction_6" data-name="Subtraction 6" d="M26.359,30.429,10.512,21.249,7.72,19.631,0,15.159l7.661-4.411,7.827-4.506L26.327,0a5.392,5.392,0,0,1,.662,2.7c0,8.269,0,24.906,0,25.073a5.425,5.425,0,0,1-.633,2.652Zm-7-16.238v2.06h2.06v2.06h2.06v-2.06h2.06v-2.06H23.48v-2.06H21.42v2.06H19.36Zm-7.516,0v2.06H13.9v2.06h2.06v-2.06h2.06v-2.06h-2.06v-2.06H13.9v2.06Z" transform="translate(27.158 15.189)" fill="#9eb3cf"/>
</svg>
