<svg xmlns="http://www.w3.org/2000/svg" width="61.049" height="16.792" viewBox="0 0 61.049 16.792">
  <g id="surface1" transform="translate(0)">
    <g id="Group_1" data-name="Group 1" transform="translate(47.293 6.348)">
      <path id="Path_48" data-name="Path 48" d="M1011.342,139.346c0-1.19,0-2.38,0-3.57,0-.1,0-.24-.06-.292a3.094,3.094,0,0,0-.594-.406,11.175,11.175,0,0,0-3.574-1,25.714,25.714,0,0,0-5.546-.036c-.24.019-.323.12-.32.361.009.652,0,1.3-.007,1.956,0,.3.107.393.414.349a2.98,2.98,0,0,1,.374-.052c1.021-.013,2.042-.041,3.064-.023a5.626,5.626,0,0,1,2.4.472.547.547,0,0,1,.355.562c-.007,1.094-.018,2.188,0,3.281.006.346-.11.563-.438.618-.515.087-1.037.137-1.555.205a15.418,15.418,0,0,1-3.371-.052,1.645,1.645,0,0,1-.675-.227c-.292-.174-.634-.356-.518-.8s.516-.455.842-.472a26.174,26.174,0,0,1,4.886.072c.259.035.382-.072.38-.326,0-.6,0-1.2-.017-1.8,0-.233-.079-.45-.34-.509a10.41,10.41,0,0,0-1.27-.247,14.5,14.5,0,0,0-4.266.107c-.958.19-1.922.35-2.875.564-.985.222-1,.243-1.022,1.255-.024,1.137-.011,2.274-.006,3.411a.573.573,0,0,0,.421.628c.558.149,1.118.3,1.679.435a23.464,23.464,0,0,0,5.105.543c.46.012.922-.093,1.383-.086a14.609,14.609,0,0,0,3.673-.545c.4-.1.784-.235,1.172-.365a.448.448,0,0,0,.315-.5C1011.333,141.684,1011.342,140.515,1011.342,139.346Z" transform="translate(-997.593 -133.909)" fill="#9eb3cf"/>
    </g>
    <g id="Group_2" data-name="Group 2" transform="translate(31.645 4.118)">
      <path id="Path_49" data-name="Path 49" d="M682.2,93.836c-.007-2.094.113-4.188.182-6.281.008-.252-.064-.433-.333-.493a5.586,5.586,0,0,0-3.146.071c-.214.076-.261.18-.239.4.1.93.2,1.861.244,2.795s.021,1.893.012,2.84c-.01.977-.042,1.953-.056,2.93a.539.539,0,0,1-.5.588c-.546.092-1.092.2-1.642.255a13.8,13.8,0,0,1-4.917-.335.554.554,0,0,1-.5-.616c-.005-.337.01-.674.007-1.011-.007-.732.118-.9.829-1.071a2.141,2.141,0,0,1,.217-.042,10.315,10.315,0,0,1,3.127-.173,7.114,7.114,0,0,1,2.528.683c.231.134.349.048.346-.226,0-.231-.012-.462-.01-.694,0-.558.016-1.116.02-1.674,0-.2-.037-.373-.264-.45a11.169,11.169,0,0,0-3.512-.51,16.819,16.819,0,0,0-4.317.421c-.754.19-1.523.318-2.283.482-.387.083-.489.219-.489.613q0,1.405,0,2.811h.031q0,1.453,0,2.905a.518.518,0,0,0,.439.539c.549.139,1.1.27,1.651.4a26.135,26.135,0,0,0,4.918.534c.984.05,1.976-.068,2.965-.082a16.921,16.921,0,0,0,4.319-.7,3.962,3.962,0,0,0,.443-.166c.194-.08.238-.222.222-.431C682.387,96.711,682.207,95.273,682.2,93.836Z" transform="translate(-667.511 -86.871)" fill="#9eb3cf"/>
    </g>
    <g id="Group_3" data-name="Group 3" transform="translate(16.584 7.149)">
      <path id="Path_50" data-name="Path 50" d="M364.271,151.446a.429.429,0,0,0-.363-.447,6.526,6.526,0,0,0-2.943-.05c-.692.129-.705.15-.713.859v.063q.011,1.8.022,3.6c0,.432.01.864.006,1.3,0,.272-.042.574-.323.669a6.506,6.506,0,0,1-1.524.386c-.772.064-1.554,0-2.331.02a3.908,3.908,0,0,1-1.735-.4.674.674,0,0,1-.452-.706c.011-.863,0-1.727,0-2.591h-.033c0-.884,0-1.769,0-2.653a.448.448,0,0,0-.392-.518,9.223,9.223,0,0,0-3.265,0c-.309.052-.467.212-.4.549a2.185,2.185,0,0,1,.009.41q-.009,3.506-.022,7.011a.415.415,0,0,0,.3.458c.514.154,1.023.335,1.547.444a34.342,34.342,0,0,0,3.81.516,24.426,24.426,0,0,0,4.938-.166c.708-.077,1.405-.264,2.106-.41.443-.093.886-.191,1.323-.309.229-.062.482-.135.479-.456-.007-.989-.017-1.979-.023-2.968Q364.284,153.75,364.271,151.446Z" transform="translate(-349.815 -150.805)" fill="#9eb3cf"/>
    </g>
    <g id="Group_4" data-name="Group 4" transform="translate(1.661 6.923)">
      <path id="Path_51" data-name="Path 51" d="M49.028,151.982c-.245.112-.491.222-.741.323a12.551,12.551,0,0,1-5.223,1.033,7.966,7.966,0,0,1-3.509-.591,1.018,1.018,0,0,1-.67-.969c0-.523.04-1.047.034-1.57a.676.676,0,0,1,.353-.619,4.119,4.119,0,0,1,1.782-.6,20.963,20.963,0,0,1,2.767-.186,14.313,14.313,0,0,1,5.061.517c.208.077.319-.052.318-.265,0-.672-.024-1.345-.012-2.017,0-.285-.085-.432-.375-.467-.8-.1-1.6-.223-2.409-.305a26.5,26.5,0,0,0-3.044-.241,34.557,34.557,0,0,0-3.992.294,12.12,12.12,0,0,0-3.81,1.085.453.453,0,0,0-.222.267c-.072.338-.1.686-.158,1.027a13.916,13.916,0,0,0-.026,3.745c.045.492.11.982.175,1.472a1.021,1.021,0,0,0,.637.9,12.753,12.753,0,0,0,3.943.943,21.4,21.4,0,0,0,3.62.04,25.235,25.235,0,0,0,5.483-.987c.121-.038.287-.2.29-.307.024-.789.016-1.578.008-2.367C49.306,151.954,49.2,151.9,49.028,151.982Z" transform="translate(-35.037 -146.027)" fill="#9eb3cf"/>
    </g>
    <path id="Path_52" data-name="Path 52" d="M3.275,6.367c.44-.208.48-.2.378-.687Q3.341,4.2,3.013,2.719c-.174-.779-.36-1.556-.543-2.333A.469.469,0,0,0,1.957,0C1.458.184.946.34.465.562a.682.682,0,0,0-.422.88c.212.636.413,1.279.682,1.892.359.818.812,1.6,1.16,2.418A1.009,1.009,0,0,0,3.275,6.367Z" transform="translate(0)" fill="#9eb3cf"/>
  </g>
</svg>
