<svg xmlns="http://www.w3.org/2000/svg" width="179.033" height="131.46" viewBox="0 0 179.033 131.46">
  <g id="logo1" transform="translate(-70.758 74.327)">
    <path id="Path_25621" data-name="Path 25621" d="M64.265,0a3.81,3.81,0,0,1,3.008,6.149l21.17,14.674a4.493,4.493,0,1,1,5.976,6.588l7.886,15.923a4.386,4.386,0,1,1-1.149,8.039L91.765,65.767a5,5,0,1,1-7.006,6.4l-8.813,3.1a3.38,3.38,0,0,1-1.986,3.595L76.321,90.53a4.663,4.663,0,0,1,.489-.026,4.6,4.6,0,1,1-3.281,1.376l-19.051-19.9a3.055,3.055,0,0,1-4.589-2.6H44.906a5,5,0,1,1-8.431-4.08l-5.3-7.549a3.056,3.056,0,0,1-4.534-2.1H19.187a3.7,3.7,0,1,1-6.355-3.259L5.178,43.616a3.7,3.7,0,1,1-1.5-7.1l.474-3.839a3.775,3.775,0,1,1,2.805-6.985l8.8-10.166a4.917,4.917,0,0,1-1.09-3.093,5,5,0,0,1,9.687-1.71l36.191-6.1A3.814,3.814,0,0,1,64.265,0Zm-8.65,70.817a3.067,3.067,0,0,1-.552.717L74.08,91.4a4.582,4.582,0,0,1,1.525-.738L73.261,79.082a3.382,3.382,0,0,1-3.867-4.37ZM72.552,60.5a4.365,4.365,0,0,1-2.054.963l1.31,11.016a3.385,3.385,0,0,1,3.953,2.077l8.749-3.075a5.013,5.013,0,0,1,.509-3.907Zm-17.16,7A3.039,3.039,0,0,1,56,69.334a3.072,3.072,0,0,1-.106.8l13.807,3.9a3.393,3.393,0,0,1,1.4-1.3L69.772,61.534h-.043a4.385,4.385,0,0,1-3.854-2.292Zm-5.381-16.97a5.027,5.027,0,0,1-2.848.017L41.887,64.3a5,5,0,0,1,3.035,4.342h5.045A3.059,3.059,0,0,1,52.076,66.4Zm24.012,5.722a4.439,4.439,0,0,1,.091.89,4.366,4.366,0,0,1-1.028,2.82l12.351,7.008A5,5,0,0,1,91.1,65.455l9.461-14.5a4.386,4.386,0,0,1-1.43-2.25ZM52.842,48.328a5.013,5.013,0,0,1-2.131,1.937L52.8,66.282c.049,0,.1,0,.148,0a3.044,3.044,0,0,1,1.944.7l10.686-8.425a4.406,4.406,0,0,1,.161-3.211ZM32.606,54.316a3.058,3.058,0,0,1-.842,2.993l5.275,7.52a5.011,5.011,0,0,1,4.157-.762L46.48,50.3a5.018,5.018,0,0,1-2.139-1.865ZM82.574,38.11a3.813,3.813,0,0,1-5.116,1.752L72.21,53.533a4.4,4.4,0,0,1,1.607,2.027L99,47.979c-.011-.129-.017-.259-.017-.391a4.365,4.365,0,0,1,.425-1.886ZM17.493,51.724a3.7,3.7,0,0,1,1.773,3.16c0,.01,0,.021,0,.031H26.6a3.056,3.056,0,0,1,2.018-2.691L24.444,38.2a3.851,3.851,0,0,1-1.186,0Zm34.1-9.94a5,5,0,0,1,1.58,5.893L66.089,54.7a4.407,4.407,0,0,1,1.841-1.554L66.546,24.995q-.239.021-.483.022a5.3,5.3,0,0,1-2.3-.524ZM26.844,36.81a3.819,3.819,0,0,1-1.692,1.211l4.182,14.041a3.061,3.061,0,0,1,3,1.574L44,47.792a5.018,5.018,0,0,1-.194-3.567ZM68.989,24.14a5.285,5.285,0,0,1-1.718.739L68.648,52.9a4.406,4.406,0,0,1,2.921.269l5.259-13.7a3.81,3.81,0,0,1-.405-5.687ZM7.4,40.264a3.7,3.7,0,0,1-1.576,2.988L13.375,51.9a3.709,3.709,0,0,1,3.46-.491l5.71-13.4a3.822,3.822,0,0,1-2.094-1.882Zm74.749-6.157a3.817,3.817,0,0,1,.676,3.318l16.953,7.644a4.4,4.4,0,0,1,1.828-1.5l-7.827-15.8a4.5,4.5,0,0,1-4.931-.788ZM27.015,32.287a3.814,3.814,0,0,1,.233,3.9l16.828,7.358a5.017,5.017,0,0,1,2.264-2.271l-5.1-14.836a3.813,3.813,0,0,1-4.322-.97Zm16.54-9.606c.005.083.008.166.008.25a3.807,3.807,0,0,1-1.677,3.157L47.015,41a5.012,5.012,0,0,1,3.966.382L63.122,24.13a5.343,5.343,0,0,1-1.781-1.981Zm-34.7,7.63a3.775,3.775,0,0,1-3.568,2.541,3.84,3.84,0,0,1-.414-.023l-.463,3.756A3.706,3.706,0,0,1,7.338,39.52l12.853-4.077a3.816,3.816,0,0,1-.135-1.01A3.88,3.88,0,0,1,20.08,34ZM71.379,19.9a5.307,5.307,0,0,1-1.811,3.8l7.412,9.614a3.811,3.811,0,0,1,4.672.265l6.705-7.134a4.472,4.472,0,0,1-.944-2.756c0-.079,0-.158.006-.236ZM7.584,26.086A3.78,3.78,0,0,1,9.022,29.6l11.211,3.683a3.819,3.819,0,0,1,2.5-2.488l-2.2-13.473a5.062,5.062,0,0,1-.868.075,5,5,0,0,1-3.405-1.331ZM24.03,14.843a5,5,0,0,1-2.791,2.3l2.207,13.5a3.847,3.847,0,0,1,.42-.023,3.8,3.8,0,0,1,2.68,1.1l9.935-6.84a3.821,3.821,0,0,1-.348-3.147ZM66.766,6.685a3.8,3.8,0,0,1-1.381.768V14.42a5.382,5.382,0,0,1,.678-.043,5.32,5.32,0,0,1,5.292,4.771l16.161,3.578a4.472,4.472,0,0,1,.51-1.3ZM42.606,20.407a3.8,3.8,0,0,1,.831,1.549l17.6-.527a5.327,5.327,0,0,1,3.624-6.863V7.6a3.848,3.848,0,0,1-.39.02,3.8,3.8,0,0,1-1.627-.364ZM24.554,11.432a4.953,4.953,0,0,1-.215,2.748l12.09,6.887A3.811,3.811,0,0,1,42.055,19.9L61.95,6.836a3.823,3.823,0,0,1-1.181-1.51Z" transform="translate(100.848 -74.327)" fill="#9eb3cf"/>
    <path id="Path_25622" data-name="Path 25622" d="M82.524,18.633a.427.427,0,0,1,.41.215.8.8,0,0,1,.137.469v1.544a.8.8,0,0,1-.137.469.439.439,0,0,1-.41.2H71.286a.427.427,0,0,1-.41-.215.962.962,0,0,1-.117-.469V19.337a.962.962,0,0,1,.117-.469.42.42,0,0,1,.41-.235Zm-.1,6.548a.428.428,0,0,1,.41.215.8.8,0,0,1,.137.469v1.544a.8.8,0,0,1-.137.469.44.44,0,0,1-.41.2H73.69v5.981a1.006,1.006,0,0,1-.117.488.459.459,0,0,1-.43.2h-1.8a.488.488,0,0,1-.43-.2,1,1,0,0,1-.117-.488V26.51a1.28,1.28,0,0,1,.391-.9,1.519,1.519,0,0,1,1.153-.43Zm12.181-6.763a2.316,2.316,0,0,1,.9.156,1.947,1.947,0,0,1,.664.43,2.124,2.124,0,0,1,.489.625,5.98,5.98,0,0,1,.391.821L102.544,34a.923.923,0,0,1,.078.332.391.391,0,0,1-.137.313.424.424,0,0,1-.313.117h-2.091a.572.572,0,0,1-.567-.43L94.647,22.19h-.078l-2.541,6.392h2.424a.589.589,0,0,1,.567.391q.058.137.176.43.137.274.254.567a3.85,3.85,0,0,1,.215.567,1.2,1.2,0,0,1,.1.391.6.6,0,0,1-.625.625H90.855l-1.114,2.8a.557.557,0,0,1-.547.41h-2.15q-.449,0-.449-.43A.837.837,0,0,1,86.653,34l5.453-13.545A4.239,4.239,0,0,1,93.025,19,2.1,2.1,0,0,1,94.608,18.418Zm14.746,6.118a.538.538,0,0,0,.547.586h5.864a2.851,2.851,0,0,1,1.486.352,2.55,2.55,0,0,1,.958.9,3.73,3.73,0,0,1,.488,1.309,7.012,7.012,0,0,1,.156,1.486v1.72a5.991,5.991,0,0,1-.176,1.466,3.381,3.381,0,0,1-.528,1.231,2.665,2.665,0,0,1-.977.84,3.042,3.042,0,0,1-1.446.313h-8.815a.51.51,0,0,1-.45-.2.9.9,0,0,1-.117-.469V32.51a.9.9,0,0,1,.117-.469.511.511,0,0,1,.45-.2h8.346a.544.544,0,0,0,.586-.332,2.332,2.332,0,0,0,.118-.743V29.09a2.272,2.272,0,0,0-.118-.723.526.526,0,0,0-.566-.352h-5.865a2.8,2.8,0,0,1-2.345-.919,4.123,4.123,0,0,1-.7-2.56V22.014a5.4,5.4,0,0,1,.137-1.192,2.964,2.964,0,0,1,.469-1.075,2.692,2.692,0,0,1,.938-.8,3.355,3.355,0,0,1,1.544-.313h8.424a.44.44,0,0,1,.411.2.8.8,0,0,1,.137.469v1.564a.8.8,0,0,1-.137.469.44.44,0,0,1-.411.2h-7.955a.679.679,0,0,0-.391.137.425.425,0,0,0-.176.352Zm27.493-5.9a.786.786,0,0,1,.351.117q.216.1.216.547v1.524a.871.871,0,0,1-.078.391.554.554,0,0,1-.156.215.435.435,0,0,1-.176.078.852.852,0,0,1-.156.019h-5.023V34.074q0,.45-.215.567a.774.774,0,0,1-.333.1h-1.8a.881.881,0,0,1-.331-.1c-.144-.078-.215-.267-.215-.567V21.526h-5.025a.852.852,0,0,1-.156-.019.623.623,0,0,1-.195-.078,1.021,1.021,0,0,1-.156-.215,1.139,1.139,0,0,1-.058-.391V19.3q0-.45.215-.547a.786.786,0,0,1,.351-.117Zm17.015,0a.427.427,0,0,1,.411.215.793.793,0,0,1,.137.469c0,.117.007.3.02.547a4.789,4.789,0,0,1,.02.743,1.763,1.763,0,0,1-.156.645.43.43,0,0,1-.431.274h-7.017a2.525,2.525,0,0,0-1.153.215,1.364,1.364,0,0,0-.606.606,2.443,2.443,0,0,0-.235.919q-.039.508-.04,1.134v4.554q0,.605.04,1.153a2.442,2.442,0,0,0,.235.919,1.507,1.507,0,0,0,.606.606,2.525,2.525,0,0,0,1.153.215h7.017a.427.427,0,0,1,.411.215.792.792,0,0,1,.137.469c0,.13.007.319.02.567a4.79,4.79,0,0,1,.02.743,1.641,1.641,0,0,1-.156.645.432.432,0,0,1-.431.254h-7.115a5.822,5.822,0,0,1-2.463-.449,3.549,3.549,0,0,1-1.466-1.251A5.041,5.041,0,0,1,142.1,31.1a16.293,16.293,0,0,1-.176-2.5V24.751a15.633,15.633,0,0,1,.176-2.443,4.8,4.8,0,0,1,.7-1.935,3.488,3.488,0,0,1,1.466-1.271,5.657,5.657,0,0,1,2.481-.469Zm14.691,0a5.532,5.532,0,0,1,2.463.469,3.467,3.467,0,0,1,1.485,1.271,4.8,4.8,0,0,1,.7,1.935,15.635,15.635,0,0,1,.176,2.443v3.87a16.009,16.009,0,0,1-.176,2.463,4.944,4.944,0,0,1-.7,1.935,3.458,3.458,0,0,1-1.466,1.29,5.783,5.783,0,0,1-2.481.45h-4.77a5.666,5.666,0,0,1-2.482-.469A3.635,3.635,0,0,1,159.836,33a5.179,5.179,0,0,1-.684-1.935,16.035,16.035,0,0,1-.176-2.444v-3.87a15.645,15.645,0,0,1,.176-2.424,5,5,0,0,1,.7-1.955,3.5,3.5,0,0,1,1.466-1.271,5.529,5.529,0,0,1,2.463-.469Zm1.915,5.786q0-.606-.04-1.134a2.441,2.441,0,0,0-.235-.919,1.257,1.257,0,0,0-.586-.606,2.345,2.345,0,0,0-1.153-.235h-4.574a2.293,2.293,0,0,0-1.133.235,1.362,1.362,0,0,0-.607.606,2.441,2.441,0,0,0-.233.919c-.027.352-.04.73-.04,1.134v4.554c0,.4.012.782.04,1.134a2.442,2.442,0,0,0,.233.919,1.5,1.5,0,0,0,.607.606,2.469,2.469,0,0,0,1.133.215h4.574a2.525,2.525,0,0,0,1.153-.215,1.377,1.377,0,0,0,.586-.606,2.442,2.442,0,0,0,.235-.919q.039-.528.04-1.134Zm16.161-5.786a5.811,5.811,0,0,1,2.6.508,3.9,3.9,0,0,1,1.622,1.368,5.412,5.412,0,0,1,.8,2.072,13.367,13.367,0,0,1,.235,2.58V28.21a13.478,13.478,0,0,1-.235,2.6,5.413,5.413,0,0,1-.8,2.072,4.1,4.1,0,0,1-1.622,1.368,6.011,6.011,0,0,1-2.6.489h-6.664a1.975,1.975,0,0,1-.587-.1,2.32,2.32,0,0,1-.547-.313,2.231,2.231,0,0,1-.41-.449,1.164,1.164,0,0,1-.156-.586V19.962a1.152,1.152,0,0,1,.449-.958,1.712,1.712,0,0,1,1.095-.371Zm-.058,13.213a2.782,2.782,0,0,0,1.309-.254,1.642,1.642,0,0,0,.724-.7,2.821,2.821,0,0,0,.313-1.075A10.26,10.26,0,0,0,189,28.5V24.868a10.257,10.257,0,0,0-.078-1.31,2.657,2.657,0,0,0-.313-1.055,1.641,1.641,0,0,0-.724-.7,2.61,2.61,0,0,0-1.309-.274h-5.414v10.32Zm21.785-13.213a.777.777,0,0,1,.333.117c.144.078.215.267.215.567v1.525c0,.3-.071.489-.215.567a.778.778,0,0,1-.333.117H197.119a.891.891,0,0,1-.333-.1q-.2-.117-.195-.567V19.337q0-.469.195-.586a.782.782,0,0,1,.333-.117Zm-8.834,11.434a1.653,1.653,0,0,0,.508,1.388,2.346,2.346,0,0,0,1.427.391h6.88a.459.459,0,0,1,.429.2.8.8,0,0,1,.137.469v1.564a.8.8,0,0,1-.137.469.458.458,0,0,1-.429.2H201.4a6.124,6.124,0,0,1-2.345-.391,3.6,3.6,0,0,1-1.466-1.153,4.714,4.714,0,0,1-.782-1.778,11.738,11.738,0,0,1-.215-2.345v-2.58a1.474,1.474,0,0,1,.078-.469,1.027,1.027,0,0,1,.253-.43,1.429,1.429,0,0,1,.489-.313,2.184,2.184,0,0,1,.762-.117H208.26a.438.438,0,0,1,.41.2.793.793,0,0,1,.138.469V27.37a.886.886,0,0,1-.138.488.438.438,0,0,1-.41.2h-8.737Zm35.442-11.649a2.318,2.318,0,0,1,.9.156,1.947,1.947,0,0,1,.664.43,2.119,2.119,0,0,1,.489.625,6,6,0,0,1,.391.821L242.9,34a.925.925,0,0,1,.078.332.393.393,0,0,1-.137.313.426.426,0,0,1-.313.117h-2.091a.571.571,0,0,1-.567-.43L235.005,22.19h-.078l-2.541,6.392h2.424a.587.587,0,0,1,.566.391c.04.091.1.235.176.43s.176.372.254.567a3.9,3.9,0,0,1,.215.567,1.213,1.213,0,0,1,.1.391.6.6,0,0,1-.626.625h-4.281l-1.115,2.8a.556.556,0,0,1-.546.41H227.4q-.449,0-.449-.43a.829.829,0,0,1,.06-.332l5.453-13.545A4.23,4.23,0,0,1,233.383,19,2.1,2.1,0,0,1,234.966,18.418Zm14.278.215a.777.777,0,0,1,.333.117q.214.117.215.567V34.074q0,.45-.215.567a.78.78,0,0,1-.333.117h-1.8a.775.775,0,0,1-.333-.117c-.144-.078-.215-.267-.215-.567V19.317c0-.3.071-.489.215-.567a.771.771,0,0,1,.333-.117Z" transform="translate(0 22.374)" fill="#9eb3cf"/>
  </g>
</svg>
