<svg xmlns="http://www.w3.org/2000/svg" width="36.147" height="44.654" viewBox="0 0 36.147 44.654">
  <g id="Google-flutter-logo" transform="translate(0)">
    <path id="Path_24582" data-name="Path 24582" d="M26.9,4.015,40.737,4,17.524,27.2l-6.05,6.016L4.59,26.326Zm-.129,20.717c.18-.237.51-.12.761-.151l13.193,0L28.7,36.6,21.783,29.72Z" transform="translate(-4.59 -4)" fill="#9eb3cf"/>
    <path id="Path_24584" data-name="Path 24584" d="M65.36,162.7l6.9-6.889,6.919,6.877.029.03L72.259,169.6Z" transform="translate(-55.064 -130.09)" fill="#9eb3cf"/>
    <path id="Path_24585" data-name="Path 24585" d="M106.08,203.462l6.946-6.882,12,12.012c-4.52.01-9.039,0-13.557.007-.258.058-.417-.178-.581-.324l-4.808-4.813Z" transform="translate(-88.886 -163.953)" fill="#9eb3cf"/>
  </g>
</svg>
