<svg xmlns="http://www.w3.org/2000/svg" width="62.714" height="42.587" viewBox="0 0 62.714 42.587">
  <path id="mysql-svgrepo-com_1" data-name="mysql-svgrepo-com 1" d="M85.811,165.253c-.171-.013-.37-.021-.571-.021a7.976,7.976,0,0,0-2.871.531l.054-.019c-.261.1-.68.1-.715.437.144.138.165.366.286.558a4.044,4.044,0,0,0,.9,1.058l.006.006c.366.286.732.565,1.117.809.68.418,1.451.667,2.116,1.087.378.245.765.556,1.15.818.19.13.314.366.558.45v-.052c-.119-.157-.157-.385-.274-.558-.176-.176-.349-.332-.523-.5a8.485,8.485,0,0,0-1.792-1.746l-.025-.017c-.558-.381-1.782-.914-2.012-1.556l-.033-.038a7.092,7.092,0,0,0,1.253-.291l-.05.015c.594-.157,1.138-.123,1.75-.276.276-.071.556-.157.836-.245v-.157c-.314-.314-.548-.74-.872-1.033a23.043,23.043,0,0,0-2.792-2.1l-.094-.056c-.548-.349-1.244-.575-1.821-.872-.209-.1-.558-.157-.68-.332a6.592,6.592,0,0,1-.7-1.3l-.017-.046q-.77-1.493-1.43-3.038a17.526,17.526,0,0,0-.937-2.093l.048.1a17.756,17.756,0,0,0-6.666-6.487l-.09-.046a8.22,8.22,0,0,0-2.185-.709l-.052-.008c-.437-.021-.872-.052-1.307-.071a6.315,6.315,0,0,1-.816-.619l.006.006c-.993-.627-3.563-1.987-4.3-.188-.471,1.133.7,2.252,1.1,2.827a8.1,8.1,0,0,1,.868,1.265l.021.042c.123.3.157.615.28.931a20.664,20.664,0,0,0,.96,2.472l-.054-.13a7.83,7.83,0,0,0,.663,1.1l-.017-.025c.14.19.381.28.437.594a4.918,4.918,0,0,0-.4,1.276l0,.029a7.6,7.6,0,0,0-.358,2.325,7.711,7.711,0,0,0,.885,3.6l-.021-.042c.28.433.945,1.395,1.836,1.027.784-.314.611-1.307.836-2.181.052-.209.019-.347.125-.489v.04c.245.491.491.96.715,1.451a9.937,9.937,0,0,0,2.24,2.321l.027.019c.418.314.751.857,1.273,1.05V166.1h-.04a2.281,2.281,0,0,0-.4-.343l-.008,0a9.05,9.05,0,0,1-.9-1.023l-.017-.023a22.366,22.366,0,0,1-1.892-3.055l-.061-.128c-.286-.548-.527-1.14-.757-1.681-.1-.209-.1-.523-.28-.627a6.471,6.471,0,0,0-.82,1.15l-.017.033a9.621,9.621,0,0,0-.489,2.616v.023c-.071.019-.036,0-.071.038-.558-.136-.751-.715-.96-1.2a7.462,7.462,0,0,1-.45-2.574,7.555,7.555,0,0,1,.307-2.143l-.013.054c.123-.366.646-1.52.437-1.872-.109-.332-.454-.523-.646-.793a6.436,6.436,0,0,1-.611-1.075l-.017-.042c-.418-.977-.627-2.06-1.081-3.036a9.074,9.074,0,0,0-.887-1.359l.015.019a8.859,8.859,0,0,1-.939-1.317l-.023-.042c-.086-.19-.209-.506-.071-.715a.3.3,0,0,1,.245-.234c.23-.188.878.056,1.1.161a8.919,8.919,0,0,1,1.763.893l-.033-.021c.245.171.51.5.824.59h.366c.558.123,1.19.038,1.713.19a11.228,11.228,0,0,1,2.557,1.227l-.044-.027a15.677,15.677,0,0,1,5.408,5.889l.042.086c.209.4.3.772.491,1.19.366.862.818,1.734,1.19,2.566a11.436,11.436,0,0,0,1.269,2.382l-.025-.038c.261.366,1.311.556,1.782.747a11.818,11.818,0,0,1,1.278.525l-.077-.033c.6.366,1.186.784,1.75,1.186.286.2,1.158.636,1.211.987ZM61.295,180.545c0,.031,0,.067,0,.1a3.816,3.816,0,0,1-1.345,2.913l-.006,0a5.273,5.273,0,0,1-3.337,1.184c-.1,0-.2,0-.293-.008h.013a7.21,7.21,0,0,1-4.132-1.361l.021.015.619-1.244a6.915,6.915,0,0,0,3.1.857h.013c.056,0,.121.006.188.006A3.254,3.254,0,0,0,58,182.425l-.01.006a1.969,1.969,0,0,0,.784-1.573v-.033c0-.862-.6-1.593-1.694-2.208-1.014-.556-3.038-1.717-3.038-1.717a3.462,3.462,0,0,1-1.654-2.951c0-.044,0-.088,0-.132v.006c0-.04,0-.086,0-.132a3.577,3.577,0,0,1,1.225-2.7l0,0A4.6,4.6,0,0,1,56.6,169.9c.073,0,.144,0,.215,0h.054a6.523,6.523,0,0,1,3.618,1.087l-.025-.015-.556,1.244a6.977,6.977,0,0,0-2.775-.6h0c-.05,0-.107-.006-.165-.006a2.448,2.448,0,0,0-1.547.548l0,0a1.784,1.784,0,0,0-.648,1.37c0,.857.611,1.593,1.74,2.221,1.027.563,3.1,1.75,3.1,1.75a3.406,3.406,0,0,1,1.7,2.942c0,.038,0,.077,0,.115v-.006Zm4.333,1.11a8.743,8.743,0,0,1-.9-3.9c0-.224.008-.445.025-.663l0,.029q0-5.46,3.319-5.462c.054,0,.119-.006.186-.006a2.791,2.791,0,0,1,2.361,1.3l.006.01a8.725,8.725,0,0,1,.9,3.885c0,.217-.008.433-.023.646l0-.029q0,5.5-3.319,5.508c-.056,0-.121.006-.186.006a2.794,2.794,0,0,1-2.363-1.3l-.006-.01Zm8.6,3.245-2.656-1.307a5.859,5.859,0,0,0,.661-.646l.006-.006a8.785,8.785,0,0,0,1.717-5.238q0-.342-.025-.678l0,.029q0-7.172-5.631-7.177c-.084,0-.182-.006-.28-.006A5.338,5.338,0,0,0,64,171.7l0,.006a8.8,8.8,0,0,0-1.711,5.236q0,.332.025.659l0-.029c-.019.211-.029.458-.029.707a8.531,8.531,0,0,0,1.547,4.912l-.019-.027a5.125,5.125,0,0,0,3.745,1.623c.138,0,.274-.006.408-.017l-.019,0h.067a6.7,6.7,0,0,0,1.877-.268l-.047.013L73.3,186.53l.941-1.625Zm8.674-.353H76.031V170.1h2.313v12.674H82.9ZM50.7,173.887A32.631,32.631,0,0,1,46.716,185.7l.084-.161a5.2,5.2,0,0,1-4.115,2.8l-.021,0a4.1,4.1,0,0,1-1.5-.37l.025.01V186.7a6.425,6.425,0,0,0,.954.069H42.2c.033,0,.069,0,.107,0a2.426,2.426,0,0,0,1.585-.586l0,0a2.109,2.109,0,0,0,.772-1.579,10.538,10.538,0,0,0-.625-2.541l.025.071-2.649-8.247h2.378l1.9,6.167a8.14,8.14,0,0,1,.535,2.93v0a38.37,38.37,0,0,0,2.162-8.91l.019-.192Zm-10.5,10.66H37.78q-.1-5.774-.7-11.524h-.021L33.37,184.548H31.528l-3.659-11.524h-.025q-.429,5.753-.51,11.524H25.125q.215-7.706,1.071-14.452h3l3.488,10.621h.021L36.229,170.1h2.861q.949,7.9,1.119,14.452Zm27.791-34.476h-.017a2.911,2.911,0,0,0-.719.09l.021,0v.033h.036a6.055,6.055,0,0,0,.563.717l0,0c.14.28.261.558.4.836l.036-.04a.972.972,0,0,0,.372-.765.986.986,0,0,0-.006-.111v0c-.1-.123-.119-.245-.209-.366-.1-.176-.328-.261-.471-.4Z" transform="translate(-25.125 -145.758)" fill="#9eb3cf"/>
</svg>
