<svg xmlns="http://www.w3.org/2000/svg" width="50" height="50.552" viewBox="0 0 50 50.552">
  <g id="Group_25199" data-name="Group 25199" transform="translate(0 -1.073)">
    <path id="path1948" d="M30.294,6.4a34.436,34.436,0,0,0-5.763.492c-5.1.9-6.03,2.789-6.03,6.269v4.6h12.06v1.532H13.974A7.53,7.53,0,0,0,6.44,25.4a22.543,22.543,0,0,0,0,12.257c.857,3.57,2.9,6.114,6.41,6.114H17v-5.51a7.664,7.664,0,0,1,7.534-7.492H36.577a6.076,6.076,0,0,0,6.03-6.128V13.158c0-3.268-2.757-5.724-6.03-6.269A37.616,37.616,0,0,0,30.294,6.4Zm-6.522,3.7A2.3,2.3,0,1,1,21.509,12.4,2.288,2.288,0,0,1,23.772,10.094Z" transform="translate(-5.591 -5.324)" fill="#9eb3cf"/>
    <path id="path1950" d="M59.9,35.054V40.41a7.735,7.735,0,0,1-7.534,7.647H40.322a6.152,6.152,0,0,0-6.03,6.128V65.669c0,3.268,2.842,5.191,6.03,6.128a20.182,20.182,0,0,0,12.046,0c3.036-.879,6.03-2.648,6.03-6.128v-4.6H46.352V59.54H64.428c3.505,0,4.811-2.445,6.03-6.114,1.259-3.778,1.205-7.411,0-12.257-.866-3.489-2.521-6.114-6.03-6.114ZM53.127,64.136a2.3,2.3,0,1,1-2.263,2.291A2.276,2.276,0,0,1,53.127,64.136Z" transform="translate(-21.382 -21.091)" fill="#9eb3cf"/>
  </g>
</svg>
