<svg xmlns="http://www.w3.org/2000/svg" width="49.318" height="44.129" viewBox="0 0 49.318 44.129">
  <g id="Swift_logo" transform="translate(-5.962 -8.436)">
    <g id="Group_25196" data-name="Group 25196" transform="translate(5.962 8.436)">
      <g id="Group_25195" data-name="Group 25195">
        <path id="Path_24581" data-name="Path 24581" d="M51.168,39.481l0-.005c.072-.246.147-.49.21-.742,2.711-10.8-3.906-23.574-15.1-30.3,4.907,6.652,7.077,14.71,5.149,21.756a18.286,18.286,0,0,1-.607,1.818c-.248-.163-.56-.348-.98-.579A141.208,141.208,0,0,1,16.62,12.388a144.565,144.565,0,0,0,14.1,17.753c-3.612-2.027-13.676-9.35-20.048-15.182a28.93,28.93,0,0,0,2.737,3.773C18.733,25.48,25.673,33.806,33.986,40.2c-5.841,3.575-14.095,3.852-22.312,0A33.709,33.709,0,0,1,5.962,36.8,34.213,34.213,0,0,0,21.318,49.963c7.776,3.342,15.509,3.115,21.268.055l0,.007c.026-.017.06-.035.087-.052.236-.127.471-.257.7-.393,2.767-1.436,8.233-2.893,11.166,2.814C55.254,53.79,56.78,46.387,51.168,39.481Z" transform="translate(-5.962 -8.436)" fill="#9eb3cf"/>
      </g>
    </g>
  </g>
</svg>
