<svg xmlns="http://www.w3.org/2000/svg" width="30.993" height="20.427" viewBox="0 0 30.993 20.427">
  <g id="Typescript_logo_2020" transform="translate(0)">
    <path id="Path_24586" data-name="Path 24586" d="M135.516,252.917v4.408a9.341,9.341,0,0,0,2.542.826,16.746,16.746,0,0,0,3.094.276,14.456,14.456,0,0,0,3.011-.3,7.38,7.38,0,0,0,2.5-1,5.088,5.088,0,0,0,1.7-1.818,6.405,6.405,0,0,0,.269-4.876,4.909,4.909,0,0,0-1.033-1.6,7.567,7.567,0,0,0-1.619-1.26,17.343,17.343,0,0,0-2.129-1.054q-.868-.358-1.557-.7a7.907,7.907,0,0,1-1.171-.689,3,3,0,0,1-.744-.744,1.565,1.565,0,0,1-.262-.888,1.485,1.485,0,0,1,.234-.82,2.023,2.023,0,0,1,.661-.627,3.537,3.537,0,0,1,1.047-.406,6.075,6.075,0,0,1,1.378-.145,8.743,8.743,0,0,1,1.164.083,9.218,9.218,0,0,1,1.233.255,8.582,8.582,0,0,1,1.206.434,6.642,6.642,0,0,1,1.082.606v-4.119a10.762,10.762,0,0,0-2.2-.572,17.911,17.911,0,0,0-2.735-.186,12.714,12.714,0,0,0-2.976.337,7.571,7.571,0,0,0-2.474,1.054,5.265,5.265,0,0,0-1.688,1.825,5.351,5.351,0,0,0-.62,2.651,5.141,5.141,0,0,0,1.137,3.361,8.65,8.65,0,0,0,3.452,2.355q.909.372,1.695.73a9.43,9.43,0,0,1,1.357.744,3.559,3.559,0,0,1,.9.84,1.711,1.711,0,0,1,.331,1.033,1.58,1.58,0,0,1-.207.792,1.833,1.833,0,0,1-.627.634,3.436,3.436,0,0,1-1.047.42,6.294,6.294,0,0,1-1.468.152,8.373,8.373,0,0,1-2.839-.5,8.47,8.47,0,0,1-2.6-1.508Zm-7.41-10.86h5.654V238.44H118v3.617h5.627v16.106h4.479Z" transform="translate(-118 -238)" fill="#9eb3cf" fill-rule="evenodd"/>
  </g>
</svg>
