<svg xmlns="http://www.w3.org/2000/svg" width="48.555" height="46.195" viewBox="0 0 48.555 46.195">
  <path id="Path_10789" data-name="Path 10789" d="M12.634,24.146H6.342a.5.5,0,0,1,0-.991h6.292V19.8H8.778a.5.5,0,0,1-.5-.5v-2.4a2.232,2.232,0,0,1-.482-.168l0,0a2.257,2.257,0,1,1,3.015-1.054l0,0a2.249,2.249,0,0,1-1.289,1.149,2.061,2.061,0,0,1-.249.071v1.906h3.361V18.53a1.451,1.451,0,0,1,1.449-1.449h1.732V15a.5.5,0,0,1,.354-.475,13.406,13.406,0,0,1,5.137-.864V10.993H19.159a2.326,2.326,0,0,1-.172.514.458.458,0,0,1-.034.071,2.409,2.409,0,0,1-3.162,1.1.458.458,0,0,1-.071-.034A2.41,2.41,0,1,1,19.076,9.7a2.188,2.188,0,0,1,.083.3H21.8a.5.5,0,0,1,.5.5v3.247a12.286,12.286,0,0,1,4.615,1.584V10.168a2.362,2.362,0,0,1-.55-.188,2.41,2.41,0,0,1-1.125-3.215l0,0a2.411,2.411,0,0,1,3.213-1.127l0,0A2.41,2.41,0,0,1,29.58,8.853l0,0A2.406,2.406,0,0,1,28.2,10.083a2.188,2.188,0,0,1-.3.083v5.159a12.227,12.227,0,0,1,4.615-1.584l0-3.239a.5.5,0,0,1,.5-.5h2.642a2.362,2.362,0,0,1,.188-.55,2.411,2.411,0,1,1-.1,1.841,2.188,2.188,0,0,1-.083-.3H33.508v2.671a13.367,13.367,0,0,1,5.137.864.5.5,0,0,1,.352.475v2.011l1.768.045a1.448,1.448,0,0,1,1.41,1.447V18.8h3.361V16.895a2.061,2.061,0,0,1-.249-.071,2.247,2.247,0,0,1-1.271-1.115.3.3,0,0,1-.034-.073,2.255,2.255,0,0,1,1.034-2.958.3.3,0,0,1,.073-.034,2.256,2.256,0,0,1,1.924,4.081l0,0a2.287,2.287,0,0,1-.484.168v2.4a.5.5,0,0,1-.5.5H42.175v3.354h6.292a.5.5,0,1,1,0,.991l-6.294,0v3.324h5.052a2.061,2.061,0,0,1,.071-.249,2.249,2.249,0,0,1,1.149-1.289l0,0a2.257,2.257,0,0,1,3.011,1.052v0a2.256,2.256,0,0,1-4.065,1.958,2.294,2.294,0,0,1-.17-.484h-5.05v3.324h6.292a.5.5,0,1,1,0,.991l-6.292,0V36.12h3.856a.5.5,0,0,1,.5.5v2.4a2.287,2.287,0,0,1,.484.168l0,0a2.259,2.259,0,0,1,1.054,3.008l0,0a2.259,2.259,0,0,1-3.008,1.054l0,0A2.257,2.257,0,0,1,44,40.239l0,0a2.249,2.249,0,0,1,1.289-1.149,2.061,2.061,0,0,1,.249-.071V37.111H42.177V37.4a1.451,1.451,0,0,1-1.449,1.449h-.3v1.424a.5.5,0,0,1-.4.488l-2.83.817c-.1.308-.2.611-.326.906s-.259.587-.411.872l1.449,2.624a.494.494,0,0,1-.083.589l-2.416,2.416a.494.494,0,0,1-.615.069l-2.6-1.434q-.428.228-.872.411c-.3.123-.6.233-.906.326l-.83,2.877a.494.494,0,0,1-.473.358v0H25.7a.5.5,0,0,1-.488-.4l-.817-2.83c-.308-.1-.611-.2-.906-.326s-.587-.259-.872-.411l-2.624,1.449a.494.494,0,0,1-.589-.083l-2.416-2.416a.494.494,0,0,1-.069-.615l1.434-2.6q-.228-.428-.411-.872c-.123-.3-.231-.6-.326-.906l-2.877-.83a.492.492,0,0,1-.358-.473h0V38.855h-.3a1.451,1.451,0,0,1-1.449-1.449v-.279H9.272v1.9a2.062,2.062,0,0,1,.249.071,2.249,2.249,0,0,1,1.289,1.149l0,0a2.257,2.257,0,0,1-1.052,3.011l0,0a2.259,2.259,0,0,1-3.009-1.054v0A2.257,2.257,0,0,1,7.8,39.2a2.179,2.179,0,0,1,.484-.168v-2.4a.5.5,0,0,1,.5-.5h3.856V32.781l-6.292,0a.5.5,0,0,1,0-.991h6.292V28.462H7.584a2.186,2.186,0,0,1-.17.484A2.256,2.256,0,0,1,3.35,26.987v0A2.257,2.257,0,0,1,6.36,25.933l0,0a2.249,2.249,0,0,1,1.149,1.289,2.062,2.062,0,0,1,.071.249h5.052l0-3.326ZM18.22,10.532c0-.01,0-.02,0-.03a.153.153,0,0,1,0-.03,1.463,1.463,0,0,0-.079-.439,1.423,1.423,0,1,0-.063,1.086,1.461,1.461,0,0,0,.142-.587Zm18.367-.061c0,.01,0,.02,0,.03a.153.153,0,0,1,0,.03,1.463,1.463,0,0,0,.079.439,1.42,1.42,0,1,0,.061-1.086,1.492,1.492,0,0,0-.14.587ZM27.373,9.237l.03,0a.153.153,0,0,1,.03,0,1.463,1.463,0,0,0,.439-.079,1.417,1.417,0,0,0,.8-.7c.008-.018.016-.036.026-.055a1.421,1.421,0,0,0-.647-1.855c-.018-.008-.036-.016-.055-.026a1.421,1.421,0,0,0-1.855.647c-.008.018-.016.036-.026.055a1.423,1.423,0,0,0,1.26,2.011ZM21.787,14.69a.294.294,0,0,1-.061-.006,12.07,12.07,0,0,0-4.922.672v3.8a12.791,12.791,0,0,1,5.307-.587,12.23,12.23,0,0,1,4.8,1.608l0-3.688a11.417,11.417,0,0,0-4.9-1.78c-.075-.008-.148-.014-.221-.02Zm11.3-.006c-.02,0-.04,0-.061.006-.073.006-.148.014-.221.022a11.412,11.412,0,0,0-4.9,1.778l0,3.686a12.177,12.177,0,0,1,4.8-1.606,12.788,12.788,0,0,1,5.307.587v-3.8a12.07,12.07,0,0,0-4.922-.672ZM39.44,38.849H33.408a6.009,6.009,0,0,1-12.006,0H15.371V39.9l2.752.8a.493.493,0,0,1,.368.35,9.269,9.269,0,0,0,.366,1.062,9,9,0,0,0,.471.973.493.493,0,0,1,.022.514l-1.4,2.535,1.89,1.89,2.535-1.4v0a.493.493,0,0,1,.479,0,9.087,9.087,0,0,0,1.008.49,9.269,9.269,0,0,0,1.062.366.49.49,0,0,1,.342.34l.8,2.778h2.677l.8-2.752a.493.493,0,0,1,.35-.368,9.269,9.269,0,0,0,1.062-.366,9,9,0,0,0,.973-.471.493.493,0,0,1,.514-.022l2.535,1.4,1.89-1.89-1.4-2.535h0a.493.493,0,0,1,0-.479,9.087,9.087,0,0,0,.49-1.008,9.269,9.269,0,0,0,.366-1.062.49.49,0,0,1,.34-.342l2.778-.8-.006-1.052Zm-7.021,0H22.388a5.091,5.091,0,0,0,.338,1.552,5.026,5.026,0,0,0,9.351,0,4.956,4.956,0,0,0,.342-1.552ZM15.813,18.075H14.081a.456.456,0,0,0-.455.455V37.4a.456.456,0,0,0,.455.455H40.726a.456.456,0,0,0,.455-.455V27.954l0-4.315V18.506a.456.456,0,0,0-.443-.457L39,18V34.928a.5.5,0,0,1-.692.455,12.112,12.112,0,0,0-5.5-.751,11.474,11.474,0,0,0-5.1,1.906.5.5,0,0,1-.595,0,11.474,11.474,0,0,0-5.1-1.906,12.115,12.115,0,0,0-5.5.751.486.486,0,0,1-.2.04.5.5,0,0,1-.5-.5ZM16.8,34.236a12.791,12.791,0,0,1,5.307-.587,12.208,12.208,0,0,1,4.8,1.606v-3.34a.692.692,0,0,1,.008-.093v-.7a11.42,11.42,0,0,0-4.91-1.784,11.977,11.977,0,0,0-5.2.645Zm11.1.68v.342a12.176,12.176,0,0,1,4.8-1.606A12.788,12.788,0,0,1,38,34.238V29.987a11.976,11.976,0,0,0-5.2-.645,11.407,11.407,0,0,0-4.9,1.774v.324Zm-11.1-5.97a12.791,12.791,0,0,1,5.307-.587,12.208,12.208,0,0,1,4.805,1.61l0-3.814a11.392,11.392,0,0,0-4.908-1.782,11.98,11.98,0,0,0-5.2.645Zm11.1,1.018a12.221,12.221,0,0,1,4.793-1.6A12.788,12.788,0,0,1,38,28.945V25.018a11.976,11.976,0,0,0-5.2-.645,11.393,11.393,0,0,0-4.9,1.776ZM16.8,23.976a12.791,12.791,0,0,1,5.307-.587,12.21,12.21,0,0,1,4.8,1.61l0-3.664a11.406,11.406,0,0,0-4.906-1.78,11.98,11.98,0,0,0-5.2.645Zm11.1,1.018a12.2,12.2,0,0,1,4.795-1.6A12.788,12.788,0,0,1,38,23.976V20.2a11.976,11.976,0,0,0-5.2-.645,11.378,11.378,0,0,0-4.9,1.778ZM4.228,27.444a1.269,1.269,0,0,0,2.3,1.074,1.249,1.249,0,0,0,.125-.5.374.374,0,0,1,0-.047.343.343,0,0,1,0-.047,1.2,1.2,0,0,0-.071-.37,1.259,1.259,0,0,0-.619-.71c-.018-.008-.036-.016-.055-.026a1.268,1.268,0,0,0-1.653.577c-.008.014-.018.032-.026.051ZM7.58,40.811a1.272,1.272,0,0,0,.042.943c.01.018.018.036.026.055a1.259,1.259,0,0,0,.71.619,1.272,1.272,0,0,0,.943-.042c.018-.01.036-.018.055-.026a1.259,1.259,0,0,0,.619-.71,1.272,1.272,0,0,0-.042-.943c-.01-.018-.018-.036-.026-.055a1.259,1.259,0,0,0-.71-.619,1.222,1.222,0,0,0-.39-.071l-.028,0a.124.124,0,0,1-.028,0,1.274,1.274,0,0,0-1.169.85Zm.055-26.658A1.268,1.268,0,0,0,8.2,15.833c.018.008.036.016.055.026a1.263,1.263,0,0,0,.494.113H8.8a1.344,1.344,0,0,0,.39-.071,1.259,1.259,0,0,0,.71-.619c.008-.018.016-.036.026-.055a1.268,1.268,0,0,0-2.3-1.074ZM50.624,28.372a1.272,1.272,0,0,0-.042-.943c-.01-.018-.018-.036-.026-.055a1.259,1.259,0,0,0-.71-.619,1.272,1.272,0,0,0-.943.042c-.018.01-.036.018-.055.026a1.259,1.259,0,0,0-.619.71,1.225,1.225,0,0,0-.071.37.358.358,0,0,1,0,.047c0,.016,0,.032,0,.047a1.241,1.241,0,0,0,.125.5,1.27,1.27,0,0,0,2.341-.127ZM47.158,41.794c.008-.018.016-.036.026-.055a1.268,1.268,0,0,0-.577-1.653c-.018-.008-.036-.016-.055-.026a1.263,1.263,0,0,0-.494-.113l-.028,0a.125.125,0,0,1-.028,0,1.344,1.344,0,0,0-.39.071,1.259,1.259,0,0,0-.71.619c-.008.018-.016.036-.026.055a1.268,1.268,0,0,0,.577,1.653c.018.008.036.016.055.026a1.265,1.265,0,0,0,1.651-.577Zm.069-26.684a1.269,1.269,0,1,0-2.353.1c.01.018.018.036.026.055a1.259,1.259,0,0,0,.71.619,1.28,1.28,0,0,0,.39.071l.028,0a.153.153,0,0,1,.03,0,1.263,1.263,0,0,0,.494-.113c.018-.01.036-.018.055-.026a1.256,1.256,0,0,0,.619-.708Z" transform="translate(-3.125 -5.4)" fill="#9eb3cf" fill-rule="evenodd"/>
</svg>
