<svg xmlns="http://www.w3.org/2000/svg" width="44" height="44.004" viewBox="0 0 44 44.004">
  <path id="Path_3480" data-name="Path 3480" d="M36.453,29.2a.349.349,0,0,0-.119.263v2.864a.349.349,0,0,0,.251.335c.037.011,3.678,1.1,5.187,3.139s1.53,7.8,1.53,7.855a.349.349,0,1,0,.7,0c0-.246-.019-6.039-1.667-8.27-1.424-1.928-4.41-3.023-5.3-3.316V29.617a6.987,6.987,0,0,0,1.894-2.993,6.71,6.71,0,0,0-.318-5.09,4.944,4.944,0,0,0-2.869-2.509c-2.821-.908-5.982,1.022-7.046,4.3a6.71,6.71,0,0,0,.318,5.09,4.944,4.944,0,0,0,2.869,2.509,4.686,4.686,0,0,0,1.052.21v1.343A11.531,11.531,0,0,0,29.2,34.143l-1.838-4.806a.349.349,0,0,0-.326-.224H24.89c.264-.208.517-.42.754-.629a2.214,2.214,0,0,0-2.811-3.416l-.58.438c-.2-.758-.439-1.583-.716-2.333V19.943A2.834,2.834,0,0,0,18.85,17.12a7.3,7.3,0,0,0,.376-2.238,5.264,5.264,0,0,0-1.423-3.66C19.813,10,20.956,8.3,20.956,6.5c0-1.767-1.075-3.417-3.027-4.645A13.488,13.488,0,0,0,10.83,0a13.489,13.489,0,0,0-7.1,1.855C1.779,3.083.7,4.732.7,6.5s1.075,3.417,3.027,4.645A13.489,13.489,0,0,0,10.83,13h.075a5.525,5.525,0,0,0-.327,1.884,7.3,7.3,0,0,0,.376,2.238,2.834,2.834,0,0,0-2.687,2.823v2.932a11.375,11.375,0,0,0-1.111,3.911,8.853,8.853,0,0,0,.025,2.326H2.768a.349.349,0,0,0-.326.224L.023,35.661A.35.35,0,0,0,0,35.785v3.536a.349.349,0,0,0,.349.349H1.813v3.983a.349.349,0,0,0,.7,0V39.671H25.484a19.84,19.84,0,0,0-.62,3.971A.349.349,0,0,0,25.2,44h.013a.349.349,0,0,0,.349-.336c0-.058.246-5.795,2.882-8.07a10.648,10.648,0,0,1,5.374-2.569.349.349,0,1,0-.062-.7c-.012,0-.056.005-.124.014V30.8a.349.349,0,0,0-.346-.349,3.993,3.993,0,0,1-1.191-.192A4.251,4.251,0,0,1,29.634,28.1a6.008,6.008,0,0,1-.275-4.557c.946-2.915,3.713-4.644,6.168-3.853a4.251,4.251,0,0,1,2.461,2.162,6.008,6.008,0,0,1,.275,4.557A6.267,6.267,0,0,1,36.453,29.2ZM20.317,27.4a.349.349,0,0,0,.489.068l1.446-1.091h0l1-.755a1.515,1.515,0,0,1,1.929,2.334c-1.914,1.684-3.544,2.462-4.591,2.189-1.726-.449-1.981-4.7-1.934-6.3a.349.349,0,0,0-.7-.021,18.922,18.922,0,0,0,.21,3.159,9.092,9.092,0,0,0,.569,2.128H16.559l.89-1.171a.35.35,0,0,0,.061-.3l-1.3-5.275a1.716,1.716,0,0,0,.427-1.133V20.4a4.591,4.591,0,0,0,.643-.558A6.2,6.2,0,0,1,20,21.634a13.259,13.259,0,0,1,1.654,4.326l-1.264.954A.35.35,0,0,0,20.317,27.4ZM14.9,21a2.72,2.72,0,0,0,1.035-.211v.452a1.035,1.035,0,0,1-2.069,0v-.452A2.718,2.718,0,0,0,14.9,21Zm-.7,1.821a1.725,1.725,0,0,0,1.394,0l1.193,4.832-.8,1.05a2.323,2.323,0,0,0-2.1-1.321h-.82Zm4.5-5a2.135,2.135,0,0,1,2.137,2.128v1.693a3.856,3.856,0,0,0-.3-.437,6.68,6.68,0,0,0-2.784-1.929,7.337,7.337,0,0,0,.83-1.455Zm-.174-2.933a7.078,7.078,0,0,1-1.109,3.646A3.265,3.265,0,0,1,14.9,20.3a3.265,3.265,0,0,1-2.516-1.772,7.078,7.078,0,0,1-1.109-3.646c0-2.339,1.626-4.241,3.625-4.241S18.527,12.544,18.527,14.882ZM10.83,12.3C5.632,12.3,1.4,9.7,1.4,6.5S5.632.7,10.83.7s9.427,2.6,9.427,5.8c0,1.6-1.093,3.137-3.008,4.238a3.922,3.922,0,0,0-2.348-.8A4.242,4.242,0,0,0,11.22,12.3C11.09,12.3,10.96,12.3,10.83,12.3Zm.272,5.514h.113a7.3,7.3,0,0,0,.869,1.507,10.447,10.447,0,0,0-3.12,2.509V19.943A2.135,2.135,0,0,1,11.1,17.815ZM9.223,22.643a9.661,9.661,0,0,1,3.33-2.775,4.564,4.564,0,0,0,.616.531v.841a1.716,1.716,0,0,0,.427,1.133L12.36,27.381H10.891l.489-3.22a.349.349,0,0,0-.691-.1l-.55,3.622a.349.349,0,0,0,.345.4H13.9a1.614,1.614,0,0,1,.028,3.227c-2.8.046-4.784-.263-5.431-.849C7.2,29.28,7.83,24.6,9.223,22.643ZM.7,38.972V36.135H27.032a10.352,10.352,0,0,0-1.345,2.838Zm27.288-3.9q-.2.173-.385.368H.857L3.008,29.81H7.343a2.6,2.6,0,0,0,.683,1.164c.758.688,2.544,1.036,5.315,1.036q.291,0,.6-.005a2.327,2.327,0,0,0,2.277-2.195h2.9a2.252,2.252,0,0,0,1.306,1.014,2.411,2.411,0,0,0,.611.075,5.653,5.653,0,0,0,2.9-1.089H26.8l1.817,4.752C28.4,34.72,28.2,34.888,27.987,35.068Zm2.639,3.1a.349.349,0,0,1,.142.384c-.049.3-.32,3.29-.482,5.131a.349.349,0,0,1-.347.319h-.031a.349.349,0,0,1-.317-.378c.458-5.219.485-5.26.551-5.358A.349.349,0,0,1,30.625,38.17Zm-.673-22.73,1.235,2.679a.349.349,0,0,0,.315.2h0a.349.349,0,0,0,.315-.2l1.038-2.167c.308.02.619.031.928.031a12.051,12.051,0,0,0,6.608-1.823,5.562,5.562,0,0,0,2.813-4.55,5.562,5.562,0,0,0-2.813-4.55,12.05,12.05,0,0,0-6.608-1.823,12.05,12.05,0,0,0-6.608,1.823,5.562,5.562,0,0,0-2.813,4.55C24.366,12.146,26.553,14.42,29.953,15.44Zm3.834-11.5c4.809,0,8.722,2.546,8.722,5.675s-3.913,5.675-8.722,5.675c-.37,0-.744-.015-1.111-.046a.349.349,0,0,0-.344.2l-.82,1.712L30.52,15a.349.349,0,0,0-.221-.19c-3.18-.909-5.235-2.95-5.235-5.2C25.064,6.485,28.977,3.94,33.786,3.94Z" fill="#fff"/>
</svg>
