<svg xmlns="http://www.w3.org/2000/svg" width="44.785" height="39" viewBox="0 0 44.785 39">
  <path id="Path_10788" data-name="Path 10788" d="M11.705,13.939a1.359,1.359,0,0,1,.964.4,1.411,1.411,0,0,1,.265.373H14.7a.589.589,0,0,1,.59.59v2.134a.59.59,0,0,1-1.179,0V15.891H12.935a1.344,1.344,0,0,1-.265.373,1.364,1.364,0,1,1-.964-2.325ZM14,31.246a.59.59,0,1,1,0,1.179l-7.325,0a.589.589,0,0,1-.59-.59l0-7.311a.59.59,0,1,1,1.179,0v6.717ZM7.271,17.925V11.192h6.717a.59.59,0,1,0,0-1.179l-7.309,0a.589.589,0,0,0-.59.59v7.325a.591.591,0,0,0,1.181,0ZM33.178,11.2a.59.59,0,1,1,0-1.179H40.5a.589.589,0,0,1,.59.59v7.309a.59.59,0,0,1-1.179,0V11.2Zm-9.862,8.022h.545v-.738a.59.59,0,1,1,1.179,0v.74a.588.588,0,0,1,.543.543h.74a.59.59,0,1,1,0,1.179h-.738v.545h.738a.59.59,0,1,1,0,1.179h-.74a.588.588,0,0,1-.543.543v.74a.59.59,0,1,1-1.179,0v-.738h-.545v.738a.59.59,0,1,1-1.179,0v-.74a.59.59,0,0,1-.543-.543h-.74a.59.59,0,1,1,0-1.179h.738v-.545h-.738a.59.59,0,1,1,0-1.179h.74a.588.588,0,0,1,.543-.543l0-.74a.59.59,0,1,1,1.179,0ZM24.4,20.4H22.77v1.634H24.4Zm-.228-7.913v2a.59.59,0,0,1-1.179,0v-2a1.344,1.344,0,0,1-.373-.265,1.367,1.367,0,1,1,1.552.265ZM14.114,25.06V26.6H12.935a1.344,1.344,0,0,0-.265-.373,1.364,1.364,0,1,0,0,1.928,1.411,1.411,0,0,0,.265-.373H14.7a.589.589,0,0,0,.59-.59V25.063a.59.59,0,0,0-1.179,0Zm4.314,2.385a.59.59,0,1,1,1.179,0v2.771a.589.589,0,0,1-.59.59h-.952a1.368,1.368,0,0,1-1.229.772A1.364,1.364,0,1,1,17.8,29.25a1.411,1.411,0,0,1,.265.373h.362ZM23,30.008v-2a.59.59,0,1,1,1.179,0v2a1.344,1.344,0,0,1,.373.265,1.364,1.364,0,1,1-1.928,0A1.459,1.459,0,0,1,23,30.008Zm7.339,1.57a1.359,1.359,0,0,1-.964-.4,1.41,1.41,0,0,1-.265-.373h-.952a.589.589,0,0,1-.59-.59V27.445a.59.59,0,0,1,1.179,0v2.181h.362a1.368,1.368,0,0,1,1.229-.772,1.362,1.362,0,1,1,0,2.724ZM31.88,25.06a.59.59,0,1,1,1.179,0V26.6h1.179a1.368,1.368,0,0,1,1.229-.772A1.364,1.364,0,1,1,34.5,28.16a1.411,1.411,0,0,1-.265-.373H32.47a.589.589,0,0,1-.59-.59Zm1.181-7.622V15.893H34.24a1.344,1.344,0,0,0,.265.373,1.364,1.364,0,1,0,0-1.928,1.411,1.411,0,0,0-.265.373H32.471a.589.589,0,0,0-.59.59v2.134a.59.59,0,0,0,1.179,0Zm-4.314-2.385a.59.59,0,1,1-1.179,0V12.281a.589.589,0,0,1,.59-.59h.952a1.344,1.344,0,0,1,.265-.373,1.364,1.364,0,1,1,0,1.928,1.411,1.411,0,0,1-.265-.373h-.362Zm-9.138,0a.59.59,0,1,1-1.179,0V12.871h-.362a1.368,1.368,0,0,1-1.229.772,1.364,1.364,0,1,1,.964-2.328,1.411,1.411,0,0,1,.265.373h.952a.589.589,0,0,1,.59.59ZM33.177,32.427H40.5a.589.589,0,0,0,.59-.59l0-7.311a.59.59,0,1,0-1.179,0v6.717l-6.737,0a.591.591,0,0,0,0,1.181Zm-9.59,2.916a1.585,1.585,0,1,1-1.118.464A1.575,1.575,0,0,1,23.587,35.343Zm.283,1.3a.4.4,0,0,0-.283-.118.394.394,0,0,0-.283.118.4.4,0,0,0-.118.283.394.394,0,0,0,.118.283.4.4,0,0,0,.566-.566ZM16.6,43.483a.589.589,0,0,0-.59.59v1.833a.589.589,0,0,0,.59.59H30.575a.589.589,0,0,0,.59-.59V44.073a.589.589,0,0,0-.59-.59H28.419l-1-3.489H45.391a.589.589,0,0,0,.59-.59V8.087a.589.589,0,0,0-.59-.59L1.785,7.5a.589.589,0,0,0-.59.59V39.4a.589.589,0,0,0,.59.59H19.757l-1,3.489Zm3.384,0,1-3.489h5.207l1,3.489Zm10,1.181v.652H17.191v-.652ZM2.377,33.759H44.8l0-25.082H2.377ZM44.8,34.94H2.377v3.873H44.8Zm-10.223-13.4a.588.588,0,0,0,.007-.625,10.565,10.565,0,0,0-4.511-3.9,15.467,15.467,0,0,0-12.969,0A10.575,10.575,0,0,0,12.6,20.9a.588.588,0,0,0-.007.625A10.58,10.58,0,0,0,17.1,25.43a15.467,15.467,0,0,0,12.969,0A10.59,10.59,0,0,0,34.575,21.538Zm-5.011,2.83a9.579,9.579,0,0,0,3.816-3.149,9.567,9.567,0,0,0-3.816-3.149,14.342,14.342,0,0,0-11.954,0A9.579,9.579,0,0,0,13.8,21.219a9.554,9.554,0,0,0,3.816,3.149,14.342,14.342,0,0,0,11.954,0Z" transform="translate(-1.195 -7.496)" fill="#fff" fill-rule="evenodd"/>
</svg>
