<svg xmlns="http://www.w3.org/2000/svg" width="42.502" height="48.111" viewBox="0 0 42.502 48.111">
  <path id="Path_10791" data-name="Path 10791" d="M29.851,18.416c3.44,0,5.668.686,6.672,1.564a1.842,1.842,0,0,1,.706,1.321.419.419,0,0,1,0,.05V33.017c0,.906-.9,1.676-2.348,2.191a15.627,15.627,0,0,1-5.038.744,15.692,15.692,0,0,1-5.038-.744c-1.449-.515-2.348-1.285-2.348-2.191V21.349a.528.528,0,0,1,0-.056,1.844,1.844,0,0,1,.708-1.309c1.008-.878,3.244-1.568,6.68-1.568ZM11.715,14.579a2.143,2.143,0,1,0,1.514.628,2.127,2.127,0,0,0-1.514-.628ZM9.508,14.51A3.123,3.123,0,0,0,10.3,19.5a12.949,12.949,0,0,0,1.85,7.687,12.948,12.948,0,0,0-1.85,7.687,3.122,3.122,0,1,0,3.117,5.4A12.964,12.964,0,0,0,21,42.516a12.955,12.955,0,0,0,5.732,5.443c0,.054,0,.106,0,.16a3.121,3.121,0,1,0,6.243,0c0-.054,0-.108,0-.16a12.947,12.947,0,0,0,5.732-5.443,12.963,12.963,0,0,0,7.582-2.243,3.122,3.122,0,1,0,3.117-5.4,12.949,12.949,0,0,0-1.85-7.687,12.948,12.948,0,0,0,1.85-7.687,3.122,3.122,0,1,0-3.117-5.4,12.95,12.95,0,0,0-7.582-2.243,12.955,12.955,0,0,0-5.732-5.443c0-.054,0-.106,0-.16a3.121,3.121,0,1,0-6.243,0c0,.054,0,.108,0,.16A12.957,12.957,0,0,0,21,11.854,12.963,12.963,0,0,0,13.414,14.1a3.124,3.124,0,0,0-3.905.413Zm4.647.259a11.751,11.751,0,0,1,6.277-1.913c-.172.325-.339.66-.5,1a28.274,28.274,0,0,0-2.061,6.417,28.3,28.3,0,0,0-4.525,4.99q-.325.466-.619.934a11.759,11.759,0,0,1-1.48-6.393,3.271,3.271,0,0,0,.469.034,3.121,3.121,0,0,0,2.438-5.07Zm-2.44,20.744a2.143,2.143,0,1,1-1.514.628A2.127,2.127,0,0,1,11.715,35.513Zm-.467-.948a11.773,11.773,0,0,1,1.48-6.393q.295.469.619.934a28.306,28.306,0,0,0,4.525,4.99,28.312,28.312,0,0,0,2.061,6.417q.241.514.5,1A11.784,11.784,0,0,1,14.156,39.6a3.121,3.121,0,0,0-2.438-5.07,3.27,3.27,0,0,0-.469.034Zm18.6,11.413a2.143,2.143,0,1,1-1.514.628A2.126,2.126,0,0,1,29.845,45.978Zm-2.207-.066a3.152,3.152,0,0,0-.7,1.071,11.768,11.768,0,0,1-4.8-4.477c.367-.014.74-.036,1.117-.068a28.322,28.322,0,0,0,6.586-1.423,28.32,28.32,0,0,0,6.586,1.423c.377.032.75.056,1.117.068a11.767,11.767,0,0,1-4.8,4.477,3.146,3.146,0,0,0-.7-1.071,3.12,3.12,0,0,0-4.413,0Zm20.337-10.4a2.143,2.143,0,1,1-1.514.628A2.127,2.127,0,0,1,47.974,35.512Zm-2.207-.068a3.121,3.121,0,0,0-.231,4.156,11.751,11.751,0,0,1-6.277,1.913c.172-.325.339-.66.5-1A28.306,28.306,0,0,0,41.82,34.1a28.3,28.3,0,0,0,4.525-4.99q.325-.466.619-.934a11.759,11.759,0,0,1,1.48,6.393,3.271,3.271,0,0,0-.469-.034,3.107,3.107,0,0,0-2.207.914Zm2.207-20.866a2.143,2.143,0,1,1-1.514.628,2.127,2.127,0,0,1,1.514-.628Zm.467,5.227a11.777,11.777,0,0,1-1.48,6.393q-.295-.469-.619-.934a28.306,28.306,0,0,0-4.525-4.99,28.312,28.312,0,0,0-2.061-6.417q-.241-.514-.5-1a11.784,11.784,0,0,1,6.277,1.913,3.121,3.121,0,0,0,2.438,5.07,3.27,3.27,0,0,0,.469-.034ZM29.845,4.112a2.143,2.143,0,1,1-1.514.628A2.126,2.126,0,0,1,29.845,4.112Zm2.907,3.278a11.768,11.768,0,0,1,4.8,4.477c-.367.014-.74.036-1.117.068a28.322,28.322,0,0,0-6.586,1.423,28.32,28.32,0,0,0-6.586-1.423c-.377-.032-.75-.056-1.117-.068a11.767,11.767,0,0,1,4.8-4.477A3.123,3.123,0,0,0,32.054,8.46a3.191,3.191,0,0,0,.7-1.071Zm-1.4,6.522a36,36,0,0,1,4.816,2.328.3.3,0,0,1,.026.016,35.963,35.963,0,0,1,4.4,2.991,26.4,26.4,0,0,0-1.718-4.974c-.235-.5-.479-.978-.74-1.437q-.791.009-1.618.078a26.522,26.522,0,0,0-5.163,1ZM46.419,27.185c-.269.453-.561.908-.876,1.361A26.642,26.642,0,0,1,42.1,32.52a36.414,36.414,0,0,0,0-10.67,26.407,26.407,0,0,1,3.446,3.974c.315.453.607.908.876,1.361Zm-5.5-6.4A34.58,34.58,0,0,0,35.7,17.1l-.026-.014a34.438,34.438,0,0,0-5.83-2.688,34.508,34.508,0,0,0-5.83,2.688v0l0,0a34.548,34.548,0,0,0-5.243,3.7,35.132,35.132,0,0,0,0,12.795,34.581,34.581,0,0,0,5.219,3.689l.026.014a34.438,34.438,0,0,0,5.83,2.688,34.665,34.665,0,0,0,5.83-2.688h0a34.548,34.548,0,0,0,5.243-3.7,34.483,34.483,0,0,0,.585-6.4,34.321,34.321,0,0,0-.581-6.4ZM28.339,13.911a26.6,26.6,0,0,0-5.164-1c-.549-.048-1.091-.074-1.618-.078q-.388.689-.74,1.437A26.54,26.54,0,0,0,19.1,19.246a36.4,36.4,0,0,1,9.24-5.335Zm0,26.548a35.995,35.995,0,0,1-4.816-2.328.3.3,0,0,1-.026-.016,35.963,35.963,0,0,1-4.4-2.991A26.4,26.4,0,0,0,20.819,40.1c.235.5.479.98.74,1.437q.791-.009,1.618-.078a26.523,26.523,0,0,0,5.163-1ZM13.271,27.185c.269-.453.561-.908.876-1.361a26.642,26.642,0,0,1,3.446-3.974,36.414,36.414,0,0,0,0,10.67,26.407,26.407,0,0,1-3.446-3.974c-.315-.453-.607-.908-.876-1.361Zm18.08,13.274a26.6,26.6,0,0,0,5.164,1c.549.048,1.091.074,1.618.078q.388-.689.74-1.437a26.54,26.54,0,0,0,1.718-4.974,35.992,35.992,0,0,1-4.423,3.007v0a35.876,35.876,0,0,1-4.818,2.326Zm1.1-7.618q-.574.075-1.245.118Q30.583,33,29.845,33c-.493,0-.946-.014-1.363-.038-.447-.026-.862-.066-1.243-.116a.489.489,0,0,0-.128.97q.622.081,1.313.124c.459.028.934.042,1.421.042s.962-.014,1.421-.042.9-.07,1.313-.124a.49.49,0,0,0-.126-.972Zm0-3.823c-.383.05-.8.09-1.245.118q-.626.039-1.363.038c-.493,0-.948-.014-1.365-.038-.447-.026-.862-.066-1.243-.116a.489.489,0,1,0-.128.97q.622.081,1.313.124c.459.028.934.042,1.421.042s.962-.014,1.421-.042.9-.07,1.313-.124a.49.49,0,0,0-.124-.972Zm0-3.857c-.383.05-.8.09-1.245.118q-.626.039-1.363.038c-.493,0-.946-.014-1.363-.038-.447-.026-.862-.066-1.245-.116a.489.489,0,1,0-.128.97q.622.081,1.313.124t1.421.042c.487,0,.962-.014,1.421-.042s.9-.07,1.313-.124a.49.49,0,0,0-.124-.972Zm3.793,5.489a5.814,5.814,0,0,1-1.365.67,15.627,15.627,0,0,1-5.038.744,15.692,15.692,0,0,1-5.038-.744,5.815,5.815,0,0,1-1.365-.67v2.368c0,.445.646.9,1.69,1.267a14.656,14.656,0,0,0,4.711.688,14.657,14.657,0,0,0,4.711-.688c1.045-.371,1.69-.822,1.69-1.267Zm0-3.887a5.815,5.815,0,0,1-1.365.67,15.627,15.627,0,0,1-5.038.744,15.692,15.692,0,0,1-5.038-.744,5.814,5.814,0,0,1-1.365-.67V29.13c0,.445.646.9,1.69,1.267a14.656,14.656,0,0,0,4.711.688,14.657,14.657,0,0,0,4.711-.688c1.045-.371,1.69-.822,1.69-1.267Zm0-3.833c-1.109.778-3.25,1.359-6.4,1.359s-5.3-.577-6.407-1.353V25.24c0,.445.646.9,1.69,1.267a14.656,14.656,0,0,0,4.711.688,14.657,14.657,0,0,0,4.711-.688c1.045-.371,1.69-.822,1.69-1.267Zm0-1.578a.172.172,0,0,1,0-.032.937.937,0,0,0-.371-.6c-.846-.74-2.843-1.319-6.026-1.319s-5.185.581-6.035,1.325a.937.937,0,0,0-.373.6c0,.01,0,.018,0,.028V21.4a.95.95,0,0,0,.371.589c.848.742,2.849,1.319,6.037,1.319s5.176-.581,6.024-1.325a.958.958,0,0,0,.373-.591Z" transform="translate(-8.594 -3.129)" fill="#9eb3cf" fill-rule="evenodd"/>
</svg>
