<svg id="Group_2322" data-name="Group 2322" xmlns="http://www.w3.org/2000/svg" width="49.17" height="49.145" viewBox="0 0 49.17 49.145">
  <path id="Path_4881" data-name="Path 4881" d="M984.783,2135.889c-2.956.275-2.809-1.654-2.817-3.528-.015-4.9-.026-4.9,4.86-4.9h8.268c.227-.341.385-.469.4-.609.392-4.772.389-4.772,5.219-4.772,5.469,0,5.469,0,6.312,5.385,3.433,0,6.914.087,10.391-.033,2.244-.076,3.14.836,2.938,3.015a16.568,16.568,0,0,0,0,2.044c.055,1.922.018,3.763-2.814,3.4,0,3.867-.084,7.438.033,11.008.062,1.925-.73,2.574-2.545,2.571q-13.931-.055-27.865-.007c-1.691,0-2.45-.642-2.4-2.443C984.853,2143.446,984.783,2139.869,984.783,2135.889Zm2.964,10.677h26.824v-10.582h-4.515l-1.992,2.447-2.3-2.479h-9.048l-2.465,2.479-1.966-2.447h-4.541Zm-2.886-13.838h32.666l-.117-2.312H984.86Zm18.761-7.575h-5.282c.774,3.888,3.492,1.575,5.282,2.523Z" transform="translate(-976.544 -2122.084)" fill="#9eb3cf"/>
  <path id="Path_4882" data-name="Path 4882" d="M1016.3,2137.962c2.234-2.472,3.983-4.563,5.9-6.481,2.058-2.058,4.581-2.077,6.3-.249,1.654,1.753,1.548,4.1-.411,6.129-3.848,3.976-7.71,7.945-11.675,11.807a4.625,4.625,0,0,1-2.887,1.145c-5.7.105-11.407.061-17.115.036a3.706,3.706,0,0,1-1.962-.349c-3.356-2.34-7.134-2.5-10.989-2.23-2.19.157-3.092-.631-2.963-2.912.161-2.8.1-5.619.015-8.429-.047-1.68.418-2.622,2.289-2.443,4.842.473,9.35-.8,13.942-2.212,2.182-.667,4.838.048,7.251.348,2.439.3,4.831,1.006,7.27,1.284C1013.638,2133.674,1015.267,2134.687,1016.3,2137.962Zm-32.827,6.829c1.812,0,3.5-.07,5.179.029a6.2,6.2,0,0,1,2.923.642c3.019,1.962,6.3,2.274,9.771,2.126s6.995.107,10.479-.1a6.486,6.486,0,0,0,3.745-1.545c3-2.773,5.861-5.714,8.609-8.744,1-1.1,3.723-2.164,1.988-3.907-1.537-1.54-2.905.9-3.7,1.992-4.427,6.074-10.321,8.121-17.525,6.848a9.086,9.086,0,0,1-2.495-1.371,8.144,8.144,0,0,1,2.6-1.325c2.109-.2,4.266.026,6.378-.164.635-.056,1.2-.917,1.786-1.412-.513-.477-.957-1.185-1.563-1.383a19.922,19.922,0,0,0-3.991-.821c-4.551-.5-8.99-2.348-13.729-.217-2.3,1.034-5.106.966-7.688,1.343-.891.132-1.8.1-2.769.147Z" transform="translate(-980.487 -2101.235)" fill="#9eb3cf"/>
</svg>
