<svg id="Group_2317" data-name="Group 2317" xmlns="http://www.w3.org/2000/svg" width="51.621" height="56.049" viewBox="0 0 51.621 56.049">
  <path id="Path_7232" data-name="Path 7232" d="M-467.544,217.851a14.63,14.63,0,0,1,2.25,19.1,3.541,3.541,0,0,1,.626.413q4.152,4.122,8.285,8.263a2.732,2.732,0,0,1-.1,4.167,2.7,2.7,0,0,1-3.395.015,6.75,6.75,0,0,1-.581-.536q-4.083-4.072-8.161-8.149a4.971,4.971,0,0,1-.377-.477,14.338,14.338,0,0,1-13.363,1.558,14.262,14.262,0,0,1-8.915-9.9h-2.792c-1.008,0-1.249-.247-1.25-1.273,0-.7-.01-1.393,0-2.09.006-.288-.083-.4-.378-.505-.937-.329-1.861-.7-2.769-1.105a.5.5,0,0,0-.674.128c-.573.6-1.164,1.181-1.757,1.76a.932.932,0,0,1-1.52.009q-1.27-1.248-2.52-2.517a.912.912,0,0,1,.007-1.475c.579-.593,1.158-1.188,1.764-1.753.272-.254.254-.444.107-.769-.394-.87-.751-1.759-1.06-2.662-.108-.316-.226-.42-.54-.407-.471.021-.943.01-1.414,0-.687-.009-1.015-.321-1.02-.99q-.012-1.722,0-3.445a.875.875,0,0,1,.969-.982c.509-.01,1.021.026,1.526-.019a.653.653,0,0,0,.441-.346q.6-1.393,1.127-2.817a.653.653,0,0,0-.08-.56c-.575-.622-1.192-1.2-1.787-1.809a.942.942,0,0,1,0-1.559q1.213-1.226,2.44-2.436c.576-.569,1.012-.562,1.6.018s1.158,1.134,1.716,1.721a.5.5,0,0,0,.675.121c.908-.4,1.832-.776,2.77-1.1.3-.1.376-.227.372-.51-.013-.791-.011-1.581,0-2.372a.873.873,0,0,1,.969-.982q1.754-.014,3.508,0a.862.862,0,0,1,.948.946q.018,1.186,0,2.372a.472.472,0,0,0,.392.552c.939.322,1.86.7,2.768,1.105a.463.463,0,0,0,.629-.105c.575-.6,1.167-1.178,1.758-1.759.567-.558,1.01-.57,1.561-.028q1.25,1.228,2.481,2.476a.93.93,0,0,1,.011,1.518c-.592.607-1.19,1.209-1.8,1.8a.462.462,0,0,0-.106.628c.4.907.785,1.827,1.107,2.764a.469.469,0,0,0,.553.39c.471-.017.943,0,1.414-.005a17.555,17.555,0,0,1,6.531.759,11.419,11.419,0,0,0-.3-1.956c-.664-1.934-1.358-3.861-2.118-5.759a5.335,5.335,0,0,1,.7-5.129,5.254,5.254,0,0,1,4.034-2.3,7.1,7.1,0,0,1,5.29,1.08,5.763,5.763,0,0,1,2.235,5.215,5.054,5.054,0,0,1-.467,1.439c-.629,1.708-1.29,3.405-1.888,5.124a6.734,6.734,0,0,0-.319,1.745c-.053.787-.008,1.581-.015,2.371-.006.705-.327,1.015-1.045,1.024C-466.8,217.854-467.124,217.851-467.544,217.851ZM-493.409,203.4c-.029.03-.076.057-.077.084q-.014,1.129-.019,2.258c0,.934-.157,1.145-1.085,1.329a10.593,10.593,0,0,0-3.591,1.438c-.739.462-1.016.432-1.629-.181s-1.211-1.22-1.735-1.748l-1.521,1.371c.668.653,1.311,1.286,1.96,1.914a.942.942,0,0,1,.177,1.317,10.971,10.971,0,0,0-1.627,4.051.914.914,0,0,1-1.04.81c-.542-.013-1.084,0-1.645,0v1.809c.558,0,1.083,0,1.608,0,.685,0,.945.2,1.087.881a11.132,11.132,0,0,0,1.417,3.657c.576.924.552,1.106-.232,1.889l-1.6,1.6,1.408,1.446c.6-.609,1.242-1.248,1.875-1.894a.946.946,0,0,1,1.32-.157,11.31,11.31,0,0,0,4,1.614c.643.131.844.4.847,1.056,0,.841,0,1.681,0,2.524h1.908a14.546,14.546,0,0,1,1.047-7.438c-3.045.308-4,.19-5.414-.708a6.265,6.265,0,0,1-2.94-4.54,6.367,6.367,0,0,1,4.932-7.03,6.2,6.2,0,0,1,4.721.814,6.308,6.308,0,0,1,3.016,5.694l3.569-2.08a10.372,10.372,0,0,0-1.474-3.789c-.479-.763-.45-1.027.2-1.667.6-.589,1.216-1.166,1.778-1.7l-1.475-1.483c-.6.617-1.224,1.269-1.862,1.9a.918.918,0,0,1-1.359.167,11.367,11.367,0,0,0-3.9-1.577c-.755-.155-.934-.4-.936-1.156,0-.82,0-1.64,0-2.471Zm16.2,37.941a12.715,12.715,0,0,0,12.672-12.523,12.724,12.724,0,0,0-12.653-12.778,12.728,12.728,0,0,0-12.7,12.56A12.7,12.7,0,0,0-477.2,241.345Zm8.143-28.915c.527,0,1.057-.03,1.582.01.394.03.557-.123.686-.478.656-1.8,1.282-3.606,2.032-5.363a3.991,3.991,0,0,0-1.624-4.4,5.887,5.887,0,0,0-5.329.007,3.786,3.786,0,0,0-1.752,4.007c.719,1.953,1.468,3.895,2.186,5.848a.5.5,0,0,0,.58.379C-470.156,212.412-469.609,212.429-469.062,212.429Zm-23.521,0a4.574,4.574,0,0,0-4.542,4.53,4.571,4.571,0,0,0,4.507,4.507,4.577,4.577,0,0,0,4.543-4.531A4.569,4.569,0,0,0-492.583,212.429Zm25.018,27.131c.078.087.148.172.227.25q4.173,4.168,8.349,8.333a1.941,1.941,0,0,0,.342.292.859.859,0,0,0,1.33-.666,1.506,1.506,0,0,0-.45-.91q-4.131-4.17-8.3-8.3a3.3,3.3,0,0,0-.276-.226Zm-3.3-25.3c0,.327,0,.606,0,.885,0,.554.247.868.816.89.916.035,1.834.009,2.774.009v-1.784Z" transform="translate(507.089 -194.354)" fill="#9eb3cf"/>
  <path id="Path_7233" data-name="Path 7233" d="M-294.264,173.078c-.325.326-.529.658-.824.795a.775.775,0,0,1-1.027-.346,22.174,22.174,0,0,1-1.007-2.007.747.747,0,0,1,.329-1.024c.3-.129.9-.172,1.013-.008C-295.229,171.27-294.8,172.136-294.264,173.078Z" transform="translate(328.869 -169.406)" fill="#9eb3cf"/>
  <path id="Path_7234" data-name="Path 7234" d="M-228.337,170.649a2.488,2.488,0,0,1-.121.425c-.294.607-.584,1.218-.908,1.809a.883.883,0,0,1-1.2.416.877.877,0,0,1-.44-1.185c.291-.649.615-1.285.954-1.911a.8.8,0,0,1,1.06-.391c.3.132.5.47.743.716Z" transform="translate(272.732 -168.857)" fill="#9eb3cf"/>
  <path id="Path_7235" data-name="Path 7235" d="M-320.261,193.189a2.6,2.6,0,0,1,.424.125c.607.294,1.218.583,1.81.906a.88.88,0,0,1,.41,1.2.881.881,0,0,1-1.188.435c-.65-.291-1.287-.612-1.912-.953a.789.789,0,0,1-.387-1.058c.137-.294.473-.5.72-.739Z" transform="translate(349.231 -188.697)" fill="#9eb3cf"/>
  <path id="Path_7236" data-name="Path 7236" d="M-209.49,194.927a2.046,2.046,0,0,1-.5.6,16.9,16.9,0,0,1-1.806.915.889.889,0,0,1-1.239-.417.879.879,0,0,1,.416-1.195c.61-.331,1.228-.653,1.864-.926S-209.5,194.052-209.49,194.927Z" transform="translate(257.481 -189.306)" fill="#9eb3cf"/>
  <path id="Path_7237" data-name="Path 7237" d="M-261.038,165.693c0-.3-.012-.6,0-.9a.87.87,0,0,1,.9-.875.864.864,0,0,1,.9.879q.028.928,0,1.857a.866.866,0,0,1-.9.876.872.872,0,0,1-.9-.879C-261.051,166.331-261.038,166.012-261.038,165.693Z" transform="translate(298.165 -163.917)" fill="#9eb3cf"/>
  <path id="Path_7238" data-name="Path 7238" d="M-370.18,341.356a10.831,10.831,0,0,1-10.86-10.877,10.84,10.84,0,0,1,10.754-10.813,10.837,10.837,0,0,1,10.975,10.762A10.827,10.827,0,0,1-370.18,341.356Zm-.041-19.882a9.089,9.089,0,0,0-9,9.109,9.09,9.09,0,0,0,9.151,8.963,9.1,9.1,0,0,0,8.95-9.163A9.106,9.106,0,0,0-370.221,321.473Z" transform="translate(400.058 -296.167)" fill="#9eb3cf"/>
  <path id="Path_7239" data-name="Path 7239" d="M-357.957,386.552a3.2,3.2,0,0,1,.568-1c.58-.468,1.336.01,1.384.829a5.452,5.452,0,0,0,2.3,4.322,5.6,5.6,0,0,0,3,1.014c.694.045,1.043.36,1.031.931s-.4.878-1.074.882a7.253,7.253,0,0,1-7.071-6.9Z" transform="translate(380.457 -351.957)" fill="#9eb3cf"/>
</svg>
