<svg xmlns="http://www.w3.org/2000/svg" width="57.453" height="57.451" viewBox="0 0 57.453 57.451">
  <g id="Group_616" data-name="Group 616" transform="translate(-2.78 -2.781)">
    <path id="Path_3501" data-name="Path 3501" d="M37.42,2.781A22.8,22.8,0,0,0,18.026,37.6c-2.666,2.709-3.3,3.358-6.012,6.107a.845.845,0,1,0,1.2,1.186l1.7-1.73L19.7,47.941l-9.466,9.618a3.381,3.381,0,1,1-4.777-4.786L8.487,49.7a.845.845,0,0,0-1.2-1.186l-3.02,3.068a5.07,5.07,0,1,0,7.174,7.165l13.709-13.93A22.81,22.81,0,1,0,37.42,2.782ZM20.889,46.735l-4.781-4.781,2.883-2.93a22.972,22.972,0,0,0,4.748,4.815Zm16.53-.017A21.124,21.124,0,1,1,58.544,25.595,21.149,21.149,0,0,1,37.42,46.719Z" fill="#9eb3cf"/>
    <path id="Path_3502" data-name="Path 3502" d="M48.3,11.113A17.745,17.745,0,1,0,63.408,38.159a.845.845,0,1,0-1.438-.886,16.056,16.056,0,1,1,2.191-5.949.845.845,0,0,0,1.671.259A17.764,17.764,0,0,0,48.3,11.113Z" transform="translate(-10.876 -3.263)" fill="#9eb3cf"/>
    <path id="Path_3503" data-name="Path 3503" d="M86.408,49.46a.845.845,0,1,1-1.69,0,.845.845,0,1,1,1.69,0" transform="translate(-32.09 -17.95)" fill="#9eb3cf"/>
    <path id="Path_3504" data-name="Path 3504" d="M15.576,74.644a.845.845,0,1,1-1.69,0,.845.845,0,1,1,1.69,0" transform="translate(-4.35 -27.813)" fill="#9eb3cf"/>
    <path id="Path_3505" data-name="Path 3505" d="M60.845,32.118a.846.846,0,0,0,.846-.846v-1.69h1.69a.846.846,0,1,0,0-1.692H60.845a.846.846,0,0,0-.846.846v1.69H57.463V27.047a.846.846,0,0,0-.846-.846H54.082V23.665h1.69a.846.846,0,0,0,.846-.846V20.283a.846.846,0,1,0-1.692,0v1.69h-1.69a.846.846,0,0,0-.846.846V26.2H50.7V22.819a.846.846,0,1,0-1.692,0V26.2H46.472a.846.846,0,0,0-.846.846V29.58H43.091V27.89a.846.846,0,0,0-.846-.846H39.709a.846.846,0,1,0,0,1.692H41.4v1.69a.846.846,0,0,0,.846.846h3.379v1.69H42.245a.846.846,0,1,0,0,1.692h3.379v2.536a.846.846,0,0,0,.846.846h2.536v3.379a.846.846,0,1,0,1.692,0V38.035h1.69v3.379a.846.846,0,0,0,.846.846h1.69v1.69a.846.846,0,0,0,1.692,0V41.414a.846.846,0,0,0-.846-.846h-1.69V38.033h2.536a.846.846,0,0,0,.846-.846V35.5H60.84a.846.846,0,0,0,0-1.692H57.461v-1.69Zm-5.069,4.225H47.325V27.892h8.451Z" transform="translate(-14.131 -6.523)" fill="#9eb3cf"/>
  </g>
</svg>
