<svg xmlns="http://www.w3.org/2000/svg" width="40.179" height="55.984" viewBox="0 0 40.179 55.984">
  <g id="Group_614" data-name="Group 614" transform="translate(-1.27)">
    <path id="Path_3499" data-name="Path 3499" d="M21.361,0a20.012,20.012,0,0,0-13.7,34.674,1.652,1.652,0,1,0,2.251-2.418c-.344-.319-.674-.65-.987-.994a13.4,13.4,0,0,1,24.86.006c-.311.34-.637.671-.978.987a1.647,1.647,0,1,0,2.238,2.418A20.005,20.005,0,0,0,21.361,0Zm0,3.3A16.714,16.714,0,0,1,36,28.223a16.638,16.638,0,0,0-8.952-7.666A8.148,8.148,0,0,0,21.361,6.541a8.209,8.209,0,0,0-8.19,8.168,8.108,8.108,0,0,0,2.5,5.849,16.641,16.641,0,0,0-8.949,7.666A16.714,16.714,0,0,1,21.361,3.3Zm0,6.537a4.867,4.867,0,1,1-4.9,4.875A4.855,4.855,0,0,1,21.361,9.833ZM21.6,28.484a1.65,1.65,0,0,0-1.482.913l-3.589,7.164L8.572,37.69a1.642,1.642,0,0,0-.926,2.794L13.383,46.1l-1.392,7.894a1.648,1.648,0,0,0,2.383,1.733l7.135-3.7,7.1,3.762a1.648,1.648,0,0,0,2.4-1.727l-1.334-7.9L35.449,40.6a1.642,1.642,0,0,0-.894-2.81L26.6,36.6l-3.531-7.2a1.65,1.65,0,0,0-1.473-.923Zm-.019,5.348,2.444,4.991a1.649,1.649,0,0,0,1.238.9l5.5.817-4,3.852a1.64,1.64,0,0,0-.476,1.46l.92,5.467-4.913-2.6a1.654,1.654,0,0,0-1.537-.01l-4.933,2.56.958-5.454a1.64,1.64,0,0,0-.469-1.453l-3.975-3.891,5.515-.775a1.649,1.649,0,0,0,1.251-.9Z" transform="translate(0)" fill="#9eb3cf"/>
  </g>
</svg>
