<svg xmlns="http://www.w3.org/2000/svg" width="55.967" height="61.941" viewBox="0 0 55.967 61.941">
  <g id="Group_615" data-name="Group 615" transform="translate(5258.044 -10173)">
    <path id="Path_3500" data-name="Path 3500" d="M56.979,67.05c0-7.85-8.5-8.88-8.5-22.439A19.085,19.085,0,0,1,67.567,25.527a1.041,1.041,0,0,1,0,2.082,17,17,0,0,0-17,17c0,12.379,7.82,13.416,8.456,21.4H77.114a1.041,1.041,0,0,1,1.041,1.041v4.4A4.459,4.459,0,0,1,73.706,75.9H72.513v1.611a2.439,2.439,0,0,1-2.435,2.435H65.056a2.439,2.439,0,0,1-2.435-2.435V75.9H61.428a4.459,4.459,0,0,1-4.449-4.449v-4.4Zm12.5-16.31a8.025,8.025,0,0,1,4.453-4.959,4.283,4.283,0,1,1,6.372,0,8.026,8.026,0,0,1,4.453,4.959,9.357,9.357,0,1,0-15.278,0ZM83.017,52.6a5.927,5.927,0,0,0-11.806,0,9.36,9.36,0,0,0,11.806,0ZM78.671,41.362a2.2,2.2,0,1,0,0,3.113,2.2,2.2,0,0,0,0-3.113ZM77.114,45.12ZM95.6,49.639h0a1.041,1.041,0,0,0,1.025-.861,19.937,19.937,0,0,0,.007-6.84,1.041,1.041,0,0,0-1.032-.9H93.012a16.476,16.476,0,0,0-1.617-3.893l1.831-1.831,0,0a1.037,1.037,0,0,0,.117-1.327,19.723,19.723,0,0,0-4.815-4.833,1.041,1.041,0,0,0-1.385.078l-1.829,1.83a16.712,16.712,0,0,0-3.895-1.612V26.851h0a1.041,1.041,0,0,0-.861-1.025,19.914,19.914,0,0,0-6.84-.007,1.041,1.041,0,0,0-.9,1.032v2.588a16.489,16.489,0,0,0-3.893,1.617l-1.831-1.831,0,0a1.037,1.037,0,0,0-1.327-.117,19.721,19.721,0,0,0-4.833,4.814A1.041,1.041,0,0,0,61,35.309l1.829,1.829a16.714,16.714,0,0,0-1.612,3.895H58.629a1.041,1.041,0,0,0-1.025.861q-.15.857-.224,1.712a19.753,19.753,0,0,0,.217,5.127,1.041,1.041,0,0,0,1.032.9H61.22a16.7,16.7,0,0,0,1.612,3.895L61,55.361h0a1.039,1.039,0,0,0-.115,1.333A19.71,19.71,0,0,0,65.677,61.5a1.041,1.041,0,0,0,1.41-.058l1.831-1.831a16.484,16.484,0,0,0,3.893,1.617v2.587h0a1.041,1.041,0,0,0,.861,1.025,19.918,19.918,0,0,0,6.84.007,1.041,1.041,0,0,0,.9-1.032V61.23a16.7,16.7,0,0,0,3.895-1.612l1.829,1.829h0a1.039,1.039,0,0,0,1.333.115,19.71,19.71,0,0,0,4.809-4.789,1.041,1.041,0,0,0-.058-1.41l-1.831-1.831a16.481,16.481,0,0,0,1.617-3.893Zm-3.4-2.082H94.7a17.988,17.988,0,0,0,0-4.441H92.2a1.041,1.041,0,0,1-1.017-.821,14.314,14.314,0,0,0-.768-2.457,14.536,14.536,0,0,0-1.168-2.24,1.041,1.041,0,0,1,.1-1.352l1.777-1.777a18.152,18.152,0,0,0-3.142-3.139L86.208,33.1h0a1.039,1.039,0,0,1-1.3.139A14.325,14.325,0,0,0,80.2,31.284a1.041,1.041,0,0,1-.865-1.026V27.747a17.98,17.98,0,0,0-4.441,0v2.508h0a1.041,1.041,0,0,1-.821,1.017,14.309,14.309,0,0,0-2.457.768,14.555,14.555,0,0,0-2.24,1.168,1.041,1.041,0,0,1-1.352-.1l-1.777-1.777a18.16,18.16,0,0,0-3.139,3.142l1.773,1.773h0a1.039,1.039,0,0,1,.14,1.3,14.326,14.326,0,0,0-1.956,4.711,1.041,1.041,0,0,1-1.026.865H59.525a17.95,17.95,0,0,0,0,4.441h2.511a1.041,1.041,0,0,1,1.017.821,14.324,14.324,0,0,0,1.931,4.7,1.041,1.041,0,0,1-.1,1.352L63.107,56.2a18.155,18.155,0,0,0,3.138,3.142l1.777-1.777h0a1.04,1.04,0,0,1,1.3-.14,14.5,14.5,0,0,0,4.709,1.961,1.041,1.041,0,0,1,.865,1.026v2.508a17.974,17.974,0,0,0,4.441,0V60.413h0a1.041,1.041,0,0,1,.821-1.017,14.326,14.326,0,0,0,4.7-1.93,1.041,1.041,0,0,1,1.352.1l1.773,1.773A18.152,18.152,0,0,0,91.123,56.2l-1.777-1.776h0a1.039,1.039,0,0,1-.14-1.3,14.486,14.486,0,0,0,1.961-4.709,1.041,1.041,0,0,1,1.026-.865ZM77.114,33.9A11.438,11.438,0,1,0,88.552,45.336,11.438,11.438,0,0,0,77.114,33.9ZM50.784,63.99l2.249-2.249a1.041,1.041,0,1,0-1.472-1.472l-2.249,2.248a1.041,1.041,0,1,0,1.472,1.472ZM42,46.446a1.041,1.041,0,0,1,0-2.082h3.181a1.041,1.041,0,1,1,0,2.082Zm6.192-18.618,2.249,2.249A1.041,1.041,0,1,0,51.91,28.6l-2.249-2.249a1.041,1.041,0,1,0-1.472,1.472Zm17.543-8.787a1.041,1.041,0,0,1,2.082,0v3.18a1.041,1.041,0,0,1-2.082,0Zm4.7,56.854H64.7v1.611a.357.357,0,0,0,.353.353h5.022a.357.357,0,0,0,.353-.353Zm5.642-4.449V68.091H59.061v3.355a2.377,2.377,0,0,0,2.367,2.367H73.706A2.377,2.377,0,0,0,76.073,71.446Z" transform="translate(-5299 10155)" fill="#9eb3cf" fill-rule="evenodd"/>
  </g>
</svg>
