<svg xmlns="http://www.w3.org/2000/svg" width="38.43" height="38.723" viewBox="0 0 38.43 38.723">
  <g id="Healthcare" transform="translate(21290.58 2147.08)">
    <path id="Path_10792" data-name="Path 10792" d="M20.86,4.538A2.038,2.038,0,0,0,18.822,2.5H15.561a2.038,2.038,0,0,0-2.038,2.038V9.022H9.038A2.038,2.038,0,0,0,7,11.06V14.32a2.038,2.038,0,0,0,2.038,2.038h4.484v4.484a2.038,2.038,0,0,0,2.038,2.038h3.261a2.038,2.038,0,0,0,2.038-2.038V16.358h4.484a2.038,2.038,0,0,0,2.038-2.038V11.06a2.038,2.038,0,0,0-2.038-2.038H20.86Zm-2.038,16.3H15.561V14.32H9.038V11.06h6.522V4.538h3.261V11.06h6.522V14.32H18.822Z" transform="translate(-21288.555 -2149.58)" fill="#fff" fill-rule="evenodd"/>
    <path id="Path_10793" data-name="Path 10793" d="M5.772,9.538a1.16,1.16,0,0,0-1.157,1.237L5.3,21.084a7.133,7.133,0,0,0,1.727,4.2l3.326,3.837A5.1,5.1,0,0,1,11.6,32.458v2.555a1.019,1.019,0,0,1-2.038,0V32.458a3.057,3.057,0,0,0-.747-2L5.485,26.618a9.17,9.17,0,0,1-2.221-5.4L2.58,10.91A3.2,3.2,0,0,1,8.894,10l1.464,6.586a3.049,3.049,0,0,1,2.442.95l4.539,4.806a5.1,5.1,0,0,1,1.391,3.5v9.169a1.019,1.019,0,0,1-2.038,0V25.844a3.057,3.057,0,0,0-.835-2.1L11.318,18.94a1.019,1.019,0,0,0-1.482,0l-.254.269a1.019,1.019,0,0,0,0,1.4l3.774,4A1.019,1.019,0,0,1,11.874,26l-3.774-4a3.057,3.057,0,0,1,0-4.2l.254-.269q.051-.054.1-.1L6.9,10.446A1.16,1.16,0,0,0,5.772,9.538Z" transform="translate(-21293.152 -2144.39)" fill="#fff"/>
    <path id="Path_10794" data-name="Path 10794" d="M26.458,9.538a1.16,1.16,0,0,1,1.157,1.237l-.684,10.309a7.132,7.132,0,0,1-1.727,4.2l-3.326,3.837a5.1,5.1,0,0,0-1.245,3.337v2.555a1.019,1.019,0,0,0,2.038,0V32.458a3.057,3.057,0,0,1,.747-2l3.326-3.837a9.17,9.17,0,0,0,2.221-5.4l.684-10.309A3.2,3.2,0,0,0,23.336,10L21.872,16.59a3.05,3.05,0,0,0-2.442.95l-4.539,4.806a5.1,5.1,0,0,0-1.391,3.5v9.169a1.019,1.019,0,0,0,2.038,0V25.844a3.058,3.058,0,0,1,.834-2.1l4.539-4.806a1.019,1.019,0,0,1,1.482,0l.254.269a1.019,1.019,0,0,1,0,1.4l-3.774,4A1.019,1.019,0,0,0,20.356,26l3.774-4a3.057,3.057,0,0,0,0-4.2l-.254-.269q-.051-.054-.1-.1l1.554-6.99A1.16,1.16,0,0,1,26.458,9.538Z" transform="translate(-21281.807 -2144.39)" fill="#fff"/>
  </g>
</svg>
