<svg xmlns="http://www.w3.org/2000/svg" width="31.151" height="17.778" viewBox="0 0 31.151 17.778">
  <g id="Group_104812" data-name="Group 104812" transform="translate(-7541.807 -5865.605)">
    <circle id="Ellipse_20" data-name="Ellipse 20" cx="1.181" cy="1.181" r="1.181" transform="translate(7559.313 5871.664)" fill="#fff"/>
    <circle id="Ellipse_21" data-name="Ellipse 21" cx="1.181" cy="1.181" r="1.181" transform="translate(7561.677 5869.3)" fill="#fff"/>
    <circle id="Ellipse_22" data-name="Ellipse 22" cx="1.181" cy="1.181" r="1.181" transform="translate(7561.677 5874.027)" fill="#fff"/>
    <circle id="Ellipse_23" data-name="Ellipse 23" cx="1.181" cy="1.181" r="1.181" transform="translate(7564.041 5871.664)" fill="#fff"/>
    <path id="Path_2098" data-name="Path 2098" d="M657.666,343.381,654.941,329.7a2.054,2.054,0,0,0-2.007-1.645H631.257a2.06,2.06,0,0,0-2.012,1.657l-2.652,13.679a2.069,2.069,0,0,0,.434,1.7,2.044,2.044,0,0,0,1.579.742h4.32a2.045,2.045,0,0,0,1.829-1.123l1.24-2.457,12.154-.039,1.239,2.485a2.036,2.036,0,0,0,1.835,1.134h4.437a2.047,2.047,0,0,0,2.007-2.452Zm-6.339.228-1.24-2.485a2.035,2.035,0,0,0-1.829-1.134h-.011l-12.37.039a2.044,2.044,0,0,0-1.821,1.123l-1.24,2.457h-4l2.58-13.327h21.389l2.658,13.327Z" transform="translate(6915.25 5537.551)" fill="#fff"/>
    <path id="Path_2099" data-name="Path 2099" d="M645.618,337.64v1.392a.416.416,0,0,1-.416.416h-1.6v1.691a.416.416,0,0,1-.416.416h-1.392a.416.416,0,0,1-.416-.416v-1.691H639.76a.416.416,0,0,1-.416-.416V337.64a.416.416,0,0,1,.415-.416h1.618v-1.692a.416.416,0,0,1,.416-.415h1.392a.416.416,0,0,1,.416.415v1.692h1.6a.416.416,0,0,1,.417.416Z" transform="translate(6909.574 5534.417)" fill="#fff"/>
  </g>
</svg>
