<svg xmlns="http://www.w3.org/2000/svg" width="33.338" height="33.338" viewBox="0 0 33.338 33.338">
  <g id="Group_104811" data-name="Group 104811" transform="translate(-6238.874 -2498)">
    <path id="Path_1723" data-name="Path 1723" d="M2359.689,955.035H2356.6a1.3,1.3,0,0,0,0,2.6h1.667v2.085a1.3,1.3,0,0,0,2.6,0V957.46a2.306,2.306,0,0,0,1.819-2.118v-2.367c0-1.3-1.285-2.283-2.987-2.283h-1.412a1.371,1.371,0,0,1-.389-.052v-1.874a1.367,1.367,0,0,1,.389-.052h3.1a1.3,1.3,0,0,0,0-2.6h-.522v-1.882a1.3,1.3,0,1,0-2.6,0v1.876c-1.694,0-2.968.985-2.968,2.282V951c0,1.3,1.284,2.283,2.986,2.283h1.412a1.4,1.4,0,0,1,.389.052v1.647A1.39,1.39,0,0,1,2359.689,955.035Z" transform="translate(3896.928 1562.718)" fill="#fff"/>
    <path id="Path_2440" data-name="Path 2440" d="M83.325,3059.17A16.669,16.669,0,1,1,100,3042.5a16.669,16.669,0,0,1-16.675,16.671Zm0-29.922A13.253,13.253,0,1,0,96.578,3042.5a13.253,13.253,0,0,0-13.253-13.252Z" transform="translate(6172.212 -527.832)" fill="#fff"/>
  </g>
</svg>
