<svg xmlns="http://www.w3.org/2000/svg" width="38.139" height="19.635" viewBox="0 0 38.139 19.635">
  <g id="Group_105078" data-name="Group 105078" transform="translate(-3304.547 -2190.98)">
    <path id="Path_75005" data-name="Path 75005" d="M129.3,229.133l-2.126-.75L124.3,224.59a4.4,4.4,0,0,0-3.5-1.709h-11.38a4.251,4.251,0,0,0-3.085,1.292l-5.294,5.336-2.876.167a4.379,4.379,0,0,0-4.085,4.377v2.668a2.7,2.7,0,0,0,2.709,2.709h1.959a4.443,4.443,0,0,0,4.21,3.085,4.352,4.352,0,0,0,4.21-3.126h12.38a4.454,4.454,0,0,0,4.252,3.126,4.352,4.352,0,0,0,4.21-3.126h1.5a2.7,2.7,0,0,0,2.709-2.709v-3.46a4.447,4.447,0,0,0-2.917-4.085Zm-26.387,11.3a2.334,2.334,0,1,1,2.334-2.334,2.279,2.279,0,0,1-2.333,2.33Zm20.843,0a2.337,2.337,0,1,1,1.65-.685,2.334,2.334,0,0,1-1.65.685Zm6.336-3.71a.641.641,0,0,1-.625.625h-1.334a4.445,4.445,0,0,0-8.754,0H107.29a4.445,4.445,0,0,0-8.754,0H96.744a.641.641,0,0,1-.625-.625v-2.668a2.314,2.314,0,0,1,2.126-2.293l3.251-.208a.984.984,0,0,0,.667-.292l5.586-5.586a2.3,2.3,0,0,1,1.626-.667h11.38a2.33,2.33,0,0,1,1.834.917l3.085,4a.875.875,0,0,0,.459.334l2.418.876a2.3,2.3,0,0,1,1.5,2.168v3.418Z" transform="translate(3210.469 1968.099)" fill="#fff"/>
  </g>
</svg>
