<svg xmlns="http://www.w3.org/2000/svg" width="33.699" height="30.563" viewBox="0 0 33.699 30.563">
  <g id="Travel_and_Tourism" data-name="Travel and Tourism" transform="translate(-58.706 -98.785)">
    <g id="Global_buyer_Access" data-name="Global buyer Access" transform="translate(63.266 103.327)">
      <g id="Group_635" data-name="Group 635" transform="translate(0 0)">
        <path id="Path_1958" data-name="Path 1958" d="M79.166,108.574a10.624,10.624,0,0,0-10.586,9.917.234.234,0,0,0,0,.047q-.021.32-.021.648a10.621,10.621,0,0,0,13.89,10.094,1,1,0,1,0-.617-1.9,8.642,8.642,0,0,1-5.486-.056l.03-.026a8.642,8.642,0,0,1-.815-2.908A9.256,9.256,0,0,0,72,119.537a.776.776,0,0,1,.219.1,22.115,22.115,0,0,1-1.567-1.729,8.549,8.549,0,0,1,2.611-4.978,6,6,0,0,1,1.359,2.246,8.687,8.687,0,0,1,.163,1.56,4.017,4.017,0,0,0,.11.975,7.681,7.681,0,0,0,1.263,2.3,2.627,2.627,0,0,0,1.7.741,1.426,1.426,0,0,0,.607-.127A3.451,3.451,0,0,0,80,118.343a4.376,4.376,0,0,1,2.721-1.921,31.347,31.347,0,0,0,4.287-.821,8.626,8.626,0,0,1,.741,2.809,1,1,0,1,0,2-.14v-.038a10.553,10.553,0,0,0-10.58-9.657ZM71.292,121.4a8.778,8.778,0,0,1,2.3,3.347c.08.427.154.821.227,1.175A8.6,8.6,0,0,1,70.746,121a2.16,2.16,0,0,0,.542.4Zm11.254-6.98c-2.1.18-4.3,2.329-4.516,3.534a1.865,1.865,0,0,1-.329.73.833.833,0,0,1-.092-.054,6.438,6.438,0,0,1-.768-1.419,2.245,2.245,0,0,1-.047-.526,10.222,10.222,0,0,0-.2-1.886,7.543,7.543,0,0,0-1.715-3.078A8.627,8.627,0,0,1,85.925,113.8a26.193,26.193,0,0,1-3.363.616Z" transform="translate(-68.557 -108.574)" fill="#fff"/>
        <path id="Path_1959" data-name="Path 1959" d="M68.576,131.075a.239.239,0,0,0,0,.047.151.151,0,0,1-.023-.026Z" transform="translate(-68.553 -121.157)" fill="#fff"/>
      </g>
      <g id="Group_636" data-name="Group 636" transform="translate(8.987 13.167)">
        <path id="Path_1960" data-name="Path 1960" d="M90.572,141.685a1,1,0,0,1-.89-.549l-.624-1.219a1,1,0,1,1,1.78-.911h0l.624,1.219a1,1,0,0,1-.889,1.455Z" transform="translate(-88.948 -138.463)" fill="#fff"/>
      </g>
    </g>
    <path id="Path_2276" data-name="Path 2276" d="M88.011,98.526h.069c.382-.034.8-.069,1.181-.069h.11a.821.821,0,0,0,.768-.768.768.768,0,0,0-.768-.768h-.145a8.823,8.823,0,0,0-1.317.1.725.725,0,0,0-.658.833A.755.755,0,0,0,88.011,98.526Z" transform="translate(-15.656 1.864)" fill="#fff"/>
    <path id="Path_2277" data-name="Path 2277" d="M67.894,106.955a.768.768,0,0,0,.521-.208,11.6,11.6,0,0,1,.973-.867.741.741,0,1,0-.938-1.147,14.462,14.462,0,0,0-1.076.972.735.735,0,0,0,0,1.076.852.852,0,0,0,.52.173Z" transform="translate(-4.082 -2.536)" fill="#fff"/>
    <path id="Path_2278" data-name="Path 2278" d="M57.737,126.109h.139a.774.774,0,0,0,.73-.658c.069-.418.139-.867.242-1.284a.75.75,0,1,0-1.459-.348c-.1.452-.208.938-.278,1.426a.75.75,0,0,0,.626.868Z" transform="translate(1.701 -13.287)" fill="#fff"/>
    <path id="Path_2279" data-name="Path 2279" d="M77.165,100.97a1.009,1.009,0,0,0,.312-.069,12.744,12.744,0,0,1,1.216-.486.759.759,0,1,0-.521-1.426c-.451.174-.9.347-1.317.555a.749.749,0,0,0-.347,1.007.682.682,0,0,0,.657.419Z" transform="translate(-9.429 0.705)" fill="#fff"/>
    <path id="Path_2280" data-name="Path 2280" d="M99.053,99.263c.418.1.833.208,1.252.347a.6.6,0,0,0,.242.034.741.741,0,0,0,.695-.521.714.714,0,0,0-.486-.937c-.451-.139-.937-.278-1.389-.382a.757.757,0,0,0-.9.555.81.81,0,0,0,.589.9Z" transform="translate(-22.119 1.371)" fill="#fff"/>
    <path id="Path_2281" data-name="Path 2281" d="M123.5,121.387a.768.768,0,0,0,.73.555.315.315,0,0,0,.174-.034.741.741,0,0,0,.521-.938c-.139-.451-.278-.937-.451-1.389a.759.759,0,0,0-1.426.521C123.226,120.554,123.364,120.967,123.5,121.387Z" transform="translate(-36.253 -10.893)" fill="#fff"/>
    <path id="Path_2282" data-name="Path 2282" d="M58.58,136.484c-.069-.418-.139-.868-.174-1.283a.8.8,0,0,0-.833-.695.774.774,0,0,0-.695.833,9.349,9.349,0,0,0,.208,1.426.75.75,0,0,0,.768.625h.139A.81.81,0,0,0,58.58,136.484Z" transform="translate(1.83 -19.776)" fill="#fff"/>
    <path id="Path_2283" data-name="Path 2283" d="M118.358,111.7a.776.776,0,0,0,.624.347.667.667,0,0,0,.418-.139.768.768,0,0,0,.208-1.041,14.23,14.23,0,0,0-.867-1.145.768.768,0,0,0-1.182.972,7.272,7.272,0,0,1,.8,1.006Z" transform="translate(-33.018 -5.343)" fill="#fff"/>
    <path id="Path_2284" data-name="Path 2284" d="M109.308,103.388c.382.244.73.486,1.076.73a.8.8,0,0,0,.486.139.725.725,0,0,0,.59-.313.758.758,0,0,0-.139-1.041c-.382-.278-.8-.555-1.181-.8a.774.774,0,0,0-1.041.242.734.734,0,0,0,.208,1.042Z" transform="translate(-28.171 -1.052)" fill="#fff"/>
    <path id="Path_2285" data-name="Path 2285" d="M88.007,165.25c-.418-.034-.868-.069-1.284-.139a.756.756,0,0,0-.242,1.493,10.433,10.433,0,0,0,1.426.139h.069a.747.747,0,0,0,.034-1.493Z" transform="translate(-14.855 -37.396)" fill="#fff"/>
    <path id="Path_2286" data-name="Path 2286" d="M98.94,164.252c-.417.1-.833.208-1.252.278a.75.75,0,0,0,.139,1.493h.1c.486-.069.938-.208,1.426-.313a.745.745,0,0,0,.521-.938.721.721,0,0,0-.939-.521Z" transform="translate(-21.308 -36.883)" fill="#fff"/>
    <path id="Path_2287" data-name="Path 2287" d="M109.227,159.55a11.943,11.943,0,0,1-1.11.695.775.775,0,0,0-.278,1.041.784.784,0,0,0,.658.382.67.67,0,0,0,.347-.11,14.33,14.33,0,0,0,1.216-.768.768.768,0,0,0,.208-1.041.746.746,0,0,0-1.042-.208Z" transform="translate(-27.463 -34.127)" fill="#fff"/>
    <path id="Path_2288" data-name="Path 2288" d="M77.39,162.217a12.409,12.409,0,0,1-1.182-.555.745.745,0,1,0-.695,1.317c.418.208.868.418,1.317.625a1.013,1.013,0,0,0,.313.069.748.748,0,0,0,.242-1.458Z" transform="translate(-8.68 -35.369)" fill="#fff"/>
    <path id="Path_2289" data-name="Path 2289" d="M67.373,154.97a.761.761,0,1,0-1.11,1.041c.347.347.695.695,1.041,1.007a.731.731,0,0,0,.521.174.819.819,0,0,0,.555-.242.768.768,0,0,0-.069-1.076C68,155.594,67.686,155.281,67.373,154.97Z" transform="translate(-3.455 -31.421)" fill="#fff"/>
    <path id="Path_2290" data-name="Path 2290" d="M61.21,145.84a.761.761,0,1,0-1.389.624c.208.418.418.868.658,1.283a.788.788,0,0,0,.658.382.587.587,0,0,0,.347-.11.775.775,0,0,0,.278-1.041C61.592,146.608,61.383,146.229,61.21,145.84Z" transform="translate(0.173 -26.046)" fill="#fff"/>
    <path id="Path_2291" data-name="Path 2291" d="M62.232,112.992a.768.768,0,0,0-1.041.242l-.73,1.252a.749.749,0,0,0,.347,1.007.625.625,0,0,0,.347.069.779.779,0,0,0,.658-.417c.208-.382.417-.768.658-1.145a.746.746,0,0,0-.242-1.007Z" transform="translate(-0.189 -7.323)" fill="#fff"/>
    <path id="Path_2292" data-name="Path 2292" d="M120.673,138.55l-2.561-4.113,1.009-2.314a2.633,2.633,0,0,0,0-2.092.561.561,0,0,0-.721-.329,2.657,2.657,0,0,0-1.551,1.444l-1.009,2.314-4.763.867a.8.8,0,0,0-.613.506l-.542,1.227a.158.158,0,0,0,.145.219l4.69-.219-1.118,3.211-1.84.252a.549.549,0,0,0-.47.361l-.145.361a.16.16,0,0,0,.11.219l1.84.506a.733.733,0,0,0,.468.757.778.778,0,0,0,.867-.181l1.588,1.009a.173.173,0,0,0,.219-.072l.145-.361a.565.565,0,0,0-.072-.577l-1.082-1.515,1.624-2.994,3.03,3.61a.153.153,0,0,0,.252-.036l.542-1.227a.755.755,0,0,0-.038-.834Z" transform="translate(-28.419 -17.046)" fill="#fff"/>
  </g>
</svg>
