<svg xmlns="http://www.w3.org/2000/svg" width="31.572" height="28.382" viewBox="0 0 31.572 28.382">
  <g id="Building_an_MVP" data-name="Building an MVP" transform="translate(-451.092 -1077.443)">
    <g id="Mobile_Commerce_App_Development" data-name="Mobile Commerce App Development" transform="translate(451.092 1077.443)">
      <g id="Group_1036" data-name="Group 1036" transform="translate(0 0)">
        <circle id="Ellipse_3" data-name="Ellipse 3" cx="1.952" cy="1.952" r="1.952" transform="translate(9.672 24.478)" fill="#fff"/>
        <circle id="Ellipse_4" data-name="Ellipse 4" cx="1.952" cy="1.952" r="1.952" transform="translate(21.051 24.478)" fill="#fff"/>
        <path id="Path_1927" data-name="Path 1927" d="M279.945,115.678H256.55l-.989-3.824h-6.047c-.773,0-1.142.79-1.142,1.562s.431,1.494,1.2,1.494h3.667l5.059,19.567h16.176c.776,0,1.427-.24,1.4-1.692a1.491,1.491,0,0,0-1.461-1.494h-13.8l-.342-1.753h15.6ZM259.4,126.74l-1.859-7.474h18.333l-2.113,7.474Z" transform="translate(-248.373 -111.854)" fill="#fff"/>
      </g>
    </g>
  </g>
</svg>
