<svg xmlns="http://www.w3.org/2000/svg" width="25.771" height="34.362" viewBox="0 0 25.771 34.362">
  <g id="Oil_Gas" data-name="Oil &amp; Gas" transform="translate(21286 2094)">
    <g id="Слой_4" data-name="Слой 4" transform="translate(-21292 -2096)">
      <path id="Path_10795" data-name="Path 10795" d="M30.7,30.155V8.443a1.328,1.328,0,0,0-.021-.215,2.448,2.448,0,0,0,1.1-1.933c0-3.393-8.1-4.3-12.886-4.3S6,2.9,6,6.3A2.448,2.448,0,0,0,7.1,8.228a1.321,1.321,0,0,0-.021.215V30.155A2.415,2.415,0,0,0,6,32.067c0,3.393,8.1,4.3,12.886,4.3s12.886-.9,12.886-4.3A2.415,2.415,0,0,0,30.7,30.155ZM18.886,4.148c6.368,0,10.287,1.374,10.727,2.148-.44.773-4.36,2.148-10.727,2.148-6.486,0-10.448-1.428-10.749-2.1C8.438,5.576,12.4,4.148,18.886,4.148ZM9.221,32.8V9.291a32.622,32.622,0,0,0,9.664,1.3,32.622,32.622,0,0,0,9.664-1.3V32.775a26.627,26.627,0,0,1-9.664,1.439A27.444,27.444,0,0,1,9.221,32.8Z" fill="#fff"/>
      <path id="Path_10796" data-name="Path 10796" d="M17.464,13.46c-.687,1-4.134,6.1-4.134,8.483a5.015,5.015,0,0,0,10.029,0c0-2.384-3.447-7.484-4.134-8.483a1.109,1.109,0,0,0-1.761,0Zm.881,11.35a2.873,2.873,0,0,1-2.867-2.867c0-1.031,1.482-3.748,2.867-5.927,1.385,2.18,2.867,4.886,2.867,5.927a2.873,2.873,0,0,1-2.867,2.867Z" transform="translate(0.541 0.814)" fill="#fff"/>
    </g>
  </g>
</svg>
