<svg width="97" height="90" viewBox="0 0 97 90" fill="none" xmlns="http://www.w3.org/2000/svg">
<path d="M57.8504 0C59.7444 0 61.2801 1.53971 61.2801 3.43908C61.2801 4.23494 61.0104 4.9676 60.558 5.55038L79.615 18.796C80.3563 17.8975 81.4773 17.3252 82.7318 17.3252C84.965 17.3252 86.7759 19.1408 86.7759 21.3807C86.7759 22.7799 86.069 24.0136 84.994 24.7425L92.0931 39.1156C92.4 39.0387 92.7217 38.9977 93.0527 38.9977C95.2329 38.9977 97 40.7699 97 42.956C97 45.1418 95.2329 46.9144 93.0527 46.9144C92.3251 46.9144 91.6439 46.7169 91.0585 46.3723L82.6048 59.3654C83.9742 60.139 84.8993 61.6103 84.8993 63.2984C84.8993 65.789 82.8855 67.8079 80.4017 67.8079C78.5744 67.8079 77.0015 66.7151 76.2979 65.1455L68.365 67.9412C68.3869 68.0882 68.3984 68.2391 68.3984 68.3922C68.3984 69.6413 67.6494 70.715 66.5771 71.1862L68.7026 81.7172C68.847 81.7018 68.9942 81.6941 69.1425 81.6941C71.4299 81.6941 73.284 83.5534 73.284 85.8471C73.284 88.1408 71.4299 90 69.1425 90C66.855 90 65.0009 88.1408 65.0009 85.8471C65.0009 84.7131 65.4539 83.6856 66.1887 82.9362L49.0394 64.97C48.6335 65.2064 48.1619 65.3425 47.6586 65.3425C46.1524 65.3425 44.9286 64.1279 44.9089 62.622H40.4237C40.2094 64.9124 38.2867 66.7052 35.9463 66.7052C33.4625 66.7052 31.449 64.6858 31.449 62.1951C31.449 60.9153 31.9806 59.7604 32.8345 58.9392L28.0677 52.1255C27.6633 52.3603 27.1937 52.4947 26.6928 52.4947C25.3412 52.4947 24.2173 51.5166 23.9862 50.2279H17.2719C16.9563 51.7448 15.6157 52.8837 14.0097 52.8837C12.1692 52.8837 10.6771 51.3877 10.6771 49.5422C10.6771 48.6726 11.0084 47.8804 11.5513 47.2858L4.66087 39.3705C4.25388 39.5481 3.80472 39.6467 3.33258 39.6467C1.49204 39.6467 0 38.1505 0 36.3049C0 34.4662 1.48099 32.9743 3.31206 32.9633L3.73841 29.4983C2.3594 29.0646 1.35893 27.7731 1.35893 26.2473C1.35893 24.3658 2.87991 22.8406 4.75617 22.8406C5.29752 22.8406 5.80939 22.9676 6.26359 23.1935L14.1821 14.0175C13.568 13.252 13.2008 12.2815 13.2008 11.2256C13.2008 8.75291 15.2143 6.74837 17.6981 6.74837C19.637 6.74837 21.2893 7.96983 21.921 9.68197L54.4994 4.1741C54.448 3.93727 54.4212 3.69133 54.4212 3.43908C54.4212 1.53971 55.9564 0 57.8504 0ZM50.0636 63.9232C49.9307 64.163 49.7627 64.3813 49.5668 64.5706L66.6849 82.5044C67.0919 82.2027 67.5553 81.9745 68.0576 81.8379L65.9474 71.3842C65.7565 71.4221 65.559 71.4418 65.3571 71.4418C63.677 71.4418 62.3158 70.0764 62.3158 68.3922C62.3158 68.0597 62.3689 67.7393 62.4668 67.4398L50.0636 63.9232ZM65.3101 54.6145C64.7909 55.0534 64.1573 55.3601 63.4609 55.4835L64.6399 65.4275C64.8702 65.3721 65.1098 65.3425 65.3571 65.3425C66.6537 65.3425 67.761 66.1561 68.1982 67.3021L76.0736 64.5267C75.9636 64.1361 75.9046 63.7241 75.9046 63.2984C75.9046 62.459 76.1332 61.6729 76.5315 60.9997L65.3101 54.6145ZM49.8628 60.9356C50.2058 61.3953 50.4088 61.9664 50.4088 62.5847C50.4088 62.8354 50.3754 63.0784 50.3131 63.3094L62.742 66.8336C63.0412 66.33 63.4806 65.9207 64.0063 65.659L62.8071 55.5439C62.794 55.5439 62.7814 55.5444 62.7682 55.5444C61.2708 55.5444 59.9677 54.7078 59.2986 53.4751L49.8628 60.9356ZM45.0194 45.6175C44.6052 45.7431 44.1665 45.8111 43.7113 45.8111C43.2758 45.8111 42.854 45.7486 42.4557 45.6328L37.7056 58.0439C39.248 58.7016 40.3487 60.1988 40.4378 61.9636H44.9789C45.201 60.9943 45.9336 60.2196 46.8773 59.9398L45.0194 45.6175ZM66.6346 50.7826C66.6876 51.042 66.7161 51.3109 66.7161 51.5863C66.7161 52.5556 66.3681 53.4433 65.7909 54.1318L76.909 60.4577C77.7335 59.4395 78.9918 58.7889 80.4017 58.7889C80.9663 58.7889 81.5068 58.8931 82.0047 59.0835L90.5213 45.9932C89.9025 45.4743 89.4446 44.7682 89.234 43.9623L66.6346 50.7826ZM47.5672 43.6236C47.1142 44.3787 46.4468 44.9893 45.6491 45.3717L47.5251 59.8301C47.5694 59.8279 47.6137 59.8268 47.6586 59.8268C48.3233 59.8268 48.9328 60.0633 49.4082 60.4566L59.0272 52.8513C58.8937 52.4541 58.8215 52.0284 58.8215 51.5863C58.8215 51.0036 58.9468 50.4506 59.1716 49.9531L47.5672 43.6236ZM29.3513 49.0287C29.4111 49.2547 29.443 49.4917 29.443 49.7369C29.443 50.5209 29.1167 51.228 28.5931 51.73L33.3418 58.5184C34.0767 57.9939 34.9756 57.6856 35.9463 57.6856C36.3393 57.6856 36.7204 57.7361 37.0838 57.831L41.8402 45.4035C41.0478 45.0392 40.3791 44.4511 39.9149 43.7198L29.3513 49.0287ZM74.3311 34.4006C73.7753 35.5471 72.6023 36.3373 71.2455 36.3373C70.6995 36.3373 70.1836 36.2095 69.7257 35.982L65.0015 48.3215C65.6498 48.7686 66.1586 49.405 66.448 50.1511L89.1207 43.3089C89.1109 43.1926 89.1054 43.0749 89.1054 42.956C89.1054 42.3465 89.2427 41.7692 89.4884 41.2535L74.3311 34.4006ZM15.7465 46.6894C16.7036 47.277 17.3422 48.3347 17.3422 49.5422C17.3422 49.5515 17.3422 49.5608 17.342 49.5696H23.9476C24.0145 48.4466 24.752 47.5041 25.7642 47.1404L22.0043 34.481C21.8346 34.507 21.6607 34.5205 21.4837 34.5205C21.2975 34.5205 21.1148 34.5055 20.9367 34.4769L15.7465 46.6894ZM46.4413 37.717C47.5158 38.5411 48.2089 39.8401 48.2089 41.3013C48.2089 41.916 48.0858 42.5019 47.8637 43.0359L59.4917 49.3781C59.9009 48.7692 60.4748 48.2798 61.1488 47.9753L59.9031 22.5615C59.7598 22.5744 59.6148 22.5811 59.4682 22.5811C58.7252 22.5811 58.0216 22.4113 57.3936 22.1083L46.4413 37.717ZM24.1642 33.2268C23.7711 33.72 23.2454 34.1023 22.6414 34.3195L26.4058 46.9939C26.5001 46.984 26.5959 46.9791 26.6928 46.9791C27.7341 46.9791 28.6401 47.5595 29.1069 48.4148L39.6036 43.1396C39.3533 42.5782 39.2142 41.9561 39.2142 41.3013C39.2142 40.8195 39.2895 40.3554 39.429 39.9202L24.1642 33.2268ZM62.1019 21.7901C61.6369 22.098 61.1149 22.3266 60.5552 22.4568L61.795 47.7493C62.1063 47.6698 62.4323 47.6281 62.7682 47.6281C63.3597 47.6281 63.921 47.7581 64.4243 47.9918L69.1583 35.6272C68.342 34.9985 67.8158 34.01 67.8158 32.8983C67.8158 31.9623 68.1889 31.1136 68.7934 30.4936L62.1019 21.7901ZM6.66482 36.3446C6.65191 37.4599 6.09404 38.4439 5.24577 39.0413L12.04 46.8463C12.5918 46.4404 13.2728 46.2006 14.0097 46.2006C14.412 46.2006 14.7977 46.2719 15.1548 46.403L20.2947 34.3082C19.4715 34.003 18.797 33.3903 18.4101 32.6089L6.66482 36.3446ZM73.9525 30.7869C74.4055 31.3696 74.6752 32.1024 74.6752 32.8983C74.6752 33.2039 74.6353 33.5001 74.5609 33.7821L89.8216 40.682C90.2341 40.0936 90.8025 39.6229 91.4667 39.3303L84.4212 25.0661C83.9069 25.3036 83.3346 25.4361 82.7318 25.4361C81.6698 25.4361 80.7037 25.0259 79.982 24.3549L73.9525 30.7869ZM24.318 29.1446C24.6936 29.6962 24.9133 30.3631 24.9133 31.0814C24.9133 31.6535 24.7739 32.193 24.5274 32.6676L39.6754 39.3097C40.1115 38.4226 40.8299 37.7002 41.7133 37.2602L37.1196 23.868C36.7093 24.0421 36.2581 24.1384 35.7845 24.1384C34.7692 24.1384 33.857 23.6959 33.2291 22.9929L24.318 29.1446ZM39.2068 20.4738C39.2116 20.5483 39.2142 20.6235 39.2142 20.6993C39.2141 21.8853 38.6154 22.9311 37.7046 23.5493L42.3217 37.011C42.7593 36.8685 43.2265 36.7916 43.7113 36.7916C44.5024 36.7916 45.2459 36.9964 45.8914 37.356L56.8208 21.7809C56.1473 21.3318 55.5931 20.7162 55.2178 19.9926L39.2068 20.4738ZM7.96773 27.3607C7.50762 28.6953 6.24356 29.6539 4.75617 29.6539C4.63012 29.6539 4.50571 29.6469 4.38327 29.6335L3.96617 33.0235C5.2996 33.2808 6.35019 34.3352 6.60552 35.6728L18.1758 31.9928C18.0964 31.7025 18.054 31.3969 18.054 31.0814C18.054 30.9493 18.0615 30.819 18.0759 30.6908L7.96773 27.3607ZM64.2536 17.9629C64.2022 19.3286 63.5823 20.5483 62.6238 21.3908L69.2956 30.0686C69.8493 29.6843 70.5211 29.4592 71.2455 29.4592C72.1088 29.4592 72.8983 29.7793 73.5012 30.3076L79.5373 23.8684C79.0044 23.1814 78.6871 22.3182 78.6871 21.3807C78.6871 21.3093 78.6887 21.2385 78.6926 21.1681L64.2536 17.9629ZM6.82715 23.5466C7.63373 24.1694 8.15342 25.1475 8.15342 26.2473C8.15342 26.4071 8.14242 26.5644 8.12114 26.7183L18.2132 30.043C18.5504 28.9741 19.3943 28.131 20.4623 27.7973L18.4795 15.6355C18.2258 15.6797 17.9646 15.7029 17.6981 15.7029C16.5135 15.7029 15.4358 15.2469 14.6326 14.5016L6.82715 23.5466ZM21.6314 13.3982C21.0889 14.3695 20.1939 15.1188 19.1186 15.4749L21.1056 27.663C21.2298 27.6494 21.3559 27.6423 21.4837 27.6423C22.4242 27.6423 23.2762 28.022 23.8958 28.6368L32.8395 22.4627C32.5318 21.947 32.3549 21.3439 32.3549 20.6993C32.3549 20.3231 32.4152 19.9609 32.5266 19.6221L21.6314 13.3982ZM60.1012 6.03398C59.7439 6.34564 59.3221 6.58439 58.8582 6.72719V13.0162C59.0578 12.9908 59.2619 12.9776 59.4682 12.9776C61.946 12.9776 63.9844 14.8647 64.2317 17.2838L78.7795 20.5133C78.8714 20.0925 79.0279 19.6962 79.2385 19.3354L60.1012 6.03398ZM38.3529 18.4202C38.7021 18.8156 38.9618 19.2922 39.1005 19.8183L54.9393 19.3423C54.7714 18.8524 54.68 18.3266 54.68 17.7794C54.68 15.5671 56.1719 13.7043 58.2016 13.1474V6.86028C58.0862 6.87208 57.9691 6.87811 57.8504 6.87811C57.3268 6.87811 56.8301 6.76027 56.3858 6.54961L38.3529 18.4202ZM22.1031 10.3188C22.1637 10.6116 22.1954 10.915 22.1954 11.2256C22.1954 11.7795 22.0944 12.3098 21.9097 12.7995L32.7928 19.0165C33.3804 17.9683 34.5 17.2602 35.7845 17.2602C36.5633 17.2602 37.2813 17.5205 37.857 17.959L55.766 6.1702C55.3053 5.81618 54.9371 5.34778 54.703 4.80725L22.1031 10.3188Z" fill="url(#paint0_linear_2410_3074)"/>
<defs>
<linearGradient id="paint0_linear_2410_3074" x1="48.5" y1="0" x2="48.5" y2="90" gradientUnits="userSpaceOnUse">
<stop stop-color="#3DB39F"/>
<stop offset="1" stop-color="#1E6FC1"/>
</linearGradient>
</defs>
</svg>
