<svg width="249" height="23" viewBox="0 0 249 23" fill="none" xmlns="http://www.w3.org/2000/svg">
<path d="M16.3647 0.302666C16.6368 0.302666 16.8267 0.403517 16.9356 0.605276C17.0624 0.788664 17.1261 1.00879 17.1261 1.26556V3.439C17.1261 3.69577 17.0624 3.91584 16.9356 4.09928C16.8267 4.28267 16.6368 4.37436 16.3647 4.37436H0.733985C0.461967 4.37436 0.271497 4.27351 0.163111 4.07175C0.0541983 3.86999 0 3.64992 0 3.41147V1.29309C0 1.05464 0.0541983 0.834562 0.163111 0.632804C0.271497 0.412674 0.461967 0.302666 0.733985 0.302666H16.3647ZM16.229 9.51907C16.5005 9.51907 16.691 9.61993 16.7999 9.82169C16.9267 10.0051 16.9898 10.2252 16.9898 10.4818V12.6554C16.9898 12.9121 16.9267 13.1325 16.7999 13.3157C16.691 13.4989 16.5005 13.591 16.229 13.591H4.07764V22.0096C4.07764 22.2662 4.02293 22.4952 3.91454 22.697C3.80563 22.8807 3.60621 22.9723 3.3163 22.9723H0.815527C0.54351 22.9723 0.344107 22.8807 0.217305 22.697C0.108393 22.4952 0.0541947 22.2662 0.0541947 22.0096V11.3897C0.0541947 10.9312 0.235193 10.5095 0.597708 10.1243C0.978639 9.72083 1.5132 9.51907 2.20193 9.51907H16.229ZM33.1709 0C33.6602 0 34.0769 0.073375 34.4216 0.220128C34.7841 0.366827 35.0919 0.568588 35.3455 0.825352C35.6175 1.0638 35.8443 1.35725 36.0253 1.70576C36.2247 2.05422 36.4057 2.43937 36.5688 2.86126L44.2079 21.927C44.2805 22.1102 44.3163 22.2662 44.3163 22.3946C44.3163 22.5777 44.2532 22.7247 44.1264 22.8349C44.0174 22.9446 43.8728 23 43.6912 23H40.7827C40.4018 23 40.1392 22.7982 39.994 22.3946L33.2251 5.30978H33.1167L29.5826 14.3061H32.9536C33.3161 14.3061 33.5787 14.4893 33.7418 14.8562C33.796 14.9845 33.8775 15.1863 33.9865 15.4616C34.1133 15.7183 34.2311 15.9845 34.34 16.2593C34.4668 16.5346 34.5663 16.8003 34.6389 17.0575C34.7294 17.2955 34.7746 17.4792 34.7746 17.6075C34.7746 17.8642 34.6931 18.075 34.53 18.2401C34.3669 18.4052 34.1585 18.4877 33.9049 18.4877H27.9515L26.402 22.4223C26.2574 22.8072 26.0032 23 25.6407 23H22.6506C22.2339 23 22.0256 22.7982 22.0256 22.3946C22.0256 22.2114 22.0524 22.0554 22.1071 21.927L29.6915 2.86126C30.0177 2.0359 30.4434 1.35725 30.969 0.825352C31.4946 0.275135 32.2286 0 33.1709 0ZM53.6806 8.61119C53.6806 8.86795 53.7533 9.06971 53.898 9.21646C54.0611 9.36316 54.2426 9.43654 54.442 9.43654H62.5973C63.4307 9.43654 64.1194 9.60161 64.6629 9.93175C65.2248 10.2436 65.6689 10.6655 65.9951 11.1975C66.3213 11.7294 66.5481 12.3434 66.6749 13.0404C66.8196 13.7193 66.8922 14.4163 66.8922 15.1315V17.5527C66.8922 18.2678 66.8106 18.9558 66.6475 19.6161C66.5023 20.2763 66.2577 20.8541 65.9136 21.3493C65.5695 21.8445 65.1159 22.2385 64.5545 22.5319C64.0105 22.8253 63.3402 22.9723 62.5425 22.9723H50.2828C49.9929 22.9723 49.784 22.8807 49.6572 22.697C49.5488 22.5138 49.4941 22.2939 49.4941 22.0367V19.836C49.4941 19.5793 49.5488 19.3589 49.6572 19.1757C49.784 18.9925 49.9929 18.9004 50.2828 18.9004H61.8901C62.3252 18.9004 62.5973 18.7449 62.7056 18.4329C62.8146 18.1027 62.8688 17.7545 62.8688 17.3876V15.0212C62.8688 14.673 62.8146 14.3338 62.7056 14.0037C62.5973 13.6735 62.3342 13.5085 61.9175 13.5085H53.7622C52.2579 13.5085 51.1704 13.0771 50.5001 12.215C49.8477 11.353 49.5215 10.1518 49.5215 8.61119V5.06218C49.5215 4.51196 49.5851 3.95253 49.7119 3.38394C49.8387 2.81541 50.056 2.31098 50.3643 1.87083C50.6906 1.41231 51.1252 1.03627 51.6692 0.742817C52.2306 0.449365 52.9467 0.302666 53.8164 0.302666H65.5332C65.8046 0.302666 65.9951 0.394357 66.104 0.577745C66.2308 0.761186 66.294 0.981263 66.294 1.23803V3.439C66.294 3.69577 66.2308 3.91584 66.104 4.09928C65.9951 4.28267 65.8046 4.37436 65.5332 4.37436H54.4688C54.2878 4.37436 54.1063 4.43858 53.9253 4.56696C53.7622 4.69534 53.6806 4.86042 53.6806 5.06218V8.61119ZM91.9184 0.302666C92.0452 0.302666 92.2083 0.35767 92.4077 0.467735C92.6071 0.559429 92.7065 0.816193 92.7065 1.23803V3.38394C92.7065 3.60407 92.6702 3.78746 92.5976 3.93421C92.5434 4.06259 92.4708 4.16345 92.3803 4.23682C92.3077 4.29183 92.2262 4.32852 92.1357 4.34689C92.0452 4.3652 91.9726 4.37436 91.9184 4.37436H84.9317V22.0367C84.9317 22.459 84.8322 22.7247 84.6328 22.8349C84.4518 22.9265 84.2977 22.9723 84.1709 22.9723H81.6695C81.5612 22.9723 81.407 22.9265 81.2076 22.8349C81.0082 22.7247 80.9087 22.459 80.9087 22.0367V4.37436H73.922C73.8678 4.37436 73.7952 4.3652 73.7047 4.34689C73.6143 4.32852 73.5238 4.29183 73.4327 4.23682C73.3606 4.16345 73.288 4.06259 73.2154 3.93421C73.1612 3.78746 73.1339 3.60407 73.1339 3.38394V1.23803C73.1339 0.816193 73.2338 0.559429 73.4327 0.467735C73.6321 0.35767 73.7952 0.302666 73.922 0.302666H91.9184ZM115.583 0.302666C115.855 0.302666 116.045 0.403517 116.154 0.605276C116.281 0.788664 116.345 1.00879 116.345 1.26556C116.345 1.43063 116.354 1.68739 116.372 2.0359C116.408 2.38436 116.417 2.73287 116.399 3.08133C116.381 3.41147 116.308 3.71408 116.182 3.98922C116.073 4.24598 115.873 4.37436 115.583 4.37436H105.824C105.136 4.37436 104.601 4.47527 104.22 4.67703C103.84 4.87879 103.559 5.16303 103.378 5.52986C103.196 5.89669 103.088 6.32773 103.052 6.82294C103.015 7.29978 102.997 7.83168 102.997 8.41859V14.829C102.997 15.3972 103.015 15.9387 103.052 16.452C103.088 16.9472 103.196 17.378 103.378 17.7449C103.559 18.0937 103.84 18.378 104.22 18.5979C104.601 18.7998 105.136 18.9004 105.824 18.9004H115.583C115.855 18.9004 116.045 19.0016 116.154 19.2034C116.281 19.3866 116.345 19.6065 116.345 19.8637C116.345 20.0468 116.354 20.3131 116.372 20.6613C116.408 21.0096 116.417 21.3583 116.399 21.7066C116.381 22.0554 116.308 22.3578 116.182 22.6145C116.073 22.853 115.873 22.9723 115.583 22.9723H105.688C104.293 22.9723 103.151 22.7614 102.263 22.3397C101.393 21.9175 100.713 21.3307 100.224 20.5788C99.7348 19.8269 99.3996 18.919 99.2187 17.8551C99.0555 16.7912 98.974 15.6176 98.974 14.3338V8.9138C98.974 7.66661 99.0555 6.52028 99.2187 5.47485C99.3818 4.41105 99.708 3.50317 100.197 2.75119C100.687 1.98084 101.366 1.38478 102.236 0.962945C103.124 0.52274 104.275 0.302666 105.688 0.302666H115.583ZM136.015 0.302666C137.428 0.302666 138.57 0.52274 139.44 0.962945C140.328 1.38478 141.016 1.98084 141.506 2.75119C141.995 3.50317 142.321 4.41105 142.484 5.47485C142.647 6.52028 142.729 7.66661 142.729 8.9138V14.361C142.729 15.6086 142.647 16.7641 142.484 17.8274C142.321 18.8732 141.995 19.7811 141.506 20.5511C141.035 21.3216 140.355 21.927 139.467 22.3669C138.597 22.7891 137.446 23 136.015 23H129.382C127.968 23 126.817 22.7796 125.929 22.3397C125.059 21.8994 124.38 21.2939 123.89 20.5239C123.419 19.7534 123.102 18.8456 122.939 17.8003C122.776 16.7364 122.694 15.5899 122.694 14.361V8.9138C122.694 7.68498 122.776 6.54781 122.939 5.50238C123.102 4.43858 123.428 3.52154 123.918 2.75119C124.407 1.98084 125.087 1.38478 125.956 0.962945C126.826 0.52274 127.968 0.302666 129.382 0.302666H136.015ZM138.679 8.44612C138.679 7.87753 138.66 7.34563 138.624 6.85042C138.588 6.35521 138.479 5.92422 138.298 5.55739C138.135 5.19056 137.863 4.90626 137.483 4.7045C137.102 4.48443 136.567 4.37436 135.878 4.37436H129.517C128.847 4.37436 128.321 4.48443 127.941 4.7045C127.56 4.90626 127.279 5.19056 127.098 5.55739C126.917 5.92422 126.808 6.35521 126.772 6.85042C126.736 7.34563 126.718 7.87753 126.718 8.44612V14.8562C126.718 15.4249 126.736 15.9568 126.772 16.452C126.808 16.9472 126.917 17.378 127.098 17.7449C127.279 18.0937 127.56 18.378 127.941 18.5979C128.321 18.7998 128.847 18.9004 129.517 18.9004H135.878C136.567 18.9004 137.102 18.7998 137.483 18.5979C137.863 18.378 138.135 18.0937 138.298 17.7449C138.479 17.378 138.588 16.9472 138.624 16.452C138.66 15.9568 138.679 15.4249 138.679 14.8562V8.44612ZM161.157 0.302666C162.625 0.302666 163.829 0.541058 164.772 1.01795C165.733 1.47647 166.484 2.11844 167.028 2.94379C167.572 3.76914 167.943 4.74119 168.143 5.86C168.36 6.9788 168.469 8.18935 168.469 9.49155V13.7832C168.469 15.1038 168.36 16.3237 168.143 17.4425C167.943 18.5612 167.572 19.5335 167.028 20.3589C166.484 21.1656 165.733 21.8078 164.772 22.2843C163.829 22.7428 162.625 22.9723 161.157 22.9723H151.886C151.633 22.9723 151.361 22.9265 151.071 22.8349C150.799 22.7247 150.546 22.5777 150.31 22.3946C150.092 22.2114 149.902 22 149.739 21.762C149.594 21.5048 149.521 21.23 149.521 20.9366V2.17345C149.521 1.60486 149.73 1.15549 150.147 0.825352C150.582 0.476894 151.089 0.302666 151.669 0.302666H161.157ZM161.075 18.9004C161.854 18.9004 162.461 18.7811 162.896 18.5431C163.35 18.3045 163.685 17.9744 163.902 17.5527C164.138 17.1123 164.282 16.6081 164.337 16.0394C164.41 15.4707 164.446 14.8562 164.446 14.1959V9.07887C164.446 8.41859 164.41 7.80415 164.337 7.23562C164.282 6.66703 164.138 6.17182 163.902 5.74999C163.685 5.3281 163.35 4.99796 162.896 4.75956C162.461 4.50275 161.854 4.37436 161.075 4.37436H153.545V18.9004H161.075ZM191.374 0.302666C191.483 0.302666 191.637 0.35767 191.836 0.467735C192.036 0.577746 192.135 0.843721 192.135 1.26556V3.41147C192.135 3.83331 192.036 4.09928 191.836 4.20929C191.637 4.31936 191.483 4.37436 191.374 4.37436H175.743C175.634 4.37436 175.48 4.32852 175.281 4.23682C175.1 4.12676 175.009 3.86084 175.009 3.439V1.29309C175.009 0.852881 175.1 0.577746 175.281 0.467735C175.48 0.35767 175.634 0.302666 175.743 0.302666H191.374ZM179.087 16.3972C179.087 17.3322 179.322 17.9835 179.793 18.3503C180.283 18.7172 180.945 18.9004 181.778 18.9004H191.347C191.637 18.9004 191.836 18.9925 191.945 19.1757C192.071 19.3589 192.135 19.5793 192.135 19.836V22.0367C192.135 22.2939 192.071 22.5138 191.945 22.697C191.836 22.8807 191.637 22.9723 191.347 22.9723H181.696C180.392 22.9723 179.304 22.7891 178.434 22.4223C177.582 22.0367 176.903 21.4957 176.395 20.7987C175.888 20.1017 175.526 19.2673 175.308 18.2955C175.108 17.3051 175.009 16.2044 175.009 14.9941V11.3625C175.009 11.1421 175.045 10.9222 175.118 10.7023C175.19 10.4637 175.308 10.2619 175.471 10.0968C175.653 9.91343 175.879 9.76668 176.151 9.65662C176.441 9.5466 176.794 9.49155 177.211 9.49155H191.238C191.51 9.49155 191.7 9.58329 191.809 9.76668C191.936 9.95007 191.999 10.1702 191.999 10.427V12.6006C191.999 12.8572 191.936 13.0862 191.809 13.288C191.7 13.4717 191.51 13.5633 191.238 13.5633H179.087V16.3972ZM228.381 0C228.871 0 229.287 0.073375 229.632 0.220128C229.995 0.366827 230.302 0.568588 230.556 0.825352C230.828 1.0638 231.055 1.35725 231.236 1.70576C231.435 2.05422 231.617 2.43937 231.78 2.86126L239.418 21.927C239.491 22.1102 239.527 22.2662 239.527 22.3946C239.527 22.5777 239.464 22.7247 239.337 22.8349C239.228 22.9446 239.083 23 238.902 23H235.993C235.613 23 235.35 22.7982 235.205 22.3946L228.436 5.30978H228.327L224.793 14.3061H228.164C228.527 14.3061 228.789 14.4893 228.952 14.8562C229.007 14.9845 229.089 15.1863 229.197 15.4616C229.324 15.7183 229.442 15.9845 229.55 16.2593C229.677 16.5346 229.777 16.8003 229.849 17.0575C229.94 17.2955 229.986 17.4792 229.986 17.6075C229.986 17.8642 229.904 18.075 229.741 18.2401C229.578 18.4052 229.369 18.4877 229.115 18.4877H223.162L221.612 22.4223C221.468 22.8072 221.214 23 220.852 23H217.861C217.444 23 217.236 22.7982 217.236 22.3946C217.236 22.2114 217.263 22.0554 217.318 21.927L224.902 2.86126C225.228 2.0359 225.654 1.35725 226.179 0.825352C226.705 0.275135 227.439 0 228.381 0ZM248.239 0.302666C248.348 0.302666 248.502 0.35767 248.701 0.467735C248.9 0.577746 249 0.843721 249 1.26556V22.0367C249 22.459 248.9 22.7247 248.701 22.8349C248.502 22.9446 248.348 23 248.239 23H245.738C245.629 23 245.475 22.9446 245.275 22.8349C245.077 22.7247 244.977 22.459 244.977 22.0367V1.26556C244.977 0.843721 245.077 0.577746 245.275 0.467735C245.475 0.35767 245.629 0.302666 245.738 0.302666H248.239Z" fill="white"/>
</svg>
