<svg xmlns="http://www.w3.org/2000/svg" xmlns:xlink="http://www.w3.org/1999/xlink" width="94" height="94" viewBox="0 0 94 94">
  <defs>
    <linearGradient id="linear-gradient" x1="0.394" y1="-0.2" x2="0.535" y2="1.138" gradientUnits="objectBoundingBox">
      <stop offset="0" stop-color="#2dc1c3"/>
      <stop offset="1" stop-color="#0268f2"/>
    </linearGradient>
    <clipPath id="clip-path">
      <rect id="Rectangle_641" data-name="Rectangle 641" width="60.556" height="60.709" fill="#f3f3f3"/>
    </clipPath>
  </defs>
  <g id="Group_2227" data-name="Group 2227" transform="translate(-107.5 -1999.5)">
    <circle id="Ellipse_1898" data-name="Ellipse 1898" cx="46.5" cy="46.5" r="46.5" transform="translate(108 2000)" stroke="rgba(0,0,0,0)" stroke-width="1" fill="url(#linear-gradient)"/>
    <g id="Group_2224" data-name="Group 2224" transform="translate(124.222 2012.669)">
      <g id="Group_2223" data-name="Group 2223" clip-path="url(#clip-path)">
        <path id="Path_7127" data-name="Path 7127" d="M57.537,38.529a1.342,1.342,0,0,1-.2-.294,5.406,5.406,0,0,0,2.978-5.983A5.1,5.1,0,0,0,56.4,28a5.338,5.338,0,0,0-6.193,2.423l-4.044-3.587c2.668,0,5.058-.008,7.448,0,.9,0,1.412-.285,1.409-1.3q-.029-9.9,0-19.8c0-.944-.436-1.257-1.325-1.242-1.793.031-3.587-.018-5.38.024-.669.016-.9-.125-.914-.864A3.44,3.44,0,0,0,43.782,0a3.406,3.406,0,0,0-3.417,3.716c-.006.7-.234.821-.861.808-1.792-.039-3.586-.019-5.38-.012-1.181,0-1.427.249-1.435,1.463-.012,1.757-.028,3.515.01,5.272.013.62-.1.85-.8.87a3.52,3.52,0,0,0-3.72,3.589A3.457,3.457,0,0,0,31.9,19.153c.713.012.814.265.8.876-.035,1.685-.015,3.371-.011,5.057,0,1.531.24,1.919,1.719,1.71,2.355-.333,3.976.412,4.925,2.6a.991.991,0,0,0,.184.264.357.357,0,0,1,0,.551C38.2,31.8,36.9,33.4,35.535,35.083c-.573-2.9-2.489-4.776-4.888-4.963a5.464,5.464,0,0,0-3.942,1.05A5.9,5.9,0,0,0,24.533,34.8c-1.214-1.49-2.327-2.888-3.481-4.252-.3-.358-.176-.554,0-.91,1.08-2.21,2.674-3.391,5.237-2.8a1.437,1.437,0,0,0,.322,0c.875-.006,1.295-.4,1.282-1.321q-.049-3.442,0-6.886c.012-.94-.432-1.285-1.311-1.272a11.482,11.482,0,0,1-1.823-.065A1.656,1.656,0,0,1,24.946,14c.537-.029,1.076-.015,1.614-.008.866.012,1.335-.34,1.327-1.274q-.032-3.5,0-6.994C27.894,4.848,27.5,4.5,26.647,4.5c-1.9.02-3.8,0-5.7.008-2.292.013-2.622-.422-2.528,2.507a2.882,2.882,0,0,1-.006.323,1.7,1.7,0,0,1-1.616,1.687,1.732,1.732,0,0,1-1.79-1.634A10.579,10.579,0,0,1,15,5.782c.056-.922-.352-1.294-1.27-1.281-2.152.029-4.3.009-6.456.01-1.571,0-1.714.14-1.714,1.708q0,9.414,0,18.829c0,1.614.173,1.786,1.782,1.788,2.278,0,4.557,0,7.093,0L10.321,30.6a7.506,7.506,0,0,0-.461-.657,5.266,5.266,0,0,0-5.31-2.074A5.2,5.2,0,0,0,.139,32.155a5.006,5.006,0,0,0,2.2,5.526c.914.605.738.872.112,1.48C1.234,40.342.106,41.6.109,43.463.118,48.3.1,53.147.118,57.988A2.5,2.5,0,0,0,2.87,60.7c2.977.01,5.954,0,8.931,0,2.179,0,3.134-.952,3.136-3.131q.005-7.747,0-15.494c0-2.075.923-3.874,1.595-5.881,1.45,2.16,2.944,4.1,4.121,6.219a14.271,14.271,0,0,1,2.194,7.622c-.116,2.649-.035,5.307-.021,7.961.009,1.868.834,2.7,2.674,2.7q4.681.012,9.361,0a2.408,2.408,0,0,0,2.685-2.729c.005-3.156,0-6.312,0-9.468a5.212,5.212,0,0,1,.143-1.271c1.068-4.3,3.915-7.608,6.233-11.328a20.4,20.4,0,0,1,1.832,8.321c-.15,4.55-.046,9.109-.037,13.663,0,1.9.933,2.81,2.845,2.814q4.358.01,8.716,0c2.347,0,3.2-.868,3.2-3.261,0-3.766-.15-7.54.048-11.3.163-3.084-.509-5.662-3-7.62M54.9,29.637a3.679,3.679,0,0,1,3.713,3.642,3.724,3.724,0,0,1-3.635,3.631,3.67,3.67,0,0,1-3.68-3.662,3.608,3.608,0,0,1,3.6-3.61m-17.78-5.389c-.507,1.258-1.485.694-2.224.669-.694-.023-.323-.8-.335-1.215-.047-1.683-.042-3.369-.011-5.053.017-.921-.392-1.311-1.29-1.294a10.638,10.638,0,0,1-1.822-.063,1.55,1.55,0,0,1-1.408-1.724,1.607,1.607,0,0,1,1.575-1.576,1.749,1.749,0,0,1,.215,0c3.311.149,2.681-.438,2.717-2.777.02-1.29.07-2.585-.019-3.869-.063-.906.29-1.056,1.086-1.031,1.719.054,3.441-.011,5.161.027,1.015.023,1.446-.4,1.4-1.41a8.117,8.117,0,0,1,.088-1.818,1.5,1.5,0,0,1,1.712-1.285A1.514,1.514,0,0,1,45.511,3.31a16.242,16.242,0,0,1,.014,1.72c-.023.9.4,1.309,1.3,1.3,1.828-.015,3.657.028,5.484-.02.715-.019.91.2.9.911-.039,2.8-.016,5.592-.016,8.387,0,2.832-.025,5.664.017,8.495.011.719-.2.9-.9.883-2.4-.043-4.8-.034-7.2,0a1.51,1.51,0,0,1-1.305-.547c-.344-.411-.779-.748-1.107-1.17-1.583-2.034-4.737-1.087-5.57.981m-7.153,7.643a3.667,3.667,0,0,1,3.687,3.662,3.449,3.449,0,0,1-3.52,3.413,3.739,3.739,0,0,1-3.761-3.445,3.632,3.632,0,0,1,3.594-3.63M13.769,25c-1.853-.144-3.726-.057-5.589-.018-.612.013-.776-.172-.77-.776.031-2.867.014-5.735.014-8.6,0-2.8.023-5.592-.016-8.387-.01-.695.16-.94.884-.908a36.528,36.528,0,0,0,3.869,0c.877-.054,1.07.256,1.059,1.08a3.437,3.437,0,0,0,2.6,3.382A3.578,3.578,0,0,0,19.842,9a3.876,3.876,0,0,0,.463-2.072c-.032-.479.165-.616.622-.609q2.258.031,4.517,0c.476-.006.622.185.617.637-.016,1.505-.035,3.012.007,4.516.019.691-.386.606-.827.625a3.6,3.6,0,0,0-3.559,2.424,3.452,3.452,0,0,0,3.188,4.611c1,.01,1.267.3,1.206,1.26-.082,1.285-.047,2.58-.008,3.869.017.572-.17.747-.731.719-.874-.044-1.591.1-2.108-1.078-.812-1.853-3.871-2.595-5.3-.638A4.232,4.232,0,0,1,13.769,25M1.827,33.215a3.664,3.664,0,0,1,7.325-.009A3.7,3.7,0,0,1,5.5,36.91a3.7,3.7,0,0,1-3.669-3.695m11.24,9.546c-.1,4.906-.023,9.816-.025,14.724,0,1.332-.085,1.42-1.383,1.422-2.795,0-5.59-.031-8.383.019-.991.018-1.323-.328-1.3-1.309.052-2.364.017-4.729.017-7.093,0-2.15.043-4.3-.017-6.448a3.732,3.732,0,0,1,1.166-2.983c.362-.346.705-.713,1.04-1.086a3.981,3.981,0,0,1,2.375-1.4,5.238,5.238,0,0,0,4.389-4.881,2.216,2.216,0,0,1,.678-1.386q3.766-3.83,7.5-7.691c.413-.425.8-.789,1.482-.6,1.067.3,1.339.813.8,1.768a67.866,67.866,0,0,1-4.719,6.506,17.991,17.991,0,0,0-3.616,10.44m28.269-6.249c-2.117,3.181-4.418,6.257-5.352,10.072a8.272,8.272,0,0,0-.323,2c.006,3.048-.024,6.1.02,9.143.012.871-.231,1.214-1.143,1.2-2.9-.043-5.809-.047-8.713,0-.969.016-1.213-.345-1.193-1.262.054-2.581-.05-5.165.036-7.744.113-3.369-1.161-6.287-2.824-9.064-1.211-2.023-2.578-3.956-3.922-5.9A.936.936,0,0,1,18,33.59c.549-.61,1.031-1.28,1.56-1.947,2.08,2.434,4,4.926,6.114,7.272a5.562,5.562,0,0,0,8.175.546c2.519-2.176,4.4-4.9,6.528-7.4.157-.185.325-.361.485-.538a.977.977,0,0,1,.122.092c2.039,2.341,2.05,2.348.352,4.9m17.358,8.047c-.183,4.327-.073,8.668-.03,13,.011,1.049-.38,1.378-1.389,1.363-2.794-.044-5.59-.052-8.384,0-1.031.02-1.4-.329-1.385-1.36.047-2.65.016-5.3.016-7.953,0-2.185.044-4.372-.009-6.556a18.543,18.543,0,0,0-3.758-10.929,61.433,61.433,0,0,1-4.537-6.242c-.315-.553-.636-1.073.123-1.541a1.352,1.352,0,0,1,1.919.095q3.881,4.018,7.793,8.005a1.517,1.517,0,0,1,.393,1.051,5.547,5.547,0,0,0,5.262,5.256c.173.018.414,0,.506.1,1.5,1.682,3.6,2.884,3.48,5.706" transform="translate(0 0)" fill="#f3f3f3"/>
      </g>
    </g>
  </g>
</svg>
