<svg xmlns="http://www.w3.org/2000/svg" xmlns:xlink="http://www.w3.org/1999/xlink" width="94" height="94" viewBox="0 0 94 94">
  <defs>
    <linearGradient id="linear-gradient" x1="0.394" y1="-0.2" x2="0.535" y2="1.138" gradientUnits="objectBoundingBox">
      <stop offset="0" stop-color="#2dc1c3"/>
      <stop offset="1" stop-color="#0268f2"/>
    </linearGradient>
    <clipPath id="clip-path">
      <rect id="Rectangle_639" data-name="Rectangle 639" width="71.978" height="72" fill="#f3f3f3"/>
    </clipPath>
  </defs>
  <g id="Group_2225" data-name="Group 2225" transform="translate(-107.5 -1640.5)">
    <circle id="Ellipse_1879" data-name="Ellipse 1879" cx="46.5" cy="46.5" r="46.5" transform="translate(108 1641)" stroke="rgba(0,0,0,0)" stroke-width="1" fill="url(#linear-gradient)"/>
    <g id="Group_2220" data-name="Group 2220" transform="translate(118.511 1651.5)">
      <g id="Group_2219" data-name="Group 2219" clip-path="url(#clip-path)">
        <path id="Path_7116" data-name="Path 7116" d="M71.962,30.787c0-.3.046-.631-.425-.608-1.029.05-2.08-.182-3.048.442-.75.484-1.568.863-2.363,1.276-.291.151-.571.371-.944.208A43.8,43.8,0,0,0,59.8,30.6c-.244-.072-.552-.029-.622-.363-.067-.316.188-.461.386-.629,3.6-3.051,3.809-7.043,2.611-11.09-1.1-3.729-3.958-5.65-8-5.738a15.759,15.759,0,0,1,.846-1.982c.439-.74.2-1.188-.36-1.718C53.412,7.9,52.221,6.651,51,5.435c-1.74-1.734-1.785-1.795-3.794-.364a3.055,3.055,0,0,1-3.094.308c-2.386-.715-3.46-2.1-3.5-4.479C40.6.237,40.272-.022,39.551,0c-1.8.06-3.6.02-5.395.02-2.63,0-2.694-.01-3.112,2.6-.188,1.167-.775,1.6-1.776,2.181a4.476,4.476,0,0,1-5.943-.7c-.4-.373-.731-.314-1.132.108-1.16,1.221-2.377,2.387-3.571,3.575C16.6,9.787,16.6,9.787,17.682,12.5a1.512,1.512,0,0,1,.037.293,8.111,8.111,0,0,0-8.366,7.249c-.294,2.949-.243,5.86,1.8,8.309a16.721,16.721,0,0,0,1.358,1.334c.382.364.51.7-.134.877-1.6.445-3.211,1.047-4.678-.395a13.563,13.563,0,0,0-1.242-.746A7.557,7.557,0,0,0,.795,27.882c-.511.052-.8.052-.795.708Q.035,39.943,0,51.3a.721.721,0,0,0,.547.814c3.576,1.183,7.138,2.405,10.732,3.529.741.232,1.983.477,2.3-.128.537-1.015.9-.387,1.338-.166.5.251.95.6,1.44.865A2.17,2.17,0,0,1,17.62,57.76a3.16,3.16,0,0,0,2.625,2.468c.5.095.635.276.752.74a3.529,3.529,0,0,0,2.775,2.767.838.838,0,0,1,.771.779A3.119,3.119,0,0,0,26.906,67.1a1.451,1.451,0,0,1,1.187,1.157,3.419,3.419,0,0,0,4.521,2.333,1.523,1.523,0,0,1,1.825.376,3.622,3.622,0,0,0,6.086-1.824c.121-.431.227-.677.759-.77A3.248,3.248,0,0,0,44,65.723c.124-.531.3-.668.8-.8a3.3,3.3,0,0,0,2.672-2.826c.073-.533.4-.609.842-.707a3.3,3.3,0,0,0,2.692-2.935,1.487,1.487,0,0,1,.949-1.3q9.622-4.783,19.223-9.608c.389-.195.8-.278.8-.9-.026-5.283-.015-10.566-.016-15.849M54.3,15.132a5.873,5.873,0,0,1,5.937,5.03,16.172,16.172,0,0,1,.019,3.922,5.079,5.079,0,0,1-2.409,3.862,1.858,1.858,0,0,0-.993,1.883c.053,2.473.021,2.465,2.411,3.02,1.041.242,2.071.529,3.39.869l-12.8,6.736c0-1.442.07-2.666-.02-3.878a5.632,5.632,0,0,0-1.551-3.3c1.127-.3,2.148-.645,3.2-.82.656-.11.8-.393.749-.962a4.243,4.243,0,0,1,0-.9A2.7,2.7,0,0,0,50.9,27.642,4.8,4.8,0,0,1,48.805,23.5c-.02-.973-.034-1.947.009-2.919A5.713,5.713,0,0,1,54.3,15.132M33.681,31.571a6.038,6.038,0,0,1,0-1.123A2.4,2.4,0,0,0,32.392,27.7a4.355,4.355,0,0,1-2-3.006,11.51,11.51,0,0,1,.01-5.234,5.72,5.72,0,0,1,5.7-4.342,5.924,5.924,0,0,1,5.521,4.743,9.376,9.376,0,0,1,.174,2.405,6.044,6.044,0,0,1-3.091,6.076.806.806,0,0,0-.42.714c-.307,3.013-.272,3.071,2.662,3.83,1.228.317,2.458.627,3.682.958a3.545,3.545,0,0,1,2.975,3.787c.03,1.048-.05,2.1.021,3.146.076,1.115-.5,1.176-1.317.946-2.3-.645-4.563-1.461-6.9-1.906-2.763-.526-5.343-1.623-8.062-2.262a13.49,13.49,0,0,0-6-.1c-1.047.227-1.041-.092-.855-.9a3.28,3.28,0,0,1,2.487-2.6c1.98-.539,3.968-1.054,5.969-1.506.561-.127.773-.327.728-.878m13.137-.307c-2.091.716-3.946-.38-5.882-.769-.58-.117-.218-.635.1-.94a10.668,10.668,0,0,0,2.275-11.946,8.051,8.051,0,0,0-15.418,3.277c0,.412,0,.824,0,1.477a8.111,8.111,0,0,0,3.065,7.22c.555.454.606.84-.265,1.026-1.166.249-2.3.631-3.474.863-1.34.267-2.545-.451-3.811-.707-.438-.089-1.19.084-1.325-.563-.118-.566.557-.727.891-1.045,2.366-2.251,2.782-5.111,2.563-8.161a5.862,5.862,0,0,0-.438-2.417,2.034,2.034,0,0,1,.239-2.35,12.774,12.774,0,0,1,21.678.584c.291.486.094.841-.034,1.253A12.95,12.95,0,0,0,47,26.116,7.371,7.371,0,0,0,49.552,29.6c.209.166.431.324.37.636-.069.348-.378.294-.621.357-.83.216-1.674.393-2.483.67M19.733,9.926c.949-.9,1.887-1.821,2.779-2.78.4-.429.748-.457,1.125-.081,1.645,1.643,3.319,1.775,5.227.356a8.148,8.148,0,0,1,3.144-1.108.921.921,0,0,0,.812-.9c.05-.367.154-.727.235-1.09.446-1.985.446-2.008,2.417-1.976,1,.016,2.229-.415,2.93.191s.541,1.871.751,2.849c.1.477.234.795.791.92a16.218,16.218,0,0,1,5.235,2.183.76.76,0,0,0,1.073-.063.493.493,0,0,1,.1-.056c.9-.509,1.74-1.673,2.632-1.474.87.194,1.535,1.332,2.277,2.069,1.416,1.407,1.3,1.374.674,3.245-.522,1.552-2.021,1.877-3.022,2.812-.324.3-.456-.253-.6-.452a15.072,15.072,0,0,0-8.26-5.829,21.542,21.542,0,0,0-3.9-.632,15.121,15.121,0,0,0-12.292,6.255c-.587.8-.818.651-1.569.216a6,6,0,0,1-2.741-3.59c-.15-.456-.179-.721.18-1.063M14.92,32.183c.542-.685.092-1.8.191-2.723a1.255,1.255,0,0,0-.739-1.332,5.407,5.407,0,0,1-2.7-4.638c-.031-1.009-.037-2.023.031-3.029a5.7,5.7,0,0,1,5.708-5.341A5.878,5.878,0,0,1,23.131,20.4a21.977,21.977,0,0,1,.013,3.478,5.23,5.23,0,0,1-2.537,4.148,1.622,1.622,0,0,0-.873,1.61c.043,2.6.015,2.6,2.56,3.231.426.106.842.251,1.407.422a6.054,6.054,0,0,0-1.642,4.233c0,.526-.171.748-.677.788a7.421,7.421,0,0,0-.878.168c-.619.126-1.417.546-1.808.3-.462-.285-.118-1.161-.1-1.776.012-.532-.318-.7-.679-.909-1.765-1.027-3.525-2.063-5.389-3.157.919-.263,1.991-.249,2.4-.763M6.267,51.566a23.707,23.707,0,0,0-3.175-1.055c-.651-.168-.78-.492-.775-1.1.028-3.067.013-6.134.013-9.2q0-4.544,0-9.089c0-1.033.287-1.228,1.175-.722C6,31.82,8.468,33.288,10.96,34.712c.491.281.53.58.4,1.1q-1.9,7.527-3.738,15.072c-.21.87-.542,1.024-1.353.686m5.954.762c-.24.877-.513,1.243-1.386.75-.451-.254-1.239-.087-1.237-.708.842-3.4,1.619-6.542,2.4-9.687.458-1.842.942-3.678,1.372-5.526.155-.665.333-.848,1.007-.459,1.989,1.149,1.994,1.118,1.369,3.28-1.19,4.113-2.394,8.221-3.525,12.35m9.611,5.409a1.162,1.162,0,0,1-1.555.023,1.106,1.106,0,0,1-.41-1.487,10.293,10.293,0,0,1,2.749-2.753,1.081,1.081,0,0,1,.41-.09,1.2,1.2,0,0,1,1.144.618,1.245,1.245,0,0,1-.115,1.473c-.707.77-1.443,1.52-2.223,2.215m3.193,3.64a1.1,1.1,0,0,1-.445.119,1.215,1.215,0,0,1-1.2-1.722,8.729,8.729,0,0,1,2.7-2.754,1.027,1.027,0,0,1,1.328.217c.357.339.676.806.386,1.292a10.039,10.039,0,0,1-2.77,2.848m3.882,3.242a1.166,1.166,0,0,1-1.781-.006,1.227,1.227,0,0,1-.03-1.8c.637-.723,1.342-1.388,2.043-2.05a1.3,1.3,0,0,1,1.549-.188.987.987,0,0,1,.6,1.059,1.071,1.071,0,0,1-.333.942c-.675.69-1.345,1.387-2.049,2.048m5.83.826A8.207,8.207,0,0,1,31.9,68.381a.372.372,0,0,1-.266.042,1.25,1.25,0,0,1-1.272-.638,1.066,1.066,0,0,1,.113-1.355c.739-.791,1.5-1.566,2.3-2.3a1.119,1.119,0,0,1,1.456-.041,1.058,1.058,0,0,1,.505,1.352m2.237,4.206c-.71-.079-1.624-.561-1.527-1.028a4.024,4.024,0,0,1,1.468-1.807c.233-.2,1.354,1.093,1.357,1.59,0,.856-.543,1.157-1.3,1.245M48.417,58.763c-.464.6-1.421.555-2.2-.091-1.789-1.479-3.6-2.936-5.334-4.476-.633-.563-.968-.338-1.272.211-.268.484-1.309.8-.241,1.616,1.756,1.336,3.4,2.813,5.107,4.219.68.561,1.119,1.223.457,2-.623.733-1.4.573-2.089,0-1.873-1.553-3.755-3.1-5.6-4.685-.424-.366-.617-.3-.947.079-1.089,1.244-1.106,1.237.18,2.319,1.518,1.277,3.045,2.544,4.567,3.816.626.523,1.092,1.125.459,1.907a1.306,1.306,0,0,1-1.993.109,15.123,15.123,0,0,1-3.159-2.833,2.962,2.962,0,0,0-2.028-1.29c-.582-.073-.689-.33-.8-.835a3.257,3.257,0,0,0-2.5-2.59,1.15,1.15,0,0,1-.982-.968,3.372,3.372,0,0,0-2.671-2.585c-.563-.125-.69-.394-.822-.864A3.552,3.552,0,0,0,20.595,52.1a17.989,17.989,0,0,0-1.829,1.823c-.441.522-.8.656-1.379.218-.859-.648-2.294-.89-2.6-1.787-.276-.816.427-1.966.708-2.967q1-3.555,2-7.108c.1-.354.1-.769.581-.855,3.229-.58,6.355-1.677,9.659-1.879a13.893,13.893,0,0,1,5.707,1.067c-2.007,1-3.85,1.89-5.665,2.834a3.9,3.9,0,0,0-2.137,4.4,3.75,3.75,0,0,0,2.858,3.1,3.675,3.675,0,0,0,3-.472c1.256-.737,2.495-1.5,3.749-2.244,1.482-.876,2.405-.811,3.661.312,3.042,2.72,6.066,5.46,9.1,8.187.651.584,1.024,1.225.4,2.032M68.862,46.134q-8.92,4.415-17.8,8.9a1.305,1.305,0,0,1-1.756-.222c-2.884-2.667-5.817-5.282-8.744-7.9-2.248-2.013-3.98-2.163-6.6-.6-1.156.687-2.3,1.393-3.465,2.065a1.628,1.628,0,0,1-2.415-.448,1.712,1.712,0,0,1,.839-2.442c2.087-1.075,4.181-2.14,6.3-3.156a4.988,4.988,0,0,1,3.709-.293c2.07.622,4.16,1.175,6.235,1.778a5.08,5.08,0,0,0,4.075-.382C55.6,40,62.026,36.668,68.431,33.3c1.216-.64,1.217-.638,1.217.783q0,2.583,0,5.167c0,1.872-.029,3.745.016,5.616a1.193,1.193,0,0,1-.8,1.269" transform="translate(0 0)" fill="#f3f3f3"/>
      </g>
    </g>
  </g>
</svg>
