<svg xmlns="http://www.w3.org/2000/svg" xmlns:xlink="http://www.w3.org/1999/xlink" width="94" height="94" viewBox="0 0 94 94">
  <defs>
    <linearGradient id="linear-gradient" x1="0.394" y1="-0.2" x2="0.535" y2="1.138" gradientUnits="objectBoundingBox">
      <stop offset="0" stop-color="#2dc1c3"/>
      <stop offset="1" stop-color="#0268f2"/>
    </linearGradient>
    <clipPath id="clip-path">
      <rect id="Rectangle_640" data-name="Rectangle 640" width="63.229" height="63.128" fill="#f3f3f3"/>
    </clipPath>
  </defs>
  <g id="Group_2226" data-name="Group 2226" transform="translate(-107.5 -1814.5)">
    <circle id="Ellipse_1897" data-name="Ellipse 1897" cx="46.5" cy="46.5" r="46.5" transform="translate(108 1815)" stroke="rgba(0,0,0,0)" stroke-width="1" fill="url(#linear-gradient)"/>
    <g id="Group_2222" data-name="Group 2222" transform="translate(122.885 1825.936)">
      <g id="Group_2221" data-name="Group 2221" clip-path="url(#clip-path)">
        <path id="Path_7117" data-name="Path 7117" d="M104.489,8.414c-.062.659-.273,1.015-.74,1.16a.919.919,0,0,1-1.2-.433c-.5-1.078-.95-2.179-1.354-3.3a.936.936,0,0,1,.476-1.193.891.891,0,0,1,1.189.147,19.348,19.348,0,0,1,1.632,3.614" transform="translate(-80.821 -3.594)" fill="#f3f3f3"/>
        <path id="Path_7118" data-name="Path 7118" d="M196.969,8.6a21.745,21.745,0,0,1,1.55-3.549.881.881,0,0,1,1.086-.267.82.82,0,0,1,.664.883,10.568,10.568,0,0,1-1.533,3.845.862.862,0,0,1-1.1.213,1.106,1.106,0,0,1-.669-1.125" transform="translate(-157.416 -3.763)" fill="#f3f3f3"/>
        <path id="Path_7119" data-name="Path 7119" d="M32.732,80.151a17.532,17.532,0,0,1-3.427-1.492.9.9,0,0,1-.222-1.182.883.883,0,0,1,1.043-.589,16.014,16.014,0,0,1,3.488,1.427.881.881,0,0,1,.411,1.123c-.178.485-.518.766-1.294.712" transform="translate(-23.15 -61.425)" fill="#f3f3f3"/>
        <path id="Path_7120" data-name="Path 7120" d="M261.65,80.127c-.788.051-1.127-.244-1.291-.728a.924.924,0,0,1,.506-1.179c1.05-.492,2.129-.927,3.218-1.328a1.035,1.035,0,0,1,.991,1.753,16.628,16.628,0,0,1-3.424,1.482" transform="translate(-208.031 -61.399)" fill="#f3f3f3"/>
        <path id="Path_7121" data-name="Path 7121" d="M63.988,38.606a1,1,0,0,1-1.564.854,6.126,6.126,0,0,1-1.451-1.476,1.061,1.061,0,0,1,.866-1.593c.686-.022,2.172,1.51,2.148,2.215" transform="translate(-48.601 -29.083)" fill="#f3f3f3"/>
        <path id="Path_7122" data-name="Path 7122" d="M238.106,38.638c-.013-.735,1.5-2.27,2.173-2.238a1.073,1.073,0,0,1,.8,1.7,8.55,8.55,0,0,1-1.329,1.339.943.943,0,0,1-1.125.068.906.906,0,0,1-.515-.868" transform="translate(-190.29 -29.09)" fill="#f3f3f3"/>
        <path id="Path_7123" data-name="Path 7123" d="M154.178,1.627c.078.874-.194,1.554-1.064,1.546s-1.106-.712-1.053-1.5c.016-.233-.006-.469.022-.7A1.047,1.047,0,0,1,154.174,1a5.487,5.487,0,0,1,0,.631" transform="translate(-121.52 0)" fill="#f3f3f3"/>
        <path id="Path_7124" data-name="Path 7124" d="M63.116,90.55q-2.138-10.992-4.285-21.983c-.442-2.259-.431-3.481-3.835-3.237-.581.042-.706-.2-.775-.722a2.031,2.031,0,0,0-1.841-1.937c-.439-.058-.549-.252-.511-.662a6.4,6.4,0,0,0-.7-3.88,1.171,1.171,0,0,1-.032-.872A4.3,4.3,0,0,0,48.39,52.1a1.029,1.029,0,0,1-.717-.717,8.913,8.913,0,0,0-8.459-6.867,1.365,1.365,0,0,1-1-.511,4.24,4.24,0,0,0-5.695-.739,1.009,1.009,0,0,1-1.229.051A7.221,7.221,0,0,0,22.8,44.642a1.852,1.852,0,0,1-1.644.6,5,5,0,0,0-5.485,3.408,3.934,3.934,0,0,1-1.649,2.372,2.554,2.554,0,0,0-1.222,2c.025,1.761-.838,3.229-1.264,4.837a7.913,7.913,0,0,0-.017,3.967c.141.567.01.776-.55.822a1.849,1.849,0,0,0-1.872,1.64c-.112,1.028-.633,1.133-1.439,1.039a5.249,5.249,0,0,0-.9,0A2.1,2.1,0,0,0,4.7,67.059c-.684,3.432-1.345,6.869-2.015,10.3C1.853,81.649,1.065,85.944.162,90.215c-.643,3.04.639,4.751,3.74,4.752q9.533,0,19.067,0c1.3,0,2.683-.28,3.65,1.006a1.573,1.573,0,0,0,.7.368,12.52,12.52,0,0,0,6.311.582,6.06,6.06,0,0,0,3.635-1.493,1.537,1.537,0,0,1,1.229-.472c3.546.013,7.091.007,10.637.007q5.168,0,10.336,0c2.805-.005,4.179-1.672,3.646-4.416m-49.383-32.7c.15-.488.349-.35.629-.131.592.464,1.224.635,1.753-.049.562-.726.077-1.2-.477-1.668a2.237,2.237,0,1,1,3.024-3.271c.546.553,1.09.832,1.717.239.65-.615.32-1.206-.181-1.74a3.851,3.851,0,0,0-2.132-1.226c-.6-.109-.58-.361-.358-.818A3.311,3.311,0,0,1,20.364,47.3c.3-.046.769-.134.528.476a.986.986,0,0,0,.7,1.477c.772.216,1.143-.289,1.391-.954a5.192,5.192,0,0,1,5.259-3.658,5.54,5.54,0,0,1,1.364.279c.708.223,1.393.427,1.009,1.5a1.035,1.035,0,0,0,.857,1.505c.857.111,1.117-.476,1.239-1.228a2.233,2.233,0,0,1,4.456.037c.082.638.286,1.124.962,1.2a.98.98,0,0,0,1.163-.96c.057-.428.352-.333.6-.284a7.1,7.1,0,0,1,5.535,4.549c.2.5.184.865-.443,1.048a2.2,2.2,0,0,0-.832.537.924.924,0,0,0-.155,1.267.967.967,0,0,0,1.286.451c.214-.092.411-.223.622-.322A2.236,2.236,0,0,1,48.245,58c-.182.144-.4.241-.582.388a.968.968,0,0,0-.292,1.33c.3.526.827.819,1.345.465.941-.641,1.047-.05,1.081.643a4.44,4.44,0,0,1-1.983,4.132,4.616,4.616,0,0,1-4.667.334c-.461-.2-.438-.452-.228-.852a3.594,3.594,0,0,0,.131-2.919c-.238-.7-.754-1.086-1.47-.8a1,1,0,0,0-.564,1.467,1.5,1.5,0,0,1-.688,2.063,1.515,1.515,0,0,1-2.1-.574c-.42-.623-.954-.9-1.6-.474-.712.475-.551,1.124-.139,1.75a3.613,3.613,0,0,0,3.737,1.567,1.427,1.427,0,0,1,1.269.241c1.556,1.108,3.09,1.359,5.525.985a6.533,6.533,0,0,1-4,2.555c-.757.168-1.323.477-1.16,1.3.174.884.857,1,1.636.762.032-.01.066-.009.1-.016,1.545-.318,1.678-.217,2.143,1.348a1.115,1.115,0,0,1-.423,1.324.98.98,0,0,1-1.377-.059c-1.309-1.577-3.158-2.166-4.951-2.887a3.624,3.624,0,0,1-1.9-1.482c.445-.372,1.028-.217,1.5-.438.59-.277.973-.653.769-1.307a1.027,1.027,0,0,0-1.341-.741,8.52,8.52,0,0,1-5.307-.16,1.322,1.322,0,0,0-1.445.4,4.563,4.563,0,0,1-7.341-5.283c.332-.7.416-1.354-.357-1.706-.727-.331-1.232.064-1.6.763-.172.324-.054,1.025-.7.918A1.418,1.418,0,0,1,20.1,61.822c-.032-.164-.045-.332-.084-.494a1.045,1.045,0,0,0-2.07.2,3.672,3.672,0,0,0,2.469,3.526,5.342,5.342,0,0,1,.576.166c.378.18.306.578.324.883.019.339-.338.245-.535.27a6.19,6.19,0,0,1-5.867-2.313,6.33,6.33,0,0,1-1.179-6.208m11.833,31.6c-.09.9-.159,1.8-.195,2.7-.021.527-.254.657-.752.656-7.09-.014-14.18,0-21.27-.015-.976,0-1.4-.556-1.217-1.5C3.625,83.669,5.16,76.057,6.579,68.424c.259-1.394,1.085-.834,1.94-.96C7.38,74.238,6.266,80.88,5.146,87.52a2.189,2.189,0,0,0,2.966,2.465,35.062,35.062,0,0,1,6.934-1.459,39.465,39.465,0,0,1,9.994.267c.414.064.569.229.526.657m9.167,5.023a10.787,10.787,0,0,1-6.289-.01c-.773-.231-1.184-.585-1.055-1.473.143-.987.183-1.99.247-2.987.032-.49.217-.676.686-.435a6.7,6.7,0,0,0,6.514.018c.482-.253.717-.108.749.454.055.964.152,1.926.247,3.069.242.771-.3,1.127-1.1,1.364m-2.063-6.479V82.628c0-2.541-.007-5.082,0-7.623,0-.786-.171-1.465-1.106-1.443-.872.02-1.029.679-1.028,1.421q.012,5.918,0,11.835V88a37.132,37.132,0,0,0-23.262-.014c.3-1.889.574-3.7.873-5.5.644-3.88,1.3-7.758,1.953-11.638.3-1.775.575-3.553.9-5.324.055-.3-.1-.833.485-.817.513.015,1.039-.325,1.509.33a8.352,8.352,0,0,0,6.437,3.548c2.357.183,2.357.186,4.1,1.7a6.709,6.709,0,0,0,8.333.4,2.271,2.271,0,0,1,3.221.746,6.14,6.14,0,0,0,3.693,2.889,9.331,9.331,0,0,1,3.723,2.232,3.166,3.166,0,0,0,3.887.355,3.352,3.352,0,0,0,1.371-3.858c-.23-.721-.891-1.476-.763-2.09s1.034-1.06,1.528-1.639a8.136,8.136,0,0,0,1.7-3.249,4.726,4.726,0,0,1,.45-.992c.243-.467.619-.391,1.022-.387.538.006.439.432.487.715.7,4.109,1.373,8.22,2.058,12.331q.772,4.636,1.548,9.272c.048.29.064.586.1.97a37.135,37.135,0,0,0-23.232.014m27.19,4.795c-7.091.011-14.181,0-21.272.016-.513,0-.719-.16-.742-.67-.04-.9-.108-1.8-.2-2.7-.042-.427.106-.587.527-.65a36.823,36.823,0,0,1,16.644,1.107c2.212.694,3.529-.5,3.143-2.764-.857-5.03-1.65-10.07-2.476-15.105-.243-1.479-.507-2.954-.77-4.478,1.684-.151,1.692-.152,1.972,1.279q2.2,11.233,4.4,22.467a1.115,1.115,0,0,1-1.226,1.5" transform="translate(-0.001 -33.957)" fill="#f3f3f3"/>
        <path id="Path_7125" data-name="Path 7125" d="M141.657,112.838a7.793,7.793,0,0,1-3.127-1.764c-.518-.513-.734-1.085-.222-1.67.528-.6,1.131-.454,1.655.069a4.317,4.317,0,0,0,7.286-2.012c.163-.693.539-1.18,1.337-1.005.685.15.961.855.695,1.719a6.407,6.407,0,0,1-4.544,4.521,1.375,1.375,0,0,0-.934.752,5.051,5.051,0,0,1-4.334,2.79c-.693.047-1.315-.075-1.389-.92-.07-.8.407-1.128,1.158-1.183a3.1,3.1,0,0,0,2.419-1.3" transform="translate(-110.301 -85.05)" fill="#f3f3f3"/>
        <path id="Path_7126" data-name="Path 7126" d="M115.842,90a5.032,5.032,0,0,1,4.466-4.884c.726-.066,1.375.07,1.47.945s-.487,1.144-1.227,1.244a2.648,2.648,0,0,0-2.565,2.668c-.081.714-.434,1.144-1.138,1.108A.987.987,0,0,1,115.842,90" transform="translate(-92.579 -68.014)" fill="#f3f3f3"/>
      </g>
    </g>
  </g>
</svg>
