<svg id="Group_2210" data-name="Group 2210" xmlns="http://www.w3.org/2000/svg" xmlns:xlink="http://www.w3.org/1999/xlink" width="48.481" height="45.72" viewBox="0 0 48.481 45.72">
  <defs>
    <clipPath id="clip-path">
      <rect id="Rectangle_635" data-name="Rectangle 635" width="48.481" height="45.72" fill="#9eb3cf"/>
    </clipPath>
  </defs>
  <g id="Group_2209" data-name="Group 2209" clip-path="url(#clip-path)">
    <path id="Path_4945" data-name="Path 4945" d="M47.36,13.079a2.3,2.3,0,0,0,.464-3.586.672.672,0,0,1-.166-.883,2.3,2.3,0,0,0-1.385-3.067,2.662,2.662,0,0,0-1.26-.179c-.528.062-.686-.118-.667-.654.042-1.209.013-2.421.013-3.631,0-.522.014-1.08-.725-1.07s-.7.594-.7,1.1c-.01,1.211-.026,2.422.008,3.631.014.492-.126.637-.625.63-2.093-.028-4.187-.012-6.28-.012-1.655,0-1.655,0-1.655-1.685,0-.958.015-1.917-.008-2.875C34.36.36,34.189,0,33.659,0s-.7.321-.724.777a2.349,2.349,0,0,0,0,.453c.053.393-.143.524-.5.583-.891.148-1.779.327-2.666.5a2.7,2.7,0,0,0-2.145,1.7c-.121.3-.28.593-.376.9a.569.569,0,0,1-.66.446c-.781-.024-1.564-.012-2.345-.005-.5,0-.928.131-.909.749s.449.712.948.71c.984,0,1.968-.017,2.951.005a.892.892,0,0,0,1.019-.7,3.269,3.269,0,0,1,3.4-2.749,1.748,1.748,0,0,0,.224-.035c1.056-.179,1.032-.178,1.065.9.022.7.091,1.32-.958,1.143a.649.649,0,0,0-.744.685c0,.468.32.713.782.747.2.015.4,0,.605,0q6.318,0,12.636,0c.744,0,1.125.321,1.126.923,0,.723-.465.943-1.089.973-.2.01-.4,0-.605,0-2.749,0-5.5-.007-8.247.006-.548,0-1.3-.175-1.289.725.011.834.715.685,1.251.686q4.426.009,8.853,0c.252,0,.5,0,.757,0a.927.927,0,0,1,1.026.891c.058.588-.334.923-.891,1.032a3.567,3.567,0,0,1-.679.024q-4.691,0-9.382,0c-.738,0-1.052.289-.938.832.109.52.509.551.935.551q4.086,0,8.172,0a4.908,4.908,0,0,1,.6.008.924.924,0,0,1,.906.852.9.9,0,0,1-.709,1.016,2.535,2.535,0,0,1-.745.072q-4.086.007-8.172,0c-.519,0-1.012.034-1,.71s.524.691,1.032.69q3.1-.007,6.2,0c.177,0,.354-.008.529,0a.925.925,0,0,1,.98.942.94.94,0,0,1-.951.975,5.259,5.259,0,0,1-.6.011c-3.354,0-6.709.006-10.063,0-3.7-.008-2.808.249-5.612-1.905A6.432,6.432,0,0,0,22.694,15.4c-2.144-.01-4.287-.025-6.431-.006-.5,0-.7-.094-.694-.652q.046-3.669,0-7.339c-.007-.535.193-.606.648-.6,1.437.024,2.875,0,4.313.011.52,0,1.011-.075,1.028-.715s-.474-.747-1-.747c-1.362,0-2.726-.043-4.085.017-.709.031-.928-.128-.919-.884a2.352,2.352,0,0,0-3.367-2.36.482.482,0,0,1-.624-.119,2.327,2.327,0,0,0-3.746.41c-.169.245-.245.307-.572.219a2.334,2.334,0,0,0-2.973,1.5c-.121.3-.174.436-.569.342A2.313,2.313,0,0,0,.815,6.658C.756,8.926.8,11.2.8,13.467c0,.475.207.787.714.779s.7-.33.68-.8c0-.151,0-.3,0-.454q0-2.762,0-5.523c0-1.123.321-1.648,1-1.639.66.009.95.494.95,1.589q0,2.913,0,5.826c0,.151.009.3,0,.454-.033.5.155.892.674.91.586.02.743-.411.714-.931-.01-.176,0-.353,0-.529q0-3.9,0-7.793c0-.914.372-1.418,1.01-1.407s.934.449.934,1.362q0,4.01,0,8.02c0,.151,0,.3,0,.454a.7.7,0,0,0,.687.825c.486.023.707-.32.731-.784.011-.2.006-.4.006-.605q0-4.5,0-9c0-1.079.264-1.5.937-1.511s.961.4.961,1.464c0,3.127.005,6.254,0,9.382,0,.532.1,1.029.7,1.051.669.025.769-.507.768-1.061q-.008-4.313,0-8.625c0-.227-.006-.455.01-.681a.861.861,0,0,1,.9-.9.871.871,0,0,1,.949.867,5.682,5.682,0,0,1,.017.68q0,3.178,0,6.355,0,3.48,0,6.961c0,.474.157.874.7.89s.711-.358.745-.846c.032-.466-.229-1.119.12-1.351s.969-.077,1.47-.09c.1,0,.2.006.3,0,.234-.017.318.087.274.313-.361,1.836-.34,3.921-2.857,4.337a.613.613,0,0,0-.071.025.926.926,0,0,0-.693,1.029c.012.857-.007,1.715.008,2.572.006.328-.045.5-.444.5-2.648-.014-5.3,0-7.944,0-.206,0-.389.013-.463-.256a11.245,11.245,0,0,0-2.4-3.8,3.2,3.2,0,0,1-.7-2.1c.017-.857-.006-1.715.007-2.572.008-.473-.162-.819-.657-.836-.534-.019-.746.329-.742.837,0,.731.038,1.465-.007,2.194a5.042,5.042,0,0,0,1.288,3.746,8.3,8.3,0,0,1,1.8,2.764.778.778,0,0,1-.124.893,2.169,2.169,0,0,0-.483,2.115c.081.312.016.369-.236.472A2.283,2.283,0,0,0,1.427,31.98a.481.481,0,0,1-.252.641,2.081,2.081,0,0,0-.959,2.727,3.249,3.249,0,0,1,.463,2.763.847.847,0,0,0,.077.439,2.468,2.468,0,0,0,2.717,1.8c.578-.012.719.147.7.708-.046,1.209-.013,2.421-.015,3.631,0,.5.011,1.011.695,1.027s.73-.5.733-1c.008-1.261.026-2.523-.009-3.783-.013-.48.139-.586.6-.582,2.446.022,4.893.03,7.339,0,.568-.008.65.192.637.688-.033,1.285-.021,2.572,0,3.858.006.474.191.843.76.822.53-.02.661-.377.679-.822a2.059,2.059,0,0,0,0-.378c-.063-.432.158-.563.549-.615.6-.08,1.183-.257,1.781-.318A3.452,3.452,0,0,0,21.232,40.9c.119-.446.382-.547.82-.545,3.329.018,6.659.032,9.987-.008.709-.009.925.134.916.886a2.351,2.351,0,0,0,3.369,2.356.483.483,0,0,1,.624.122A2.334,2.334,0,0,0,40.7,43.3c.136-.193.181-.33.5-.254A2.285,2.285,0,0,0,44.262,41.5c.084-.19.107-.348.4-.316,2.083.222,3.055-.654,3.056-2.731,0-3.934-.028-7.869.016-11.8a5.326,5.326,0,0,0-1.267-3.681,8.638,8.638,0,0,1-1.818-2.756.828.828,0,0,1,.127-.96,2.146,2.146,0,0,0,.474-2.047c-.078-.32-.043-.41.255-.527a2.261,2.261,0,0,0,1.587-2.9.525.525,0,0,1,.265-.7M17.206,21.93c1.222-.362,1.359-1.627,1.586-2.715.021-.1.018-.2.034-.3.342-2.12.342-2.12,2.785-2.12a6.09,6.09,0,0,1,5.07,1.864,5.34,5.34,0,0,0,4.342,1.508c.474-.045.957.012,1.435-.013.359-.019.52.1.477.467a1.386,1.386,0,0,0,0,.377c.221,1.376-.068,2.34-1.626,2.795-1.259.368-1.365,1.679-1.6,2.787-.16.76-.084,1.767-.547,2.211s-1.485.087-2.259.137a5.625,5.625,0,0,1-4.528-1.455,6.736,6.736,0,0,0-5.865-1.9c-.754.092-.91-.158-.968-.919-.105-1.382.164-2.277,1.662-2.72m28.239,2.04a3.8,3.8,0,0,1,.891,2.568c-.024,3.933-.01,7.867-.011,11.8a3.1,3.1,0,0,1-.023.678.948.948,0,0,1-.984.866.916.916,0,0,1-.934-.981c-.023-.705-.007-1.412-.007-2.118,0-1.488,0-2.975,0-4.463,0-.544.051-1.178-.681-1.2-.757-.024-.708.617-.708,1.158q.005,3.9,0,7.792c0,.177.008.354,0,.529-.042.728-.442,1.19-1.012,1.177-.6-.014-.93-.436-.931-1.213q-.006-4.123,0-8.245a3.974,3.974,0,0,0-.014-.6.67.67,0,0,0-.671-.6.627.627,0,0,0-.692.562,5.028,5.028,0,0,0-.044.752q0,4.5,0,9a5.572,5.572,0,0,1-.047.828.83.83,0,0,1-.961.754.841.841,0,0,1-.882-.847c-.016-.2-.007-.4-.007-.605q0-4.614,0-9.229a2.626,2.626,0,0,0-.019-.6.712.712,0,0,0-.746-.616.684.684,0,0,0-.667.614,3.833,3.833,0,0,0-.027.678c0,2.95,0,5.9,0,8.851,0,.817-.478,1.287-1.129,1.129-.591-.144-.754-.589-.752-1.151.008-1.866,0-3.732,0-5.6a3.537,3.537,0,0,0-.009-.529c-.062-.405-.246-.738-.708-.74-.5,0-.716.331-.723.788-.014,1.034-.037,2.069.007,3.1.022.531-.132.668-.662.664-3.631-.024-7.262,0-10.893-.022a1.093,1.093,0,0,0-1.162.732c-1.176,2.732-.516,2.025-3.41,2.72-1.231.3-1.221.273-1.243-.983-.01-.609-.076-1.154.848-1.031a.624.624,0,0,0,.687-.728c-.042-.52-.407-.7-.9-.7q-3.253.006-6.506,0-3.178,0-6.355,0c-.816,0-1.2-.291-1.225-.9-.026-.65.362-.99,1.219-.994,2.9-.011,5.8,0,8.7-.006a5.484,5.484,0,0,0,.754-.034.61.61,0,0,0,.575-.673.651.651,0,0,0-.638-.7,5.229,5.229,0,0,0-.6-.008h-9.3c-.874,0-1.358-.333-1.375-.939-.018-.638.488-1.007,1.411-1.008q4.615-.005,9.229,0c.2,0,.4,0,.605-.006a.61.61,0,0,0,.675-.648.64.64,0,0,0-.689-.722c-.277-.014-.554-.005-.832-.005q-3.9,0-7.792,0c-.889,0-1.335-.334-1.325-.978.01-.622.484-.969,1.356-.97q4.236-.005,8.473,0c.472,0,.8-.166.808-.676s-.3-.714-.774-.72c-.177,0-.353,0-.53,0H6.09a4.118,4.118,0,0,1-.6-.013A.917.917,0,0,1,4.62,28,.927.927,0,0,1,5.463,27a3.085,3.085,0,0,1,.6-.026c4.01,0,8.019.012,12.028-.01a3.6,3.6,0,0,1,2.425.861,9.469,9.469,0,0,0,4.065,2.363,9.676,9.676,0,0,0,1.877.142c1.916.013,3.833.033,5.749-.012.627-.015.8.2.727.768a5.223,5.223,0,0,0,0,.756c.01.473.24.793.721.791s.7-.353.717-.807c.017-.377,0-.756.005-1.134,0-1.059,0-2.118,0-3.177,0-.475-.168-.869-.716-.877s-.718.371-.728.858c-.009.45.149,1.067-.082,1.31-.32.337-.954.06-1.447.123-.584.074-.748-.089-.564-.695a15.662,15.662,0,0,0,.384-2A1.694,1.694,0,0,1,32.3,24.829c2.417-1.031,2.049-.419,2.073-3.128.014-1.545,0-1.545,1.584-1.546,2.219,0,4.438,0,6.657,0,.227,0,.509-.112.609.258a9.792,9.792,0,0,0,2.218,3.557" transform="translate(0 -0.001)" fill="#9eb3cf"/>
  </g>
</svg>
