<svg id="Group_2204" data-name="Group 2204" xmlns="http://www.w3.org/2000/svg" xmlns:xlink="http://www.w3.org/1999/xlink" width="57.122" height="58.174" viewBox="0 0 57.122 58.174">
  <defs>
    <clipPath id="clip-path">
      <rect id="Rectangle_632" data-name="Rectangle 632" width="57.122" height="58.174" fill="#9eb3cf" stroke="rgba(0,0,0,0)" stroke-width="1"/>
    </clipPath>
  </defs>
  <g id="Group_2203" data-name="Group 2203" clip-path="url(#clip-path)">
    <path id="Path_4915" data-name="Path 4915" d="M58.7,92.684c-.73.049-1.168-.137-1.211-.736-.051-.714.47-.881,1.06-.961a3.474,3.474,0,0,0,.193-6.914,3.785,3.785,0,0,1-.451-.043c-.524-.129-.892-.406-.79-1.01.094-.554.49-.7,1-.688a5.215,5.215,0,0,1,4.8,3.751,5.142,5.142,0,0,1-4.6,6.6" transform="translate(-47.028 -67.35)" fill="#9eb3cf" stroke="rgba(0,0,0,0)" stroke-width="1"/>
    <path id="Path_4916" data-name="Path 4916" d="M59.509,201.611c1.211,0,2.422.006,3.632,0,.6,0,1.15.09,1.15.828,0,.717-.518.85-1.134.847-2.18-.013-4.359-.008-6.539,0a2.714,2.714,0,0,0-3.075,2.611c-.088.571-.359.907-.949.852-.554-.052-.73-.438-.736-.961a4.241,4.241,0,0,1,3.837-4.116c1.266-.076,2.541-.014,3.812-.014v-.039" transform="translate(-42.423 -164.923)" fill="#9eb3cf" stroke="rgba(0,0,0,0)" stroke-width="1"/>
    <path id="Path_4917" data-name="Path 4917" d="M97.1,226.713a4.259,4.259,0,0,1-3.768,4.18c-.611.046-1.222.03-1.292-.754-.064-.718.476-.85,1.065-.947a2.511,2.511,0,0,0,.82-4.795,5.153,5.153,0,0,0-1.052-.235c-.542-.106-.913-.393-.833-.98.072-.531.457-.717.983-.718a4.241,4.241,0,0,1,4.076,4.249" transform="translate(-75.286 -181.984)" fill="#9eb3cf" stroke="rgba(0,0,0,0)" stroke-width="1"/>
    <path id="Path_4918" data-name="Path 4918" d="M144.481,115.857a3.654,3.654,0,0,1-3.509,3.671c-.555.011-.994-.137-1.042-.743-.047-.589.326-.834.891-.919a2.136,2.136,0,0,0,2.008-1.979c.04-1.022-.654-1.778-1.9-2.06-.559-.127-1.127-.3-.994-1.025.126-.689.68-.75,1.274-.678a3.7,3.7,0,0,1,3.268,3.733" transform="translate(-114.459 -91.702)" fill="#9eb3cf" stroke="rgba(0,0,0,0)" stroke-width="1"/>
    <path id="Path_4919" data-name="Path 4919" d="M88.362,117.617c-.612.045-1.035-.23-1.066-.84-.033-.658.486-.866,1.034-.9a4.33,4.33,0,0,0,3.76-2.441,4.146,4.146,0,0,0,.463-1.824c.021-.579.307-1,.972-.927.613.066.772.523.768,1.046a6.3,6.3,0,0,1-5.932,5.887" transform="translate(-71.411 -90.537)" fill="#9eb3cf" stroke="rgba(0,0,0,0)" stroke-width="1"/>
    <path id="Path_4920" data-name="Path 4920" d="M38.533,152.162a4.75,4.75,0,0,1-3.639-1.083,4.632,4.632,0,0,1-1.565-3.252.809.809,0,0,1,.756-.952c.551-.061.836.263.955.76.556,2.316,1.248,2.869,3.6,2.87.544,0,1.088-.011,1.631.009a.772.772,0,0,1,.848.846c-.006.57-.352.8-.881.8-.513,0-1.027,0-1.7,0" transform="translate(-27.261 -120.143)" fill="#9eb3cf" stroke="rgba(0,0,0,0)" stroke-width="1"/>
    <path id="Path_4921" data-name="Path 4921" d="M90.855,42.965a3.685,3.685,0,0,1,3.882-3.35.787.787,0,0,1,.777.828.766.766,0,0,1-.771.835,2.121,2.121,0,0,0-2.273,1.976.82.82,0,1,1-1.615-.289" transform="translate(-74.304 -32.386)" fill="#9eb3cf" stroke="rgba(0,0,0,0)" stroke-width="1"/>
    <path id="Path_4922" data-name="Path 4922" d="M132.5,201.653c.573,0,1.147,0,1.72,0a.776.776,0,0,1,.882.816.79.79,0,0,1-.863.842c-1.147,0-2.294.006-3.441,0a.789.789,0,0,1-.884-.819c-.011-.549.337-.816.866-.83.573-.015,1.147,0,1.72,0" transform="translate(-106.276 -164.958)" fill="#9eb3cf" stroke="rgba(0,0,0,0)" stroke-width="1"/>
    <path id="Path_4923" data-name="Path 4923" d="M48.253,7.117a2.933,2.933,0,0,0-3.537-.04,2.813,2.813,0,0,0-.907,3.4.705.705,0,0,1-.16.934c-.842.785-1.649,1.607-2.457,2.427a1.476,1.476,0,0,1-1.118.494q-3-.018-6,0c-.405,0-.6-.073-.593-.541.026-1.545.016-3.092.005-4.638,0-.324.061-.513.441-.5.782.025,1.509-.151,2.033.838a2.708,2.708,0,0,0,3.681.834,2.865,2.865,0,0,0,1.313-3.5,2.737,2.737,0,0,0-2.43-1.9A2.656,2.656,0,0,0,35.728,6.4c-.5.959-1.276.431-1.914.49-.6.056-.3-.546-.341-.838a7.029,7.029,0,0,0-5.306-5.9,6.79,6.79,0,0,0-7.451,3.24,1.079,1.079,0,0,1-1.066.6A7.088,7.088,0,0,0,12.7,10.287c-.076.621-.286.688-.849.657a7.2,7.2,0,0,0-7.237,9.077.774.774,0,0,1-.366,1.026,9.709,9.709,0,0,0,.043,16.089.8.8,0,0,1,.341,1.041,7.04,7.04,0,0,0,1.353,6.488c.375.469.836.655,1.335.272.48-.369.354-.848.043-1.289-.122-.173-.269-.33-.378-.511a5.445,5.445,0,0,1-.829-3.975A5.5,5.5,0,0,1,8.825,35.35a.864.864,0,0,0,.388-1.3c-.315-.5-.812-.425-1.282-.15a5.651,5.651,0,0,0-1.855,1.581c-.376.542-.647.415-1.071.111a8.1,8.1,0,0,1,4.574-14.6c.594-.025,1.167-.215,1.126-.9-.043-.714-.615-.869-1.266-.832a8.178,8.178,0,0,0-2.4.442c-.664.249-.76-.006-.868-.553a5.529,5.529,0,0,1,6.443-6.42c1.637.3,1.766.193,1.745-1.489a5.481,5.481,0,0,1,7.684-5.1,5.389,5.389,0,0,1,3.351,4.876c.045.589.281,1.019.944.954s.811-.544.765-1.121a7.6,7.6,0,0,0-.977-3.272,7.514,7.514,0,0,0-3.971-3.262A5.124,5.124,0,0,1,31.748,6.9a14.84,14.84,0,0,0-1.617.013.817.817,0,0,0-.817.906.8.8,0,0,0,.841.78,7.478,7.478,0,0,0,1,.011c.445-.03.655.086.645.6q-.047,2.272,0,4.546c.01.52-.22.586-.653.582-2.031-.017-4.063.021-6.093-.017a2.855,2.855,0,0,1-2.984-2.607c-.083-.623-.239-1.088-.965-1.015-.764.077-.762.648-.713,1.224a4.471,4.471,0,0,0,4.474,4.05c2.031.035,4.063.041,6.093-.008.685-.017.854.167.848.849q-.051,6.365,0,12.731c.006.709-.205.839-.864.834-4.092-.031-8.185-.016-12.277-.015a5.355,5.355,0,0,0-.817.021.772.772,0,0,0-.718.886.728.728,0,0,0,.763.737c.272.012.545.016.818.016q6.139,0,12.277,0c.357,0,.811-.168.808.511q-.026,5.365,0,10.731c0,.4-.148.531-.534.52-.7-.02-1.395-.015-2.091,0a4.341,4.341,0,0,0-4.352,3.828c-.087.594-.037,1.149.648,1.286.77.154.981-.415,1.082-1.03a2.591,2.591,0,0,1,2.687-2.4c.666-.025,1.335.018,2-.013.448-.021.569.154.562.578-.021,1.273.01,2.547-.015,3.819-.012.6.251,1.3-.134,1.755-.311.366-.978.075-1.484.141s-.872.323-.848.871a.834.834,0,0,0,.9.83c.323.016.647,0,1.083,0a5.156,5.156,0,0,1-9.144.448,8.868,8.868,0,0,0,2.087-1.145c.526-.432,1.3-.873.7-1.673s-1.166-.116-1.68.278a5.544,5.544,0,0,1-8.8-3.193c-.181-.8-.281-1.555.795-1.859a2.833,2.833,0,0,0,.893-.61c.394-.319.586-.707.234-1.178a.77.77,0,0,0-1.184-.183,6.522,6.522,0,0,1-4.164,1.292.747.747,0,0,0-.81.8.776.776,0,0,0,.768.846,3.735,3.735,0,0,0,1,.011c.526-.086.649.13.713.618a7.07,7.07,0,0,0,6.954,6.277,1.166,1.166,0,0,1,1.111.681A6.838,6.838,0,0,0,31.2,56.413a7.147,7.147,0,0,0,2.277-6.148c-.041-.614.108-.888.777-.815a6.286,6.286,0,0,0,1.634,0,3.935,3.935,0,0,1,4.019,1.65,1.009,1.009,0,0,1,.254,1.171,2.741,2.741,0,0,0,1.009,3.21,2.9,2.9,0,0,0,4.415-3.387,2.753,2.753,0,0,0-2.87-1.781,1.74,1.74,0,0,1-1.929-.7c-.227-.281-.533-.5-.767-.774a3.053,3.053,0,0,0-2.657-1.091c-1.089.052-2.183-.01-3.273.021-.485.014-.626-.155-.612-.625.03-1.03.051-2.063-.006-3.091-.036-.661.124-.887.833-.867,1.908.055,3.819.038,5.729.007a1.131,1.131,0,0,1,1.208.666,2.8,2.8,0,0,0,2.848,1.363,2.976,2.976,0,0,0,2.482-2.739,2.9,2.9,0,0,0-2.036-2.89,2.815,2.815,0,0,0-3.4,1.393.822.822,0,0,1-.843.487c-2.061-.017-4.123-.027-6.184,0-.544.008-.644-.194-.635-.68.027-1.454.035-2.91,0-4.365-.014-.54.179-.644.673-.64q3.774.034,7.548,0a.854.854,0,0,1,.915.52,2.648,2.648,0,0,0,2.159,1.47,2.878,2.878,0,0,0,1.524-5.5,2.852,2.852,0,0,0-3.632,1.143c-.207.332-.322.661-.845.655-2.576-.03-5.153-.025-7.73,0-.482,0-.616-.154-.609-.624.025-1.667.008-3.334.012-5,0-.2-.081-.531.155-.56a12.175,12.175,0,0,1,1.724-.037c.407.009.366.428.516.66a2.906,2.906,0,0,0,5.387-1.341,2.844,2.844,0,0,0-1.941-2.859,2.527,2.527,0,0,0-3.2.964c-.51.974-1.187.882-1.989.9-.5.013-.689-.115-.671-.649.039-1.181.048-2.366,0-3.546-.026-.612.175-.751.758-.743,2.212.033,4.43.094,6.637-.015a3.677,3.677,0,0,1,3.62,1.49,2.168,2.168,0,0,0,.457.439.835.835,0,0,0,1.165-1.191c-.357-.411-.791-.756-1.138-1.173a3.531,3.531,0,0,0-3.043-1.276c-2.575.065-5.153.007-7.73.03-.534,0-.769-.108-.726-.7a14.987,14.987,0,0,0,0-2.181c-.041-.567.139-.715.7-.705,2,.035,4-.008,6,.023a2.829,2.829,0,0,0,2.19-.9c.8-.824,1.644-1.614,2.435-2.45a1.282,1.282,0,0,1,1.27-.424,2.773,2.773,0,0,0,3.088-1.834,2.877,2.877,0,0,0-.909-3.264m-10.034-.49a1.174,1.174,0,0,1,1.206,1.185,1.127,1.127,0,0,1-1.19,1.141,1.076,1.076,0,0,1-1.146-1.079,1.148,1.148,0,0,1,1.13-1.247m4.707,45.358a1.109,1.109,0,0,1,1.13,1.1,1.208,1.208,0,0,1-1.218,1.26,1.18,1.18,0,1,1,.088-2.357m.748-10.822a1.188,1.188,0,0,1,1.178,1.215,1.138,1.138,0,0,1-1.261,1.105,1.057,1.057,0,0,1-1.07-1.186,1.1,1.1,0,0,1,1.153-1.134m1.544-7.383a1.081,1.081,0,0,1,1.088,1.191,1.134,1.134,0,0,1-1.173,1.14,1.182,1.182,0,0,1-1.176-1.224,1.129,1.129,0,0,1,1.261-1.107M37.193,27a1.141,1.141,0,0,1,1.156-1.155,1.167,1.167,0,0,1,1.216,1.186,1.126,1.126,0,0,1-1.049,1.147A1.184,1.184,0,0,1,37.193,27m9.343-16.47a1.109,1.109,0,0,1-1.242-1.119A1.154,1.154,0,0,1,46.473,8.2a1.21,1.21,0,0,1,1.182,1.175,1.146,1.146,0,0,1-1.119,1.153" transform="translate(0 0.001)" fill="#9eb3cf" stroke="rgba(0,0,0,0)" stroke-width="1"/>
    <path id="Path_4924" data-name="Path 4924" d="M267.758,138.843a1.954,1.954,0,0,1-2.186-.84c-.164-.177-.343-.342-.522-.5a.788.788,0,0,0-1.206-.016.836.836,0,0,0,.033,1.224,5.051,5.051,0,0,0,.836.828,1.393,1.393,0,0,1,.53,1.679,2.8,2.8,0,0,0,2.605,3.334,2.907,2.907,0,0,0,3.1-2.847,2.769,2.769,0,0,0-3.189-2.859m.2,3.964a1.1,1.1,0,0,1-1.086-1.156,1.157,1.157,0,0,1,1.275-1.139,1.109,1.109,0,0,1,1.083,1.2,1.121,1.121,0,0,1-1.273,1.092" transform="translate(-215.629 -112.243)" fill="#9eb3cf" stroke="rgba(0,0,0,0)" stroke-width="1"/>
    <path id="Path_4925" data-name="Path 4925" d="M284.862,201.962a2.9,2.9,0,1,0,.071,5.79,2.965,2.965,0,0,0,2.851-2.934,2.932,2.932,0,0,0-2.922-2.856m1.184,2.908A1.1,1.1,0,0,1,284.9,206a1.136,1.136,0,0,1-1.208-1.166,1.15,1.15,0,0,1,1.244-1.136,1.113,1.113,0,0,1,1.115,1.173" transform="translate(-230.662 -165.213)" fill="#9eb3cf" stroke="rgba(0,0,0,0)" stroke-width="1"/>
    <path id="Path_4926" data-name="Path 4926" d="M269.147,82.035a2.9,2.9,0,1,0,.013,5.791,2.9,2.9,0,0,0-.013-5.791m1.18,2.921c-.068.679-.467,1.084-1.329,1.145a1.126,1.126,0,0,1-1.024-1.2,1.067,1.067,0,0,1,1.145-1.122,1.156,1.156,0,0,1,1.208,1.178" transform="translate(-217.771 -67.108)" fill="#9eb3cf" stroke="rgba(0,0,0,0)" stroke-width="1"/>
    <path id="Path_4927" data-name="Path 4927" d="M264.514,250.779a2.935,2.935,0,0,0-2.86,2.911,2.893,2.893,0,0,0,5.785.033,2.938,2.938,0,0,0-2.925-2.944m.056,4.065a1.136,1.136,0,0,1-1.21-1.174,1.1,1.1,0,0,1,1.093-1.134,1.154,1.154,0,0,1,1.269,1.166,1.113,1.113,0,0,1-1.152,1.142" transform="translate(-214.043 -205.147)" fill="#9eb3cf" stroke="rgba(0,0,0,0)" stroke-width="1"/>
  </g>
</svg>
