<svg id="Group_2206" data-name="Group 2206" xmlns="http://www.w3.org/2000/svg" xmlns:xlink="http://www.w3.org/1999/xlink" width="50.993" height="51.137" viewBox="0 0 50.993 51.137">
  <defs>
    <clipPath id="clip-path">
      <rect id="Rectangle_633" data-name="Rectangle 633" width="50.993" height="51.137" fill="#9eb3cf"/>
    </clipPath>
  </defs>
  <g id="Group_2205" data-name="Group 2205" clip-path="url(#clip-path)">
    <path id="Path_4928" data-name="Path 4928" d="M36.8,18.816C36.561,10.067,43.473,2.087,51.884.47A18.657,18.657,0,0,1,73.992,15.847c1.253,7.789-1.413,13.983-7.8,18.576a5.569,5.569,0,0,0-2.368,3.214c-.15.606-.48,1.057-1.14.87s-.8-.769-.624-1.4a6.944,6.944,0,0,1,2.767-3.94c5.767-3.953,8.367-9.4,7.508-16.323A16.9,16.9,0,0,0,58.9,2.276,16.961,16.961,0,0,0,46.02,32.94a8.043,8.043,0,0,1,2.831,3.47,3.816,3.816,0,0,1,.29.948.929.929,0,0,1-.664,1.144.819.819,0,0,1-1.095-.678,6.374,6.374,0,0,0-2.862-3.711,18.507,18.507,0,0,1-7.725-15.3" transform="translate(-30.079 -0.097)" fill="#9eb3cf"/>
    <path id="Path_4929" data-name="Path 4929" d="M103.746,222.617c-2.217,0-4.433-.007-6.65,0-.667,0-1.278-.1-1.277-.919s.614-.914,1.281-.913q6.741.012,13.482,0c.668,0,1.278.1,1.277.917s-.615.918-1.281.915c-2.277-.011-4.555,0-6.832,0" transform="translate(-78.341 -180.516)" fill="#9eb3cf"/>
    <path id="Path_4930" data-name="Path 4930" d="M42.166,179.865a.87.87,0,0,1,.781,1.37,12.313,12.313,0,0,1-2.227,2.231.884.884,0,0,1-1.211-1.208,15.33,15.33,0,0,1,2.3-2.291.852.852,0,0,1,.356-.1" transform="translate(-32.174 -147.057)" fill="#9eb3cf"/>
    <path id="Path_4931" data-name="Path 4931" d="M220.488,179.848a.844.844,0,0,1,.657.264c.648.631,1.3,1.261,1.915,1.923a.844.844,0,0,1-.02,1.288.861.861,0,0,1-1.293-.039c-.638-.6-1.255-1.217-1.859-1.849a.917.917,0,0,1-.192-1.085.881.881,0,0,1,.792-.5" transform="translate(-179.541 -147.042)" fill="#9eb3cf"/>
    <path id="Path_4932" data-name="Path 4932" d="M2.257,96.789c-.483,0-.97.034-1.449-.01A.831.831,0,0,1,0,95.863a.812.812,0,0,1,.779-.856,29.2,29.2,0,0,1,2.988,0,.8.8,0,0,1,.758.869.83.83,0,0,1-.82.9c-.48.041-.966.009-1.449.008" transform="translate(0 -77.647)" fill="#9eb3cf"/>
    <path id="Path_4933" data-name="Path 4933" d="M257.047,96.784c-.453,0-.907.019-1.359,0a.85.85,0,0,1-.91-.91.824.824,0,0,1,.842-.885c.935-.04,1.873-.036,2.808,0a.839.839,0,0,1,.87.867.85.85,0,0,1-.892.93c-.452.026-.906.005-1.359.006" transform="translate(-208.306 -77.636)" fill="#9eb3cf"/>
    <path id="Path_4934" data-name="Path 4934" d="M43.106,2.742a.915.915,0,0,1-.451.909.713.713,0,0,1-.926-.041c-.745-.7-1.482-1.42-2.173-2.176a.788.788,0,0,1,.05-1.082A.745.745,0,0,1,40.654.138a14.211,14.211,0,0,1,2.372,2.341.579.579,0,0,1,.08.263" transform="translate(-32.184 0)" fill="#9eb3cf"/>
    <path id="Path_4935" data-name="Path 4935" d="M223.258,1a.964.964,0,0,1-.275.691c-.64.641-1.274,1.289-1.93,1.914a.8.8,0,0,1-1.213.02.837.837,0,0,1-.055-1.286c.638-.684,1.3-1.343,1.986-1.983a.822.822,0,0,1,1.007-.124.884.884,0,0,1,.479.769" transform="translate(-179.471 -0.094)" fill="#9eb3cf"/>
    <path id="Path_4936" data-name="Path 4936" d="M103.489,40.042a8.187,8.187,0,0,0-8.631,7.832c-.014.932.282,1.235,1.244,1.247.849.01,1.7,0,2.549,0,1.432,0,1.432,0,1.712-1.37a2.772,2.772,0,0,1,2.783-2.27,2.586,2.586,0,0,1,2.593,2.325,2.754,2.754,0,0,1-1.744,2.972,5.684,5.684,0,0,0-3.654,4.9c-.108.961.2,1.279,1.155,1.3.516.01,1.032,0,1.548,0,.577,0,1.153,0,1.73,0,.385,0,.782-.069.884-.481.138-.56.569-.712,1-.927a7.8,7.8,0,0,0,4.4-5.575,8.087,8.087,0,0,0-7.568-9.952m2.043,14.047a1.573,1.573,0,0,0-.631.339c-.674.9-1.6.782-2.62.671a4.289,4.289,0,0,1,2.575-2.72,4.6,4.6,0,0,0,2.136-6.5,4.239,4.239,0,0,0-4.181-2.2,4.359,4.359,0,0,0-3.971,2.855,1.547,1.547,0,0,1-1.851.758c-.365-.166-.156-.487-.106-.7a6.5,6.5,0,0,1,6.884-4.726,6.152,6.152,0,0,1,5.5,5.108c.463,3.3-.876,5.848-3.737,7.113" transform="translate(-77.555 -32.718)" fill="#9eb3cf"/>
    <path id="Path_4937" data-name="Path 4937" d="M110.551,240.8c-2.246-.007-4.491,0-6.737,0-2.307,0-4.613-.006-6.919,0-.939,0-1.187.271-1.177,1.2a6.227,6.227,0,0,0,3.992,5.483c2.085.78,4.272.507,6.4.379a6.153,6.153,0,0,0,5.683-5.746c.033-1.052-.2-1.31-1.24-1.313m-.938,2.635a4.334,4.334,0,0,1-3.834,2.641,33.37,33.37,0,0,1-4.095,0,4.322,4.322,0,0,1-3.8-2.68c-.242-.516-.282-.808.483-.786,1.789.051,3.581.016,5.371.016s3.582.034,5.371-.016c.792-.022.774.28.508.829" transform="translate(-78.258 -196.871)" fill="#9eb3cf"/>
    <path id="Path_4938" data-name="Path 4938" d="M127.583,143.031a2.8,2.8,0,0,0-2.762,2.788,2.731,2.731,0,0,0,5.46-.032,2.8,2.8,0,0,0-2.7-2.756m.093,3.632c-.635.022-.987-.27-1.023-.834a.853.853,0,0,1,.871-.955.841.841,0,0,1,.919.811.824.824,0,0,1-.768.978" transform="translate(-102.054 -116.942)" fill="#9eb3cf"/>
  </g>
</svg>
