<svg id="Group_2212" data-name="Group 2212" xmlns="http://www.w3.org/2000/svg" xmlns:xlink="http://www.w3.org/1999/xlink" width="45.865" height="42.116" viewBox="0 0 45.865 42.116">
  <defs>
    <clipPath id="clip-path">
      <rect id="Rectangle_636" data-name="Rectangle 636" width="45.865" height="42.116" fill="#9eb3cf"/>
    </clipPath>
  </defs>
  <g id="Group_2211" data-name="Group 2211" clip-path="url(#clip-path)">
    <path id="Path_4946" data-name="Path 4946" d="M3.123,44.047Q18.015,38.408,32.91,32.779q6.1-2.305,12.195-4.607c.441-.167.9-.386.679-.969s-.681-.478-1.14-.3c-.481.186-.967.359-1.579.585.2-.271.32-.433.438-.6a11.088,11.088,0,0,0,1.808-10.28A11.357,11.357,0,0,0,32.69,8.635a10.97,10.97,0,0,0-5.206,2.181.768.768,0,0,0-.4.778.652.652,0,0,0,.527.523c.311.085.537-.127.765-.3A9.759,9.759,0,0,1,33.238,9.9,10.118,10.118,0,1,1,24.39,21.569a5.442,5.442,0,0,1,.717-4.378,12.761,12.761,0,0,0,.968-1.745,2.033,2.033,0,1,0-3.54-2c-.547.864-1.11,1.721-1.6,2.618a.748.748,0,0,1-1.061.434c-1.629-.518-3.278-.975-4.917-1.466a3.191,3.191,0,0,0-4.3,2.344c-.463,1.572-.908,3.15-1.4,4.714a4.984,4.984,0,0,0-.215,3.019A9.433,9.433,0,0,1,9.3,28.217c-.02,1.241-.078,2.481-.092,3.721a1.173,1.173,0,0,1-.33.822c-.994,1.126-1.974,2.265-2.952,3.405a2.177,2.177,0,0,0,.09,3.391L7.4,41c-1.7.638-3.289,1.209-4.857,1.828A3.719,3.719,0,0,0,.064,45.9,16.358,16.358,0,0,0,.01,48.112c-.006,1.206.095,1.3,1.287,1.3h43.25c.143,0,.287,0,.43,0,.468.017.828-.161.844-.657s-.328-.7-.8-.689c-.215,0-.43,0-.644,0H2.484c-1.158,0-1.158,0-1.156-1.17a2.627,2.627,0,0,1,1.795-2.854m16.2-7.563c-.506.181-.848-.075-.822-.628.032-.663.145-1.322.2-1.984.026-.316.182-.391.464-.368a5.17,5.17,0,0,0,.713,0c.54-.031,1.059-.094.808.762-.08.273.182.516.448.669s.519.322.847.527c-.94.363-1.792.711-2.658,1.02m13.452-5.1c-.975.367-1.816.682-2.656,1q-3.1,1.173-6.192,2.346a1.6,1.6,0,0,1-1.793-1.422c.3-2.481.617-4.961.881-7.447a2.934,2.934,0,0,0-2.961-3.088c-1.166-.071-2.329-.182-3.5-.23-.471-.019-.489-.218-.359-.563.033-.089.082-.173.109-.263.459-1.52.459-1.522,1.95-1.063.385.118.765.257,1.151.373a3.872,3.872,0,0,0,3.461-.4c.782,5.843,4.023,9.4,9.9,10.753M15.651,17.571a.835.835,0,0,1,1.179-.583c1.159.345,2.331.651,3.475,1.041a.975.975,0,0,0,1.33-.547c.622-1.066,1.291-2.1,1.934-3.158.253-.414.546-.8,1.075-.484.508.3.377.743.136,1.179-.677,1.227-1.334,2.464-2.016,3.689a2.155,2.155,0,0,1-2.007,1.2,3.061,3.061,0,0,1-1.134-.242c-1.09-.327-2.184-.639-3.275-.964a.866.866,0,0,1-.7-1.133m-4.883,4.135c.423-1.334.8-2.682,1.222-4.016.442-1.4,1.278-1.8,2.729-1.313-.752,1.449-.636,2.187.513,3.263.167.156.228.278.138.484-.057.129-.089.269-.134.4-.209.621-.145,1.507-.669,1.8-.477.265-1.248.005-1.89-.028-.5-.027-1-.091-1.5-.084-.4.006-.549-.071-.41-.508m.183,1.783c3.085.254,6.174.459,9.261.691a1.379,1.379,0,0,1,1.418,1.6c-.164,1.9-.431,3.782-.593,5.678-.069.809-.534.8-.929.729-1.255,0-1.25,0-1.133-1.068.109-.993.206-1.988.306-2.982.07-.7-.2-1-.892-.912-1.32.169-2.63.434-3.953.567a3.819,3.819,0,0,1-4.207-3.532c-.052-.548.063-.821.721-.767m-.87,9.933a1.75,1.75,0,0,0,.5-1.287c-.01-.692.019-1.383.025-2.075.005-.665,0-1.331,0-2.154A6.043,6.043,0,0,0,13.6,29.185c.2.025.19.167.183.317a16.426,16.426,0,0,1-.307,2.982,2.837,2.837,0,0,1-.752,1.277c-.31.33-.626.657-.914,1.006a.59.59,0,0,0,.083.886.574.574,0,0,0,.84.029c1.087-1.049,2.132-2.124,2.208-3.778.035-.761.191-1.517.209-2.278.011-.46.187-.62.6-.668.567-.065,1.134-.145,1.693-.256.388-.077.426.045.387.4-.23,2.132-.436,4.266-.638,6.4a1.648,1.648,0,0,0,.037.912c.441.718.01.881-.54,1.083-2.292.844-4.576,1.709-6.864,2.567a1.574,1.574,0,0,1,.541-1.827c.756-.721.69-1.018-.189-1.594L8.335,35.441c.6-.693,1.15-1.375,1.746-2.018M6.748,38.347c-.566-.657.068-1.1.426-1.583.373-.5.617-.038.878.105.373.2.713.468,1.13.748a1.871,1.871,0,0,0-.734,2.3,19.21,19.21,0,0,1-1.7-1.573" transform="translate(0 -7.301)" fill="#9eb3cf"/>
    <path id="Path_4947" data-name="Path 4947" d="M92.671,0A3.487,3.487,0,0,0,89.2,3.436a3.428,3.428,0,1,0,6.856-.06A3.469,3.469,0,0,0,92.671,0M92.6,5.464a1.963,1.963,0,0,1-2.016-2.033,2.038,2.038,0,0,1,2.071-2.08A2.084,2.084,0,0,1,94.7,3.41a2.044,2.044,0,0,1-2.1,2.053" transform="translate(-76.418 0)" fill="#9eb3cf"/>
  </g>
</svg>
