<svg xmlns="http://www.w3.org/2000/svg" xmlns:xlink="http://www.w3.org/1999/xlink" width="106" height="107.009" viewBox="0 0 106 107.009">
  <defs>
    <clipPath id="clip-path">
      <rect id="Rectangle_9" data-name="Rectangle 9" width="106" height="107.009" transform="translate(0 0)" fill="#9eb3cf"/>
    </clipPath>
  </defs>
  <g id="llvm-svgrepo-com_1" data-name="llvm-svgrepo-com 1" clip-path="url(#clip-path)">
    <path id="Path_39" data-name="Path 39" d="M92.539,99.472l-.382.422A72.128,72.128,0,0,0,86.87,106.5a25.66,25.66,0,0,0-1.981,3.194,12.793,12.793,0,0,0-1.106,2.648,2.209,2.209,0,0,0-.147.786v.018a1.319,1.319,0,0,0-.933,1.288,1.333,1.333,0,0,0,.831,1.262,97.263,97.263,0,0,1,.311,9.774l-.018.631A35.549,35.549,0,0,1,81.9,136.439a.3.3,0,0,0-.178-.058c-.133.013-.489.533-.844,1.115a6.963,6.963,0,0,0-.684,1.293,1.643,1.643,0,0,0-.133.622,1.107,1.107,0,0,0,.044.391,1.2,1.2,0,0,0,.1.258l-.013.031a.639.639,0,0,0-.124.3l-.053.129q-.52,1.195-1.142,2.341l-.342.631q-.153.257-.311.511a.693.693,0,0,0-.1-.062.711.711,0,0,0-.5.107A7.3,7.3,0,0,1,75.4,145.68a6.152,6.152,0,0,1-1.422.506,62.647,62.647,0,0,0,1.1-9.2,22.53,22.53,0,0,0-.284-4.7.291.291,0,0,0,.013-.076l-.022.044a19.312,19.312,0,0,0-.462-2.035,15.788,15.788,0,0,0-3.216-6.153A14.042,14.042,0,0,0,61.09,118.9l-.555-.009a.347.347,0,0,1,.009-.1c.089-.435.107-.564-.387-.142q-.132.114-.253.24-.325.008-.649.031a3.187,3.187,0,0,1-.013-.48c.018-.338.107-.564-.387-.142a2.455,2.455,0,0,0-.631.742c-.222.036-.355.067-.355.067l.2-.009-.209.035a1.753,1.753,0,0,1-.213-.711c.045-.524.191-.622-.164-.289a3.716,3.716,0,0,0-.977,1.333l-.426.133a1.244,1.244,0,0,1-.382-.8c-.058-.489-.053-.738-.355-.222a5.063,5.063,0,0,0-.577,1.546c-.142.067-.28.133-.413.2a1.2,1.2,0,0,1-.253-.768c-.022-.64.178-1.155-.3-.3a7.257,7.257,0,0,0-.649,1.8q-.24.168-.466.355-.03-.377-.036-.755c-.009-.635.093-1.315-.3-.115a8.122,8.122,0,0,0-.311,1.426,9.258,9.258,0,0,0-2.861,6.984v.031q0,.734.062,1.466a13.293,13.293,0,0,0,.475,2.688,5.429,5.429,0,0,0-.044,3.634,13.561,13.561,0,0,0,2.6,1.773,1.631,1.631,0,0,1,.418.413,4.408,4.408,0,0,1,.12,3.385c-.475,1.057.475,1.266,1.266,1.422s1.844-.1,2.057-.524-.684-1.377-1.053-3.323.577-2.106.577-2.106.422.107,1.053,1.106a8.993,8.993,0,0,0,1.493,1.835,3.229,3.229,0,0,1-.893.764,2.72,2.72,0,0,0,1.351-.386,3.409,3.409,0,0,0,.311.2q-.107.115-.222.222a2.248,2.248,0,0,0,.484-.1,1.31,1.31,0,0,0,.373.1c.689.053,2.532-1.635,2.532-1.95a.471.471,0,0,0-.169-.28c-.187-.2-.533-.444-.92-.786a4.565,4.565,0,0,1-.489-.515,3.212,3.212,0,0,1-.626-1.662v-.044l-.013-.138A.69.69,0,0,0,60,136.1v.018l.018-.044c.231-.355.666-1.684-2.088-4.789a13.525,13.525,0,0,0-4.1-3.137,4.765,4.765,0,0,1,2.781-5.02l-.022.022.036-.027a8.377,8.377,0,0,1,3.9-.6,9.231,9.231,0,0,1,7.064,3.754c2.284,3.163,3.279,7.908,2.555,12.688-.3.289-.244.333-.058.342q-.1.61-.244,1.213l-.12.067c-.546.329-.315.324,0,.409l-.027.089q-.136.432-.293.857-.2.057-.387.133c-.6.235-.355.267-.053.4l.2.1q-.212.532-.449,1.053a3.335,3.335,0,0,0-.355.075c-.631.16-.391.222-.107.4q.092.056.178.12-.229.48-.475.951a3.373,3.373,0,0,0-.68.111c-.622.16-.387.222-.1.4a1.936,1.936,0,0,1,.355.262q-.2.369-.418.733l-.1.16a2.619,2.619,0,0,0-.915.107c-.631.16-.391.222-.107.4a2.969,2.969,0,0,1,.462.351q-.275.4-.56.8a2.285,2.285,0,0,0-1.022-.022c-.64.089-.409.178-.147.382a3.4,3.4,0,0,1,.524.524l-.275.373a6.112,6.112,0,0,0-1.093-.857,3.774,3.774,0,0,0-1.288-.577c-.213,0-.889,1.191-4.518.875a18.676,18.676,0,0,1-4.185-.666,4.348,4.348,0,0,0-1.013.262L52.7,148.7a49.008,49.008,0,0,1-4.318-2.994,31.417,31.417,0,0,1-3.2-2.874s.609-.555-.209-1.262a14.757,14.757,0,0,0-1.5-1.231A9.562,9.562,0,0,0,42.4,139.6q-.2-.278-.391-.564-.85-1.369-1.613-2.79-.588-1.155-1.111-2.341a29.354,29.354,0,0,1-1.537-4.283,24.964,24.964,0,0,1-.657-4.1,10.043,10.043,0,0,1,.018-1.075,1.822,1.822,0,0,0-.888-3.243c-.906-1.9-4.363-6.562-17.242-16.349l-.564-.431.022.018-.16-.12c13.119,11.24,15.682,15.629,16.353,17.464a1.835,1.835,0,0,0-.12.147l-.08-.058a.2.2,0,0,0,.111-.022,80.787,80.787,0,0,0-7.939-5.464c-4.967-3.052-7.766-3.772-8.352-3.9l-.115-.027s.915.844.773,1.266c-.045.142-.746.1-1.87.124a17.53,17.53,0,0,0-3.221.311,18.215,18.215,0,0,0-6.962,2.8c-5.8,3.865-6.855,6.6-6.855,6.6a21.548,21.548,0,0,1,7.019-5.8A73.467,73.467,0,0,0,9,136.07a115.624,115.624,0,0,0,7.17,20.725c.018.791.071,1.208.071,1.208A79.93,79.93,0,0,1,19.6,141.8c.778,1.257,3.368,4.962,9.218,9.312,7.233,5.376,10.529,6.824,10.662,6.877,0,.7.022,1.066.022,1.066s.022-.444.08-1.168a20.831,20.831,0,0,1,2.452-2.977,15.9,15.9,0,0,1,2.4-1.933,12.153,12.153,0,0,0,.413,1.226c-.089-.431-.16-.844-.231-1.253A16.212,16.212,0,0,1,49.97,154.7a12.485,12.485,0,0,1,3.545,2.643c-.021.008-.042.017-.062.027a6.551,6.551,0,0,1,1.195,1.79,10.732,10.732,0,0,0-3.243.373q-.2-.43-.435-.844a2.148,2.148,0,0,0-.173-.6,1.621,1.621,0,0,0-.728-.622,1.766,1.766,0,0,0-.462-.324,1,1,0,0,1-.244-.324c-.373-.817-3.545.053-4.185.8a2.716,2.716,0,0,0-.622,2.7,1.106,1.106,0,0,0,.613.489,10.915,10.915,0,0,0,1.795,5.033,22.054,22.054,0,0,1-.48-2.959,6.409,6.409,0,0,1,.067-1.555,8.918,8.918,0,0,0,2.563,4.994,8.69,8.69,0,0,1-.866-5.078l.044-.2.022,0a8.529,8.529,0,0,0,2.141,4.278c-.022-.04-.043-.082-.062-.124l.062.093a7.224,7.224,0,0,1-.742-4.576l.036-.009a2.394,2.394,0,0,1,.6.56,5.3,5.3,0,0,1,.942,2.088,2.346,2.346,0,0,0,.3,1.7q-1.573,1.151-3.2,2.226c-1.022.666-2.177,1.39-3.363,2.088-.622.355-1.239.7-1.839,1.022l-.6-.342h.009l-.036-.018c-4.309-2.483-7.508-4.14-11.186-4.807-4.132-.738-7.935,1.257-8.805,4.807a5.7,5.7,0,0,0,2.452,6.131l.053.036c.058.044.116.076.178.116l.267.16h.009a9.332,9.332,0,0,0,3.065,1.053l.124.022h.027a15.537,15.537,0,0,0,1.83.2c4.332.209,9.578-1.813,14.763-4.363.444.24.9.48,1.359.737,11.315,6.233,18.206,7.041,27.34,3.234a29.621,29.621,0,0,1-9.3,1.528.222.222,0,0,0-.089-.027v.027a24.265,24.265,0,0,1-2.874-.222l-.133-.018v-.013l0,.009a27.765,27.765,0,0,1-6.913-1.937,34.624,34.624,0,0,1-3.31-1.608q-2.247-1.241-4.469-2.528c1.546-.791,3.074-1.613,4.558-2.421,1.577-.84,2.985-1.608,4.078-2.221l.04-.018h.031s.369-.084.711-.191a25.116,25.116,0,0,0,3.088-1.257,1.52,1.52,0,0,0,.866,1.124,1.936,1.936,0,0,0,2.319-.453l.08-.044.209-.164c.222-.133.475-.3.693-.4q.116-.052.235-.1a4.945,4.945,0,0,0,.515-.164l.147-.044a4.521,4.521,0,0,0-.4,2.581,4.22,4.22,0,0,1,1.741-3.176,5.806,5.806,0,0,1,.889-.3.7.7,0,0,1,.64.311,2.449,2.449,0,0,0,1.617,1c.107.666-.2,1.795-1.777,3.847l.4-.275.018-.013.32-.235a9.559,9.559,0,0,0,1.484-1.355,4.311,4.311,0,0,0,.844-1.355c.058.889-.187,2.252-1.377,4.6a11.978,11.978,0,0,0,2.283-2.8,19.259,19.259,0,0,1-.28,3.487c1.533-2.99,1.444-4.82,1.062-5.891l-.045-.16a1.926,1.926,0,0,0-.044-.289l.187-.253c.524-.738-.213-1.528-.684-1.839a3.319,3.319,0,0,0-2.017-.7c-1-1.2-2.266-.666-4.256.644a5.775,5.775,0,0,1-.737.409,3.225,3.225,0,0,0-.244-.515c.711-.426,1.448-.888,2.195-1.368a15.676,15.676,0,0,0,3.234-2.732c2.266-2.3,3.065-4.531,5.375-6.424h-.058l.267-.138a23.075,23.075,0,0,1,5.944-2.457l-.013.569.08-.555a7.98,7.98,0,0,1,2.137,1.528,9.415,9.415,0,0,1,1.608,2.163l.2,1.333s0-.515-.044-1.466A43.1,43.1,0,0,0,92.7,143.445a51.176,51.176,0,0,0,4.518-12.99,80.786,80.786,0,0,1,2.954,10.955s-.009-.591-.133-1.662a81.689,81.689,0,0,0,2.781-16.686,58.869,58.869,0,0,0-.622-14.1,18.221,18.221,0,0,1,4.42,5.8,9.246,9.246,0,0,0-.835-1.941l.089.12a21.286,21.286,0,0,0-2.861-4.016q-.342-.388-.7-.764a9.188,9.188,0,0,0-5.2-2.985,6.985,6.985,0,0,0-1.368-.133h-.084c-.555-.013-.889.009-.92-.115-.089-.422.489-1.266.489-1.266a8.546,8.546,0,0,0-2.461,1.466,27.94,27.94,0,0,0-3.789,3.376q-2.084,2.11-3.954,4.416l-.333.422a.9.9,0,0,0-.1-.076c.338-1.466,1.608-4.962,7.943-13.821ZM52.956,148.838l.053.027Zm-1.168,11.577a8.092,8.092,0,0,1,1.346.862h-.022a2.153,2.153,0,0,0-.689.311,4.251,4.251,0,0,1-.56-1ZM30.218,167.39a8.962,8.962,0,0,1,1.919.209l.089.022.076.018c.489.12.991.275,1.5.453l.253.093c.849.329,1.755.693,2.714,1.1,1.422.622,2.754,1.231,3.723,1.666l.813.391c-.977.471-1.884.871-2.563,1.159-4.5,1.848-8.13,2.381-10.387,1.737C24.159,173.046,24.976,167.417,30.218,167.39Z" transform="translate(-0.343 -86.039)" fill="#9eb3cf"/>
  </g>
</svg>
