<svg id="pandas_white" xmlns="http://www.w3.org/2000/svg" width="153.637" height="45.384" viewBox="0 0 153.637 45.384">
  <path id="Path_10730" data-name="Path 10730" d="M252.852,135.046a7.142,7.142,0,0,1-5.617-2.59v9.265H243V118.849h3.83l.146,2.516a7.14,7.14,0,0,1,5.872-2.954c4.268,0,7.412,3.576,7.412,8.318S257.12,135.048,252.852,135.046Zm-1.312-13.5c-2.481,0-4.486,1.933-4.486,5.18s2.005,5.184,4.486,5.184,4.486-1.933,4.486-5.18S254.021,121.55,251.54,121.55Z" transform="translate(-200.421 -105.435)" fill="#9eb3cf"/>
  <path id="Path_10731" data-name="Path 10731" d="M352.552,134.635l-.146-2.516a7.136,7.136,0,0,1-5.874,2.952c-4.268,0-7.412-3.574-7.412-8.316s3.138-8.318,7.412-8.316a7.166,7.166,0,0,1,5.874,2.954l.146-2.516h3.838v15.757Zm-4.7-13.059c-2.481,0-4.486,1.933-4.488,5.18s2.005,5.182,4.486,5.182,4.488-1.933,4.488-5.18S350.329,121.576,347.848,121.576Z" transform="translate(-276.751 -105.459)" fill="#9eb3cf"/>
  <path id="Path_10732" data-name="Path 10732" d="M450.829,134.645v-8.717c0-3.064-1.056-4.085-2.989-4.085a4.339,4.339,0,0,0-4.2,4.011v8.791H439.41V118.886h3.869l.183,2.919a6.712,6.712,0,0,1,5.837-3.356c4.194,0,5.765,2.919,5.765,6.821v9.376Z" transform="translate(-356.392 -105.467)" fill="#9eb3cf"/>
  <path id="Path_10733" data-name="Path 10733" d="M538.97,112.716l-.146-2.518a7.143,7.143,0,0,1-5.872,2.954c-4.268,0-7.412-3.576-7.412-8.318s3.138-8.316,7.412-8.316a7.151,7.151,0,0,1,5.617,2.59V90.83H542.8v21.886Zm-4.7-13.059c-2.471,0-4.486,1.933-4.486,5.178s2.005,5.178,4.486,5.178,4.486-1.931,4.486-5.178S536.753,99.656,534.266,99.656Z" transform="translate(-424.789 -83.533)" fill="#9eb3cf"/>
  <path id="Path_10734" data-name="Path 10734" d="M634.792,134.667l-.146-2.516a7.142,7.142,0,0,1-5.874,2.952c-4.268,0-7.412-3.574-7.412-8.318s3.138-8.316,7.412-8.316a7.162,7.162,0,0,1,5.874,2.957l.146-2.518h3.83v15.757Zm-4.7-13.059c-2.471,0-4.486,1.933-4.488,5.18s2.007,5.174,4.486,5.174,4.488-1.933,4.488-5.18S632.568,121.608,630.087,121.608Z" transform="translate(-500.881 -105.483)" fill="#9eb3cf"/>
  <path id="Path_10735" data-name="Path 10735" d="M726.39,135.053a12.386,12.386,0,0,1-6.31-1.789l.694-2.917a10.835,10.835,0,0,0,5.545,1.752c1.678,0,2.845-.511,2.845-1.824,0-1.13-1.2-1.532-3.356-2.042-3.867-.84-5.252-2.882-5.252-5.108,0-2.481,1.933-4.814,6.2-4.814a11.792,11.792,0,0,1,5.353,1.423l-.694,2.773a9.181,9.181,0,0,0-4.558-1.314c-1.713,0-2.553.583-2.553,1.532,0,1.056,1.1,1.532,2.771,1.933,4.159.875,5.837,2.808,5.837,4.925C732.921,132.973,730.44,135.053,726.39,135.053Z" transform="translate(-579.276 -105.356)" fill="#9eb3cf"/>
  <rect id="Rectangle_7414" data-name="Rectangle 7414" width="4.96" height="10.298" transform="translate(7.966 2.683)" fill="#9eb3cf"/>
  <rect id="Rectangle_7415" data-name="Rectangle 7415" width="4.96" height="10.298" transform="translate(7.966 23.838)" fill="#9eb3cf"/>
  <rect id="Rectangle_7416" data-name="Rectangle 7416" width="4.96" height="4.859" transform="translate(7.966 15.987)" fill="#9eb3cf"/>
  <rect id="Rectangle_7417" data-name="Rectangle 7417" width="4.96" height="34.233" transform="translate(0 11.151)" fill="#9eb3cf"/>
  <rect id="Rectangle_7418" data-name="Rectangle 7418" width="4.96" height="10.298" transform="translate(15.769 32.335)" fill="#9eb3cf"/>
  <rect id="Rectangle_7419" data-name="Rectangle 7419" width="4.96" height="10.298" transform="translate(15.769 11.163)" fill="#9eb3cf"/>
  <rect id="Rectangle_7420" data-name="Rectangle 7420" width="4.96" height="4.859" transform="translate(15.769 24.468)" fill="#9eb3cf"/>
  <rect id="Rectangle_7421" data-name="Rectangle 7421" width="4.96" height="34.233" transform="translate(23.57 0)" fill="#9eb3cf"/>
</svg>
