<svg id="Group_18606" data-name="Group 18606" xmlns="http://www.w3.org/2000/svg" width="145.959" height="48.788" viewBox="0 0 145.959 48.788">
  <g id="pytorch-ar21_1" data-name="pytorch-ar21 1" transform="translate(0 0)">
    <path id="Path_22" data-name="Path 22" d="M93.595,112.968l-3.545,3.545a15.16,15.16,0,1,1-21.439,0l9.454-9.454,1.182-1.351v-7.09L64.9,112.968A20.174,20.174,0,1,0,93.426,141.5,19.926,19.926,0,0,0,93.595,112.968Z" transform="translate(-58.988 -98.619)" fill="#9eb3cf"/>
    <path id="Path_23" data-name="Path 23" d="M203.868,149.478a2.7,2.7,0,1,0-2.7-2.7,2.7,2.7,0,0,0,2.7,2.7Z" transform="translate(-176.351 -136.142)" fill="#9eb3cf"/>
    <path id="Path_24" data-name="Path 24" d="M358.74,183.54h-2.775v7.138h-2.072V170.416h5.065c5.373,0,7.905,2.609,7.905,6.383,0,4.451-3.147,6.677-8.135,6.753Zm.14-11.205H355.9v9.287l2.917-.076c3.838-.076,5.911-1.612,5.911-4.759,0-2.839-2-4.451-5.833-4.451ZM376.241,190.6l-1.228,3.223c-1.382,3.608-2.775,4.682-4.835,4.682a7.061,7.061,0,0,1-2.917-.691l.613-1.841a4.679,4.679,0,0,0,2.3.613c1.152,0,2-.613,3.069-3.469l1-2.609-5.756-14.658h2.151l4.682,12.28,4.607-12.28H382ZM388.9,172.411v18.344H386.83V172.411h-7.137v-1.995h16.346v1.919H388.9Zm12.969,18.726c-4.145,0-7.215-3.069-7.215-7.829s3.147-7.906,7.354-7.906c4.145,0,7.138,3.069,7.138,7.829s-3.147,7.905-7.292,7.905Zm.076-13.876c-3.147,0-5.217,2.532-5.217,5.987,0,3.608,2.151,6.064,5.295,6.064s5.217-2.532,5.217-5.987c0-3.608-2.151-6.064-5.295-6.064Zm12.357,13.493h-2V175.866l2-.384v3.146c1-1.919,2.456-3.147,4.375-3.147a5.44,5.44,0,0,1,2.609.691l-.536,1.919a4.464,4.464,0,0,0-2.3-.613c-1.535,0-2.993,1.152-4.221,3.838v9.44Zm14.888.383c-4.451,0-7.292-3.223-7.292-7.829,0-4.682,3.069-7.905,7.292-7.905a8.392,8.392,0,0,1,4.682,1.3l-.537,1.841a7.341,7.341,0,0,0-4.145-1.228c-3.223,0-5.217,2.38-5.217,5.911,0,3.608,2.151,5.987,5.295,5.987a7.73,7.73,0,0,0,4.145-1.228l.384,1.841a8.5,8.5,0,0,1-4.605,1.305Zm17.114-.383V181.16c0-2.609-1.074-3.746-3.147-3.746a6.505,6.505,0,0,0-4.607,2.151v11.281H436.56V168.894l2-.384v9.364a7.734,7.734,0,0,1,5.142-2.38c2.917,0,4.682,1.841,4.682,5.065v10.207Z" transform="translate(-302.421 -156.311)" fill="#9eb3cf"/>
  </g>
</svg>
