<svg id="surface1" xmlns="http://www.w3.org/2000/svg" width="138.668" height="38.142" viewBox="0 0 138.668 38.142">
  <g id="Group_1" data-name="Group 1" transform="translate(107.421 14.419)">
    <path id="Path_48" data-name="Path 48" d="M1028.824,146.258c0-2.7,0-5.406-.005-8.108,0-.226,0-.546-.137-.662a7.02,7.02,0,0,0-1.35-.922,25.382,25.382,0,0,0-8.117-2.274,58.406,58.406,0,0,0-12.6-.082c-.546.043-.734.273-.727.819.021,1.48-.005,2.962-.015,4.442,0,.681.243.892.94.794a6.8,6.8,0,0,1,.851-.118c2.319-.03,4.639-.092,6.958-.053a12.779,12.779,0,0,1,5.445,1.072,1.242,1.242,0,0,1,.806,1.276c-.016,2.484-.04,4.969.006,7.452.014.785-.251,1.278-.995,1.4-1.17.2-2.355.31-3.533.467a35.024,35.024,0,0,1-7.657-.117,3.738,3.738,0,0,1-1.533-.515c-.662-.394-1.441-.809-1.177-1.82s1.172-1.033,1.913-1.071a59.457,59.457,0,0,1,11.1.164c.588.08.867-.163.864-.742-.007-1.362-.009-2.724-.039-4.086-.011-.529-.18-1.023-.772-1.157a23.635,23.635,0,0,0-2.884-.562,32.947,32.947,0,0,0-9.69.243c-2.175.432-4.366.795-6.531,1.281-2.238.5-2.273.552-2.321,2.85-.055,2.582-.025,5.165-.014,7.748a1.3,1.3,0,0,0,.956,1.427c1.268.338,2.539.67,3.813.988a53.3,53.3,0,0,0,11.6,1.234c1.044.027,2.094-.21,3.141-.195a33.179,33.179,0,0,0,8.343-1.238c.9-.219,1.781-.534,2.663-.83a1.018,1.018,0,0,0,.716-1.144C1028.8,151.568,1028.823,148.913,1028.824,146.258Z" transform="translate(-997.593 -133.909)" fill="#9eb3cf"/>
  </g>
  <g id="Group_2" data-name="Group 2" transform="translate(71.878 9.354)">
    <path id="Path_49" data-name="Path 49" d="M700.88,102.691c-.017-4.755.257-9.512.414-14.267.019-.572-.145-.984-.755-1.12a12.688,12.688,0,0,0-7.146.162c-.487.172-.592.41-.542.9.216,2.113.458,4.228.553,6.348.1,2.146.048,4.3.028,6.45-.022,2.218-.095,4.436-.126,6.655a1.225,1.225,0,0,1-1.127,1.335c-1.241.208-2.479.461-3.73.579a31.344,31.344,0,0,1-11.167-.76,1.259,1.259,0,0,1-1.135-1.4c-.012-.765.024-1.531.016-2.3-.017-1.663.267-2.039,1.884-2.434a4.846,4.846,0,0,1,.493-.095,23.429,23.429,0,0,1,7.1-.393,16.158,16.158,0,0,1,5.742,1.551c.524.3.793.11.787-.513,0-.525-.027-1.05-.023-1.575.01-1.268.036-2.535.045-3.8,0-.45-.084-.848-.6-1.023a25.366,25.366,0,0,0-7.978-1.159,38.2,38.2,0,0,0-9.806.955c-1.712.431-3.459.723-5.185,1.095-.88.19-1.11.5-1.112,1.393q0,3.192,0,6.385h.071q0,3.3,0,6.6a1.176,1.176,0,0,0,1,1.224c1.248.316,2.5.614,3.75.919a59.359,59.359,0,0,0,11.172,1.212c2.236.114,4.489-.154,6.735-.186a38.431,38.431,0,0,0,9.811-1.591,9.026,9.026,0,0,0,1.007-.377c.441-.182.541-.5.5-.98C701.3,109.221,700.892,105.956,700.88,102.691Z" transform="translate(-667.511 -86.871)" fill="#9eb3cf"/>
  </g>
  <g id="Group_3" data-name="Group 3" transform="translate(37.668 16.239)">
    <path id="Path_50" data-name="Path 50" d="M382.651,152.26a.974.974,0,0,0-.823-1.016,14.823,14.823,0,0,0-6.684-.114c-1.571.292-1.6.342-1.619,1.952v.144q.024,4.09.049,8.18c.006.981.022,1.962.015,2.942,0,.618-.095,1.3-.733,1.52a14.78,14.78,0,0,1-3.461.877c-1.754.145-3.531,0-5.3.046a8.876,8.876,0,0,1-3.94-.914,1.531,1.531,0,0,1-1.026-1.6c.025-1.961.008-3.923.008-5.884h-.075c0-2.009,0-4.018,0-6.027a1.018,1.018,0,0,0-.889-1.177,20.951,20.951,0,0,0-7.417.009c-.7.118-1.062.482-.916,1.247a4.965,4.965,0,0,1,.022.93q-.022,7.963-.05,15.926a.943.943,0,0,0,.69,1.04c1.167.351,2.324.76,3.514,1.008a77.99,77.99,0,0,0,8.654,1.171,55.485,55.485,0,0,0,11.216-.377c1.609-.174,3.192-.6,4.783-.932,1.007-.21,2.012-.434,3-.7.521-.141,1.095-.307,1.089-1.035-.017-2.247-.039-4.494-.053-6.741Q382.68,157.5,382.651,152.26Z" transform="translate(-349.815 -150.805)" fill="#9eb3cf"/>
  </g>
  <g id="Group_4" data-name="Group 4" transform="translate(3.773 15.724)">
    <path id="Path_51" data-name="Path 51" d="M66.816,159.554c-.556.255-1.115.5-1.683.733a28.509,28.509,0,0,1-11.864,2.345c-2.721-.032-5.438-.106-7.971-1.343a2.313,2.313,0,0,1-1.521-2.2c0-1.189.091-2.378.077-3.566a1.535,1.535,0,0,1,.8-1.407,9.356,9.356,0,0,1,4.047-1.354,47.631,47.631,0,0,1,6.285-.423c3.862.019,7.765-.219,11.5,1.174.472.176.725-.118.721-.6-.01-1.527-.054-3.054-.028-4.58.011-.647-.193-.981-.853-1.061-1.825-.221-3.643-.506-5.471-.693a60.173,60.173,0,0,0-6.915-.547,78.485,78.485,0,0,0-9.067.668,27.531,27.531,0,0,0-8.653,2.465,1.028,1.028,0,0,0-.5.607c-.163.768-.219,1.558-.359,2.332a31.608,31.608,0,0,0-.059,8.507c.1,1.117.25,2.23.4,3.343a2.319,2.319,0,0,0,1.446,2.041,28.966,28.966,0,0,0,8.957,2.142,48.6,48.6,0,0,0,8.222.092,57.323,57.323,0,0,0,12.455-2.242c.275-.087.652-.452.659-.7.054-1.791.035-3.585.017-5.377C67.448,159.49,67.205,159.376,66.816,159.554Z" transform="translate(-35.037 -146.027)" fill="#9eb3cf"/>
  </g>
  <path id="Path_52" data-name="Path 52" d="M7.44,14.462c1-.473,1.091-.455.859-1.56Q7.59,9.535,6.844,6.175C6.449,4.4,6.026,2.641,5.61.875A1.065,1.065,0,0,0,4.445,0c-1.133.418-2.3.773-3.389,1.278a1.55,1.55,0,0,0-.96,2c.482,1.445.939,2.906,1.55,4.3.815,1.859,1.845,3.624,2.635,5.492A2.291,2.291,0,0,0,7.44,14.462Z" transform="translate(0.001)" fill="#9eb3cf"/>
</svg>
