<svg xmlns="http://www.w3.org/2000/svg" width="140.623" height="38.783" viewBox="0 0 140.623 38.783">
  <g id="Group_7" data-name="Group 7" transform="translate(-3 518.717)">
    <path id="Path_9" data-name="Path 9" d="M333.478,22.041c0-4.952-3.1-8.119-7.412-8.119s-7.614,3.268-7.614,8.187c0,4.952,3.133,8.119,7.446,8.119C330.176,30.228,333.478,26.96,333.478,22.041Zm-2.055.067c0,3.639-2.156,6.233-5.424,6.233s-5.458-2.527-5.458-6.3c0-3.639,2.156-6.233,5.424-6.233S331.422,18.335,331.422,22.109ZM338.5,29.79v-9.9c1.213-2.8,2.729-3.975,4.346-3.975a4.5,4.5,0,0,1,2.358.674l.54-1.954a5.5,5.5,0,0,0-2.7-.707c-2.021,0-3.5,1.28-4.548,3.3v-3.3l-2.09.438V29.79Zm20.285-.876-.438-1.92a7.9,7.9,0,0,1-4.278,1.28c-3.268,0-5.458-2.46-5.458-6.233,0-3.639,2.055-6.165,5.424-6.165a7.8,7.8,0,0,1,4.278,1.247l.539-1.887a8.788,8.788,0,0,0-4.818-1.314c-4.38,0-7.58,3.369-7.58,8.187,0,4.784,2.864,8.119,7.547,8.119A9.228,9.228,0,0,0,358.785,28.914Zm13.109.876h2.089V19.211c0-3.369-1.819-5.289-4.818-5.289a7.9,7.9,0,0,0-5.357,2.459V6.645l-2.089.439V29.79h2.089V18.1a6.893,6.893,0,0,1,4.784-2.19c2.257,0,3.3,1.213,3.3,3.908Zm-73.251-.168,6-15.262h-2.19L297.7,27.095,292.849,14.36h-2.256l6.031,15.194-1.046,2.729c-1.078,2.931-1.988,3.571-3.167,3.571a5,5,0,0,1-2.358-.674l-.641,1.92a7.144,7.144,0,0,0,3,.707c2.122,0,3.538-1.044,4.986-4.851Zm13.341-18.866H319.4V8.734h-16.98v2.021h7.412V29.79h2.156ZM289.21,15.3c0-3.874-2.662-6.57-8.221-6.57H275.7V29.79h2.156V22.378l2.864-.034C285.976,22.243,289.21,19.919,289.21,15.3Zm-2.224.1c0,3.268-2.123,4.818-6.132,4.919l-3,.067V10.721h3.066C284.864,10.721,286.986,12.406,286.986,15.4Z" transform="translate(-230.36 -525.362)" fill="#9eb3cf" fill-rule="evenodd"/>
    <path id="Path_10" data-name="Path 10" d="M490.851,169.781a1.741,1.741,0,0,1,1.8-1.912,1.873,1.873,0,1,1-1.8,1.912Zm.846,4.873c.423.047,1.019.047,1.5.047,1.442,0,2.178.282,2.178,1.144,0,.972-1.207,1.692-2.7,1.692-1.52,0-2.445-.611-2.445-1.473C490.24,175.454,490.82,174.89,491.7,174.655Zm-.846-.188a1.9,1.9,0,0,0-1.551,1.771c0,1.254,1.316,2.1,3.244,2.1,2.006,0,3.776-1.1,3.776-2.664,0-1.191-.893-1.88-2.977-1.88h-.925c-1.269,0-1.63-.282-1.63-.736,0-.423.423-.689.8-.862a3.065,3.065,0,0,0,1.066.2,2.647,2.647,0,0,0,2.789-2.633,2.447,2.447,0,0,0-.58-1.614l1.583.157-.047-.972-1.99.157a3.226,3.226,0,0,0-1.692-.423,2.66,2.66,0,0,0-2.821,2.7,2.489,2.489,0,0,0,1.16,2.194,1.582,1.582,0,0,0-1.175,1.363A1.272,1.272,0,0,0,490.851,174.467Zm7.537-3.494v-.078l4.858-.031a3.806,3.806,0,0,0,.157-1.144,2.46,2.46,0,0,0-2.617-2.648c-1.943,0-3.385,1.6-3.385,3.855a3.432,3.432,0,0,0,3.463,3.729,4.413,4.413,0,0,0,2.3-.611l-.188-.893a3.838,3.838,0,0,1-2.084.6A2.548,2.548,0,0,1,498.389,170.972Zm4.043-.862-3.98.016a2.32,2.32,0,0,1,2.272-2.178,1.642,1.642,0,0,1,1.724,1.849A2.088,2.088,0,0,1,502.432,170.11Zm9.559.737c0-2.3-1.442-3.776-3.447-3.776A3.541,3.541,0,0,0,505,170.878a3.448,3.448,0,0,0,3.463,3.776A3.538,3.538,0,0,0,511.99,170.847Zm-.956.031a2.6,2.6,0,0,1-2.523,2.9c-1.52,0-2.539-1.175-2.539-2.93a2.6,2.6,0,0,1,2.523-2.9C510.016,167.948,511.034,169.123,511.034,170.878Zm11.956,3.573h.972v-4.9c0-1.583-.831-2.476-2.21-2.476a3.672,3.672,0,0,0-2.539,1.191,1.983,1.983,0,0,0-1.943-1.191,3.406,3.406,0,0,0-2.272.987v-.987l-.972.2v7.177H515v-5.625a3.042,3.042,0,0,1,1.99-.83c1.05,0,1.52.58,1.52,1.833v4.623h.971v-4.889c0-.172-.016-.533-.031-.642a3.038,3.038,0,0,1,2.021-.924c1.05,0,1.52.58,1.52,1.833Zm3.933-3.479v-.078l4.858-.031a3.81,3.81,0,0,0,.157-1.144,2.46,2.46,0,0,0-2.617-2.648c-1.943,0-3.385,1.6-3.385,3.855a3.432,3.432,0,0,0,3.463,3.729,4.414,4.414,0,0,0,2.3-.611l-.188-.893a3.839,3.839,0,0,1-2.084.6,2.548,2.548,0,0,1-2.507-2.774Zm4.043-.862-3.98.016a2.32,2.32,0,0,1,2.272-2.178,1.642,1.642,0,0,1,1.724,1.849A2.1,2.1,0,0,1,530.967,170.11Zm6.613,4.2-.172-.846a3.511,3.511,0,0,1-1.379.345c-.736,0-1.081-.454-1.05-1.348l.11-4.294h2.382l.047-.862h-2.4l.047-1.677h-.924l-.047,1.63-1.081.251-.047.611,1.1.063-.11,4.247c-.047,1.5.548,2.256,1.927,2.256A3.91,3.91,0,0,0,537.579,174.31Zm2.789.141v-4.607c.564-1.3,1.269-1.849,2.021-1.849a2.093,2.093,0,0,1,1.1.313l.251-.909a2.559,2.559,0,0,0-1.254-.329,2.4,2.4,0,0,0-2.115,1.536v-1.536l-.971.2v7.177Zm6-9.543a.661.661,0,1,0-.658.721A.658.658,0,0,0,546.37,164.908Zm-1.144,9.543h.971v-7.38l-.971.2Zm8.76-.407-.2-.893a3.674,3.674,0,0,1-1.99.6c-1.52,0-2.539-1.144-2.539-2.9,0-1.692.956-2.868,2.523-2.868a3.625,3.625,0,0,1,1.99.58l.251-.877a4.088,4.088,0,0,0-2.241-.611,3.538,3.538,0,0,0-3.526,3.808c0,2.225,1.332,3.776,3.51,3.776A4.292,4.292,0,0,0,553.986,174.044Z" transform="translate(-410.488 -658.271)" fill="#9eb3cf" fill-rule="evenodd"/>
    <path id="Path_11" data-name="Path 11" d="M29.407,5.93,21.34,15.858l17.375-5.585Z" transform="translate(-15.858 -524.647)" fill="#9eb3cf"/>
    <path id="Path_12" data-name="Path 12" d="M21.34,39.235,33.751,50.4,38.715,33.65Z" transform="translate(-15.858 -548.023)" fill="#9eb3cf"/>
    <path id="Path_13" data-name="Path 13" d="M116.674,124.73l-10.549,14.893-5.585-12.41Z" transform="translate(-82.647 -624.943)" fill="#9eb3cf"/>
    <path id="Path_14" data-name="Path 14" d="M7.982,69.29,5.5,74.254,7.982,87.285Z" transform="translate(-2.5 -578.079)" fill="#9eb3cf"/>
    <path id="Path_15" data-name="Path 15" d="M21.34,69.29,33.751,80.459,21.34,87.285Z" transform="translate(-15.858 -578.079)" fill="#9eb3cf"/>
    <path id="Path_16" data-name="Path 16" d="M21.34,147.4l18,5.585-5.585-12.41Z" transform="translate(-15.858 -638.301)" fill="#9eb3cf"/>
    <path id="Path_17" data-name="Path 17" d="M100.54,50.4,105.5,33.65l11.17,14.272Z" transform="translate(-82.647 -548.023)" fill="#9eb3cf"/>
    <path id="Path_18" data-name="Path 18" d="M146.729,124.73l-2.482,5.585-8.067,9.308Z" transform="translate(-112.703 -624.943)" fill="#9eb3cf"/>
    <path id="Path_19" data-name="Path 19" d="M132.22,33.65l11.17,14.272-2.482-13.031Z" transform="translate(-109.363 -548.023)" fill="#9eb3cf"/>
    <path id="Path_20" data-name="Path 20" d="M72.82,5.93l9.308,4.344,8.687,1.241Z" transform="translate(-59.271 -524.647)" fill="#9eb3cf"/>
  </g>
</svg>
