<svg id="Group_18613" data-name="Group 18613" xmlns="http://www.w3.org/2000/svg" width="162.54" height="39.548" viewBox="0 0 162.54 39.548">
  <path id="path46" d="M160.863,43.237q0-7.478-4.264-7.685a8.01,8.01,0,0,0-3.31.544,4.862,4.862,0,0,0-1.739.918v11.9a8.448,8.448,0,0,0,4.842,1.588Q160.861,50.206,160.863,43.237Zm3.507.207a10.574,10.574,0,0,1-1.789,6.306,6.6,6.6,0,0,1-5.536,2.92A9.82,9.82,0,0,1,151.55,51V61.816l-3.05-1.088v-24a6.818,6.818,0,0,1,1.926-1.588,13.213,13.213,0,0,1,6.617-1.628l.043.043a6.07,6.07,0,0,1,5.486,2.92A12.41,12.41,0,0,1,164.37,43.444Z" transform="translate(-99.578 -23.153)" fill="#9eb3cf"/>
  <path id="path48" d="M219.856,50.541q0,5.1-1.021,7.057a7.194,7.194,0,0,1-3.907,3.13,14.956,14.956,0,0,1-5.052,1l-.5-1.922a24.277,24.277,0,0,0,3.884-.751,5.133,5.133,0,0,0,3.05-2.3,11.523,11.523,0,0,0,.667-4.8v-.794a15.669,15.669,0,0,1-6.557,1.418,6.028,6.028,0,0,1-3.967-1.418,4.825,4.825,0,0,1-1.922-3.924V34.551l3.05-1.044V46.283a3.882,3.882,0,0,0,1.321,3.153,4.994,4.994,0,0,0,3.42,1.064,8.553,8.553,0,0,0,4.488-1.628V33.967h3.05Z" transform="translate(-136.425 -23.153)" fill="#9eb3cf"/>
  <path id="path50" d="M267.633,41.516c-.364.03-.7.043-1,.043a6,6,0,0,1-4.031-1.235,4.267,4.267,0,0,1-1.438-3.413V24.9h-2.089V22.98h2.089v-5.1l3.046-1.084v6.18h3.427V24.9h-3.427V36.827a2.889,2.889,0,0,0,.921,2.429,4.657,4.657,0,0,0,2.506.671Z" transform="translate(-172.297 -12.166)" fill="#9eb3cf"/>
  <path id="path52" d="M309.459,32.361h-3.05V20.589a5.568,5.568,0,0,0-.837-3.09,3.049,3.049,0,0,0-2.686-1.462q-2.1,0-5.245,2.212V32.361h-3.05V4.223l3.05-.961V16.078a10.627,10.627,0,0,1,6.39-2.129,5.093,5.093,0,0,1,3.924,1.628,5.735,5.735,0,0,1,1.5,4.051V32.361Z" transform="translate(-195.656 -3.262)" fill="#9eb3cf"/>
  <path id="path54" d="M359.617,42.756a9.372,9.372,0,0,0-1.088-4.748,4.554,4.554,0,0,0-4.008-2.412q-5.015.29-5.012,7.181a11.811,11.811,0,0,0,1.048,5.275,4.212,4.212,0,0,0,4.024,2.656Q359.617,50.668,359.617,42.756Zm3.34.02a10.848,10.848,0,0,1-2.089,6.807,7.512,7.512,0,0,1-6.347,3.046,7.362,7.362,0,0,1-6.266-3.046,10.994,10.994,0,0,1-2.045-6.807,9.718,9.718,0,0,1,2.212-6.473,7.623,7.623,0,0,1,6.139-2.8,7.751,7.751,0,0,1,6.183,2.8A9.718,9.718,0,0,1,362.957,42.776Z" transform="translate(-229.605 -23.153)" fill="#9eb3cf"/>
  <path id="path56" d="M417.878,52.253h-3.05V39.813a4.16,4.16,0,0,0-1.231-3.2,4.471,4.471,0,0,0-3.28-1.1,7.331,7.331,0,0,0-4.134,1.418V52.253h-3.05v-15.7a15.023,15.023,0,0,1,4.845-2.5,14.783,14.783,0,0,1,3.677-.544,9.545,9.545,0,0,1,2.045.21,5.886,5.886,0,0,1,2.923,1.545,4.089,4.089,0,0,1,1.255,3.006Z" transform="translate(-267.042 -23.153)" fill="#9eb3cf"/>
  <path id="path1948" d="M24.392,6.4a26.209,26.209,0,0,0-4.386.374c-3.884.686-4.589,2.122-4.589,4.771v3.5H24.6v1.166H11.972a5.731,5.731,0,0,0-5.734,4.654,17.157,17.157,0,0,0,0,9.329c.652,2.717,2.211,4.654,4.878,4.654h3.156V30.649a5.833,5.833,0,0,1,5.734-5.7h9.168a4.624,4.624,0,0,0,4.589-4.664v-8.74c0-2.487-2.1-4.356-4.589-4.771A28.629,28.629,0,0,0,24.392,6.4ZM19.428,9.211a1.749,1.749,0,1,1-1.722,1.754A1.742,1.742,0,0,1,19.428,9.211Z" transform="translate(-5.591 -5.324)" fill="#9eb3cf"/>
  <path id="path1950" d="M53.783,35.054V39.13a5.887,5.887,0,0,1-5.734,5.82H38.881a4.682,4.682,0,0,0-4.589,4.664v8.74c0,2.487,2.163,3.951,4.589,4.664a15.36,15.36,0,0,0,9.168,0c2.311-.669,4.589-2.016,4.589-4.664v-3.5H43.47V53.69H57.228c2.668,0,3.662-1.861,4.59-4.654.958-2.875.917-5.64,0-9.329-.659-2.656-1.918-4.654-4.59-4.654ZM48.627,57.188A1.749,1.749,0,1,1,46.9,58.932,1.732,1.732,0,0,1,48.627,57.188Z" transform="translate(-24.466 -24.171)" fill="#9eb3cf"/>
  <path id="text3004" d="M461.121,19.7h.535V16.345h1.267v-.4h-3.068v.4h1.267V19.7m2.276,0h.457V16.636l.991,3.062h.509l1.033-3.052V19.7h.5V15.946h-.659L465.1,19.161l-.963-3.215H463.4V19.7" transform="translate(-304.345 -11.603)" fill="#9eb3cf"/>
</svg>
