<svg id="Group_18621" data-name="Group 18621" xmlns="http://www.w3.org/2000/svg" width="62.306" height="70.027" viewBox="0 0 62.306 70.027">
  <path id="Subtraction_5" data-name="Subtraction 5" d="M31.152,70.027a6.55,6.55,0,0,1-3.377-1.009c-1.985-1.171-8.83-5.106-14.87-8.577l-.162-.093-.416-.239-.584-.336C8.172,57.72,4.8,55.78,3.017,54.748A5.953,5.953,0,0,1,.728,52.492,6.236,6.236,0,0,1,0,49.441c0-4.809,0-9.7,0-14.428S0,25.4,0,20.586a5.756,5.756,0,0,1,3.016-5.307c1.946-1.127,5.725-3.3,9.726-5.6l.191-.11.094-.054,0,0C18.716,6.246,25.789,2.18,27.776,1.008A6.556,6.556,0,0,1,31.152,0a5.794,5.794,0,0,1,1.616.235A7.412,7.412,0,0,1,34.4.943c4.629,2.673,9.342,5.386,13.9,8.009l.01.006.431.248c3.389,1.951,7,4.026,10.548,6.074a5.975,5.975,0,0,1,2.254,2.2,6.2,6.2,0,0,1,.762,3.111c0,9.139,0,26.859,0,28.85a6.243,6.243,0,0,1-.728,3.052,5.955,5.955,0,0,1-2.288,2.255c-3.516,2.027-7.151,4.12-10.574,6.089l-.2.112-.074.043c-4.606,2.651-9.369,5.392-14.049,8.095a7.406,7.406,0,0,1-1.63.708A5.8,5.8,0,0,1,31.152,70.027Zm0-55.7A20.735,20.735,0,0,0,10.509,33.611c-.031.464-.047.936-.047,1.4,0,.23,0,.465.012.7v.027A20.47,20.47,0,0,0,12.8,44.566c.13.25.267.5.407.744.27.469.562.934.868,1.38h0l0,0,.006.009a20.761,20.761,0,0,0,16.5,8.993c.191.005.384.008.575.008s.41,0,.614-.009a20.556,20.556,0,0,0,17.356-10.42l-8.992-5.21c-.131.232-.272.461-.419.68a10.351,10.351,0,0,1-3.95,3.484l0,0-.023.011,0,0,0,0-.009,0-.014.007,0,0-.02.01-.009,0,0,0-.027.013,0,0h0l-.033.016h0a10.244,10.244,0,0,1-4.225,1h-.309a10.377,10.377,0,0,1-1.953-.2h0l-.034-.007h0l-.007,0-.021,0h-.007l-.008,0-.008,0-.021,0h0l-.02,0-.014,0-.03-.006h-.007a10.3,10.3,0,0,1,2.154-20.364h.292a10.373,10.373,0,0,1,1.808.2h0l.027.005h.008l.009,0,.019,0h0l.023,0h.016l.028.006h0a10.208,10.208,0,0,1,3.384,1.4,10.4,10.4,0,0,1,3.359,3.509l9.006-5.185c-.235-.406-.489-.812-.755-1.206A20.683,20.683,0,0,0,31.153,14.323ZM53.525,33.806v2.37h2.37v2.37h2.371v-2.37h2.37v-2.37h-2.37v-2.37H55.895v2.37Zm-8.648,0v2.37h2.37v2.37h2.37v-2.37h2.37v-2.37h-2.37v-2.37h-2.37v2.37Z" transform="translate(0 0)" fill="#9eb3cf"/>
  <path id="Subtraction_4" data-name="Subtraction 4" d="M30.424,35.107h0A6.553,6.553,0,0,1,27.047,34.1c-1.995-1.177-8.9-5.147-15-8.651h0c-4.017-2.309-7.811-4.49-9.76-5.619A5.952,5.952,0,0,1,0,17.573l12.474-7.182A20.761,20.761,0,0,0,30.425,20.785a20.756,20.756,0,0,0,17.97-10.429l-7.079-4.1L60.849,17.57a5.951,5.951,0,0,1-2.288,2.255c-3.481,2.007-7.022,4.045-10.446,6.016l-.038.022-.013.008c-4.719,2.716-9.6,5.525-14.394,8.293a7.413,7.413,0,0,1-1.63.708A5.8,5.8,0,0,1,30.424,35.107Zm0-24.71a10.316,10.316,0,0,1-2.764-.375,10.242,10.242,0,0,1-2.479-1.058,10.37,10.37,0,0,1-3.7-3.758L30.52,0,39.4,5.146a10.363,10.363,0,0,1-3.707,3.8A10.243,10.243,0,0,1,33.2,10.017,10.314,10.314,0,0,1,30.425,10.4Z" transform="translate(0.729 34.92)" fill="#9eb3cf"/>
  <path id="Path_10744" data-name="Path 10744" d="M91.1,148.714a10.3,10.3,0,0,0,17.922-.06l-8.883-5.146-9.04,5.205" transform="translate(-68.892 -108.589)" fill="#9eb3cf"/>
  <path id="Subtraction_6" data-name="Subtraction 6" d="M30.33,35.013,12.1,24.449,8.883,22.588,0,17.443l8.815-5.076,9.006-5.185L30.293,0a6.2,6.2,0,0,1,.762,3.111c0,9.515,0,28.658,0,28.85a6.242,6.242,0,0,1-.728,3.051ZM22.277,16.329V18.7h2.37v2.37h2.37V18.7h2.37v-2.37h-2.37v-2.37h-2.37v2.37h-2.37Zm-8.648,0V18.7H16v2.37h2.37V18.7h2.37v-2.37h-2.37v-2.37H16v2.37Z" transform="translate(31.249 17.477)" fill="#9eb3cf"/>
</svg>
