<svg id="lockup" xmlns="http://www.w3.org/2000/svg" xmlns:xlink="http://www.w3.org/1999/xlink" width="191.364" height="35.368" viewBox="0 0 191.364 35.368">
  <defs>
    <clipPath id="clip-path">
      <path id="Path_10737" data-name="Path 10737" d="M40.129,13.407,25,4.8V40.168l6.052-3.5V26.72l4.572,2.622-.067-6.791-4.505-2.622V15.962l9.077,5.312Z" transform="translate(-25 -4.8)" fill="#9eb3cf"/>
    </clipPath>
    <clipPath id="clip-path-2">
      <path id="Path_10739" data-name="Path 10739" d="M.5,13.407,15.629,4.8V40.168l-6.052-3.5V15.962L.5,21.274Z" transform="translate(-0.5 -4.8)" fill="#9eb3cf"/>
    </clipPath>
  </defs>
  <g id="Group_18609" data-name="Group 18609" transform="translate(16.474 0)">
    <g id="Group_18608" data-name="Group 18608">
      <g id="Group_18607" data-name="Group 18607" clip-path="url(#clip-path)">
        <path id="Path_10736" data-name="Path 10736" d="M-1.6,4.6H35.516V40.17H-1.6Z" transform="translate(-16.286 -4.734)" fill="#9eb3cf"/>
      </g>
    </g>
  </g>
  <g id="Group_18612" data-name="Group 18612" transform="translate(0 0)">
    <g id="Group_18611" data-name="Group 18611">
      <g id="Group_18610" data-name="Group 18610" clip-path="url(#clip-path-2)">
        <path id="Path_10738" data-name="Path 10738" d="M-1.9,4.6H35.216V40.17H-1.9Z" transform="translate(0.286 -4.734)" fill="#9eb3cf"/>
      </g>
    </g>
  </g>
  <path id="Path_10740" data-name="Path 10740" d="M79.813,19.626H73.089V38.251H69.324V19.626H62.6V16.6H79.813Z" transform="translate(-20.844 -8.666)" fill="#9eb3cf"/>
  <path id="Path_10741" data-name="Path 10741" d="M91.133,38.487a7.6,7.6,0,0,1-5.581-2.152A7.868,7.868,0,0,1,83.4,30.553v-.471a9.563,9.563,0,0,1,.941-4.3,7.423,7.423,0,0,1,2.622-2.959,6.812,6.812,0,0,1,3.765-1.076,6.314,6.314,0,0,1,5.11,2.084,8.772,8.772,0,0,1,1.815,5.917v1.479H87.1a4.993,4.993,0,0,0,1.345,3.16A3.756,3.756,0,0,0,91.4,35.529a4.792,4.792,0,0,0,4.034-2.017l1.95,1.883a7.511,7.511,0,0,1-6.253,3.093Zm-.4-13.784a2.975,2.975,0,0,0-2.421,1.009A4.993,4.993,0,0,0,87.165,28.6h6.926v-.269a4.484,4.484,0,0,0-.941-2.757,3.582,3.582,0,0,0-2.421-.874Zm13.044-2.622.134,1.883a5.8,5.8,0,0,1,4.707-2.152c3.362,0,5.043,1.95,5.11,5.783V38.218h-3.631V27.8a3.318,3.318,0,0,0-.672-2.286,2.864,2.864,0,0,0-2.152-.74,3.518,3.518,0,0,0-3.295,1.95V38.151h-3.631V22.014l3.429.067Zm21.651,11.767a1.687,1.687,0,0,0-.807-1.479A7.549,7.549,0,0,0,122,31.494a12.809,12.809,0,0,1-3.093-1.009,4.083,4.083,0,0,1-2.69-3.765,4.46,4.46,0,0,1,1.748-3.5,6.879,6.879,0,0,1,4.438-1.412,7.079,7.079,0,0,1,4.64,1.412,4.461,4.461,0,0,1,1.748,3.7h-3.631a2.264,2.264,0,0,0-.807-1.748,2.894,2.894,0,0,0-2.084-.672,3.428,3.428,0,0,0-1.95.538,1.786,1.786,0,0,0-.74,1.479,1.53,1.53,0,0,0,.672,1.278,9.482,9.482,0,0,0,2.824.941,12.427,12.427,0,0,1,3.362,1.143,4.486,4.486,0,0,1,1.815,1.547,4.308,4.308,0,0,1-1.21,5.715,8.792,8.792,0,0,1-8.2.605,5.685,5.685,0,0,1-2.421-1.95,4.923,4.923,0,0,1-.874-2.69h3.5a2.485,2.485,0,0,0,.941,1.95,3.707,3.707,0,0,0,2.353.672,3.749,3.749,0,0,0,2.152-.538A1.4,1.4,0,0,0,125.425,33.848Zm5.446-3.833a9.1,9.1,0,0,1,.941-4.236,6.826,6.826,0,0,1,2.622-2.891,7.354,7.354,0,0,1,3.9-1.009,7.041,7.041,0,0,1,5.312,2.084,8.42,8.42,0,0,1,2.219,5.581v.874a9.285,9.285,0,0,1-.941,4.236,6.425,6.425,0,0,1-2.622,2.891,7.43,7.43,0,0,1-3.967,1.009,6.825,6.825,0,0,1-5.446-2.286,9.015,9.015,0,0,1-2.084-6.052Zm3.564.336a6.561,6.561,0,0,0,1.009,3.9,3.619,3.619,0,0,0,5.043.672,3.188,3.188,0,0,0,.672-.672,7.2,7.2,0,0,0,1.009-4.169,6.376,6.376,0,0,0-1.076-3.9,3.6,3.6,0,0,0-4.976-.74,7.365,7.365,0,0,0-.74.672A8.583,8.583,0,0,0,134.435,30.351Zm22.256-4.908a11,11,0,0,0-1.479-.134,3.316,3.316,0,0,0-3.362,1.883V38.218h-3.631V22.081h3.429l.067,1.815a4.038,4.038,0,0,1,3.631-2.084,4.222,4.222,0,0,1,1.278.2Zm15.129,3.564h-8.741v9.212h-3.765V16.567H173.1v3.026H163.079v6.455h8.741Zm7.195,9.212h-3.631V16.5h3.631V38.218Zm2.622-8.2a9.1,9.1,0,0,1,.941-4.236,6.826,6.826,0,0,1,2.622-2.891,7.354,7.354,0,0,1,3.9-1.009,7.041,7.041,0,0,1,5.312,2.084,8.42,8.42,0,0,1,2.219,5.581v.874a10.177,10.177,0,0,1-.874,4.236,6.425,6.425,0,0,1-2.622,2.891,7.43,7.43,0,0,1-3.967,1.009,6.825,6.825,0,0,1-5.446-2.286,8.688,8.688,0,0,1-2.084-6.052Zm3.631.336a6.561,6.561,0,0,0,1.009,3.9,3.31,3.31,0,0,0,2.891,1.412,3.122,3.122,0,0,0,2.824-1.412A7.2,7.2,0,0,0,193,30.082a6.376,6.376,0,0,0-1.076-3.9,3.6,3.6,0,0,0-4.976-.74,7.362,7.362,0,0,0-.74.672A7.9,7.9,0,0,0,185.268,30.351Zm27.7,2.891,2.555-11.095h3.5l-4.371,16.137h-2.959l-3.429-11.095-3.429,11.095h-2.959l-4.438-16.137H201l2.622,11.027,3.295-11.027h2.757Z" transform="translate(-27.659 -8.633)" fill="#9eb3cf"/>
</svg>
