<svg xmlns="http://www.w3.org/2000/svg" width="64.149" height="64.147" viewBox="0 0 64.149 64.147">
  <path id="Subtraction_7" data-name="Subtraction 7" d="M64.146,64.148H0a0,0,0,0,1,0,0V0A0,0,0,0,1,0,0H64.147a0,0,0,0,1,0,0V64.145h0A0,0,0,0,1,64.146,64.148Zm-35.367-31.3a.073.073,0,0,1,.061.034L40.9,50.742a.186.186,0,0,0,.137.073h5.323a.158.158,0,0,0,.128-.078l.966-1.872a.161.161,0,0,0-.01-.151L33.337,28.266a.109.109,0,0,1,.012-.135L46.326,15.217a.244.244,0,0,0,.062-.15v-.238a.517.517,0,0,0-.035-.169L45.6,12.938a.147.147,0,0,0-.123-.081H40.22a.244.244,0,0,0-.15.062L23.952,29.1a.056.056,0,0,1-.036.02.022.022,0,0,1-.019-.012.068.068,0,0,1-.007-.034V14.23a.258.258,0,0,0-.06-.152l-1.077-1.155a.231.231,0,0,0-.148-.065H18.822a.231.231,0,0,0-.148.065l-1.1,1.191a.258.258,0,0,0-.06.152V49.5h0a.244.244,0,0,0,.062.15l1.1,1.1a.244.244,0,0,0,.15.062h3.757a.244.244,0,0,0,.15-.062l1.1-1.1a.244.244,0,0,0,.062-.15V37.582a.235.235,0,0,1,.064-.149l4.774-4.559A.076.076,0,0,1,28.779,32.852Z" fill="#9eb3cf"/>
</svg>
