<svg xmlns="http://www.w3.org/2000/svg" width="120.392" height="81.753" viewBox="0 0 120.392 81.753">
  <path id="mysql-svgrepo-com_1" data-name="mysql-svgrepo-com 1" d="M141.623,183.182c-.329-.024-.711-.04-1.1-.04a15.31,15.31,0,0,0-5.512,1.02l.1-.036c-.5.2-1.3.2-1.373.839.277.265.317.7.55,1.072a7.763,7.763,0,0,0,1.722,2.031l.012.012c.7.55,1.4,1.084,2.144,1.553,1.3.8,2.786,1.281,4.062,2.087.727.47,1.469,1.068,2.208,1.57.365.249.6.7,1.072.863v-.1c-.229-.3-.3-.739-.526-1.072-.337-.337-.67-.638-1-.967a16.289,16.289,0,0,0-3.44-3.352l-.048-.032c-1.072-.731-3.42-1.754-3.862-2.987l-.064-.072a13.615,13.615,0,0,0,2.4-.558l-.1.028c1.14-.3,2.184-.237,3.36-.53.53-.136,1.068-.3,1.606-.47v-.3c-.6-.6-1.052-1.421-1.674-1.983a44.234,44.234,0,0,0-5.359-4.022l-.181-.108c-1.052-.67-2.389-1.1-3.5-1.674-.4-.2-1.072-.3-1.3-.638a12.655,12.655,0,0,1-1.349-2.493l-.032-.088q-1.477-2.866-2.746-5.833a33.641,33.641,0,0,0-1.8-4.018l.092.189a34.085,34.085,0,0,0-12.8-12.452l-.173-.088a15.779,15.779,0,0,0-4.195-1.361l-.1-.016c-.839-.04-1.674-.1-2.509-.136a12.123,12.123,0,0,1-1.566-1.188l.012.012c-1.907-1.2-6.84-3.814-8.245-.361-.9,2.176,1.341,4.323,2.116,5.427a15.54,15.54,0,0,1,1.666,2.429l.04.08c.237.582.3,1.18.538,1.786a39.669,39.669,0,0,0,1.843,4.745l-.1-.249a15.031,15.031,0,0,0,1.273,2.12l-.032-.048c.269.365.731.538.839,1.14a9.442,9.442,0,0,0-.763,2.449l-.008.056a14.6,14.6,0,0,0-.686,4.464,14.8,14.8,0,0,0,1.7,6.9l-.04-.08c.538.831,1.814,2.678,3.525,1.971,1.505-.6,1.172-2.509,1.606-4.187.1-.4.036-.666.241-.939v.076c.47.943.943,1.843,1.373,2.786a19.076,19.076,0,0,0,4.3,4.456l.052.036c.8.6,1.441,1.646,2.445,2.015v-.1h-.076a4.38,4.38,0,0,0-.759-.658l-.016-.008a17.372,17.372,0,0,1-1.722-1.963l-.032-.044a42.936,42.936,0,0,1-3.633-5.865l-.116-.245c-.55-1.052-1.012-2.188-1.453-3.227-.2-.4-.2-1-.538-1.2a12.423,12.423,0,0,0-1.574,2.208l-.032.064a18.47,18.47,0,0,0-.939,5.022v.044c-.136.036-.068,0-.136.072-1.072-.261-1.441-1.373-1.843-2.308a14.325,14.325,0,0,1-.863-4.942,14.5,14.5,0,0,1,.59-4.115l-.024.1c.237-.7,1.24-2.918.839-3.593-.209-.638-.871-1-1.24-1.521a12.357,12.357,0,0,1-1.172-2.063l-.032-.08c-.8-1.875-1.2-3.954-2.075-5.829a17.42,17.42,0,0,0-1.7-2.609l.028.036a17.006,17.006,0,0,1-1.8-2.529l-.044-.08c-.165-.365-.4-.971-.136-1.373a.568.568,0,0,1,.47-.45c.442-.361,1.686.108,2.12.309a17.12,17.12,0,0,1,3.384,1.714l-.064-.04c.47.329.979.967,1.582,1.132h.7c1.072.237,2.284.072,3.288.365a21.552,21.552,0,0,1,4.909,2.356l-.084-.052a30.1,30.1,0,0,1,10.381,11.3l.08.165c.4.771.578,1.481.943,2.284.7,1.654,1.57,3.328,2.284,4.925a21.956,21.956,0,0,0,2.437,4.572l-.048-.072c.5.7,2.517,1.068,3.42,1.433a22.687,22.687,0,0,1,2.453,1.008l-.149-.064c1.152.7,2.276,1.505,3.36,2.276.55.381,2.224,1.22,2.324,1.895ZM94.56,212.538c0,.06,0,.128,0,.2a7.325,7.325,0,0,1-2.581,5.592l-.012.008a10.122,10.122,0,0,1-6.407,2.272c-.189,0-.377,0-.562-.016h.024a13.841,13.841,0,0,1-7.932-2.613l.04.028,1.188-2.388a13.274,13.274,0,0,0,5.945,1.646h.024c.108.008.233.012.361.012a6.246,6.246,0,0,0,3.589-1.128l-.02.012a3.779,3.779,0,0,0,1.505-3.019v-.064c0-1.654-1.152-3.059-3.252-4.239-1.947-1.068-5.833-3.3-5.833-3.3a6.645,6.645,0,0,1-3.175-5.664c0-.084,0-.169,0-.253v.012c0-.076,0-.165,0-.253a6.867,6.867,0,0,1,2.352-5.182l.008-.008a8.829,8.829,0,0,1,5.724-2.091c.14,0,.277,0,.413.008h.1a12.522,12.522,0,0,1,6.945,2.087l-.048-.028L91.9,196.558a13.394,13.394,0,0,0-5.327-1.152h-.008c-.1-.008-.2-.012-.317-.012a4.7,4.7,0,0,0-2.971,1.052l.008-.008a3.425,3.425,0,0,0-1.244,2.629c0,1.646,1.172,3.059,3.34,4.263,1.971,1.08,5.953,3.36,5.953,3.36a6.539,6.539,0,0,1,3.256,5.648c0,.072,0,.148,0,.221v-.012Zm8.318,2.132a16.785,16.785,0,0,1-1.734-7.491c0-.43.016-.855.048-1.273l0,.056q0-10.481,6.371-10.485c.1-.008.229-.012.357-.012a5.357,5.357,0,0,1,4.532,2.5l.012.02a16.75,16.75,0,0,1,1.726,7.458c0,.417-.016.831-.044,1.24l0-.056q0,10.566-6.371,10.574c-.108.008-.233.012-.357.012a5.364,5.364,0,0,1-4.536-2.5l-.012-.02Zm16.515,6.23-5.1-2.509a11.246,11.246,0,0,0,1.269-1.24l.012-.012a16.865,16.865,0,0,0,3.3-10.056q0-.656-.048-1.3l0,.056q0-13.769-10.81-13.777c-.161-.008-.349-.012-.538-.012a10.248,10.248,0,0,0-7.727,3.5l-.008.012a16.9,16.9,0,0,0-3.284,10.052q0,.638.048,1.264l0-.056c-.036.405-.056.879-.056,1.357a16.376,16.376,0,0,0,2.971,9.43l-.036-.052a9.838,9.838,0,0,0,7.19,3.115c.265,0,.526-.012.783-.032l-.036,0h.128a12.864,12.864,0,0,0,3.6-.514l-.09.025,6.648,3.874,1.806-3.119Zm16.651-.678H122.848V192.483h4.44v24.33h8.755ZM74.219,199.757a62.642,62.642,0,0,1-7.647,22.681l.161-.309a9.991,9.991,0,0,1-7.9,5.379l-.04,0a7.869,7.869,0,0,1-2.886-.711l.048.02v-2.477a12.335,12.335,0,0,0,1.831.132H57.9c.064,0,.132,0,.2,0a4.657,4.657,0,0,0,3.043-1.124l-.008,0a4.048,4.048,0,0,0,1.481-3.031,20.23,20.23,0,0,0-1.2-4.877l.048.136L56.38,199.757h4.564l3.649,11.838a15.627,15.627,0,0,1,1.028,5.624v.008a73.658,73.658,0,0,0,4.151-17.1l.036-.369ZM54.068,220.222H49.419q-.2-11.084-1.353-22.123h-.04l-7.073,22.123H37.417L30.392,198.1h-.048q-.823,11.043-.979,22.123H25.125q.413-14.793,2.055-27.743h5.768l6.7,20.388h.04l6.756-20.388h5.492q1.822,15.162,2.148,27.743Zm53.35-66.183h-.032a5.586,5.586,0,0,0-1.381.173l.04-.008v.064h.068a11.626,11.626,0,0,0,1.08,1.377l-.008-.008c.269.538.5,1.072.771,1.606l.068-.076a1.865,1.865,0,0,0,.715-1.469,1.89,1.89,0,0,0-.012-.212v.008c-.2-.237-.229-.47-.4-.7-.2-.337-.63-.5-.9-.767Z" transform="translate(-25.125 -145.758)" fill="#9eb3cf"/>
</svg>
