<svg id="pyg_logo_text" xmlns="http://www.w3.org/2000/svg" width="137.668" height="46.21" viewBox="0 0 137.668 46.21">
  <path id="Path_10753" data-name="Path 10753" d="M131.566,72.754a1.972,1.972,0,0,1-.026-.306l-4.772-.7a2.225,2.225,0,0,1-1.557,1.729l.558,5.058a2.213,2.213,0,0,1,1.03.35l5.132-5.278a2.213,2.213,0,0,1-.364-.856Z" transform="translate(-101.615 -58.125)" fill="#9eb3cf"/>
  <path id="Path_10754" data-name="Path 10754" d="M95.087,84.034l-.554-5.07a2.225,2.225,0,0,1-1.158-.464L87.94,84.6a2.2,2.2,0,0,1,.654,1.126h4.968A2.223,2.223,0,0,1,95.087,84.034Z" transform="translate(-71.796 -63.526)" fill="#9eb3cf"/>
  <path id="Path_10755" data-name="Path 10755" d="M47.25,111.306l4.2,10.736a2.223,2.223,0,0,1,2.215,1.13l5.29-1.751A2.211,2.211,0,0,1,59.4,119.8l-4.764-5.876a2.016,2.016,0,0,1-.35.1,2.235,2.235,0,0,1-2.609-1.781,2.263,2.263,0,0,1-.022-.6L48,110.49A2.2,2.2,0,0,1,47.25,111.306Z" transform="translate(-39.241 -89.12)" fill="#9eb3cf"/>
  <path id="Path_10756" data-name="Path 10756" d="M93.513,152.892a2.231,2.231,0,0,1,1.657-1.371c.06-.012.118,0,.176-.016l.618-7.409a2.215,2.215,0,0,1-1.044-.726l-5.014,3.225a2.228,2.228,0,0,1-4,1.941l-5.292,1.757c0,.066.014.132.016.2Z" transform="translate(-65.932 -115.427)" fill="#9eb3cf"/>
  <path id="Path_10757" data-name="Path 10757" d="M58.507,49.236a2.219,2.219,0,0,1-1.246-.126L49.74,58.564a2.2,2.2,0,0,1,.5,1.026,2.233,2.233,0,0,1,.014.662L53.88,61.4a2.2,2.2,0,0,1,2.753-1.074l5.616-6.306a2.27,2.27,0,0,1-.262-.688,2.211,2.211,0,0,1,.46-1.8L59.566,48.71A2.2,2.2,0,0,1,58.507,49.236Z" transform="translate(-41.233 -39.691)" fill="#9eb3cf"/>
  <path id="Path_10758" data-name="Path 10758" d="M164.844,84.43l-.974,7.987a2.231,2.231,0,0,1,1.336,1.042l6.505-1.515a2.215,2.215,0,0,1,.4-1.361L165.9,84.09a1.887,1.887,0,0,1-1.046.34Z" transform="translate(-132.546 -67.998)" fill="#9eb3cf"/>
  <path id="Path_10759" data-name="Path 10759" d="M116.466,40.75l-14.746.26a2.183,2.183,0,0,1-.2.648l3.019,2.941a2.2,2.2,0,0,1,3.257,1.477l4.906.722a2.2,2.2,0,0,1,2.741-1.4l1.8-3.4A2.211,2.211,0,0,1,116.466,40.75Z" transform="translate(-82.661 -33.323)" fill="#9eb3cf"/>
  <path id="Path_10760" data-name="Path 10760" d="M123.809,124a2.2,2.2,0,0,1-1.283.758,2.3,2.3,0,0,1-.48.036l-1.156,5.1a2.236,2.236,0,0,1,.77.5l5.094-3.277c-.02-.07-.048-.136-.062-.2a2.2,2.2,0,0,1,.124-1.234Z" transform="translate(-98.159 -99.929)" fill="#9eb3cf"/>
  <path id="Path_10761" data-name="Path 10761" d="M140.854,92.279l.978-8.025A2.248,2.248,0,0,1,141.3,84l-5.132,5.278a2.177,2.177,0,0,1,.282,1.959l3.051,1.7a2.2,2.2,0,0,1,1.2-.652C140.75,92.283,140.8,92.285,140.854,92.279Z" transform="translate(-110.384 -67.926)" fill="#9eb3cf"/>
  <path id="Path_10762" data-name="Path 10762" d="M92.536,125.967a2.216,2.216,0,0,1,.706-.272,2.3,2.3,0,0,1,.386-.034l1.164-5.134a2.227,2.227,0,0,1-1.29-1.617H88.568a2.227,2.227,0,0,1-.7,1.309Z" transform="translate(-71.74 -95.857)" fill="#9eb3cf"/>
  <path id="Path_10763" data-name="Path 10763" d="M76.343,187.558a2.171,2.171,0,0,1-1.214-1.961l-12.867-2.4a2.225,2.225,0,0,1-1.671,1.415,2.173,2.173,0,0,1-.692.01l-2.069,5.36,16.8,3.519Z" transform="translate(-47.706 -147.294)" fill="#9eb3cf"/>
  <path id="Path_10764" data-name="Path 10764" d="M18.876,129.394a2.213,2.213,0,0,1,0-3.877l-4.168-10.692a2.231,2.231,0,0,1-1.613-.326L7.57,120.208l9.336,14.282Z" transform="translate(-7.494 -92.329)" fill="#9eb3cf"/>
  <path id="Path_10765" data-name="Path 10765" d="M150.71,190.041a2.231,2.231,0,0,1-1.811,2.087,2.174,2.174,0,0,1-.612.02l-1.557,5.432,13.693-8.951Z" transform="translate(-118.833 -151.638)" fill="#9eb3cf"/>
  <path id="Path_10766" data-name="Path 10766" d="M193.17,11.516a2.187,2.187,0,0,1,.484,1,2.223,2.223,0,0,1-1.124,2.361l4.076,12.749a2.227,2.227,0,0,1,2.451,1.8,2.252,2.252,0,0,1,.038.446l2.873.6L197.2,6.57Z" transform="translate(-155.476 -5.976)" fill="#9eb3cf"/>
  <path id="Path_10767" data-name="Path 10767" d="M176.133,127.33a2.213,2.213,0,0,1-3.1,1.094l-8.987,11.036a2.181,2.181,0,0,1,.39.684l10.856-1.579,3.831-10.614Z" transform="translate(-132.69 -102.594)" fill="#9eb3cf"/>
  <path id="Path_10768" data-name="Path 10768" d="M12.174,57.9a2.2,2.2,0,0,1-.366-.862,2.235,2.235,0,0,1,1.781-2.6,2.2,2.2,0,0,1,1.437.222L22.5,45.274a2.219,2.219,0,0,1-.52-.774L10.625,46.639,7.19,63.049Z" transform="translate(-7.19 -36.323)" fill="#9eb3cf"/>
  <path id="Path_10769" data-name="Path 10769" d="M181.7,61.891l-4.076-12.749a2.225,2.225,0,0,1-.908-.082l-1.8,3.4a2.2,2.2,0,0,1,.416,3.013l6.222,6.491C181.611,61.935,181.659,61.915,181.7,61.891Z" transform="translate(-141.387 -39.972)" fill="#9eb3cf"/>
  <path id="Path_10770" data-name="Path 10770" d="M106.12,3.6l14.334,5.75a2.2,2.2,0,0,1,2.923-.746l4.03-4.954Z" transform="translate(-86.342 -3.6)" fill="#9eb3cf"/>
  <path id="Path_10771" data-name="Path 10771" d="M39.692,12.055a2.227,2.227,0,0,1,4.4-.5l14.768-.26v-.028L43.249,5,29.53,13.971Z" transform="translate(-25.064 -4.72)" fill="#9eb3cf"/>
  <path id="Path_10772" data-name="Path 10772" d="M167.938,128.06a2.2,2.2,0,0,1-.324-.51l-6.424,1.489a2.227,2.227,0,0,1-1.8,2.479,2.28,2.28,0,0,1-.26.022l-.622,7.377a2.285,2.285,0,0,1,.436.176Z" transform="translate(-128.258 -102.77)" fill="#9eb3cf"/>
  <path id="Path_10773" data-name="Path 10773" d="M312.25,74.074V45.525h12.123a10.658,10.658,0,0,1,5.186,1.26,9.264,9.264,0,0,1,3.609,3.513,9.908,9.908,0,0,1,1.3,5.036,10.491,10.491,0,0,1-1.273,5.212,9.049,9.049,0,0,1-3.6,3.549,10.558,10.558,0,0,1-5.146,1.25h-6V74.07h-6.2ZM324.211,59.68a3.776,3.776,0,0,0,2.039-.566,4.036,4.036,0,0,0,1.465-1.555,4.6,4.6,0,0,0,.54-2.227,3.98,3.98,0,0,0-.544-2.033,4.314,4.314,0,0,0-1.493-1.537,3.8,3.8,0,0,0-2.047-.574h-5.714V59.68Z" transform="translate(-251.262 -37.143)" fill="#9eb3cf"/>
  <path id="Path_10774" data-name="Path 10774" d="M321.973,43.725a10.02,10.02,0,0,1,4.9,1.186,8.62,8.62,0,0,1,3.379,3.289,9.27,9.27,0,0,1,1.216,4.736,9.828,9.828,0,0,1-1.2,4.916,8.461,8.461,0,0,1-3.349,3.319,9.924,9.924,0,0,1-4.856,1.176h-6.6v8.727H310.45V43.725h11.524m-6.516,14.157h6.356a4.418,4.418,0,0,0,2.353-.654,4.685,4.685,0,0,0,1.679-1.779,5.178,5.178,0,0,0,.614-2.513,4.6,4.6,0,0,0-.624-2.333,4.879,4.879,0,0,0-1.7-1.749,4.423,4.423,0,0,0-2.363-.664h-6.316v9.692m6.516-15.356H309.25V72.274h7.407V63.547h5.4a11.16,11.16,0,0,0,5.434-1.323,9.654,9.654,0,0,0,3.817-3.781,11.066,11.066,0,0,0,1.361-5.506,10.508,10.508,0,0,0-1.378-5.336,9.846,9.846,0,0,0-3.839-3.739,11.234,11.234,0,0,0-5.476-1.337Zm-5.316,6.863h5.114a3.2,3.2,0,0,1,1.733.486,3.689,3.689,0,0,1,1.289,1.325,3.4,3.4,0,0,1,.464,1.735,3.932,3.932,0,0,1-.468,1.939,3.464,3.464,0,0,1-1.253,1.331,3.217,3.217,0,0,1-1.725.476h-5.154Z" transform="translate(-248.861 -34.743)" fill="#9eb3cf"/>
  <path id="Path_10775" data-name="Path 10775" d="M430.88,107.811v-5.222h4.039a3.4,3.4,0,0,0,1.493-.28,2.381,2.381,0,0,0,.934-.842,9.2,9.2,0,0,0,.87-1.781l.166-.482L430.21,78.882h6.426l5,12.833,4.9-12.819,6.488-.026-8.4,21.036a21.269,21.269,0,0,1-2.511,4.834,7.015,7.015,0,0,1-3,2.4,11.349,11.349,0,0,1-4.154.656Z" transform="translate(-345.639 -63.822)" fill="#9eb3cf"/>
  <path id="Path_10776" data-name="Path 10776" d="M448.579,77.1,440.516,97.3a20.537,20.537,0,0,1-2.433,4.7,6.485,6.485,0,0,1-2.745,2.213,10.77,10.77,0,0,1-3.93.614h-3.479v-4.018h3.439a3.974,3.974,0,0,0,1.759-.342,2.98,2.98,0,0,0,1.165-1.046,9.78,9.78,0,0,0,.936-1.911l.242-.7L427.547,77.1h5.128l4.866,12.507.524,2.131.546-2.111L443.4,77.112l5.184-.022m1.773-1.2h-1.777l-5.2.02h-.822l-.294.768-4.2,10.976-4.28-11-.3-.764H425.77l.662,1.647,7.757,19.293-.09.26a8.48,8.48,0,0,1-.8,1.651,1.8,1.8,0,0,1-.7.638,2.857,2.857,0,0,1-1.229.218h-4.638v6.422h4.682a11.974,11.974,0,0,0,4.374-.7,7.7,7.7,0,0,0,3.259-2.6,21.992,21.992,0,0,0,2.6-4.976l8.047-20.208Z" transform="translate(-342.086 -61.438)" fill="#9eb3cf"/>
  <path id="Path_10777" data-name="Path 10777" d="M559.529,72.067a14.808,14.808,0,0,1-7.531-2,15.053,15.053,0,0,1-5.464-5.412,14.858,14.858,0,0,1,0-14.97,15.078,15.078,0,0,1,13.075-7.4,15.856,15.856,0,0,1,6.018,1.2,14.2,14.2,0,0,1,5.09,3.507,11.323,11.323,0,0,1,2.811,5.442l.152.724h-6.217L567.3,52.8a7.57,7.57,0,0,0-3.031-3.475,9.076,9.076,0,0,0-4.786-1.25,8.883,8.883,0,0,0-4.43,1.15,8.345,8.345,0,0,0-3.183,3.2,10.283,10.283,0,0,0,0,9.56,8.265,8.265,0,0,0,3.171,3.163,8.985,8.985,0,0,0,4.442,1.12,9.524,9.524,0,0,0,3.954-.77,7.042,7.042,0,0,0,2.709-2.111,7.4,7.4,0,0,0,1.221-2.433h-8.685v-5.39h15.472v.6a18.512,18.512,0,0,1-1.677,8.229,13.152,13.152,0,0,1-5.074,5.652A14.952,14.952,0,0,1,559.529,72.067Z" transform="translate(-437.088 -34.554)" fill="#9eb3cf"/>
  <path id="Path_10778" data-name="Path 10778" d="M557.162,40.508a15.235,15.235,0,0,1,5.8,1.156,13.541,13.541,0,0,1,4.876,3.359A10.7,10.7,0,0,1,570.5,50.18h-5.088a8.1,8.1,0,0,0-3.269-3.751,9.615,9.615,0,0,0-5.1-1.337,9.437,9.437,0,0,0-4.726,1.218,8.889,8.889,0,0,0-3.4,3.439,10.862,10.862,0,0,0,0,10.146,8.826,8.826,0,0,0,3.4,3.389,9.544,9.544,0,0,0,4.736,1.2,10.04,10.04,0,0,0,4.2-.824,7.586,7.586,0,0,0,2.937-2.293,8.066,8.066,0,0,0,1.507-3.4h-8.855V53.781h14.278a17.822,17.822,0,0,1-1.619,7.963,12.5,12.5,0,0,1-4.846,5.4,14.456,14.456,0,0,1-20.048-19.536,14.482,14.482,0,0,1,12.553-7.1m0-1.2A15.678,15.678,0,0,0,543.567,47a15.457,15.457,0,0,0,0,15.582,15.658,15.658,0,0,0,5.678,5.624,16.342,16.342,0,0,0,16.028-.032,13.738,13.738,0,0,0,5.3-5.906,19.083,19.083,0,0,0,1.737-8.493l-.01-1.2h-16.66v6.581h8.437a6.579,6.579,0,0,1-.85,1.469,6.37,6.37,0,0,1-2.471,1.941,8.9,8.9,0,0,1-3.707.716,8.412,8.412,0,0,1-4.16-1.042A7.573,7.573,0,0,1,549.95,59.3a9.634,9.634,0,0,1,.014-8.959,7.644,7.644,0,0,1,2.955-2.985,8.185,8.185,0,0,1,4.134-1.062,8.484,8.484,0,0,1,4.474,1.164,6.858,6.858,0,0,1,2.8,3.211l.316.716h7.333l-.306-1.447a11.924,11.924,0,0,0-2.959-5.726,14.826,14.826,0,0,0-5.3-3.655A16.407,16.407,0,0,0,557.162,39.309Z" transform="translate(-434.647 -32.169)" fill="#9eb3cf"/>
</svg>
