<svg xmlns="http://www.w3.org/2000/svg" width="578" height="206.336" viewBox="0 0 578 206.336">
  <g id="_5343139_24" data-name="5343139_24" transform="translate(0 -134.229)" style="mix-blend-mode: screen;isolation: isolate">
    <g id="Light" transform="translate(57.303 146.112)">
      <g id="Group_25620" data-name="Group 25620" transform="translate(0 5.446)">
        <ellipse id="Ellipse_5385" data-name="Ellipse 5385" cx="15.813" cy="1.8" rx="15.813" ry="1.8" transform="translate(99.516 85.919)" fill="#fff" opacity="0.5"/>
        <ellipse id="Ellipse_5386" data-name="Ellipse 5386" cx="15.813" cy="1.8" rx="15.813" ry="1.8" transform="translate(0 69.158)" fill="#fff" opacity="0.5"/>
        <ellipse id="Ellipse_5387" data-name="Ellipse 5387" cx="15.813" cy="1.8" rx="15.813" ry="1.8" transform="translate(401.579 84.463)" fill="#fff" opacity="0.5"/>
        <ellipse id="Ellipse_5388" data-name="Ellipse 5388" cx="15.813" cy="1.8" rx="15.813" ry="1.8" transform="translate(460.959 50.116)" fill="#fff" opacity="0.5"/>
        <ellipse id="Ellipse_5389" data-name="Ellipse 5389" cx="15.813" cy="1.8" rx="15.813" ry="1.8" transform="translate(403.909)" fill="#fff" opacity="0.5"/>
        <ellipse id="Ellipse_5390" data-name="Ellipse 5390" cx="15.813" cy="1.8" rx="15.813" ry="1.8" transform="translate(351.914 16.294)" fill="#fff" opacity="0.5"/>
        <ellipse id="Ellipse_5391" data-name="Ellipse 5391" cx="15.813" cy="1.8" rx="15.813" ry="1.8" transform="translate(417.392 33.394)" fill="#fff" opacity="0.5"/>
        <ellipse id="Ellipse_5392" data-name="Ellipse 5392" cx="15.813" cy="1.8" rx="15.813" ry="1.8" transform="translate(43.806 103.532)" fill="#fff" opacity="0.5"/>
        <ellipse id="Ellipse_5393" data-name="Ellipse 5393" cx="15.813" cy="1.8" rx="15.813" ry="1.8" transform="translate(18.613 120.217)" fill="#fff" opacity="0.5"/>
        <path id="Path_25230" data-name="Path 25230" d="M367.389,333.18c0,.994-7.08,1.8-15.813,1.8s-15.813-.806-15.813-1.8,7.08-1.8,15.813-1.8S367.389,332.186,367.389,333.18Z" transform="translate(-150.791 -210.456)" fill="#fff" opacity="0.5"/>
        <path id="Path_25231" data-name="Path 25231" d="M127.244,381.631c0,.994-7.08,1.8-15.813,1.8s-15.813-.806-15.813-1.8,7.08-1.8,15.813-1.8S127.244,380.637,127.244,381.631Z" transform="translate(-85.869 -224.931)" fill="#fff" opacity="0.5"/>
        <ellipse id="Ellipse_5394" data-name="Ellipse 5394" cx="15.813" cy="1.8" rx="15.813" ry="1.8" transform="translate(117.479 171.692)" fill="#fff" opacity="0.5"/>
      </g>
      <g id="Group_25621" data-name="Group 25621" transform="translate(18.612)">
        <circle id="Ellipse_5395" data-name="Ellipse 5395" cx="6.96" cy="6.96" r="6.96" transform="translate(236.575 67.97)" fill="#fff"/>
        <circle id="Ellipse_5396" data-name="Ellipse 5396" cx="8.827" cy="8.827" r="8.827" transform="translate(74.316 155.673)" fill="#fff" opacity="0.5"/>
        <circle id="Ellipse_5397" data-name="Ellipse 5397" cx="6.242" cy="6.242" r="6.242" transform="translate(55.633 181.969)" fill="#fff" opacity="0.5"/>
        <circle id="Ellipse_5398" data-name="Ellipse 5398" cx="6.242" cy="6.242" r="6.242" transform="translate(118.094 155.198)" fill="#fff" opacity="0.5"/>
        <circle id="Ellipse_5399" data-name="Ellipse 5399" cx="6.242" cy="6.242" r="6.242" transform="translate(264.234 135.981)" fill="#fff" opacity="0.5"/>
        <circle id="Ellipse_5400" data-name="Ellipse 5400" cx="6.242" cy="6.242" r="6.242" transform="translate(0 85.339)" fill="#fff" opacity="0.5"/>
        <circle id="Ellipse_5401" data-name="Ellipse 5401" cx="7.736" cy="7.736" r="7.736" transform="translate(262.271 33.682)" fill="#fff" opacity="0.5"/>
        <circle id="Ellipse_5402" data-name="Ellipse 5402" cx="5.534" cy="5.534" r="5.534" transform="translate(395.577 66.482)" fill="#fff" opacity="0.5"/>
        <circle id="Ellipse_5403" data-name="Ellipse 5403" cx="9.843" cy="9.843" r="9.843" transform="translate(117.626 100.859)" fill="#fff" opacity="0.5"/>
        <circle id="Ellipse_5404" data-name="Ellipse 5404" cx="7.328" cy="7.328" r="7.328" transform="translate(307.849 110.219)" fill="#fff" opacity="0.5"/>
        <circle id="Ellipse_5405" data-name="Ellipse 5405" cx="7.328" cy="7.328" r="7.328" transform="translate(332.442)" fill="#fff" opacity="0.5"/>
        <circle id="Ellipse_5406" data-name="Ellipse 5406" cx="7.328" cy="7.328" r="7.328" transform="translate(221.943 120.842)" fill="#fff"/>
        <circle id="Ellipse_5407" data-name="Ellipse 5407" cx="7.328" cy="7.328" r="7.328" transform="translate(299.944 87.166)" fill="#fff"/>
      </g>
    </g>
    <g id="Line_2" transform="translate(0 134.229)">
      <g id="Group_25622" data-name="Group 25622" opacity="0.5">
        <path id="Path_25232" data-name="Path 25232" d="M582.86,312.476H539.912a2.353,2.353,0,1,0,0,.707h43.24L596.8,299.532H720.9v-.706H596.511Z" transform="translate(-142.901 -183.402)" fill="#fff"/>
        <path id="Path_25233" data-name="Path 25233" d="M657.361,252.515a2.353,2.353,0,1,0,0,.707h98.628v-.706H657.361Z" transform="translate(-177.989 -168.969)" fill="#fff"/>
        <path id="Path_25234" data-name="Path 25234" d="M417,350.2a2.351,2.351,0,0,0-2.324,2H317.919l-19.668,19.668h-18.63a2.354,2.354,0,1,0,0,.706h18.923L318.212,352.9h96.463A2.352,2.352,0,1,0,417,350.2Z" transform="translate(-74.272 -198.749)" fill="#fff"/>
        <path id="Path_25235" data-name="Path 25235" d="M137.9,411.877a2.352,2.352,0,0,0-2.324,2H105.009L93.568,402.435H0v.706H93.275l11.442,11.442h30.856a2.352,2.352,0,1,0,2.324-2.706Z" transform="translate(0 -214.356)" fill="#fff"/>
        <path id="Path_25236" data-name="Path 25236" d="M79.8,280.767a2.362,2.362,0,1,0,.137-.785H0v.706H79.809C79.807,280.714,79.8,280.74,79.8,280.767Z" transform="translate(0 -177.304)" fill="#fff"/>
        <path id="Path_25237" data-name="Path 25237" d="M628.863,138.935a2.352,2.352,0,0,0,2.324-2h51.888l16.373,16.373a2.359,2.359,0,1,0,.5-.5l-16.58-16.58H631.187a2.352,2.352,0,1,0-2.324,2.706Z" transform="translate(-170.17 -134.229)" fill="#fff"/>
      </g>
    </g>
    <g id="Line_1" transform="translate(0 150.903)">
      <g id="Group_25623" data-name="Group 25623" transform="translate(0 0)">
        <path id="Path_25238" data-name="Path 25238" d="M134.761,277.224H202.65L220.122,294.7h48.916a2.354,2.354,0,1,0,0-.942H220.513L203.04,276.282H135.151l-16.825-16.825H0v.941H117.935Z" transform="translate(0 -188.315)" fill="#fff"/>
        <path id="Path_25239" data-name="Path 25239" d="M625.464,159.889H535.209a2.354,2.354,0,1,0,0,.942h89.865l15.4,15.4H453.663a2.353,2.353,0,1,0,0,.942h69.986l-16.986,16.986H472.635a4,4,0,1,0,0,.942h34.418l17.928-17.928H695.14v-.941H641.81Zm-156.8,37.8a3.059,3.059,0,1,1,3.059-3.06A3.063,3.063,0,0,1,468.664,197.693Z" transform="translate(-117.14 -158.007)" fill="#fff"/>
        <path id="Path_25240" data-name="Path 25240" d="M505.673,225.178H455.248l-5.285-5.285a2.355,2.355,0,1,0-.665.665l5.56,5.56h51.2L522.784,209.4H694.137v-.941H522.395Z" transform="translate(-116.137 -173.079)" fill="#fff"/>
        <path id="Path_25241" data-name="Path 25241" d="M69.232,349.153h66.246l17.088,17.088a4.007,4.007,0,1,0,.636-.7l-17.334-17.334H69.622L53.377,331.967h82.1l17.488,17.488h55.958l16.737-16.737h65.931a4,4,0,1,0,0-.942H225.27l-16.737,16.737H153.355l-16.546-16.546h55.73a2.353,2.353,0,1,0,0-.941H0v.941H52.046Zm86.578,16.359a3.059,3.059,0,1,1-3.059,3.059A3.062,3.062,0,0,1,155.81,365.512Zm139.751-36.33a3.059,3.059,0,1,1-3.059,3.059A3.063,3.063,0,0,1,295.561,329.183Z" transform="translate(0 -208.864)" fill="#fff"/>
        <path id="Path_25242" data-name="Path 25242" d="M501.951,249.87H443.205a4,4,0,1,0,0,.942h59.136l17.568-17.568h49.5l-16.679,16.679H519.284l-16.671,16.671a3.97,3.97,0,1,0,.682.649l16.379-16.379h33.444l17.62-17.62H691.026V232.3H519.519ZM439.235,253.4a3.059,3.059,0,1,1,3.059-3.059A3.063,3.063,0,0,1,439.235,253.4ZM500.2,272.838a3.059,3.059,0,1,1,3.059-3.059A3.062,3.062,0,0,1,500.2,272.838Z" transform="translate(-113.026 -180.203)" fill="#fff"/>
        <path id="Path_25243" data-name="Path 25243" d="M322.151,378.508a2.354,2.354,0,0,0-2.306,1.882H236.579l-17.222,17.222h-66.7l-16.795-16.795H0v.941H135.477l16.795,16.795h67.475l17.222-17.222h82.877a2.353,2.353,0,1,0,2.306-2.823Z" transform="translate(0 -223.882)" fill="#fff"/>
        <path id="Path_25244" data-name="Path 25244" d="M578.772,278.6a2.353,2.353,0,1,0,2.306,2.824H733.205v-.941H581.078A2.354,2.354,0,0,0,578.772,278.6Z" transform="translate(-155.205 -194.033)" fill="#fff"/>
        <path id="Path_25245" data-name="Path 25245" d="M39.063,359.029a2.353,2.353,0,1,0-2.321-2.724H0v.941H36.783A2.351,2.351,0,0,0,39.063,359.029Z" transform="translate(0 -216.656)" fill="#fff"/>
        <circle id="Ellipse_5408" data-name="Ellipse 5408" cx="2.353" cy="2.353" r="2.353" transform="translate(302.168 121.025)" fill="#fff"/>
        <path id="Path_25246" data-name="Path 25246" d="M476.037,206.882a2.353,2.353,0,1,0,2.353,2.353A2.353,2.353,0,0,0,476.037,206.882Z" transform="translate(-131.362 -172.608)" fill="#fff"/>
        <circle id="Ellipse_5409" data-name="Ellipse 5409" cx="2.353" cy="2.353" r="2.353" transform="translate(316.233 67.785)" fill="#fff"/>
        <path id="Path_25247" data-name="Path 25247" d="M526.881,282.39a2.353,2.353,0,1,0,2.353,2.353A2.354,2.354,0,0,0,526.881,282.39Z" transform="translate(-145.462 -195.166)" fill="#fff"/>
        <circle id="Ellipse_5410" data-name="Ellipse 5410" cx="2.353" cy="2.353" r="2.353" transform="translate(158.146 157.354)" fill="#fff"/>
        <circle id="Ellipse_5411" data-name="Ellipse 5411" cx="2.353" cy="2.353" r="2.353" transform="translate(201.849 103.557)" fill="#fff"/>
        <path id="Path_25248" data-name="Path 25248" d="M198.217,311.333a4,4,0,1,0-3.97-4.471H0v.941H194.247A4,4,0,0,0,198.217,311.333Zm0-7.06a3.059,3.059,0,1,1-3.059,3.059A3.062,3.062,0,0,1,198.217,304.274Z" transform="translate(0 -201.423)" fill="#fff"/>
      </g>
    </g>
  </g>
</svg>
