<svg xmlns="http://www.w3.org/2000/svg" width="37.391" height="46.738" viewBox="0 0 37.391 46.738">
  <g id="Group_25709" data-name="Group 25709" transform="translate(-64 -16)">
    <path id="Path_25506" data-name="Path 25506" d="M64,58.843a3.9,3.9,0,0,0,3.895,3.895H97.5a3.9,3.9,0,0,0,3.895-3.895V29.754A3.87,3.87,0,0,0,100.25,27L90.39,17.141h0A3.869,3.869,0,0,0,87.636,16H67.895A3.9,3.9,0,0,0,64,19.895ZM74.906,37.032a3.895,3.895,0,1,1-3.895,3.895,3.895,3.895,0,0,1,3.895-3.895ZM77.243,61.18H75.685v-9.5l.839,2.013a.779.779,0,0,0,.719.479Zm.519-8.569-2.012-4.83.675-1.619a5.425,5.425,0,0,0,1.379-.62l2.945,7.068Zm-5.753-7.068a5.416,5.416,0,0,0,2.64.83l-2.6,6.238H69.063Zm1.279,8.147.839-2.013v9.5H72.569V54.169a.779.779,0,0,0,.719-.479Zm-7.73-33.8a2.34,2.34,0,0,1,2.337-2.337h3.116v4.674h1.558V17.558h1.558v4.674h1.558V17.558h1.558v4.674H78.8V17.558h8.836a2.357,2.357,0,0,1,.512.057v7.733a3.9,3.9,0,0,0,3.895,3.895h4.674V27.684H92.043a2.34,2.34,0,0,1-2.337-2.337V18.66L99.148,28.1a2.322,2.322,0,0,1,.685,1.653V58.843A2.34,2.34,0,0,1,97.5,61.18H78.8V54.169h3.116a.779.779,0,0,0,.719-1.079l-3.591-8.619a5.438,5.438,0,0,0-.244-7.356V31.579H77.242V36a5.408,5.408,0,0,0-1.558-.471V31.579H74.127v3.951A5.408,5.408,0,0,0,72.569,36V31.579H71.011v5.537a5.438,5.438,0,0,0-.244,7.356l-3.591,8.619a.779.779,0,0,0,.719,1.079h3.116V61.18H67.895a2.34,2.34,0,0,1-2.337-2.337Z" transform="translate(0)" fill="#9eb3cf"/>
    <path id="Path_25507" data-name="Path 25507" d="M120,104h7.011v1.558H120Z" transform="translate(-50.547 -79.431)" fill="#9eb3cf"/>
    <path id="Path_25508" data-name="Path 25508" d="M208,104h2.337v1.558H208Z" transform="translate(-129.979 -79.431)" fill="#9eb3cf"/>
    <path id="Path_25509" data-name="Path 25509" d="M120,136h5.453v1.558H120Z" transform="translate(-50.547 -108.316)" fill="#9eb3cf"/>
    <path id="Path_25510" data-name="Path 25510" d="M192,136h3.895v1.558H192Z" transform="translate(-115.536 -108.316)" fill="#9eb3cf"/>
    <path id="Path_25511" data-name="Path 25511" d="M288,192h3.116v1.558H288Z" transform="translate(-202.189 -158.863)" fill="#9eb3cf"/>
    <path id="Path_25512" data-name="Path 25512" d="M336,192h6.232v1.558H336Z" transform="translate(-245.515 -158.863)" fill="#9eb3cf"/>
    <path id="Path_25513" data-name="Path 25513" d="M312,256h3.895v1.558H312Z" transform="translate(-223.852 -216.631)" fill="#9eb3cf"/>
    <path id="Path_25514" data-name="Path 25514" d="M368,256h3.116v1.558H368Z" transform="translate(-274.399 -216.631)" fill="#9eb3cf"/>
    <path id="Path_25515" data-name="Path 25515" d="M288,296h3.116v1.558H288Z" transform="translate(-202.189 -252.736)" fill="#9eb3cf"/>
    <path id="Path_25516" data-name="Path 25516" d="M336,296h6.232v1.558H336Z" transform="translate(-245.515 -252.736)" fill="#9eb3cf"/>
    <path id="Path_25517" data-name="Path 25517" d="M288,416h2.337v1.558H288Z" transform="translate(-202.189 -361.052)" fill="#9eb3cf"/>
    <path id="Path_25518" data-name="Path 25518" d="M384,416h1.558v1.558H384Z" transform="translate(-288.841 -361.052)" fill="#9eb3cf"/>
    <path id="Path_25519" data-name="Path 25519" d="M328,416h3.895v1.558H328Z" transform="translate(-238.294 -361.052)" fill="#9eb3cf"/>
    <path id="Path_25520" data-name="Path 25520" d="M288,336h7.011v1.558H288Z" transform="translate(-202.189 -288.841)" fill="#9eb3cf"/>
    <path id="Path_25521" data-name="Path 25521" d="M376,336h2.337v1.558H376Z" transform="translate(-281.62 -288.841)" fill="#9eb3cf"/>
    <path id="Path_25522" data-name="Path 25522" d="M288,376h3.116v1.558H288Z" transform="translate(-202.189 -324.946)" fill="#9eb3cf"/>
    <path id="Path_25523" data-name="Path 25523" d="M336,376h6.232v1.558H336Z" transform="translate(-245.515 -324.946)" fill="#9eb3cf"/>
  </g>
</svg>
