<svg xmlns="http://www.w3.org/2000/svg" width="48.223" height="44.972" viewBox="0 0 48.223 44.972">
  <g id="Layer_x0020_1" transform="translate(-0.5 -146.707)">
    <path id="Path_25501" data-name="Path 25501" d="M26.305,166.5a7.065,7.065,0,0,1-.7-14.1,32.472,32.472,0,0,0-2.959-4.639.658.658,0,0,1,.579-1.057c6.264.556,10.146,7.042,10.146,12.727A7.075,7.075,0,0,1,26.305,166.5Zm21.761,25.177H1.151a.662.662,0,0,1,0-1.324H48.066A.662.662,0,0,1,48.066,191.678Zm0-5.474H1.151a.656.656,0,0,1,0-1.313H48.066A.656.656,0,0,1,48.066,186.2Zm0-5.463H1.151a.656.656,0,0,1,0-1.313H48.066A.656.656,0,0,1,48.066,180.742Zm0-5.463H1.151a.656.656,0,0,1,0-1.313H48.066A.656.656,0,0,1,48.066,175.28Zm0-5.463H1.151a.656.656,0,0,1,0-1.313H48.066A.656.656,0,0,1,48.066,169.817Zm-34.021-5.463H1.151a.662.662,0,0,1,0-1.324H14.045A.662.662,0,0,1,14.045,164.355Zm0-5.463H1.151a.662.662,0,0,1,0-1.324H14.045A.662.662,0,0,1,14.045,158.892Zm27.613,7.61a7.065,7.065,0,0,1-.7-14.1A32.472,32.472,0,0,0,38,147.767a.657.657,0,0,1,.579-1.057c6.264.556,10.146,7.042,10.146,12.727A7.075,7.075,0,0,1,41.658,166.5Zm-5.741-7.065a5.741,5.741,0,0,0,11.481,0c0-4.606-2.77-9.79-7.365-11.125a28.11,28.11,0,0,1,2.559,4.461.662.662,0,0,1-.634.923A5.749,5.749,0,0,0,35.918,159.437Zm-15.353,0a5.741,5.741,0,0,0,11.481,0c0-4.606-2.77-9.79-7.365-11.125a28.11,28.11,0,0,1,2.559,4.461.662.662,0,0,1-.634.923A5.749,5.749,0,0,0,20.565,159.437Z" transform="translate(0)" fill="#9eb3cf" fill-rule="evenodd"/>
  </g>
</svg>
