<svg xmlns="http://www.w3.org/2000/svg" width="49.86" height="47.979" viewBox="0 0 49.86 47.979">
  <path id="Path_25502" data-name="Path 25502" d="M34.556,55.076a9.573,9.573,0,1,1,0-6.844h3.66V36.323H30.888a2.874,2.874,0,1,1,0-1.328H38.88a.663.663,0,0,1,.664.664V48.232h4.979V30.75a2.874,2.874,0,1,1,1.327,0V48.232h4.786V36.745a.663.663,0,0,1,.664-.664h8.185a2.873,2.873,0,1,1,0,1.327H51.963V48.232h5.683a.665.665,0,0,1,.664.664v.919h4.055v-3.27a2.874,2.874,0,1,1,1.328,0v3.934a.662.662,0,0,1-.664.664H58.31v1.024h2.746a.663.663,0,0,1,.664.664v6.379a2.874,2.874,0,1,1-1.327,0V53.494H58.31v.919a.665.665,0,0,1-.664.664H55.725V61a.665.665,0,0,1-.664.664h-3.1v6.562h7.521a2.873,2.873,0,1,1,0,1.327H51.3a.663.663,0,0,1-.664-.664V61.665h-1.8A.663.663,0,0,1,48.178,61V55.076H42.5v15.11a.665.665,0,0,1-.664.664H33.841a2.874,2.874,0,1,1,0-1.327h7.328V55.076ZM22,50.965H20.019a.664.664,0,1,1,0-1.327H22v-.93a.663.663,0,0,1,.664-.664H23.6V46.058a.664.664,0,1,1,1.327,0v1.986H26.3V46.058a.664.664,0,1,1,1.327,0v1.986h.93a.662.662,0,0,1,.664.664v.93h1.983a.664.664,0,0,1,0,1.327H29.225v1.379h1.983a.664.664,0,1,1,0,1.327H29.225V54.6a.663.663,0,0,1-.664.664h-.93V57.25a.664.664,0,1,1-1.327,0V55.267H24.925V57.25a.664.664,0,0,1-1.327,0V55.267h-.932A.665.665,0,0,1,22,54.6v-.932H20.019a.664.664,0,1,1,0-1.327H22Zm5.9-1.594H23.329V53.94H27.9Zm4.24,19.721a1.546,1.546,0,1,0,.453,1.094A1.547,1.547,0,0,0,32.138,69.092ZM29.185,34.565a1.546,1.546,0,1,0,.453,1.094,1.547,1.547,0,0,0-.453-1.094Zm17.1-7.706a1.547,1.547,0,1,0,0,2.187,1.55,1.55,0,0,0,0-2.187Zm17.093,8.792a1.546,1.546,0,1,0,.453,1.094A1.548,1.548,0,0,0,63.373,35.651Zm.75,7a1.546,1.546,0,1,0,.453,1.094A1.548,1.548,0,0,0,64.123,42.654ZM62.15,60.913a1.546,1.546,0,1,0,0,2.187A1.548,1.548,0,0,0,62.15,60.913ZM63.373,67.8a1.546,1.546,0,1,0,.453,1.094,1.548,1.548,0,0,0-.453-1.094ZM54.4,54.413a.662.662,0,0,1,.664-.664h1.921V49.56H34.089a.663.663,0,0,1-.642-.5,8.243,8.243,0,1,0,0,5.184.663.663,0,0,1,.642-.5h14.75a.661.661,0,0,1,.664.666v5.922h4.9Z" transform="translate(-16.043 -25.081)" fill="#9eb3cf"/>
</svg>
