<svg xmlns="http://www.w3.org/2000/svg" width="42.96" height="46.265" viewBox="0 0 42.96 46.265">
  <g id="Group_25708" data-name="Group 25708" transform="translate(-3 -2)">
    <path id="Path_25503" data-name="Path 25503" d="M6.826,29.218H25a.826.826,0,1,0,0-1.652h-.826V25.088a.826.826,0,0,0-1.652,0v2.478h-3.3V20.131a.826.826,0,1,0-1.652,0v7.435h-3.3V21.783a.826.826,0,1,0-1.652,0v5.783H9.3V16.826a.826.826,0,1,0-1.652,0v10.74H6.826a.826.826,0,1,0,0,1.652Z" transform="translate(1.957 9.132)" fill="#9eb3cf"/>
    <path id="Path_25504" data-name="Path 25504" d="M37.7,2a8.262,8.262,0,0,0-7.568,4.957H5.478a.826.826,0,0,0-.826.826V20.175H3.826A.826.826,0,0,0,3,21v21.48a.826.826,0,0,0,.826.826h.826v4.131a.826.826,0,0,0,.826.826H36.872a.826.826,0,0,0,.826-.826V18.523A8.262,8.262,0,1,0,37.7,2ZM4.652,21.828H31.089V41.655H4.652ZM36.046,46.612H6.3v-3.3H31.915a.826.826,0,0,0,.826-.826V21a.826.826,0,0,0-.826-.826H6.3V8.609H29.6a9.038,9.038,0,0,0-.165,1.652,8.262,8.262,0,0,0,6.611,8.1ZM37.7,16.871a6.609,6.609,0,1,1,6.609-6.609A6.609,6.609,0,0,1,37.7,16.871Z" transform="translate(0 0)" fill="#9eb3cf"/>
    <path id="Path_25505" data-name="Path 25505" d="M28.354,8.052l-1.9,1.884V5.326a.826.826,0,1,0-1.652,0v4.61L22.9,8.052a.818.818,0,1,0-1.157,1.157l3.3,3.3a.793.793,0,0,0,1.157,0l3.3-3.3a.818.818,0,0,0-1.157-1.157Z" transform="translate(12.071 1.631)" fill="#9eb3cf"/>
  </g>
</svg>
