<svg xmlns="http://www.w3.org/2000/svg" xmlns:xlink="http://www.w3.org/1999/xlink" width="250" height="140.746" viewBox="0 0 250 140.746">
  <defs>
    <linearGradient id="linear-gradient" x1="0.189" y1="0.111" x2="0.747" y2="0.966" gradientUnits="objectBoundingBox">
      <stop offset="0" stop-color="#2dc1c3"/>
      <stop offset="1" stop-color="#0268f2"/>
    </linearGradient>
  </defs>
  <g id="Group_2258" data-name="Group 2258" transform="translate(-214 -10274.299)">
    <text id="FastCodeAI" transform="translate(214 10408.045)" fill="#fff" font-size="40" font-family="TacticSans-Med"><tspan x="0" y="0">Fast</tspan><tspan y="0" font-family="TacticSans-Lgt">CodeAI</tspan></text>
    <g id="Group_604" data-name="Group 604" transform="translate(290 10274.799)">
      <path id="Union_131" data-name="Union 131" d="M67.008,87.791h0a4.143,4.143,0,0,1-.321-5.528L49.715,64.343a2.853,2.853,0,0,1-3.533-.385h0a2.8,2.8,0,0,1-.827-1.842l-4.508-.259A4.557,4.557,0,0,1,39.5,64.909h0a4.626,4.626,0,0,1-6.517,0,4.563,4.563,0,0,1,0-6.48h0q.074-.074.152-.144l-4.689-6.66a2.856,2.856,0,0,1-3.392-.468v0a2.806,2.806,0,0,1-.816-1.708H17.582a3.4,3.4,0,0,1-.985,2.017h0a3.453,3.453,0,0,1-4.866,0h0a3.4,3.4,0,0,1,0-4.839h0l.02-.02L5.034,38.974a3.459,3.459,0,0,1-4.025-.615h0a3.407,3.407,0,0,1,0-4.839h0a3.44,3.44,0,0,1,2.286-1l.512-3.345a3.445,3.445,0,0,1-1.435-.857h0a3.4,3.4,0,0,1,0-4.838h0v0a3.454,3.454,0,0,1,4.168-.536l7.644-9.108a4.528,4.528,0,0,1,.384-6h0a4.592,4.592,0,0,1,6.467,0h0a4.552,4.552,0,0,1,1.08,1.7L55.08,4.075A3.41,3.41,0,0,1,56.026,1h0a3.453,3.453,0,0,1,4.866,0h0a3.409,3.409,0,0,1,.245,4.57L80.294,18.6a4.091,4.091,0,0,1,.31-.346h0a4.083,4.083,0,0,1,5.753,0h0a4.032,4.032,0,0,1,0,5.723,4.083,4.083,0,0,1-.779.606l7.191,14.036a4.091,4.091,0,0,1,3.976,1.036h0a4.029,4.029,0,0,1,0,5.723h0a4.09,4.09,0,0,1-4.42.885L83.989,59.014a4.634,4.634,0,0,1,.362.324l0,0a4.563,4.563,0,0,1,0,6.478h0A4.619,4.619,0,0,1,76.9,64.475l-7.643,2.618a3.2,3.2,0,0,1-.893,2.844h0a3.228,3.228,0,0,1-1.324.8l1.787,10.109a4.212,4.212,0,0,1,4.1,1.061l0,0a4.146,4.146,0,0,1,0,5.886h0a4.2,4.2,0,0,1-5.92,0Zm.065-5.951a4.2,4.2,0,0,1,1.2-.8l-1.8-10.186a3.271,3.271,0,0,1-.4.024,3.228,3.228,0,0,1-2.28-.94h0a3.195,3.195,0,0,1-.707-3.477L50.813,63.041a2.825,2.825,0,0,1-.616.917h0l-.03.03ZM68.361,65.4a3.209,3.209,0,0,1,.74,1.14l7.591-2.6a4.571,4.571,0,0,1,.41-3.654L66.171,53.995a4.066,4.066,0,0,1-1.894.95l1.04,9.606a3.246,3.246,0,0,1,3.045.849Zm-5,.542A3.219,3.219,0,0,1,63.8,65.4h0a3.234,3.234,0,0,1,.961-.66L63.707,55.02q-.125.008-.251.008a4.071,4.071,0,0,1-2.878-1.185h0a4.068,4.068,0,0,1-.65-.842l-9.441,7.307a2.815,2.815,0,0,1,.49,2.188Zm-17.98-4.4a2.81,2.81,0,0,1,.8-1.579h0a2.841,2.841,0,0,1,1.055-.664l-1.772-14.02a4.658,4.658,0,0,1-2.742-.053L38.061,57.459a4.623,4.623,0,0,1,1.44.971l0,0a4.56,4.56,0,0,1,1.333,2.853ZM50.1,59.88l9.57-7.406a4.031,4.031,0,0,1,.02-3.034l-11.58-6.167a4.611,4.611,0,0,1-.672.848h0a4.622,4.622,0,0,1-1.421.963L47.8,59.167a2.877,2.877,0,0,1,.388-.026A2.837,2.837,0,0,1,50.1,59.88Zm27.317-.07a4.617,4.617,0,0,1,.414-.472h0a4.629,4.629,0,0,1,5.685-.654L91.81,46a4.072,4.072,0,0,1-.817-.629h0a4.041,4.041,0,0,1-1.045-1.78l-22.51,6.552a4.039,4.039,0,0,1-.856,3.427ZM33.585,57.927a4.638,4.638,0,0,1,3.936-.661l4.671-12.251a4.619,4.619,0,0,1-1.961-1.774c-4.619,2.345-8.183,4.108-10.435,5.152a2.814,2.814,0,0,1-.724,2.763v0q-.074.073-.153.141Zm33.7-8.33,22.553-6.564a4.052,4.052,0,0,1-.033-.52,4,4,0,0,1,.447-1.844c-3.152-1.443-10.583-4.845-15.013-6.86a3.454,3.454,0,0,1-4.828,1.765c-1.329,3.418-3.355,8.694-4.649,12.071a4.088,4.088,0,0,1,.574.475h0A4.044,4.044,0,0,1,67.281,49.6Zm-7.333-.669a4.071,4.071,0,0,1,.63-.808h0a4.076,4.076,0,0,1,1.331-.883L60.9,22.291a5.015,5.015,0,0,1-.861.074,4.955,4.955,0,0,1-2.315-.57L46.953,37.22a4.62,4.62,0,0,1,.487.421h0a4.564,4.564,0,0,1,.941,5.126ZM24.24,48.875a2.811,2.811,0,0,1,.816-1.71h0a2.841,2.841,0,0,1,.939-.62L22.341,34.1a3.494,3.494,0,0,1-1.432-.032l-5.037,12a3.453,3.453,0,0,1,.725.551,3.4,3.4,0,0,1,1,2.25Zm4.829-1.71h0a2.832,2.832,0,0,1,.562.8c2.08-1.095,5.541-2.687,10.335-5.22a4.573,4.573,0,0,1-.1-3.466L24.53,32.692a3.444,3.444,0,0,1-1.636,1.26l3.653,12.434a2.871,2.871,0,0,1,.517-.047A2.836,2.836,0,0,1,29.069,47.165Zm36.149.169c1.259-3.391,3.224-8.627,4.638-12.125a3.455,3.455,0,0,1-.259-.233h0a3.4,3.4,0,0,1-.036-4.8l-6.67-8.705a4.941,4.941,0,0,1-1.424.691l1.007,24.9a4.105,4.105,0,0,1,2.742.28ZM12.19,46.24a3.464,3.464,0,0,1,3.161-.409l5.011-11.938a3.448,3.448,0,0,1-1.094-.733h0a3.445,3.445,0,0,1-.687-.973l-11.7,3.756a3.408,3.408,0,0,1-1.007,2.417,3.457,3.457,0,0,1-.353.306Zm78.357-6.061a4.081,4.081,0,0,1,.446-.526h0a4.075,4.075,0,0,1,1.233-.841L85.069,24.84a4.095,4.095,0,0,1-4.354-.759l-5.945,6.4a3.416,3.416,0,0,1,.628,2.793C79.993,35.355,87.447,38.762,90.547,40.179ZM40.1,38.753a4.616,4.616,0,0,1,2.176-2.045L37.4,23.719a3.514,3.514,0,0,1-3.578-.84h0q-.062-.061-.12-.125l-9.1,6.139a3.411,3.411,0,0,1,.219,3.3ZM46.473,36.9,57.232,21.5a4.949,4.949,0,0,1-1.8-2.255l-15.682.634a3.463,3.463,0,0,1-.981,3h0a3.506,3.506,0,0,1-.836.615L42.81,36.505a4.649,4.649,0,0,1,3.663.4ZM6.835,35.359l11.549-3.707a3.4,3.4,0,0,1-.124-.912,3.43,3.43,0,0,1,.02-.373L8.047,27.056a3.443,3.443,0,0,1-3.24,2.264,3.489,3.489,0,0,1-.435-.027l-.5,3.249a3.443,3.443,0,0,1,2,.976h0A3.415,3.415,0,0,1,6.835,35.359Zm67.547-5.3,5.94-6.394a4.015,4.015,0,0,1-.91-2.549q0-.1,0-.191L64.981,17.765a4.894,4.894,0,0,1-1.44,3.159q-.1.1-.2.187L70,29.8a3.452,3.452,0,0,1,4.386.261ZM18.39,29.8a3.417,3.417,0,0,1,.878-1.482h0a3.454,3.454,0,0,1,4.866,0h0q.059.059.115.12l9.1-6.138a3.462,3.462,0,0,1-.4-2.892L21.929,13.021a4.574,4.574,0,0,1-.889,1.246h0a4.587,4.587,0,0,1-1.932,1.145l2.132,11.935a3.507,3.507,0,0,0-.562.124L18.547,15.54a4.624,4.624,0,0,1-.742.06,4.575,4.575,0,0,1-3.234-1.332h0l-7.557,9q.119.1.228.207v0A3.416,3.416,0,0,1,8.2,26.5Zm61.094-9.452a4.008,4.008,0,0,1,.485-1.281L60.737,5.99a3.449,3.449,0,0,1-1.053.633l.2,5.9.158,0a4.949,4.949,0,0,1,3.5,1.442,4.893,4.893,0,0,1,1.444,3.218ZM39.608,19.314l15.637-.633a4.932,4.932,0,0,1,4.065-6.109l-.193-5.788A3.474,3.474,0,0,1,57,6.524l-18.087,11.6A3.474,3.474,0,0,1,39.608,19.314Zm-6.443-.44a3.507,3.507,0,0,1,5.321-1.157L56.447,6.2a3.456,3.456,0,0,1-.421-.357h0a3.424,3.424,0,0,1-.79-1.216l-32.96,5.462a4.546,4.546,0,0,1-.131,2.4Z" transform="translate(0 0)" stroke="rgba(0,0,0,0)" stroke-width="1" fill="url(#linear-gradient)"/>
    </g>
  </g>
</svg>
