<svg xmlns="http://www.w3.org/2000/svg" xmlns:xlink="http://www.w3.org/1999/xlink" width="291.336" height="69.244" viewBox="0 0 291.336 69.244">
  <defs>
    <linearGradient id="linear-gradient" x1="0.189" y1="0.111" x2="0.747" y2="0.966" gradientUnits="objectBoundingBox">
      <stop offset="0" stop-color="#2dc1c3"/>
      <stop offset="1" stop-color="#0268f2"/>
    </linearGradient>
  </defs>
  <g id="Group_592" data-name="Group 592" transform="translate(-293.5 -290.5)">
    <text id="FastCodeAI" transform="translate(372.836 332.742)" fill="#fff" font-size="34" font-family="TacticSans-Med"><tspan x="0" y="0">Fast</tspan><tspan y="0" font-family="TacticSans-Lgt">CodeAI</tspan></text>
    <path id="Union_131" data-name="Union 131" d="M51.171,67.309h0a3.186,3.186,0,0,1-.245-4.238L37.965,49.332a2.172,2.172,0,0,1-2.7-.3h0a2.152,2.152,0,0,1-.632-1.412l-3.442-.2a3.5,3.5,0,0,1-1.027,2.34h0A3.516,3.516,0,1,1,25.189,44.8h0q.057-.057.116-.11l-3.581-5.106a2.174,2.174,0,0,1-2.591-.359h0a2.155,2.155,0,0,1-.623-1.309H13.427a2.613,2.613,0,0,1-.752,1.547h0a2.629,2.629,0,0,1-3.716,0h0a2.618,2.618,0,0,1,0-3.71h0l.015-.015L3.844,29.881A2.634,2.634,0,0,1,.77,29.41h0a2.62,2.62,0,0,1,0-3.71h0a2.622,2.622,0,0,1,1.746-.766l.391-2.564a2.629,2.629,0,0,1-1.1-.657h0a2.618,2.618,0,0,1,0-3.709h0A2.63,2.63,0,0,1,5,17.588l5.838-6.983a3.482,3.482,0,0,1,.293-4.6h0a3.5,3.5,0,0,1,4.939,0h0a3.492,3.492,0,0,1,.825,1.3L42.062,3.124A2.623,2.623,0,0,1,42.785.77h0a2.629,2.629,0,0,1,3.716,0h0a2.621,2.621,0,0,1,.187,3.5L61.317,14.26a3.132,3.132,0,0,1,.237-.265h0a3.109,3.109,0,0,1,4.394,0h0a3.1,3.1,0,0,1-.595,4.852l5.491,10.762a3.115,3.115,0,0,1,3.036.795h0a3.1,3.1,0,0,1,0,4.387h0a3.114,3.114,0,0,1-3.375.678l-6.367,9.779a3.543,3.543,0,0,1,.276.248h0a3.508,3.508,0,0,1,0,4.967h0a3.523,3.523,0,0,1-5.693-1.03L52.887,51.44a2.46,2.46,0,0,1-.682,2.181h0a2.463,2.463,0,0,1-1.011.611l1.365,7.75a3.207,3.207,0,0,1,3.134.814h0a3.187,3.187,0,0,1,0,4.512h0a3.2,3.2,0,0,1-4.521,0Zm.05-4.563a3.209,3.209,0,0,1,.918-.614l-1.374-7.81a2.487,2.487,0,0,1-.3.018,2.46,2.46,0,0,1-1.741-.72h0a2.457,2.457,0,0,1-.54-2.666L38.8,48.333a2.167,2.167,0,0,1-.471.7h0l-.023.023Zm.984-12.6a2.462,2.462,0,0,1,.565.874l5.8-1.994a3.517,3.517,0,0,1,.313-2.8L50.532,41.4a3.1,3.1,0,0,1-1.446.729l.794,7.365a2.471,2.471,0,0,1,2.325.651Zm-3.818.415a2.466,2.466,0,0,1,.334-.415h0a2.47,2.47,0,0,1,.734-.506l-.8-7.453q-.1.006-.192.006a3.1,3.1,0,0,1-2.2-.908h0a3.117,3.117,0,0,1-.5-.646l-7.21,5.6a2.166,2.166,0,0,1,.374,1.677Zm-13.73-3.37a2.157,2.157,0,0,1,.611-1.211h0a2.169,2.169,0,0,1,.806-.509L34.721,34.718a3.544,3.544,0,0,1-2.094-.041l-3.561,9.376a3.529,3.529,0,0,1,1.1.744h0a3.5,3.5,0,0,1,1.018,2.188Zm3.606-1.278,7.308-5.678a3.1,3.1,0,0,1,.015-2.326l-8.843-4.728a3.533,3.533,0,0,1-.513.65h0a3.529,3.529,0,0,1-1.085.738l1.36,10.8a2.189,2.189,0,0,1,.3-.02A2.161,2.161,0,0,1,38.262,45.91Zm20.861-.054a3.534,3.534,0,0,1,.316-.362h0a3.524,3.524,0,0,1,4.342-.5l6.33-9.721a3.111,3.111,0,0,1-.624-.482h0a3.1,3.1,0,0,1-.8-1.365L51.5,38.446a3.106,3.106,0,0,1-.654,2.627ZM25.647,44.413a3.53,3.53,0,0,1,3.006-.507l3.567-9.393a3.533,3.533,0,0,1-1.5-1.36c-3.528,1.8-6.249,3.15-7.969,3.95a2.164,2.164,0,0,1-.553,2.118h0q-.056.056-.117.108ZM51.38,38.026,68.6,32.994a3.119,3.119,0,0,1-.026-.4,3.08,3.08,0,0,1,.342-1.414c-2.407-1.106-8.082-3.715-11.464-5.26a2.632,2.632,0,0,1-3.687,1.353c-1.015,2.62-2.562,6.666-3.55,9.255a3.125,3.125,0,0,1,.439.364h0A3.1,3.1,0,0,1,51.38,38.026Zm-5.6-.513a3.119,3.119,0,0,1,.481-.62h0a3.112,3.112,0,0,1,1.017-.677l-.771-19.126a3.815,3.815,0,0,1-.657.057,3.772,3.772,0,0,1-1.768-.437L35.856,28.536a3.533,3.533,0,0,1,.372.323h0a3.51,3.51,0,0,1,.719,3.93Zm-27.269-.041a2.159,2.159,0,0,1,.623-1.311h0a2.169,2.169,0,0,1,.717-.475l-2.792-9.539a2.658,2.658,0,0,1-1.093-.025l-3.847,9.2a2.627,2.627,0,0,1,1.32,2.148ZM22.2,36.161h0a2.172,2.172,0,0,1,.429.61c1.589-.839,4.231-2.06,7.893-4a3.519,3.519,0,0,1-.08-2.657l-11.71-5.048a2.633,2.633,0,0,1-1.249.966l2.79,9.533a2.184,2.184,0,0,1,.394-.036A2.161,2.161,0,0,1,22.2,36.161ZM49.8,36.29c.961-2.6,2.462-6.614,3.542-9.3a2.643,2.643,0,0,1-.2-.178h0a2.617,2.617,0,0,1-.028-3.682l-5.094-6.674a3.767,3.767,0,0,1-1.087.529l.769,19.087a3.123,3.123,0,0,1,2.094.215Zm-40.5-.838a2.637,2.637,0,0,1,2.414-.313l3.827-9.153a2.632,2.632,0,0,1-.835-.562h0a2.641,2.641,0,0,1-.525-.746l-8.933,2.88a2.621,2.621,0,0,1-1.039,2.087Zm59.838-4.647a3.125,3.125,0,0,1,.341-.4h0a3.111,3.111,0,0,1,.941-.645L64.963,19.045a3.117,3.117,0,0,1-3.325-.582L57.1,23.369a2.628,2.628,0,0,1,.48,2.142C61.087,27.107,66.78,29.719,69.147,30.805ZM30.622,29.712a3.531,3.531,0,0,1,1.662-1.568l-3.722-9.958a2.675,2.675,0,0,1-2.732-.644h0q-.047-.047-.092-.1l-6.951,4.707a2.624,2.624,0,0,1,.167,2.531Zm4.868-1.417,8.216-11.811a3.79,3.79,0,0,1-1.377-1.729l-11.975.486a2.663,2.663,0,0,1-.749,2.3h0a2.678,2.678,0,0,1-.638.471l3.728,9.975a3.538,3.538,0,0,1,2.8.306ZM5.219,27.11l8.819-2.842a2.613,2.613,0,0,1-.095-.7,2.64,2.64,0,0,1,.015-.286L6.145,20.744A2.631,2.631,0,0,1,3.671,22.48a2.654,2.654,0,0,1-.332-.021L2.958,24.95a2.625,2.625,0,0,1,1.529.748h0A2.622,2.622,0,0,1,5.219,27.11ZM56.8,23.044l4.536-4.9a3.086,3.086,0,0,1-.7-1.954q0-.074,0-.147L49.623,13.62a3.759,3.759,0,0,1-1.1,2.422q-.074.074-.152.144l5.082,6.658a2.628,2.628,0,0,1,3.35.2ZM14.044,22.85a2.622,2.622,0,0,1,.671-1.136h0a2.63,2.63,0,0,1,3.716,0h0q.045.045.088.092L25.471,17.1a2.664,2.664,0,0,1-.309-2.217l-8.417-4.9a3.506,3.506,0,0,1-.679.955h0a3.5,3.5,0,0,1-1.475.878l1.628,9.151a2.669,2.669,0,0,0-.429.095l-1.627-9.147a3.5,3.5,0,0,1-3.036-.976h0l-5.771,6.9q.09.076.174.159h0a2.627,2.627,0,0,1,.728,2.322ZM60.7,15.6a3.08,3.08,0,0,1,.37-.982L46.382,4.593a2.632,2.632,0,0,1-.8.485l.15,4.522.121,0a3.78,3.78,0,0,1,3.776,3.573Zm-30.452-.8,11.941-.485a3.778,3.778,0,0,1,3.1-4.684L45.144,5.2A2.643,2.643,0,0,1,43.529,5L29.717,13.894A2.666,2.666,0,0,1,30.247,14.808Zm-4.92-.337a2.672,2.672,0,0,1,4.063-.887L43.106,4.754a2.642,2.642,0,0,1-.322-.274h0a2.626,2.626,0,0,1-.6-.932L17.012,7.735a3.5,3.5,0,0,1-.1,1.838Z" transform="translate(294 291)" stroke="rgba(0,0,0,0)" stroke-width="1" fill="url(#linear-gradient)"/>
  </g>
</svg>
