<svg width="215" height="50" viewBox="0 0 215 50" fill="none" xmlns="http://www.w3.org/2000/svg">
<path d="M32.2276 0C33.2828 0 34.1383 0.855394 34.1383 1.9106C34.1383 2.35275 33.9881 2.75978 33.736 3.08355L44.3524 10.4422C44.7653 9.94307 45.3898 9.62509 46.0887 9.62509C47.3328 9.62509 48.3416 10.6338 48.3416 11.8781C48.3416 12.6555 47.9478 13.3409 47.349 13.7458L51.3038 21.7309C51.4748 21.6881 51.654 21.6654 51.8384 21.6654C53.0529 21.6654 54.0373 22.6499 54.0373 23.8644C54.0373 25.0788 53.0529 26.0635 51.8384 26.0635C51.433 26.0635 51.0535 25.9538 50.7274 25.7624L46.018 32.9808C46.7808 33.4105 47.2962 34.228 47.2962 35.1658C47.2962 36.5495 46.1743 37.6711 44.7906 37.6711C43.7727 37.6711 42.8964 37.0639 42.5045 36.192L38.0852 37.7451C38.0974 37.8268 38.1038 37.9106 38.1038 37.9956C38.1038 38.6896 37.6865 39.2861 37.0892 39.5479L38.2732 45.3984C38.3537 45.3899 38.4357 45.3856 38.5183 45.3856C39.7926 45.3856 40.8255 46.4185 40.8255 47.6928C40.8255 48.9671 39.7926 50 38.5183 50C37.244 50 36.2111 48.9671 36.2111 47.6928C36.2111 47.0628 36.4635 46.492 36.8728 46.0757L27.3192 36.0944C27.093 36.2258 26.8303 36.3014 26.5499 36.3014C25.7109 36.3014 25.0291 35.6266 25.0181 34.79H22.5195C22.4001 36.0624 21.329 37.0584 20.0252 37.0584C18.6415 37.0584 17.5198 35.9366 17.5198 34.5529C17.5198 33.8418 17.816 33.2002 18.2916 32.744L15.6361 28.9586C15.4108 29.0891 15.1492 29.1637 14.8702 29.1637C14.1172 29.1637 13.4911 28.6203 13.3624 27.9044H9.62191C9.44611 28.7471 8.69928 29.3798 7.8046 29.3798C6.77929 29.3798 5.94807 28.5487 5.94807 27.5234C5.94807 27.0403 6.13261 26.6002 6.43508 26.2699L2.5965 21.8725C2.36978 21.9712 2.11956 22.0259 1.85653 22.0259C0.831194 22.0259 0 21.1947 0 20.1694C0 19.1479 0.825037 18.3191 1.8451 18.3129L2.08262 16.3879C1.31439 16.147 0.75704 15.4295 0.75704 14.5818C0.75704 13.5366 1.60436 12.6892 2.6496 12.6892C2.95118 12.6892 3.23633 12.7598 3.48936 12.8853L7.90067 7.78751C7.55852 7.36222 7.35398 6.82307 7.35398 6.23646C7.35398 4.86273 8.47566 3.74909 9.85936 3.74909C10.9395 3.74909 11.86 4.42769 12.2119 5.37887L30.3609 2.31895C30.3322 2.18737 30.3173 2.05074 30.3173 1.9106C30.3173 0.855394 31.1725 0 32.2276 0ZM27.8897 35.5129C27.8157 35.6461 27.7221 35.7674 27.613 35.8726L37.1492 45.8358C37.376 45.6682 37.6341 45.5414 37.9139 45.4655L36.7384 39.6579C36.632 39.6789 36.522 39.6899 36.4095 39.6899C35.4735 39.6899 34.7153 38.9313 34.7153 37.9956C34.7153 37.811 34.7448 37.633 34.7994 37.4665L27.8897 35.5129ZM36.3833 30.3414C36.0941 30.5852 35.7411 30.7556 35.3532 30.8242L36.01 36.3486C36.1383 36.3178 36.2718 36.3014 36.4095 36.3014C37.1318 36.3014 37.7487 36.7534 37.9922 37.39L42.3795 35.8482C42.3183 35.6312 42.2854 35.4023 42.2854 35.1658C42.2854 34.6995 42.4128 34.2627 42.6346 33.8887L36.3833 30.3414ZM27.7779 33.8531C27.969 34.1085 28.082 34.4258 28.082 34.7693C28.082 34.9085 28.0634 35.0436 28.0287 35.1719L34.9527 37.1298C35.1194 36.85 35.3641 36.6226 35.657 36.4772L34.9889 30.8577C34.9816 30.8577 34.9746 30.858 34.9673 30.858C34.1331 30.858 33.4071 30.3932 33.0344 29.7084L27.7779 33.8531ZM25.0797 25.343C24.8489 25.4128 24.6045 25.4506 24.3509 25.4506C24.1083 25.4506 23.8733 25.4159 23.6515 25.3516L21.0053 32.2466C21.8645 32.612 22.4777 33.4438 22.5273 34.4242H25.0571C25.1808 33.8857 25.5889 33.4553 26.1147 33.2999L25.0797 25.343ZM37.1212 28.2125C37.1507 28.3567 37.1666 28.506 37.1666 28.659C37.1666 29.1976 36.9728 29.6907 36.6512 30.0732L42.8449 33.5876C43.3042 33.0219 44.0052 32.6605 44.7906 32.6605C45.1052 32.6605 45.4063 32.7184 45.6836 32.8241L50.4281 25.5518C50.0834 25.2635 49.8283 24.8712 49.711 24.4235L37.1212 28.2125ZM26.499 24.2353C26.2467 24.6548 25.8748 24.9941 25.4305 25.2065L26.4756 33.239C26.5002 33.2377 26.5249 33.2371 26.5499 33.2371C26.9202 33.2371 27.2597 33.3685 27.5246 33.587L32.8832 29.3619C32.8089 29.1412 32.7686 28.9047 32.7686 28.659C32.7686 28.3354 32.8384 28.0281 32.9637 27.7517L26.499 24.2353ZM16.3512 27.2381C16.3845 27.3637 16.4023 27.4954 16.4023 27.6316C16.4023 28.0671 16.2205 28.46 15.9288 28.7389L18.5742 32.5102C18.9837 32.2189 19.4844 32.0476 20.0252 32.0476C20.2441 32.0476 20.4564 32.0756 20.6588 32.1283L23.3086 25.2242C22.8671 25.0218 22.4946 24.6951 22.236 24.2888L16.3512 27.2381ZM41.4088 19.1114C41.0992 19.7484 40.4457 20.1874 39.6899 20.1874C39.3857 20.1874 39.0983 20.1164 38.8432 19.99L36.2114 26.8453C36.5726 27.0937 36.856 27.4472 37.0173 27.8617L49.6479 24.0605C49.6424 23.9959 49.6394 23.9305 49.6394 23.8644C49.6394 23.5258 49.7159 23.2051 49.8527 22.9186L41.4088 19.1114ZM8.77215 25.9386C9.30533 26.265 9.6611 26.8526 9.6611 27.5234C9.6611 27.5286 9.66107 27.5338 9.66101 27.5387H13.3409C13.3781 26.9148 13.789 26.3912 14.3529 26.1891L12.2583 19.1561C12.1637 19.1705 12.0668 19.178 11.9682 19.178C11.8645 19.178 11.7628 19.1697 11.6635 19.1538L8.77215 25.9386ZM25.8718 20.9539C26.4704 21.4117 26.8565 22.1334 26.8565 22.9452C26.8565 23.2867 26.7879 23.6122 26.6642 23.9089L33.142 27.4323C33.37 27.094 33.6897 26.8221 34.0652 26.653L33.3712 12.5342C33.2913 12.5413 33.2106 12.545 33.1289 12.545C32.715 12.545 32.323 12.4507 31.9732 12.2824L25.8718 20.9539ZM13.4615 18.4593C13.2425 18.7333 12.9497 18.9457 12.6132 19.0664L14.7103 26.1077C14.7629 26.1022 14.8162 26.0995 14.8702 26.0995C15.4503 26.0995 15.955 26.4219 16.2151 26.8971L22.0626 23.9665C21.9232 23.6546 21.8457 23.3089 21.8457 22.9452C21.8457 22.6775 21.8876 22.4197 21.9653 22.1779L13.4615 18.4593ZM34.5961 12.1056C34.337 12.2767 34.0463 12.4036 33.7345 12.476L34.4251 26.5274C34.5985 26.4832 34.7802 26.46 34.9673 26.46C35.2968 26.46 35.6095 26.5323 35.8899 26.6621L38.5271 19.7929C38.0724 19.4436 37.7792 18.8944 37.7792 18.2768C37.7792 17.7569 37.9871 17.2854 38.3238 16.9409L34.5961 12.1056ZM3.71288 20.1914C3.70569 20.8111 3.3949 21.3577 2.92234 21.6896L6.7073 26.0257C7.0147 25.8002 7.39409 25.667 7.8046 25.667C8.02874 25.667 8.24357 25.7066 8.4425 25.7795L11.3059 19.0601C10.8473 18.8906 10.4715 18.5502 10.256 18.1161L3.71288 20.1914ZM41.1979 17.1038C41.4503 17.4276 41.6005 17.8347 41.6005 18.2768C41.6005 18.4466 41.5783 18.6111 41.5368 18.7678L50.0383 22.6011C50.2681 22.2742 50.5848 22.0127 50.9548 21.8502L47.0299 13.9256C46.7434 14.0576 46.4246 14.1312 46.0887 14.1312C45.4971 14.1312 44.9589 13.9033 44.5569 13.5305L41.1979 17.1038ZM13.5472 16.1914C13.7564 16.4979 13.8788 16.8684 13.8788 17.2675C13.8788 17.5853 13.8012 17.885 13.6639 18.1487L22.1026 21.8387C22.3456 21.3459 22.7458 20.9445 23.2379 20.7001L20.6788 13.26C20.4502 13.3567 20.1989 13.4102 19.9351 13.4102C19.3694 13.4102 18.8613 13.1644 18.5115 12.7738L13.5472 16.1914ZM21.8416 11.3743C21.8442 11.4157 21.8457 11.4575 21.8457 11.4996C21.8456 12.1585 21.5121 12.7395 21.0047 13.083L23.5768 20.5616C23.8206 20.4825 24.0809 20.4398 24.3509 20.4398C24.7916 20.4398 25.2058 20.5536 25.5655 20.7534L31.6541 12.1005C31.2789 11.851 30.9701 11.509 30.7611 11.107L21.8416 11.3743ZM4.43871 15.2004C4.18239 15.9419 3.4782 16.4744 2.6496 16.4744C2.57938 16.4744 2.51007 16.4705 2.44186 16.4631L2.2095 18.3464C2.95233 18.4894 3.5376 19.0751 3.67984 19.8182L10.1255 17.7738C10.0813 17.6125 10.0576 17.4427 10.0576 17.2675C10.0576 17.1941 10.0618 17.1217 10.0698 17.0504L4.43871 15.2004ZM35.7948 9.97937C35.7661 10.7381 35.4208 11.4157 34.8868 11.8838L38.6036 16.7048C38.9121 16.4913 39.2863 16.3662 39.6899 16.3662C40.1708 16.3662 40.6106 16.5441 40.9465 16.8375L44.3091 13.2602C44.0122 12.8786 43.8355 12.399 43.8355 11.8781C43.8355 11.8385 43.8364 11.7991 43.8385 11.76L35.7948 9.97937ZM3.80331 13.0814C4.25264 13.4275 4.54215 13.9708 4.54215 14.5818C4.54215 14.6706 4.53603 14.758 4.52417 14.8435L10.1463 16.6906C10.3342 16.0967 10.8043 15.6283 11.3993 15.443L10.2947 8.68637C10.1533 8.71097 10.0078 8.72383 9.85936 8.72383C9.19942 8.72383 8.59907 8.47049 8.15159 8.05642L3.80331 13.0814ZM12.0505 7.44342C11.7483 7.98303 11.2498 8.39933 10.6507 8.59716L11.7576 15.3684C11.8268 15.3608 11.8971 15.3568 11.9682 15.3568C12.4922 15.3568 12.9669 15.5678 13.312 15.9093L18.2944 12.4793C18.123 12.1928 18.0245 11.8577 18.0245 11.4996C18.0245 11.2906 18.0581 11.0894 18.1201 10.9011L12.0505 7.44342ZM33.4815 3.35221C33.2825 3.52535 33.0475 3.65799 32.789 3.73733V7.23123C32.9003 7.21709 33.014 7.2098 33.1289 7.2098C34.5092 7.2098 35.6448 8.25815 35.7826 9.60211L43.887 11.3963C43.9382 11.1625 44.0253 10.9423 44.1427 10.7419L33.4815 3.35221ZM21.3658 10.2334C21.5604 10.4531 21.7051 10.7179 21.7823 11.0102L30.6059 10.7457C30.5123 10.4735 30.4615 10.1814 30.4615 9.87742C30.4615 8.64836 31.2926 7.61348 32.4233 7.3041V3.81127C32.359 3.81782 32.2938 3.82117 32.2276 3.82117C31.936 3.82117 31.6592 3.75571 31.4118 3.63867L21.3658 10.2334ZM12.3133 5.73266C12.3471 5.89535 12.3648 6.06386 12.3648 6.23646C12.3648 6.54417 12.3085 6.8388 12.2056 7.11081L18.2684 10.5647C18.5958 9.98241 19.2195 9.589 19.9351 9.589C20.3689 9.589 20.7689 9.73362 21.0896 9.97723L31.0664 3.42789C30.8098 3.23121 30.6047 2.97099 30.4743 2.67069L12.3133 5.73266Z" fill="url(#paint0_linear_2137_1865)"/>
<path d="M80.2374 18.5912C80.3949 18.5912 80.505 18.6489 80.568 18.7644C80.6415 18.8694 80.6784 18.9954 80.6784 19.1423V20.3864C80.6784 20.5333 80.6415 20.6593 80.568 20.7643C80.505 20.8693 80.3949 20.9217 80.2374 20.9217H71.183C71.0254 20.9217 70.9151 20.864 70.8523 20.7485C70.7892 20.633 70.7578 20.5071 70.7578 20.3706V19.1581C70.7578 19.0216 70.7892 18.8956 70.8523 18.7802C70.9151 18.6542 71.0254 18.5912 71.183 18.5912H80.2374ZM80.1587 23.8664C80.316 23.8664 80.4263 23.9241 80.4894 24.0396C80.5629 24.1446 80.5994 24.2706 80.5994 24.4175V25.6616C80.5994 25.8085 80.5629 25.9347 80.4894 26.0395C80.4263 26.1443 80.316 26.1971 80.1587 26.1971H73.1199V31.0156C73.1199 31.1625 73.0882 31.2936 73.0254 31.4091C72.9623 31.5143 72.8468 31.5667 72.6788 31.5667H71.2302C71.0726 31.5667 70.9571 31.5143 70.8837 31.4091C70.8206 31.2936 70.7892 31.1625 70.7892 31.0156V24.9371C70.7892 24.6747 70.8941 24.4333 71.104 24.2129C71.3247 23.9819 71.6344 23.8664 72.0333 23.8664H80.1587ZM89.9726 18.418C90.2561 18.418 90.4974 18.46 90.6971 18.544C90.9071 18.6279 91.0854 18.7434 91.2323 18.8904C91.3898 19.0269 91.5212 19.1948 91.626 19.3943C91.7416 19.5937 91.8464 19.8142 91.9409 20.0557L96.366 30.9684C96.408 31.0732 96.4287 31.1625 96.4287 31.236C96.4287 31.3408 96.3922 31.425 96.3187 31.488C96.2556 31.5508 96.1718 31.5825 96.0667 31.5825H94.3819C94.1612 31.5825 94.0091 31.467 93.925 31.236L90.004 21.4571H89.9412L87.894 26.6064H89.8467C90.0567 26.6064 90.2088 26.7112 90.3033 26.9212C90.3347 26.9947 90.3819 27.1102 90.445 27.2678C90.5185 27.4147 90.5867 27.5671 90.6498 27.7243C90.7233 27.8819 90.7809 28.034 90.823 28.1812C90.8754 28.3174 90.9016 28.4226 90.9016 28.496C90.9016 28.6429 90.8543 28.7636 90.7599 28.8581C90.6654 28.9526 90.5447 28.9998 90.3978 28.9998H86.9492L86.0516 31.2518C85.9678 31.4722 85.8206 31.5825 85.6106 31.5825H83.8786C83.6372 31.5825 83.5165 31.467 83.5165 31.236C83.5165 31.1311 83.532 31.0418 83.5637 30.9684L87.9571 20.0557C88.1461 19.5833 88.3926 19.1948 88.6971 18.8904C89.0016 18.5754 89.4268 18.418 89.9726 18.418ZM101.853 23.3468C101.853 23.4937 101.895 23.6092 101.979 23.6932C102.074 23.7772 102.179 23.8192 102.294 23.8192H107.018C107.501 23.8192 107.9 23.9137 108.215 24.1026C108.54 24.2811 108.798 24.5226 108.987 24.8271C109.176 25.1316 109.307 25.483 109.38 25.8819C109.464 26.2705 109.506 26.6695 109.506 27.0788V28.4646C109.506 28.8739 109.459 29.2677 109.364 29.6456C109.28 30.0236 109.139 30.3543 108.939 30.6377C108.74 30.9212 108.477 31.1467 108.152 31.3146C107.837 31.4826 107.449 31.5667 106.987 31.5667H99.885C99.717 31.5667 99.596 31.5143 99.5226 31.4091C99.4598 31.3043 99.4281 31.1784 99.4281 31.0312V29.7715C99.4281 29.6246 99.4598 29.4984 99.5226 29.3936C99.596 29.2888 99.717 29.236 99.885 29.236H106.609C106.861 29.236 107.018 29.147 107.081 28.9684C107.144 28.7795 107.176 28.5801 107.176 28.3701V27.0157C107.176 26.8164 107.144 26.6222 107.081 26.4333C107.018 26.2443 106.866 26.1498 106.625 26.1498H101.9C101.029 26.1498 100.399 25.903 100.011 25.4095C99.6329 24.9161 99.4439 24.2286 99.4439 23.3468V21.3154C99.4439 21.0005 99.4808 20.6803 99.5543 20.3548C99.6277 20.0294 99.7536 19.7407 99.9322 19.4888C100.121 19.2263 100.373 19.0111 100.688 18.8431C101.013 18.6752 101.428 18.5912 101.932 18.5912H108.719C108.876 18.5912 108.987 18.6437 109.05 18.7487C109.123 18.8537 109.16 18.9796 109.16 19.1266V20.3864C109.16 20.5333 109.123 20.6593 109.05 20.7643C108.987 20.8693 108.876 20.9217 108.719 20.9217H102.31C102.205 20.9217 102.1 20.9585 101.995 21.032C101.9 21.1055 101.853 21.1999 101.853 21.3154V23.3468ZM124.003 18.5912C124.076 18.5912 124.171 18.6227 124.286 18.6857C124.402 18.7382 124.46 18.8851 124.46 19.1266V20.3548C124.46 20.4808 124.439 20.5858 124.397 20.6698C124.365 20.7433 124.323 20.801 124.271 20.843C124.229 20.8745 124.181 20.8955 124.129 20.906C124.076 20.9165 124.034 20.9217 124.003 20.9217H119.956V31.0312C119.956 31.2729 119.898 31.425 119.783 31.488C119.678 31.5405 119.589 31.5667 119.515 31.5667H118.066C118.003 31.5667 117.914 31.5405 117.799 31.488C117.683 31.425 117.626 31.2729 117.626 31.0312V20.9217H113.578C113.547 20.9217 113.505 20.9165 113.452 20.906C113.4 20.8955 113.348 20.8745 113.295 20.843C113.253 20.801 113.211 20.7433 113.169 20.6698C113.138 20.5858 113.122 20.4808 113.122 20.3548V19.1266C113.122 18.8851 113.18 18.7382 113.295 18.6857C113.41 18.6227 113.505 18.5912 113.578 18.5912H124.003ZM137.711 18.5912C137.869 18.5912 137.979 18.6489 138.042 18.7644C138.116 18.8694 138.152 18.9954 138.152 19.1423C138.152 19.2368 138.158 19.3838 138.168 19.5833C138.189 19.7827 138.194 19.9822 138.184 20.1816C138.173 20.3706 138.131 20.5438 138.058 20.7013C137.995 20.8483 137.879 20.9217 137.711 20.9217H132.058C131.659 20.9217 131.35 20.9795 131.129 21.095C130.909 21.2104 130.746 21.3731 130.641 21.5831C130.536 21.7931 130.473 22.0398 130.452 22.3232C130.431 22.5962 130.42 22.9006 130.42 23.2365V26.9057C130.42 27.2309 130.431 27.5408 130.452 27.8347C130.473 28.1181 130.536 28.3647 130.641 28.5747C130.746 28.7743 130.909 28.937 131.129 29.0629C131.35 29.1784 131.659 29.236 132.058 29.236H137.711C137.869 29.236 137.979 29.2939 138.042 29.4094C138.116 29.5143 138.152 29.6402 138.152 29.7874C138.152 29.8922 138.158 30.0446 138.168 30.2439C138.189 30.4433 138.194 30.6429 138.184 30.8422C138.173 31.0418 138.131 31.215 138.058 31.3619C137.995 31.4984 137.879 31.5667 137.711 31.5667H131.979C131.171 31.5667 130.51 31.446 129.995 31.2046C129.491 30.9629 129.098 30.627 128.814 30.1967C128.531 29.7663 128.337 29.2467 128.232 28.6377C128.137 28.0288 128.09 27.3571 128.09 26.6222V23.52C128.09 22.8061 128.137 22.15 128.232 21.5516C128.326 20.9427 128.515 20.4231 128.799 19.9927C129.082 19.5517 129.476 19.2106 129.98 18.9691C130.494 18.7172 131.161 18.5912 131.979 18.5912H137.711ZM149.547 18.5912C150.365 18.5912 151.027 18.7172 151.531 18.9691C152.045 19.2106 152.444 19.5517 152.727 19.9927C153.011 20.4231 153.2 20.9427 153.294 21.5516C153.389 22.15 153.436 22.8061 153.436 23.52V26.6378C153.436 27.3519 153.389 28.0133 153.294 28.6219C153.2 29.2205 153.011 29.7401 152.727 30.1808C152.454 30.6219 152.061 30.9684 151.546 31.2201C151.042 31.4618 150.376 31.5825 149.547 31.5825H145.704C144.885 31.5825 144.219 31.4563 143.704 31.2046C143.2 30.9525 142.807 30.606 142.523 30.1653C142.25 29.7243 142.067 29.2046 141.972 28.6064C141.878 27.9974 141.83 27.3412 141.83 26.6378V23.52C141.83 22.8166 141.878 22.1658 141.972 21.5674C142.067 20.9585 142.256 20.4336 142.539 19.9927C142.823 19.5517 143.216 19.2106 143.72 18.9691C144.224 18.7172 144.885 18.5912 145.704 18.5912H149.547ZM151.09 23.2523C151.09 22.9268 151.079 22.6224 151.058 22.339C151.037 22.0555 150.974 21.8088 150.869 21.5989C150.775 21.3889 150.617 21.2262 150.397 21.1107C150.176 20.9847 149.867 20.9217 149.468 20.9217H145.783C145.395 20.9217 145.09 20.9847 144.87 21.1107C144.649 21.2262 144.486 21.3889 144.381 21.5989C144.276 21.8088 144.214 22.0555 144.193 22.339C144.171 22.6224 144.161 22.9268 144.161 23.2523V26.9212C144.161 27.2467 144.171 27.5512 144.193 27.8347C144.214 28.1181 144.276 28.3647 144.381 28.5747C144.486 28.7743 144.649 28.937 144.87 29.0629C145.09 29.1784 145.395 29.236 145.783 29.236H149.468C149.867 29.236 150.176 29.1784 150.397 29.0629C150.617 28.937 150.775 28.7743 150.869 28.5747C150.974 28.3647 151.037 28.1181 151.058 27.8347C151.079 27.5512 151.09 27.2467 151.09 26.9212V23.2523ZM164.11 18.5912C164.961 18.5912 165.659 18.7277 166.205 19.0006C166.761 19.2631 167.197 19.6305 167.512 20.1029C167.827 20.5753 168.042 21.1317 168.157 21.7721C168.283 22.4124 168.346 23.1053 168.346 23.8507V26.3071C168.346 27.063 168.283 27.7612 168.157 28.4015C168.042 29.0419 167.827 29.5984 167.512 30.0708C167.197 30.5326 166.761 30.9001 166.205 31.1729C165.659 31.4353 164.961 31.5667 164.11 31.5667H158.741C158.594 31.5667 158.436 31.5405 158.268 31.488C158.111 31.425 157.964 31.3408 157.827 31.236C157.701 31.1311 157.591 31.0101 157.497 30.8739C157.413 30.7267 157.371 30.5694 157.371 30.4015V19.662C157.371 19.3365 157.492 19.0793 157.733 18.8904C157.985 18.6909 158.279 18.5912 158.615 18.5912H164.11ZM164.063 29.236C164.515 29.236 164.866 29.1678 165.118 29.0315C165.381 28.895 165.575 28.706 165.701 28.4646C165.837 28.2126 165.921 27.924 165.953 27.5984C165.995 27.2729 166.016 26.9212 166.016 26.5433V23.6145C166.016 23.2365 165.995 22.8848 165.953 22.5594C165.921 22.234 165.837 21.9505 165.701 21.7091C165.575 21.4676 165.381 21.2787 165.118 21.1422C164.866 20.9952 164.515 20.9217 164.063 20.9217H159.701V29.236H164.063ZM181.614 18.5912C181.677 18.5912 181.767 18.6227 181.882 18.6857C181.998 18.7487 182.055 18.9009 182.055 19.1423V20.3706C182.055 20.612 181.998 20.7643 181.882 20.8273C181.767 20.8902 181.677 20.9217 181.614 20.9217H172.56C172.497 20.9217 172.408 20.8955 172.292 20.843C172.187 20.78 172.135 20.6278 172.135 20.3864V19.1581C172.135 18.9061 172.187 18.7487 172.292 18.6857C172.408 18.6227 172.497 18.5912 172.56 18.5912H181.614ZM174.497 27.8033C174.497 28.3385 174.633 28.7112 174.906 28.9212C175.189 29.1312 175.573 29.236 176.056 29.236H181.599C181.767 29.236 181.882 29.2888 181.945 29.3936C182.018 29.4984 182.055 29.6246 182.055 29.7715V31.0312C182.055 31.1784 182.018 31.3043 181.945 31.4091C181.882 31.5143 181.767 31.5667 181.599 31.5667H176.008C175.253 31.5667 174.623 31.4618 174.119 31.2518C173.625 31.0312 173.232 30.7215 172.938 30.3226C172.644 29.9236 172.434 29.446 172.308 28.8898C172.192 28.3229 172.135 27.6929 172.135 27.0002V24.9216C172.135 24.7954 172.156 24.6695 172.198 24.5436C172.24 24.4071 172.308 24.2916 172.402 24.1971C172.507 24.0921 172.638 24.0081 172.796 23.9451C172.964 23.8822 173.169 23.8507 173.41 23.8507H181.536C181.693 23.8507 181.803 23.9032 181.866 24.0081C181.94 24.1131 181.977 24.2391 181.977 24.3861V25.6302C181.977 25.7771 181.94 25.9081 181.866 26.0237C181.803 26.1288 181.693 26.1812 181.536 26.1812H174.497V27.8033ZM203.051 18.418C203.335 18.418 203.576 18.46 203.776 18.544C203.986 18.6279 204.164 18.7434 204.311 18.8904C204.469 19.0269 204.6 19.1948 204.705 19.3943C204.82 19.5937 204.926 19.8142 205.02 20.0557L209.445 30.9684C209.487 31.0732 209.508 31.1625 209.508 31.236C209.508 31.3408 209.471 31.425 209.398 31.488C209.334 31.5508 209.251 31.5825 209.146 31.5825H207.461C207.24 31.5825 207.088 31.467 207.004 31.236L203.083 21.4571H203.02L200.973 26.6064H202.926C203.136 26.6064 203.288 26.7112 203.382 26.9212C203.414 26.9947 203.461 27.1102 203.524 27.2678C203.597 27.4147 203.666 27.5671 203.729 27.7243C203.802 27.8819 203.86 28.034 203.902 28.1812C203.954 28.3174 203.981 28.4226 203.981 28.496C203.981 28.6429 203.933 28.7636 203.839 28.8581C203.745 28.9526 203.624 28.9998 203.477 28.9998H200.028L199.13 31.2518C199.047 31.4722 198.899 31.5825 198.69 31.5825H196.957C196.716 31.5825 196.595 31.467 196.595 31.236C196.595 31.1311 196.611 31.0418 196.643 30.9684L201.036 20.0557C201.225 19.5833 201.471 19.1948 201.776 18.8904C202.08 18.5754 202.506 18.418 203.051 18.418ZM214.554 18.5912C214.617 18.5912 214.707 18.6227 214.822 18.6857C214.937 18.7487 214.995 18.9009 214.995 19.1423V31.0312C214.995 31.2729 214.937 31.425 214.822 31.488C214.707 31.5508 214.617 31.5825 214.554 31.5825H213.106C213.042 31.5825 212.953 31.5508 212.838 31.488C212.722 31.425 212.665 31.2729 212.665 31.0312V19.1423C212.665 18.9009 212.722 18.7487 212.838 18.6857C212.953 18.6227 213.042 18.5912 213.106 18.5912H214.554Z" fill="white"/>
<defs>
<linearGradient id="paint0_linear_2137_1865" x1="27.0187" y1="0" x2="27.0187" y2="50" gradientUnits="userSpaceOnUse">
<stop stop-color="#3DB39F"/>
<stop offset="1" stop-color="#1E6FC1"/>
</linearGradient>
</defs>
</svg>
