<svg width="30" height="30" viewBox="0 0 30 30" fill="none" xmlns="http://www.w3.org/2000/svg">
<path d="M16 1C8.26758 1 2 7.26758 2 15C2 22.7324 8.26758 29 16 29C23.7324 29 30 22.7324 30 15C30 7.26758 23.7324 1 16 1ZM23.0446 16.0419L17.8867 21.1998C17.5989 21.4876 17.2232 21.6315 16.8448 21.6315C16.4648 21.6315 16.0892 21.4876 15.8028 21.1998C15.2286 20.6256 15.2286 19.693 15.8028 19.1145L18.4451 16.4722H10.0002C9.18561 16.4722 8.52647 15.813 8.52647 14.9985C8.52647 14.1839 9.18561 13.5248 10.0002 13.5248H18.4451L15.8028 10.8825C15.2286 10.3083 15.2286 9.37576 15.8028 8.79719C16.377 8.22297 17.3139 8.22297 17.8882 8.79719L23.0461 13.9551C23.6203 14.5293 23.6203 15.4619 23.0461 16.0404L23.0446 16.0419Z" fill="white"/>
</svg>
