<svg width="28" height="28" viewBox="0 0 28 28" fill="none" xmlns="http://www.w3.org/2000/svg">
<path d="M14 0C6.26758 0 0 6.26758 0 14C0 21.7324 6.26758 28 14 28C21.7324 28 28 21.7324 28 14C28 6.26758 21.7324 0 14 0ZM21.0446 15.0419L15.8867 20.1998C15.5989 20.4876 15.2232 20.6315 14.8448 20.6315C14.4648 20.6315 14.0892 20.4876 13.8028 20.1998C13.2286 19.6256 13.2286 18.693 13.8028 18.1145L16.4451 15.4722H8.00015C7.18561 15.4722 6.52647 14.813 6.52647 13.9985C6.52647 13.1839 7.18561 12.5248 8.00015 12.5248H16.4451L13.8028 9.88253C13.2286 9.30831 13.2286 8.37576 13.8028 7.79719C14.377 7.22297 15.3139 7.22297 15.8882 7.79719L21.0461 12.9551C21.6203 13.5293 21.6203 14.4619 21.0461 15.0404L21.0446 15.0419Z" fill="#37B8B9"/>
</svg>
