<svg xmlns="http://www.w3.org/2000/svg" width="47.555" height="47.555" viewBox="0 0 47.555 47.555">
  <g id="Group_142455" data-name="Group 142455" transform="translate(-4 -4)">
    <path id="Path_165331" data-name="Path 165331" d="M49.007,4H6.548A2.555,2.555,0,0,0,4,6.548V43.063A2.555,2.555,0,0,0,6.548,45.61h6.063a.849.849,0,0,0,0-1.7H6.548a.852.852,0,0,1-.849-.849V14.19H49.856V43.063a.852.852,0,0,1-.849.849H42.944a.849.849,0,1,0,0,1.7h6.063a2.555,2.555,0,0,0,2.548-2.548V6.548A2.555,2.555,0,0,0,49.007,4Zm.849,8.492H5.7V6.548A.852.852,0,0,1,6.548,5.7h42.46a.852.852,0,0,1,.849.849Z" fill="#9eb3cf"/>
    <path id="Path_165332" data-name="Path 165332" d="M21.587,9H8.849a.849.849,0,0,0,0,1.7H21.587a.849.849,0,0,0,0-1.7Z" transform="translate(-0.603 -0.754)" fill="#9eb3cf"/>
    <path id="Path_165333" data-name="Path 165333" d="M29.436,26A14.436,14.436,0,1,0,43.872,40.436,14.436,14.436,0,0,0,29.436,26Zm0,27.174A12.738,12.738,0,1,1,42.174,40.436,12.738,12.738,0,0,1,29.436,53.174Z" transform="translate(-1.659 -3.318)" fill="#9eb3cf"/>
    <path id="Path_165334" data-name="Path 165334" d="M38.114,34.521A2.591,2.591,0,0,0,36,35.129l-8.615,7.439-3.033-3.033a2.605,2.605,0,1,0-3.685,3.685L25.642,48.2a2.554,2.554,0,0,0,3.475.119L39.56,39.286c1.734-1.426.7-4.46-1.446-4.765ZM38.446,38,28,47.036A.852.852,0,0,1,26.843,47l-4.979-4.979a.913.913,0,0,1,.653-1.55.873.873,0,0,1,.63.267l3.592,3.592a.849.849,0,0,0,1.155.042l9.216-7.958a.958.958,0,0,1,1.514.447A.907.907,0,0,1,38.446,38Z" transform="translate(-2.398 -4.598)" fill="#9eb3cf"/>
  </g>
</svg>
