<svg xmlns="http://www.w3.org/2000/svg" width="47.555" height="52.822" viewBox="0 0 47.555 52.822">
  <g id="Group_142454" data-name="Group 142454" transform="translate(-3)">
    <path id="Path_165323" data-name="Path 165323" d="M3,5.284V42.271a5.289,5.289,0,0,0,5.284,5.284h4.556a4.115,4.115,0,0,0,1.074,4.051,4.253,4.253,0,0,0,6.1-.151l3.675-3.9h6.987l4.438,4.51a2.682,2.682,0,0,0,3.737,0l1.245-1.245a2.642,2.642,0,0,0,.37-3.265h4.808a5.289,5.289,0,0,0,5.284-5.284V5.284A5.289,5.289,0,0,0,45.271,0H8.284A5.289,5.289,0,0,0,3,5.284ZM18.714,50.261a2.445,2.445,0,1,1-3.435-3.466l8.213-7.738,2.354,2.357a1.761,1.761,0,0,0,.1,1.179ZM15.709,35.226a.881.881,0,0,0-.213.9l.38,1.145L14.7,38.487l-3.742-3.744,1.2-1.206,1.133.38a.881.881,0,0,0,.9-.21l1.105-1.1a.889.889,0,0,0,0-1.251.673.673,0,0,1,.005-.961l4.4-4.423a7.36,7.36,0,0,1,4.535-2.146c-.812.616-1.6,1.269-2.335,1.937a2.421,2.421,0,0,0-.82,1.745,2.466,2.466,0,0,0,.7,1.8l.528.528a.69.69,0,0,1,0,.963l-3.305,3.315a.669.669,0,0,1-.477.2.66.66,0,0,1-.476-.2.889.889,0,0,0-1.248,0ZM22.519,33.1l5.643,5.651-1.243,1.243-5.645-5.647ZM30.5,31.688a6.124,6.124,0,0,1,1.341-6.7,7.314,7.314,0,0,1,5.29-2.077.224.224,0,0,1,.215.144.176.176,0,0,1-.05.2L34.338,26.22a2.059,2.059,0,0,0-.622,1.479v2.044a2.08,2.08,0,0,0,2.077,2.078h2.044a2.094,2.094,0,0,0,1.468-.61l2.968-2.969a.22.22,0,0,1,.243-.051.136.136,0,0,1,.1.136A7.278,7.278,0,0,1,40.551,33.7a6.115,6.115,0,0,1-6.7,1.339.888.888,0,0,0-.978.209L30.557,37.7a1.761,1.761,0,0,0-.978-.021l-2.234-2.244,2.942-2.778a.881.881,0,0,0,.21-.978Zm-5.15,14.105,1.761-1.864,1.832,1.864Zm13.5,3.781L37.6,50.819a.881.881,0,0,1-1.241.005l-8.82-8.963,2.494-2.482,0-.006,8.807,8.954a.881.881,0,0,1,0,1.246Zm6.423-3.781H38.825L31.941,38.8l1.812-1.922A7.868,7.868,0,0,0,41.8,34.939a9.083,9.083,0,0,0,2.581-6.706,1.89,1.89,0,0,0-1.227-1.69,1.984,1.984,0,0,0-2.124.448L38.06,29.96a.331.331,0,0,1-.223.094H35.793a.317.317,0,0,1-.316-.317V27.694a.31.31,0,0,1,.094-.224l2.967-2.976a1.927,1.927,0,0,0,.446-2.085,1.974,1.974,0,0,0-1.78-1.266,9.159,9.159,0,0,0-6.611,2.589,7.877,7.877,0,0,0-1.937,8.046L26.1,34.189l-2.359-2.363a2.438,2.438,0,0,0-.176-3.235l-.521-.524a.678.678,0,0,1-.195-.5.688.688,0,0,1,.235-.494,34.407,34.407,0,0,1,2.961-2.394,1.471,1.471,0,0,0,.552-1.65,1.445,1.445,0,0,0-1.375-1.01,9.391,9.391,0,0,0-6.762,2.709l-4.4,4.418a2.442,2.442,0,0,0-.513,2.719l-.208.207-.675-.226a1.657,1.657,0,0,0-1.707.4L9.648,33.561a1.666,1.666,0,0,0,0,2.352L13.5,39.765a1.673,1.673,0,0,0,2.361.009l1.313-1.315a1.654,1.654,0,0,0,.393-1.7l-.226-.679.215-.216a2.442,2.442,0,0,0,.984.205,2.412,2.412,0,0,0,1.471-.5l2.24,2.244L14.088,45.5c-.1.088-.176.2-.269.3H8.284a3.523,3.523,0,0,1-3.523-3.523V8.806H48.793V42.271A3.523,3.523,0,0,1,45.271,45.793ZM8.284,1.761H45.271a3.523,3.523,0,0,1,3.523,3.523V7.045H4.761V5.284A3.523,3.523,0,0,1,8.284,1.761Z" fill="#9eb3cf"/>
    <path id="Path_165324" data-name="Path 165324" d="M8.881,5.761h.881A.881.881,0,1,0,9.761,4H8.881a.881.881,0,0,0,0,1.761Z" transform="translate(-0.597 -0.477)" fill="#9eb3cf"/>
    <path id="Path_165325" data-name="Path 165325" d="M13.881,5.761h.881a.881.881,0,0,0,0-1.761h-.881a.881.881,0,0,0,0,1.761Z" transform="translate(-1.194 -0.477)" fill="#9eb3cf"/>
    <path id="Path_165326" data-name="Path 165326" d="M18.881,5.761h.881a.881.881,0,1,0,0-1.761h-.881a.881.881,0,0,0,0,1.761Z" transform="translate(-1.79 -0.477)" fill="#9eb3cf"/>
    <path id="Path_165327" data-name="Path 165327" d="M29.881,5.761h14.09a.881.881,0,0,0,0-1.761H29.881a.881.881,0,0,0,0,1.761Z" transform="translate(-3.103 -0.477)" fill="#9eb3cf"/>
    <path id="Path_165328" data-name="Path 165328" d="M24.108,14.352a.881.881,0,0,0-1.233-.176l-3.523,2.642a.881.881,0,0,0,0,1.409l3.523,2.642a.881.881,0,1,0,1.057-1.409l-2.583-1.937,2.583-1.937A.881.881,0,0,0,24.108,14.352Z" transform="translate(-1.91 -1.671)" fill="#9eb3cf"/>
    <path id="Path_165329" data-name="Path 165329" d="M36.409,14.176a.881.881,0,1,0-1.057,1.409l2.583,1.937L35.352,19.46a.881.881,0,0,0,1.057,1.409l3.523-2.642a.881.881,0,0,0,0-1.409Z" transform="translate(-3.819 -1.671)" fill="#9eb3cf"/>
    <path id="Path_165330" data-name="Path 165330" d="M30.855,13.026a.881.881,0,0,0-1.067.641l-1.761,7.045a.881.881,0,0,0,.641,1.067.9.9,0,0,0,.213.026.881.881,0,0,0,.853-.668L31.5,14.094A.881.881,0,0,0,30.855,13.026Z" transform="translate(-2.984 -1.552)" fill="#9eb3cf"/>
  </g>
</svg>
