<svg xmlns="http://www.w3.org/2000/svg" width="47.988" height="47.986" viewBox="0 0 47.988 47.986">
  <path id="Path_165322" data-name="Path 165322" d="M50.961,38.653l-1.156-.309a9.085,9.085,0,0,0-.56-1.349l.6-1.037a1.362,1.362,0,0,0-.219-1.656l-.97-.97a18.687,18.687,0,0,0-26-26l-.972-.972a1.363,1.363,0,0,0-1.658-.218l-1.035.6a9.2,9.2,0,0,0-1.349-.558l-.309-1.155a1.355,1.355,0,0,0-1.326-1.018H13.674a1.355,1.355,0,0,0-1.326,1.016L12.036,6.18a9.162,9.162,0,0,0-1.347.557l-1.038-.6a1.364,1.364,0,0,0-1.658.218L6.343,8.009a1.363,1.363,0,0,0-.215,1.656l.6,1.036a9.049,9.049,0,0,0-.559,1.347l-1.159.31a1.362,1.362,0,0,0-1.014,1.328v2.332a1.362,1.362,0,0,0,1.017,1.326l1.156.309A9.009,9.009,0,0,0,6.726,19l-.6,1.037A1.359,1.359,0,0,0,6.345,21.7l1.649,1.649a1.354,1.354,0,0,0,1.657.218l1.037-.6a9.051,9.051,0,0,0,1.348.557l.311,1.155A1.357,1.357,0,0,0,13.674,25.7h1.192a18.589,18.589,0,0,0,3.386,8.072L12.19,39.833a2.1,2.1,0,0,0-1.028-.269h0a2.1,2.1,0,0,0-1.492.617L4.609,45.238a2.111,2.111,0,0,0,0,2.983l3.155,3.155a2.111,2.111,0,0,0,2.983,0L15.8,46.318a2.112,2.112,0,0,0,.348-2.523l6.061-6.064a18.588,18.588,0,0,0,8.073,3.388v1.192a1.356,1.356,0,0,0,1.019,1.326l1.157.312A9.04,9.04,0,0,0,33.02,45.3l-.6,1.034a1.354,1.354,0,0,0,.216,1.661l1.649,1.649a1.362,1.362,0,0,0,1.658.217l1.036-.6a9.005,9.005,0,0,0,1.347.559l.309,1.155a1.355,1.355,0,0,0,1.326,1.018H42.3a1.355,1.355,0,0,0,1.326-1.016l.312-1.158a9.205,9.205,0,0,0,1.347-.559l1.037.6a1.364,1.364,0,0,0,1.658-.218l1.651-1.651a1.363,1.363,0,0,0,.215-1.656l-.6-1.036a9.043,9.043,0,0,0,.559-1.348l1.155-.311a1.356,1.356,0,0,0,1.018-1.326V39.979a1.355,1.355,0,0,0-1.017-1.326Zm-37.287-14.1a.223.223,0,0,1-.223-.174l-.394-1.463a.571.571,0,0,0-.4-.4,7.888,7.888,0,0,1-1.7-.7.571.571,0,0,0-.564,0l-1.315.758a.218.218,0,0,1-.277-.038L7.152,20.889a.227.227,0,0,1-.036-.28L7.874,19.3a.571.571,0,0,0,0-.565,7.859,7.859,0,0,1-.707-1.7.571.571,0,0,0-.4-.4l-1.46-.391a.223.223,0,0,1-.173-.224V13.686a.223.223,0,0,1,.171-.226l1.463-.391a.571.571,0,0,0,.4-.4,7.9,7.9,0,0,1,.707-1.7.571.571,0,0,0,0-.565L7.116,9.094a.226.226,0,0,1,.036-.28L8.8,7.167a.227.227,0,0,1,.282-.038l1.312.756a.571.571,0,0,0,.562,0,8.008,8.008,0,0,1,1.706-.705.571.571,0,0,0,.4-.4l.395-1.465a.219.219,0,0,1,.223-.169h2.332a.222.222,0,0,1,.223.171l.391,1.463a.571.571,0,0,0,.4.4,8.055,8.055,0,0,1,1.709.706.57.57,0,0,0,.562-.005l1.307-.755a.226.226,0,0,1,.282.035l.853.853a18.627,18.627,0,0,0-3.015,2.993,5.41,5.41,0,0,0-3.874-1.616,5.457,5.457,0,0,0-.064,10.913,18.852,18.852,0,0,0-.059,4.25H13.673Zm1.283-5.392a4.315,4.315,0,1,1-.117-8.629,4.281,4.281,0,0,1,3.178,1.4,18.583,18.583,0,0,0-3.061,7.23Zm5.936-8.88a17.542,17.542,0,1,1,0,24.808,17.488,17.488,0,0,1,0-24.808ZM45.45,41.145a4.315,4.315,0,1,1-8.629-.117,18.582,18.582,0,0,0,7.23-3.062A4.275,4.275,0,0,1,45.45,41.145ZM15,45.511,9.94,50.569a.969.969,0,0,1-1.368,0L5.417,47.414a.969.969,0,0,1,0-1.368l5.058-5.058a.962.962,0,0,1,.685-.282h0a.956.956,0,0,1,.682.282L15,44.144a.97.97,0,0,1,0,1.367Zm.4-2.579-2.348-2.348,5.911-5.911q.529.632,1.121,1.227t1.225,1.12L15.4,42.932Zm35.436-.62a.22.22,0,0,1-.171.223l-1.463.394a.571.571,0,0,0-.4.4,7.9,7.9,0,0,1-.707,1.7.571.571,0,0,0,0,.565l.758,1.311a.226.226,0,0,1-.036.28l-1.647,1.647a.227.227,0,0,1-.282.038l-1.312-.758a.571.571,0,0,0-.565,0,8.039,8.039,0,0,1-1.706.708.571.571,0,0,0-.393.4l-.395,1.465a.219.219,0,0,1-.223.169H39.967a.222.222,0,0,1-.223-.171l-.391-1.463a.571.571,0,0,0-.4-.4,7.845,7.845,0,0,1-1.7-.707.571.571,0,0,0-.565,0l-1.309.757a.226.226,0,0,1-.282-.035l-1.649-1.649a.219.219,0,0,1-.036-.28l.756-1.312a.571.571,0,0,0,0-.564,7.886,7.886,0,0,1-.7-1.7.571.571,0,0,0-.4-.4L31.6,42.534a.223.223,0,0,1-.172-.223V41.268q.931.093,1.868.093a18.86,18.86,0,0,0,2.383-.152,5.456,5.456,0,0,0,10.912-.064,5.4,5.4,0,0,0-1.615-3.874A18.814,18.814,0,0,0,46.508,35.9a19.009,19.009,0,0,0,1.461-1.642l.851.851a.225.225,0,0,1,.037.279L48.1,36.7a.571.571,0,0,0,0,.564,7.94,7.94,0,0,1,.708,1.707.571.571,0,0,0,.4.4l1.464.392a.222.222,0,0,1,.169.223v2.332ZM33.3,37.19a14.5,14.5,0,1,0-14.5-14.5,14.518,14.518,0,0,0,14.5,14.5Zm0-27.861A13.36,13.36,0,1,1,19.937,22.688,13.373,13.373,0,0,1,33.3,9.329Zm0,5.058a6.566,6.566,0,0,0-6.56,6.557A6.83,6.83,0,0,0,28.25,25.1a6.851,6.851,0,0,1,1.441,3.493v2.054a1.576,1.576,0,0,0,.907,1.424v.759a1.6,1.6,0,0,0,1.594,1.594H34.4A1.6,1.6,0,0,0,36,32.83v-.759a1.576,1.576,0,0,0,.907-1.426l-.005-2.01c0-.007,0-.015,0-.022A6.851,6.851,0,0,1,38.343,25.1a6.833,6.833,0,0,0,1.511-4.156A6.564,6.564,0,0,0,33.3,14.387Zm.42,13.608h-.842V23.083q.2.013.415.016h.015q.209,0,.412-.016Zm2.039,1.14,0,1.512a.439.439,0,0,1-.433.433H31.265a.439.439,0,0,1-.433-.433V29.139ZM34.4,33.282h-2.21a.458.458,0,0,1-.452-.452v-.609h3.115v.609a.453.453,0,0,1-.452.452ZM37.4,24.463a8.325,8.325,0,0,0-1.568,3.53h-.969V22.921a3.919,3.919,0,0,0,2.033-1.049,1.948,1.948,0,0,0,.521-1.5,2.046,2.046,0,0,0-1.335-1.84,1.321,1.321,0,0,0-1.17.173c-.629.44-1,1.473-1.154,3.233-.149.012-.3.02-.456.022s-.309-.01-.459-.022c-.155-1.76-.525-2.793-1.154-3.233a1.32,1.32,0,0,0-1.17-.173A2.047,2.047,0,0,0,29.18,20.37a1.947,1.947,0,0,0,.521,1.5,3.92,3.92,0,0,0,2.033,1.048V28h-.968A8.309,8.309,0,0,0,29.2,24.462a5.738,5.738,0,0,1-1.317-3.518,5.417,5.417,0,0,1,10.833,0A5.742,5.742,0,0,1,37.4,24.463Zm-2.474-2.74c.179-1.632.527-2.006.64-2.086a.144.144,0,0,1,.093-.031.348.348,0,0,1,.1.017.93.93,0,0,1,.522.842.8.8,0,0,1-.228.639,2.5,2.5,0,0,1-1.125.618Zm-3.252,0a2.5,2.5,0,0,1-1.125-.618.8.8,0,0,1-.228-.638.931.931,0,0,1,.522-.843.351.351,0,0,1,.1-.017.144.144,0,0,1,.093.031c.114.08.461.453.64,2.085Zm1.056-8.73V11.525a.571.571,0,1,1,1.142,0v1.468a.571.571,0,1,1-1.142,0Zm-4.636.077a.571.571,0,0,1,.989-.57l.734,1.274a.571.571,0,1,1-.989.57Zm-3.446,2.879a.571.571,0,0,1,.78-.209l1.271.734a.571.571,0,1,1-.571.988l-1.271-.734a.571.571,0,0,1-.209-.78Zm-.769,5.566a.571.571,0,1,1,0-1.142h1.468a.571.571,0,1,1,0,1.142Zm12.9-7.741.734-1.274a.571.571,0,1,1,.989.57l-.734,1.274a.571.571,0,1,1-.989-.57Zm2.909,3.48a.571.571,0,0,1,.21-.78l1.274-.734a.571.571,0,1,1,.57.989l-1.274.734a.571.571,0,0,1-.78-.209Zm1.561,3.12h1.468a.571.571,0,0,1,0,1.142H41.249a.571.571,0,0,1,0-1.142Z" transform="translate(-3.992 -4.007)" fill="#9eb3cf"/>
</svg>
