<svg xmlns="http://www.w3.org/2000/svg" width="43.554" height="43.554" viewBox="0 0 43.554 43.554">
  <path id="Path_165335" data-name="Path 165335" d="M19.705,23.848a1.361,1.361,0,0,1,0,1.925L4.647,40.832h9.195a1.361,1.361,0,1,1,0,2.722H1.361A1.361,1.361,0,0,1,0,42.193V29.712a1.361,1.361,0,0,1,2.722,0v9.195L17.781,23.848A1.361,1.361,0,0,1,19.705,23.848ZM42.193,0H29.712a1.361,1.361,0,1,0,0,2.722h9.195L23.848,17.781a1.361,1.361,0,1,0,1.925,1.925L40.832,4.647v9.195a1.361,1.361,0,0,0,2.722,0V1.361A1.361,1.361,0,0,0,42.193,0Zm0,28.351a1.361,1.361,0,0,0-1.361,1.361v9.195L25.773,23.848a1.361,1.361,0,1,0-1.925,1.925L38.907,40.832H29.712a1.361,1.361,0,1,0,0,2.722H42.193a1.361,1.361,0,0,0,1.361-1.361V29.712A1.361,1.361,0,0,0,42.193,28.351ZM4.647,2.722h9.195a1.361,1.361,0,1,0,0-2.722H1.361A1.361,1.361,0,0,0,0,1.361V13.842a1.361,1.361,0,1,0,2.722,0V4.647L17.781,19.706a1.361,1.361,0,1,0,1.925-1.925Z" fill="#9eb3cf"/>
</svg>
