<svg id="Group_731" data-name="Group 731" xmlns="http://www.w3.org/2000/svg" width="30.212" height="30.574" viewBox="0 0 30.212 30.574">
  <rect id="Rectangle_579" data-name="Rectangle 579" width="30.212" height="30.212" rx="6" fill="#9eb3cf"/>
  <path id="Path_3520" data-name="Path 3520" d="M-454.653,286.549V275.128h-3.969v-4.769h4.029c0-.994-.051-1.895.013-2.787a16.859,16.859,0,0,1,.417-3.3,5.018,5.018,0,0,1,4.694-3.8c1.492-.149,3.011-.028,4.6-.028v4.2c-1.386.331-3.292-.525-4.042,1.059-.608,1.284-.5,2.9-.745,4.569h4.684c-.223,1.585-.391,2.993-.653,4.383-.035.188-.534.394-.828.41-.944.052-1.893.019-2.926.019v11.459Z" transform="translate(467.034 -255.976)" fill="#00081f"/>
</svg>
