<svg id="Group_730" data-name="Group 730" xmlns="http://www.w3.org/2000/svg" width="30.574" height="30.574" viewBox="0 0 30.574 30.574">
  <rect id="Rectangle_578" data-name="Rectangle 578" width="30.574" height="30.574" rx="6" fill="#9eb3cf"/>
  <g id="Group_706" data-name="Group 706" transform="translate(5.88 7.055)">
    <g id="Group_685" data-name="Group 685" transform="translate(0 0)">
      <path id="Path_3481" data-name="Path 3481" d="M-114.219,76.772a18.065,18.065,0,0,1,3.885-.464c2.167.206,3.632,2.09,3.737,4.612.1,2.36.021,4.728.041,7.092,0,.576-.248.776-.8.762-.912-.022-1.825-.038-2.735,0-.7.033-.962-.212-.947-.929.038-1.789.016-3.58.011-5.37,0-1.376-.683-2.209-1.8-2.223s-1.839.824-1.843,2.178c-.006,1.79-.032,3.581.013,5.37.019.77-.269,1.015-1.006.974-.876-.048-1.756-.033-2.634,0-.6.02-.847-.2-.844-.821q.026-5.471,0-10.943c0-.623.244-.837.844-.821,1.046.028,2.095.038,3.14,0C-114.512,76.161-114.181,76.375-114.219,76.772Z" transform="translate(125.224 -71.34)" fill="#00081f"/>
      <path id="Path_3483" data-name="Path 3483" d="M-149.145,82.407c0-1.757.022-3.514-.011-5.27-.013-.688.2-.985.922-.953,1.045.046,2.095.034,3.141,0,.622-.018.826.241.823.842q-.024,5.422,0,10.844c0,.643-.2.925-.87.9-1.046-.037-2.1-.037-3.141,0-.67.024-.885-.246-.875-.9C-149.126,86.055-149.145,84.231-149.145,82.407Z" transform="translate(149.157 -71.338)" fill="#00081f"/>
      <path id="Path_3484" data-name="Path 3484" d="M-146.674,52.285a2.261,2.261,0,0,1,2.469,2,2.218,2.218,0,0,1-2.329,2.039,2.268,2.268,0,0,1-2.515-2.061A2.212,2.212,0,0,1-146.674,52.285Z" transform="translate(149.071 -52.285)" fill="#00081f"/>
    </g>
  </g>
</svg>
