<svg id="Group_732" data-name="Group 732" xmlns="http://www.w3.org/2000/svg" width="30.574" height="30.574" viewBox="0 0 30.574 30.574">
  <rect id="Rectangle_580" data-name="Rectangle 580" width="30.574" height="30.574" rx="6" transform="translate(0)" fill="#9eb3cf"/>
  <path id="Path_3521" data-name="Path 3521" d="M-366.16,270.814c-1.471,1.628-2.96,3.149-4.286,4.794a2.745,2.745,0,0,1-2.829,1.208,4.178,4.178,0,0,0-.528,0l6.607-7.347-6.993-9c1.322,0,2.518,0,3.714,0a5.482,5.482,0,0,1,2.172.09c.589.286.923,1.064,1.366,1.629q1.5,1.908,3,3.817c.009.011.038.008.114.022.85-.938,1.722-1.9,2.59-2.857.7-.773,1.374-1.565,2.1-2.313a1.428,1.428,0,0,1,.808-.372,15.63,15.63,0,0,1,1.672-.017,3.489,3.489,0,0,1-.239.351c-1.858,2.071-3.705,4.152-5.592,6.2-.331.36-.26.562-.009.884q3.36,4.3,6.7,8.607c.048.062.093.127.185.254a4.757,4.757,0,0,1-.482.053c-1.635,0-3.269-.011-4.9.012a.882.882,0,0,1-.8-.406c-1.288-1.679-2.594-3.346-3.895-5.016C-365.828,271.228-365.965,271.058-366.16,270.814Zm7.214,4.358c-3.391-4.363-6.683-8.6-9.982-12.831a.614.614,0,0,0-.388-.224c-.454-.028-.911-.01-1.417-.01a1.912,1.912,0,0,0,.121.241q4.883,6.285,9.776,12.564a.693.693,0,0,0,.434.249C-359.964,275.193-359.52,275.172-358.946,275.172Z" transform="translate(380.069 -253.345)" fill="#00081f"/>
</svg>
