<svg xmlns="http://www.w3.org/2000/svg" width="46.77" height="46.77" viewBox="0 0 46.77 46.77">
  <g id="Group_2319" data-name="Group 2319" transform="translate(-692.328 -338.238)">
    <path id="Path_7241" data-name="Path 7241" d="M692.328,557.775a1.164,1.164,0,0,1,1.243-.645c.391.032.787.006,1.248.006v-.51c0-1.111,0-2.222,0-3.333a1.02,1.02,0,0,1,.929-1.193q1.807-.46,3.619-.9a.722.722,0,0,0,.569-.494c.366-.948.75-1.891,1.172-2.815a.851.851,0,0,0-.08-.912c-.636-1.018-1.245-2.053-1.861-3.083a1,1,0,0,1,.173-1.5q1.611-1.618,3.228-3.229a1,1,0,0,1,1.465-.181c1.071.637,2.141,1.275,3.2,1.929a.684.684,0,0,0,.713.067c.987-.43,1.993-.818,2.978-1.255a.813.813,0,0,0,.4-.474c.325-1.2.618-2.409.918-3.615.185-.744.458-.968,1.2-.969q2.26,0,4.52,0c.749,0,1.023.225,1.208.965.3,1.192.61,2.38.889,3.575a.685.685,0,0,0,.456.554c.987.392,1.97.794,2.944,1.217a.686.686,0,0,0,.714-.064c1.048-.645,2.107-1.273,3.164-1.9a1.023,1.023,0,0,1,1.536.183q1.6,1.6,3.2,3.2a1,1,0,0,1,.177,1.5c-.646,1.083-1.307,2.158-1.935,3.251a.8.8,0,0,0-.042.61c.377.976.806,1.933,1.185,2.908a.793.793,0,0,0,.631.548c1.2.281,2.385.586,3.575.89a1.019,1.019,0,0,1,.932,1.191c.007,1.261,0,2.523,0,3.847h1.29c.785,0,1.206.327,1.2.927-.008.584-.419.9-1.181.9H710.738q-8.584,0-17.168.009a1.229,1.229,0,0,1-1.242-.648Zm35.51-16.9c-1.07.643-2.178,1.3-3.279,1.976a1.154,1.154,0,0,1-1.122.123q-2.141-.9-4.289-1.779a1.11,1.11,0,0,1-.7-.827c-.285-1.179-.6-2.351-.875-3.531-.063-.268-.174-.336-.429-.333-.959.012-1.918.014-2.876,0-.267,0-.36.088-.421.344-.274,1.15-.591,2.29-.854,3.443a1.241,1.241,0,0,1-.814.95c-1.322.536-2.645,1.069-3.95,1.642a1.484,1.484,0,0,1-1.537-.125c-1.035-.661-2.1-1.273-3.117-1.883l-2.541,2.542c.637,1.059,1.292,2.168,1.97,3.263a1.254,1.254,0,0,1,.09,1.25c-.525,1.228-1.074,2.448-1.524,3.7a1.84,1.84,0,0,1-1.548,1.32c-1.112.213-2.2.536-3.295.81v3.349h9.25c-.04-.454-.109-.877-.11-1.3a9.835,9.835,0,0,1,3.516-7.794,9.37,9.37,0,0,1,2.813-1.658.885.885,0,0,1,1.039.238.783.783,0,0,1,.144.967,1.672,1.672,0,0,1-.715.588,8.02,8.02,0,0,0-4.781,8.969h15.664a7.99,7.99,0,0,0-1.817-6.81,8.308,8.308,0,0,0-3.126-2.227.9.9,0,0,1-.55-1.228.929.929,0,0,1,1.263-.464,9.891,9.891,0,0,1,6.231,9.61c-.013.37-.069.739-.1,1.1H734.7v-3.341c-1.23-.308-2.445-.632-3.67-.911a1.349,1.349,0,0,1-1.044-.9c-.514-1.3-1.036-2.593-1.6-3.868a1.515,1.515,0,0,1,.123-1.578c.659-1.033,1.273-2.1,1.87-3.086Z" transform="translate(0 -173.963)" fill="#9eb3cf"/>
    <path id="Path_7242" data-name="Path 7242" d="M692.328,354.86c.274-.3.535-.617.823-.9q4.788-4.8,9.583-9.59c.731-.731,1.139-.729,1.875.006q4.971,4.97,9.94,9.942c.118.118.217.255.3.349l11.517-11.517-2.884-2.875c-.119-.118-.239-.234-.354-.356-.584-.615-.5-1.167.258-1.678h15.07a1.228,1.228,0,0,1,.648,1.242q-.024,6.962,0,13.924c0,.475-.076.883-.556,1.093a1.025,1.025,0,0,1-1.213-.378l-3.2-3.227c-.785.792-1.531,1.552-2.284,2.305q-3.387,3.392-6.779,6.779c-.5.5-.895.589-1.33.314a.87.87,0,0,1-.3-1.228,2.861,2.861,0,0,1,.411-.485q4.29-4.3,8.587-8.587a4.538,4.538,0,0,1,.354-.295l-5.085-5.083-11.466,11.462c.45.425.926.862,1.387,1.314a.84.84,0,0,1,.253,1.028,1.167,1.167,0,0,1-.7.551,1.36,1.36,0,0,1-.85-.28,4.96,4.96,0,0,1-.719-.7q-5.762-5.763-11.522-11.527c-.128-.128-.239-.273-.5-.569a2.557,2.557,0,0,1-.293.509q-4.593,4.607-9.195,9.206c-.306.307-.641.574-1.078.414a2.916,2.916,0,0,1-.7-.526Zm44.9-3.593V340.094H726.057Z" fill="#9eb3cf"/>
    <path id="Path_7243" data-name="Path 7243" d="M692.328,493.5c.272-.3.531-.621.819-.909q5.824-5.832,11.655-11.657a3.787,3.787,0,0,1,.439-.4.9.9,0,0,1,1.215,1.327c-.47.5-.986.947-1.588,1.641a1.639,1.639,0,0,1,.453.225q2.192,2.167,4.362,4.356a1.715,1.715,0,0,1,.429.578.844.844,0,0,1-.29,1.018.856.856,0,0,1-1.056.041,2.846,2.846,0,0,1-.446-.388c-1.539-1.537-3.076-3.077-4.763-4.765a2,2,0,0,1-.256.469q-4.593,4.609-9.2,9.208c-.306.307-.641.574-1.079.417a2.9,2.9,0,0,1-.7-.525Z" transform="translate(0 -125.85)" fill="#9eb3cf"/>
    <path id="Path_7244" data-name="Path 7244" d="M944.086,536.173a.888.888,0,0,1,.909.876.928.928,0,0,1-.9.949.975.975,0,0,1-.93-.939A.935.935,0,0,1,944.086,536.173Z" transform="translate(-222.147 -175.294)" fill="#9eb3cf"/>
    <path id="Path_7245" data-name="Path 7245" d="M889.675,631.25a.9.9,0,0,1,.949.885.927.927,0,0,1-1.854.044A.9.9,0,0,1,889.675,631.25Z" transform="translate(-173.971 -259.495)" fill="#9eb3cf"/>
  </g>
</svg>
