<svg xmlns="http://www.w3.org/2000/svg" width="28.638" height="28.638" viewBox="0 0 28.638 28.638">
  <path id="icons8-linkedin" d="M29.228,4H7.409A3.41,3.41,0,0,0,4,7.409V29.228a3.411,3.411,0,0,0,3.409,3.409H29.228a3.411,3.411,0,0,0,3.409-3.409V7.409A3.411,3.411,0,0,0,29.228,4ZM12.864,14.91V27.865H8.773V14.91ZM8.773,11.139a1.817,1.817,0,0,1,2.046-1.684,1.845,1.845,0,0,1,2.046,1.684,1.815,1.815,0,0,1-2.046,1.725A1.846,1.846,0,0,1,8.773,11.139ZM27.865,27.865H23.774V21.046a2.452,2.452,0,0,0-2.386-2.755h-.055c-1.65,0-2.332,1.4-2.332,2.755v6.819H14.91V14.91H19v1.746a5.107,5.107,0,0,1,3.962-1.746c2.707,0,4.9,1.861,4.9,5.632Z" transform="translate(-4 -4)" fill="#9eb3cf"/>
</svg>
