<svg xmlns="http://www.w3.org/2000/svg" width="22.244" height="31.69" viewBox="0 0 22.244 31.69">
  <path id="Path_3543" data-name="Path 3543" d="M-283.782,895.728c-3.9-5.3-7.465-10.434-10.043-16.192a10.841,10.841,0,0,1,5.771-14.69,11.194,11.194,0,0,1,14.619,6.225,9.093,9.093,0,0,1-.057,7.571c-2,3.938-4.194,7.778-6.433,11.584C-281.015,892.078-282.391,893.762-283.782,895.728Zm.029-15.183a5.49,5.49,0,0,0,5.372-5.436,5.41,5.41,0,0,0-5.394-5.39,5.4,5.4,0,0,0-5.44,5.483A5.484,5.484,0,0,0-283.753,880.544Z" transform="translate(294.882 -864.038)" fill="#9eb3cf"/>
</svg>
