<svg id="Group_787" data-name="Group 787" xmlns="http://www.w3.org/2000/svg" width="23.025" height="16.997" viewBox="0 0 23.025 16.997">
  <path id="Path_3546" data-name="Path 3546" d="M736.359,1041.424c.1.056.211.108.312.17q5.186,3.159,10.37,6.323a1.466,1.466,0,0,0,1.663,0q5.21-3.185,10.427-6.358l.235-.141c.006.081.016.142.016.2q0,4.306,0,8.612a3.386,3.386,0,0,1-3.238,3.373c-.09,0-.18.005-.27.005q-8,0-16.007,0a3.328,3.328,0,0,1-3.218-2.03,6.585,6.585,0,0,1-.289-.933Z" transform="translate(-736.359 -1036.614)" fill="#9eb3cf"/>
  <path id="Path_3547" data-name="Path 3547" d="M737.65,980.471a3.373,3.373,0,0,1,2.862-2.625,4.984,4.984,0,0,1,.581-.039q7.99,0,15.98,0a3.432,3.432,0,0,1,3.342,2.381.307.307,0,0,1-.163.437q-5.5,3.348-11,6.712a.279.279,0,0,1-.342.03q-5.587-3.424-11.182-6.838C737.708,980.512,737.685,980.495,737.65,980.471Z" transform="translate(-737.553 -977.805)" fill="#9eb3cf"/>
</svg>
