<svg xmlns="http://www.w3.org/2000/svg" width="24.298" height="24.052" viewBox="0 0 24.298 24.052">
  <path id="Path_3545" data-name="Path 3545" d="M-60.753,884.928a11.963,11.963,0,0,1-3.963-1.308A26.886,26.886,0,0,1-77,871.7a16.2,16.2,0,0,1-1.343-3.464,5.683,5.683,0,0,1,1.265-5.253,23.652,23.652,0,0,1,1.692-1.745.976.976,0,0,1,1.509.01q2.083,2.058,4.142,4.141a.988.988,0,0,1-.009,1.575c-.757.772-1.53,1.529-2.291,2.3a2.093,2.093,0,0,0-.208,3.025,30.3,30.3,0,0,0,6.761,6.623,2.084,2.084,0,0,0,2.89-.22c.737-.728,1.453-1.478,2.182-2.214a1.042,1.042,0,0,1,1.738-.015q1.994,1.988,3.979,3.986a1.024,1.024,0,0,1,0,1.7,10.261,10.261,0,0,1-2.626,2.164A6.687,6.687,0,0,1-60.753,884.928Z" transform="translate(78.536 -860.888)" fill="#9eb3cf"/>
</svg>
