<svg xmlns="http://www.w3.org/2000/svg" width="172.187" height="88.643" viewBox="0 0 172.187 88.643">
  <g id="Group_105078" data-name="Group 105078" transform="translate(-3304.548 -2190.979)">
    <path id="Path_75005" data-name="Path 75005" d="M253.1,251.108l-9.6-3.386L230.513,230.6a19.865,19.865,0,0,0-15.8-7.716H163.334a19.192,19.192,0,0,0-13.928,5.833l-23.9,24.091-12.984.754A19.77,19.77,0,0,0,94.078,273.32v12.045a12.19,12.19,0,0,0,12.23,12.23h8.844a20.059,20.059,0,0,0,19.007,13.928,19.648,19.648,0,0,0,19.007-14.113h55.892a20.108,20.108,0,0,0,19.2,14.113,19.648,19.648,0,0,0,19.007-14.113h6.772a12.19,12.19,0,0,0,12.23-12.23V269.559A20.077,20.077,0,0,0,253.1,251.116Zm-119.13,51.016A10.537,10.537,0,1,1,144.5,291.587a10.289,10.289,0,0,1-10.533,10.519Zm94.1,0a4.359,4.359,0,1,0,0-.018Zm28.605-16.75a2.894,2.894,0,0,1-2.822,2.822h-6.023a20.068,20.068,0,0,0-39.522,0H153.726a20.068,20.068,0,0,0-39.522,0h-8.09a2.894,2.894,0,0,1-2.822-2.822V273.329a10.447,10.447,0,0,1,9.6-10.352l14.677-.939a4.442,4.442,0,0,0,3.011-1.318L155.8,235.5a10.384,10.384,0,0,1,7.341-3.011h51.378a10.519,10.519,0,0,1,8.28,4.14l13.928,18.059A3.95,3.95,0,0,0,238.8,256.2l10.917,3.955a10.384,10.384,0,0,1,6.772,9.788V285.37Z" transform="translate(3210.47 1968.098)" fill="#fff"/>
  </g>
</svg>
