<svg id="Group_2306" data-name="Group 2306" xmlns="http://www.w3.org/2000/svg" xmlns:xlink="http://www.w3.org/1999/xlink" width="84.162" height="92.541" viewBox="0 0 84.162 92.541">
  <defs>
    <clipPath id="clip-path">
      <rect id="Rectangle_711" data-name="Rectangle 711" width="84.162" height="92.541" rx="7" fill="#9eb3cf" stroke="rgba(0,0,0,0)" stroke-width="1"/>
    </clipPath>
  </defs>
  <g id="Group_2305" data-name="Group 2305" clip-path="url(#clip-path)">
    <path id="Path_7224" data-name="Path 7224" d="M61.574,141.363a10.189,10.189,0,0,1,.2,1.772,1.343,1.343,0,0,1-1.308,1.419,1.259,1.259,0,0,1-1.349-1.2c-.229-2.076-.432-4.157-.548-6.241a1.325,1.325,0,0,1,1.949-1.372c1.912.82,3.772,1.76,5.643,2.673a1.2,1.2,0,0,1,.774,1.474c-.253.884-.928,1.15-1.93,1.031a25.565,25.565,0,0,0,11.855,6.343c.3.071.607.089.9.175.81.239,1.426.688,1.2,1.637-.24,1.016-1.027,1.181-1.917.979a30.617,30.617,0,0,1-8.515-3.211,33.8,33.8,0,0,1-6.957-5.479" transform="translate(-40.612 -94.023)" fill="#9eb3cf" stroke="rgba(0,0,0,0)" stroke-width="1"/>
    <path id="Path_7225" data-name="Path 7225" d="M162.208,10.348a25.531,25.531,0,0,0-12.1-6.231c-1.008-.222-1.9-.536-1.641-1.7.225-1.028,1.085-1.108,2.077-.907a28.466,28.466,0,0,1,13.988,7.336c.349.326.586.822,1.255.929-.025-.5-.047-.93-.07-1.365a1.258,1.258,0,0,1,1.225-1.46,1.229,1.229,0,0,1,1.384,1.282c.147,1.98.4,3.953.518,5.935.088,1.462-.826,2.077-2.158,1.484-1.576-.7-3.114-1.488-4.675-2.225-.742-.35-1.533-.622-1.461-1.688.066-.98.858-1.109,1.658-1.387" transform="translate(-102.918 -0.984)" fill="#9eb3cf" stroke="rgba(0,0,0,0)" stroke-width="1"/>
    <path id="Path_7226" data-name="Path 7226" d="M138.509,173.6c-.933.09-1.681-.241-1.727-1.24-.04-.9.6-1.319,1.491-1.376a26.211,26.211,0,0,0,8.265-1.883c.868-.353,1.544-.255,1.918.562.418.912-.044,1.566-.931,1.913a27.393,27.393,0,0,1-9.017,2.024" transform="translate(-94.846 -117.121)" fill="#9eb3cf" stroke="rgba(0,0,0,0)" stroke-width="1"/>
    <path id="Path_7227" data-name="Path 7227" d="M99.941,4.6c-.99.1-1.42-.263-1.639-.808a1.157,1.157,0,0,1,.6-1.555A24.483,24.483,0,0,1,108.92,0a1.108,1.108,0,0,1,1.131,1.192c.034.923-.558,1.371-1.439,1.42A26.034,26.034,0,0,0,101.339,4.1c-.569.2-1.136.407-1.4.5" transform="translate(-68.095 0)" fill="#9eb3cf" stroke="rgba(0,0,0,0)" stroke-width="1"/>
    <path id="Path_7228" data-name="Path 7228" d="M192.509,143.233a7.419,7.419,0,0,1-.573.984,28.888,28.888,0,0,1-5.132,5.013c-.742.57-1.5.762-2.126-.071s-.256-1.532.5-2.09a25.942,25.942,0,0,0,4.808-4.689,1.362,1.362,0,0,1,1.612-.549c.595.208.813.724.917,1.4" transform="translate(-127.839 -98.288)" fill="#9eb3cf" stroke="rgba(0,0,0,0)" stroke-width="1"/>
    <path id="Path_7229" data-name="Path 7229" d="M64.322,24.4a1.2,1.2,0,0,1-1.146-.618,1.452,1.452,0,0,1,.147-1.583A27.452,27.452,0,0,1,68.9,16.811a1.276,1.276,0,0,1,1.89.244,1.135,1.135,0,0,1-.178,1.749,33.768,33.768,0,0,0-5.328,5.209,1.3,1.3,0,0,1-.961.384" transform="translate(-43.692 -11.442)" fill="#9eb3cf" stroke="rgba(0,0,0,0)" stroke-width="1"/>
    <path id="Path_7230" data-name="Path 7230" d="M73.567,195.7a7.288,7.288,0,0,0-5.093-.143c-.6.193-.857.121-1.1-.525a3.54,3.54,0,0,0-2.5-2.065c-2.688-.8-5.028.113-7.207,1.553-2.04,1.349-4.058,2.742-5.984,4.247a29.531,29.531,0,0,1-10.4,5.281,5.55,5.55,0,0,1-1.913.43c-3.509-.27-7.017-.544-10.838-.84,2.893-1.893,5.632-3.427,8.4-4.907a8.863,8.863,0,0,0,2.847-2.276c1.2-1.521,1.855-3.207.984-5.1a4.846,4.846,0,0,0-4.43-2.764,12.431,12.431,0,0,0-7.134,1.857q-7.431,4.228-14.826,8.521c-.7.4-1.164.682-1.6-.344A2.61,2.61,0,0,0,10.15,197.1c-2.451.016-4.9.015-7.351.092a2.753,2.753,0,0,0-2.752,2.728q-.078,10.26-.021,20.521a2.822,2.822,0,0,0,2.966,2.843c2.4.025,4.8-.016,7.2-.007a2.311,2.311,0,0,0,1.933-.75,2.563,2.563,0,0,1,2.425-.867c8.679-.065,17.359-.237,26.036-.161a16.562,16.562,0,0,0,8.964-2.481c8.441-5.07,16.36-10.9,24.384-16.581a5.7,5.7,0,0,0,1.1-1.051,3.431,3.431,0,0,0-1.471-5.689M10.558,210.154h-.01c0,3.056-.032,6.112.019,9.167.016.938-.163,1.371-1.228,1.333-1.83-.065-3.667-.009-5.5.051-.882.029-1.285-.214-1.278-1.19q.065-9.319.037-18.64c0-.877.338-1.154,1.177-1.139,1.833.032,3.669.045,5.5-.031,1-.041,1.324.262,1.3,1.282-.062,3.054-.022,6.111-.022,9.167m48.6-13.422a6.461,6.461,0,0,1,4.124-1.329c.647.036,1.469.032,1.62.819.134.7-.439,1.207-1.042,1.549-1.414.8-2.835,1.591-4.253,2.385-2.038,1.141-4.13,2.2-6.1,3.448a9.837,9.837,0,0,1-5.851,1.218c3.885-2.734,7.689-5.418,11.5-8.09m13.531,3.284c-1.476,1.169-3.043,2.224-4.589,3.3-6.845,4.78-13.553,9.763-20.829,13.9a10.558,10.558,0,0,1-5.644,1.508c-4.285-.1-8.574-.03-12.861-.03v.281c-4.748,0-9.5-.024-14.243.02-.93.009-1.319-.124-1.3-1.2.069-4.7.058-9.392.015-14.088a1.619,1.619,0,0,1,1.017-1.631c5.4-3.06,10.756-6.2,16.169-9.247,1.954-1.1,4.03-2.029,6.38-1.46,1.8.435,2.216,1.706,1.114,3.2a6.6,6.6,0,0,1-2.256,1.788c-2.723,1.489-5.448,2.978-8.017,4.727a8.308,8.308,0,0,0-2.351,2.16,1.317,1.317,0,0,0,.922,2.247,107.474,107.474,0,0,0,24.65,1.855,6.587,6.587,0,0,0,3.032-.931c4.478-2.521,8.957-5.041,13.46-7.517,1.533-.843,3.152-1.467,4.951-.787,1.292.488,1.455,1.06.385,1.908" transform="translate(0 -130.752)" fill="#9eb3cf" stroke="rgba(0,0,0,0)" stroke-width="1"/>
    <path id="Path_7231" data-name="Path 7231" d="M112.265,45.148c-.029-.91-.487-1.7-1.509-1.5-1.987.376-2.672-.656-3.316-2.315-.525-1.355-.752-2.312.606-3.2a1.521,1.521,0,0,0,.777-1.415,1.651,1.651,0,0,0-.64-1.162q-1.3-1.3-2.6-2.591c-1.968-1.958-2.051-1.993-3.978-.029a1.23,1.23,0,0,1-1.816.279,3.663,3.663,0,0,0-1.25-.548,2,2,0,0,1-1.825-2.645c.219-1.36-.506-1.963-1.876-1.908-1.223.049-2.449.01-3.674.01-2.529,0-2.693.129-2.661,2.677.011.885-.139,1.457-1.136,1.576a2.428,2.428,0,0,0-1.123.447c-1.336,1.007-2.336.645-3.278-.6a1.431,1.431,0,0,0-2.452-.094q-1.7,1.757-3.446,3.476c-.822.811-.866,1.684.031,2.348,1.389,1.028,1.362,2.008.678,3.544C77.1,43,76.536,43.967,74.689,43.642c-1.154-.2-1.637.514-1.61,1.66.038,1.632.047,3.267,0,4.9-.036,1.2.594,1.809,1.656,1.651,1.737-.259,2.392.492,3,2.042.588,1.493.831,2.518-.637,3.57-.98.7-.838,1.65,0,2.483s1.659,1.659,2.49,2.486c2.05,2.038,2.073,2.06,4.083.058.553-.551.986-.78,1.679-.282a3.248,3.248,0,0,0,1.243.563c1.565.3,2.133,1.158,1.905,2.743-.184,1.283.555,1.855,1.831,1.823,1.224-.031,2.45-.006,3.675-.006,2.689,0,2.732,0,2.706-2.737-.008-.855.219-1.315,1.053-1.5a3.262,3.262,0,0,0,1.279-.473c1.352-1.055,2.322-.585,3.263.609.806,1.023,1.694.93,2.574,0s1.8-1.811,2.7-2.713c1.708-1.707,1.743-1.989-.015-3.661-.705-.671-.946-1.232-.342-2.062a2.665,2.665,0,0,0,.506-1.1c.226-1.488,1.032-2.011,2.511-1.82,1.169.151,2.019-.328,2.035-1.665.02-1.684.039-3.369-.014-5.051m-4.058,4.034c-1.407-.222-2.185.336-2.416,1.817a8.163,8.163,0,0,1-1.432,3.5c-.928,1.286-.875,2.376.434,3.261,1.218.823.425,1.324-.166,1.956-.607.648-1.132,1.2-1.876.15-.959-1.356-2.06-1.4-3.383-.417A7.618,7.618,0,0,1,96,60.824c-1.462.223-2.119.974-1.9,2.38s-.561,1.363-1.574,1.413c-1.085.054-1.471-.27-1.314-1.345.22-1.507-.469-2.226-1.987-2.455a8.112,8.112,0,0,1-3.486-1.477c-1.181-.852-2.169-.811-3.012.378-.776,1.095-1.322.681-2.121-.053-.876-.8-.849-1.316.05-1.994a1.871,1.871,0,0,0,.417-2.992,8.6,8.6,0,0,1-1.508-3.638c-.242-1.376-.946-2.093-2.413-1.855-1.061.173-1.581-.109-1.5-1.356.07-1.027.044-1.822,1.437-1.6a1.886,1.886,0,0,0,2.454-1.784,11.055,11.055,0,0,1,1.695-4.057c.185-.3.327-.628.471-.907a2.952,2.952,0,0,0-1.388-1.99c-1.071-.876-.11-1.251.353-1.734.48-.5.949-1.423,1.724-.335,1.1,1.548,2.3,1.524,3.744.438a7.24,7.24,0,0,1,3.237-1.28,1.874,1.874,0,0,0,1.791-2.449c-.192-1.271.443-1.329,1.462-1.369,1.156-.045,1.568.285,1.4,1.434-.207,1.406.371,2.155,1.857,2.393a8.015,8.015,0,0,1,3.5,1.437,2.084,2.084,0,0,0,3.29-.374c.252-.3.5-1.106,1.145-.617a8.481,8.481,0,0,1,1.677,1.758c.063.087-.565.751-.942,1.066a1.835,1.835,0,0,0-.349,2.795,8.759,8.759,0,0,1,1.53,3.627c.229,1.54,1.019,2.165,2.495,1.905,1.432-.252,1.325.617,1.4,1.6.086,1.164-.29,1.578-1.433,1.4" transform="translate(-50.672 -19.488)" fill="#9eb3cf" stroke="rgba(0,0,0,0)" stroke-width="1"/>
    <path id="Path_7232" data-name="Path 7232" d="M230.79,63.6c-2.528-1.8-5.038-3.634-7.546-5.466a1.7,1.7,0,0,0-2.235.023q-3.753,2.76-7.537,5.48a1.639,1.639,0,0,0-.675,2.1q1.477,4.4,2.854,8.837a1.667,1.667,0,0,0,1.915,1.32c1.527-.069,3.06-.018,4.59-.017s3.062-.044,4.59.015a1.671,1.671,0,0,0,1.894-1.35c.91-2.9,1.874-5.793,2.837-8.681a1.778,1.778,0,0,0-.686-2.263m-3.236,5.637c-1.257,3.978-1.257,3.978-5.7,3.978-1.11-.157-2.79.583-3.729-.3-.843-.8-.936-2.4-1.337-3.65s-1.326-2.681-1-3.706,1.905-1.676,2.964-2.451c1.106-.809,2.243-2.172,3.374-2.181,1.113-.009,2.245,1.368,3.356,2.155,3.284,2.326,3.282,2.33,2.072,6.158" transform="translate(-147.463 -40.031)" fill="#9eb3cf" stroke="rgba(0,0,0,0)" stroke-width="1"/>
    <path id="Path_7233" data-name="Path 7233" d="M25.744,68.483a1.524,1.524,0,0,0-1.787-1.74c-1.988.055-3.978.015-5.967.015-2.04,0-4.081.03-6.12-.011-1.224-.025-1.77.485-1.763,1.718.023,4.028.032,8.057-.005,12.085a1.538,1.538,0,0,0,1.748,1.787q6.044.019,12.087,0a1.593,1.593,0,0,0,1.811-1.773c0-4.029.011-8.057,0-12.085M23.029,78.615c.014.824-.267,1.058-1.055,1.026-1.324-.054-2.653-.015-3.98-.015-1.378,0-2.759-.052-4.133.019-.9.046-1.126-.29-1.114-1.134q.063-4.056,0-8.112c-.013-.819.281-1.048,1.066-1.037,2.7.037,5.41.046,8.113,0,.891-.017,1.117.3,1.1,1.145q-.072,4.055,0,8.112" transform="translate(-7.005 -46.28)" fill="#9eb3cf" stroke="rgba(0,0,0,0)" stroke-width="1"/>
    <path id="Path_7234" data-name="Path 7234" d="M116.25,62.429a9.1,9.1,0,1,0,9.144,9.1,9.1,9.1,0,0,0-9.144-9.1m.046,15.5a6.416,6.416,0,0,1,.09-12.831,6.416,6.416,0,0,1-.09,12.831" transform="translate(-74.372 -43.289)" fill="#9eb3cf" stroke="rgba(0,0,0,0)" stroke-width="1"/>
  </g>
</svg>
