<svg id="Group_2302" data-name="Group 2302" xmlns="http://www.w3.org/2000/svg" xmlns:xlink="http://www.w3.org/1999/xlink" width="86.13" height="86.146" viewBox="0 0 86.13 86.146">
  <defs>
    <clipPath id="clip-path">
      <rect id="Rectangle_709" data-name="Rectangle 709" width="86.13" height="86.146" rx="7" fill="#9eb3cf" stroke="rgba(0,0,0,0)" stroke-width="1"/>
    </clipPath>
  </defs>
  <g id="Group_2301" data-name="Group 2301" clip-path="url(#clip-path)">
    <path id="Path_7198" data-name="Path 7198" d="M248.4,13.942c0,3.5.006,6.993,0,10.49,0,1.536-.355,1.882-1.9,1.89-1.972.01-3.945-.011-5.917.012-.474.006-1.117-.256-1.389.179-.323.516.363.83.61,1.212a5.563,5.563,0,0,1-.784,7.115,5.5,5.5,0,0,1-7.137.344,5.552,5.552,0,0,1-1.022-7.679c.215-.3.759-.545.506-.989-.223-.391-.735-.182-1.114-.185-2.152-.018-4.3-.026-6.455,0-1.185.014-1.725-.518-1.714-1.7q.032-3.5,0-6.993a2.789,2.789,0,0,1,1.585-2.868,3.033,3.033,0,0,1,3.374.506,2.881,2.881,0,0,0,3.689.391,2.968,2.968,0,0,0,.821-4.235,2.937,2.937,0,0,0-4.263-.59,3.648,3.648,0,0,1-2.252,1.039,2.729,2.729,0,0,1-2.905-2.56c-.092-2.642-.05-5.289-.029-7.933A1.287,1.287,0,0,1,223.566.011q4.976,0,9.952,0c.835,0,1.417.38,1.412,1.257S234.358,2.5,233.5,2.492c-2.555-.013-5.111.032-7.665-.023-.9-.019-1.279.169-1.226,1.161.084,1.565.012,3.137.031,4.706,0,.327-.184.777.271.94.348.125.535-.245.779-.421a5.5,5.5,0,1,1,6.636,8.782,5.626,5.626,0,0,1-6.415.012c-.34-.234-.6-.865-1.08-.582-.411.24-.186.822-.192,1.25-.02,1.524.03,3.05-.024,4.572-.026.727.225.911.917.892,1.657-.045,3.317-.008,4.975-.016,1.329-.006,2.56.271,3.136,1.606a3.144,3.144,0,0,1-.6,3.483,2.888,2.888,0,0,0,.216,4.2A2.965,2.965,0,0,0,237.288,33a2.906,2.906,0,0,0,.192-4.109,3.06,3.06,0,0,1-.679-3.444c.632-1.408,1.852-1.688,3.226-1.682,1.658.006,3.318-.024,4.975.013.681.016.934-.172.931-.9q-.038-9.616,0-19.231c0-.877-.3-1.2-1.178-1.172-1.612.046-3.227,0-4.841.019-.882.012-1.552-.252-1.536-1.241.016-.973.7-1.251,1.567-1.246,1.793.009,3.587-.026,5.379.012a2.923,2.923,0,0,1,3.067,3.165c.026,3.586.007,7.172.008,10.759" transform="translate(-162.278 -0.001)" fill="#9eb3cf" stroke="rgba(0,0,0,0)" stroke-width="1"/>
    <path id="Path_7199" data-name="Path 7199" d="M.019,207.333q0-5.113,0-10.225c0-1.883.264-2.138,2.2-2.14,1.973,0,3.947.01,5.92-.009.381,0,.888.21,1.12-.193.261-.452-.278-.7-.49-1A5.509,5.509,0,0,1,12.537,185a5.178,5.178,0,0,1,5.335,2.639,5.387,5.387,0,0,1-.167,5.959c-.241.39-.949.688-.619,1.2.262.405.916.159,1.392.163,1.928.019,3.857,0,5.785.009,1.754,0,2.065.3,2.071,2.006.007,2.153-.03,4.306.013,6.458.027,1.368-.321,2.55-1.632,3.114a3.049,3.049,0,0,1-3.473-.647,2.756,2.756,0,0,0-3.368-.39,2.821,2.821,0,0,0-1.518,2.913,2.779,2.779,0,0,0,1.932,2.5,2.776,2.776,0,0,0,3-.581,2.923,2.923,0,0,1,3.443-.627,2.992,2.992,0,0,1,1.618,3.126c-.033,2.242-.025,4.485,0,6.727.012,1.169-.483,1.733-1.686,1.727-4.215-.019-8.431-.01-12.647-.006-.871,0-1.528-.263-1.528-1.267,0-1.026.681-1.222,1.546-1.219,3.543.013,7.086-.019,10.628.023.849.01,1.2-.169,1.148-1.1-.081-1.566-.013-3.138-.03-4.708,0-.334.178-.779-.225-.972s-.618.254-.891.45a5.507,5.507,0,1,1-6.5-8.888,5.666,5.666,0,0,1,6.31.016c.348.237.617.86,1.075.623.5-.258.218-.892.23-1.354.034-1.345-.047-2.694.032-4.035.059-1-.162-1.429-1.284-1.351-1.562.108-3.137.028-4.707.027-1.28,0-2.462-.3-3.024-1.571a3.125,3.125,0,0,1,.559-3.488,2.9,2.9,0,0,0-.169-4.207A2.973,2.973,0,0,0,11,192.482a3,3,0,0,1,.628,3.334,2.965,2.965,0,0,1-3.075,1.708c-1.659.007-3.32.036-4.978-.013-.772-.023-1.1.123-1.1,1.013q.059,9.552.008,19.1c0,.863.274,1.243,1.164,1.184.714-.048,1.434-.015,2.152,0a1.219,1.219,0,0,1,.107,2.433,18.546,18.546,0,0,1-3.489-.045,2.852,2.852,0,0,1-2.393-3.1c-.02-3.588-.006-7.175-.006-10.763" transform="translate(-0.01 -135.159)" fill="#9eb3cf" stroke="rgba(0,0,0,0)" stroke-width="1"/>
    <path id="Path_7200" data-name="Path 7200" d="M171.786,47.357h-.134c-1.012-.009-2.347.23-2.309-1.275.037-1.482,1.384-1.191,2.384-1.213.447-.009.9-.014,1.342.009a1.147,1.147,0,0,1,1.238,1.274,1.16,1.16,0,0,1-1.313,1.2c-.4,0-.806,0-1.209,0" transform="translate(-123.749 -32.783)" fill="#9eb3cf" stroke="rgba(0,0,0,0)" stroke-width="1"/>
    <path id="Path_7201" data-name="Path 7201" d="M44.891,134.356c.061-.8-.319-2.156,1.252-2.146s1.187,1.356,1.231,2.332c.02.447,0,.895,0,1.342a1.182,1.182,0,0,1-1.242,1.294,1.2,1.2,0,0,1-1.237-1.307c-.014-.447,0-.895,0-1.514" transform="translate(-32.801 -96.614)" fill="#9eb3cf" stroke="rgba(0,0,0,0)" stroke-width="1"/>
    <path id="Path_7202" data-name="Path 7202" d="M265.766,171.741c0-.4,0-.806,0-1.209a1.175,1.175,0,0,1,1.248-1.284,1.2,1.2,0,0,1,1.23,1.314c.016.761.007,1.522.006,2.283,0,.845-.383,1.411-1.263,1.395s-1.255-.567-1.226-1.424c.012-.358,0-.716,0-1.074" transform="translate(-194.209 -123.68)" fill="#9eb3cf" stroke="rgba(0,0,0,0)" stroke-width="1"/>
    <path id="Path_7203" data-name="Path 7203" d="M134.684,265.752c.993.027,2.364-.3,2.391,1.187.029,1.595-1.395,1.264-2.427,1.3-.447.014-.9.016-1.342-.012a1.233,1.233,0,0,1,.037-2.466c.447-.014.895,0,1.342,0" transform="translate(-96.545 -194.192)" fill="#9eb3cf" stroke="rgba(0,0,0,0)" stroke-width="1"/>
    <path id="Path_7204" data-name="Path 7204" d="M146.365,47.349c-1.073.062-1.762-.307-1.693-1.321.078-1.137.984-1.174,1.881-1.17.935,0,1.645.33,1.567,1.347-.086,1.118-.963,1.24-1.755,1.145" transform="translate(-105.718 -32.78)" fill="#9eb3cf" stroke="rgba(0,0,0,0)" stroke-width="1"/>
    <path id="Path_7205" data-name="Path 7205" d="M201.384,47.341c-.911.081-1.689-.151-1.716-1.186-.029-1.131.8-1.308,1.745-1.308.892,0,1.691.18,1.71,1.213.02,1.108-.783,1.373-1.739,1.281" transform="translate(-145.91 -32.773)" fill="#9eb3cf" stroke="rgba(0,0,0,0)" stroke-width="1"/>
    <path id="Path_7206" data-name="Path 7206" d="M47.335,109.079c.084.962-.142,1.785-1.261,1.778-1.034-.007-1.233-.792-1.234-1.691,0-.939.17-1.784,1.29-1.768,1.015.015,1.3.772,1.2,1.681" transform="translate(-32.767 -78.483)" fill="#9eb3cf" stroke="rgba(0,0,0,0)" stroke-width="1"/>
    <path id="Path_7207" data-name="Path 7207" d="M268.213,146.444c.058.944-.246,1.7-1.261,1.677-1.118-.022-1.243-.88-1.241-1.813s.252-1.668,1.269-1.65c1.117.021,1.3.878,1.234,1.786" transform="translate(-194.171 -105.711)" fill="#9eb3cf" stroke="rgba(0,0,0,0)" stroke-width="1"/>
    <path id="Path_7208" data-name="Path 7208" d="M44.865,164.069c-.059-.937.231-1.7,1.248-1.686,1.115.014,1.257.862,1.254,1.8,0,.919-.242,1.673-1.258,1.663-1.116-.011-1.314-.863-1.245-1.778" transform="translate(-32.777 -118.663)" fill="#9eb3cf" stroke="rgba(0,0,0,0)" stroke-width="1"/>
    <path id="Path_7209" data-name="Path 7209" d="M265.75,201.443c-.085-.959.135-1.786,1.256-1.78,1.034.005,1.238.786,1.239,1.687,0,.938-.17,1.786-1.287,1.772-1.011-.013-1.306-.766-1.207-1.679" transform="translate(-194.187 -145.906)" fill="#9eb3cf" stroke="rgba(0,0,0,0)" stroke-width="1"/>
    <path id="Path_7210" data-name="Path 7210" d="M109.069,268.216c-.936.062-1.695-.234-1.682-1.25.015-1.116.866-1.254,1.8-1.251.918,0,1.672.237,1.659,1.259-.013,1.119-.864,1.313-1.781,1.242" transform="translate(-78.475 -194.175)" fill="#9eb3cf" stroke="rgba(0,0,0,0)" stroke-width="1"/>
    <path id="Path_7211" data-name="Path 7211" d="M164.057,265.754c.947-.092,1.781.126,1.788,1.24.006,1.022-.763,1.254-1.674,1.254-.935,0-1.79-.155-1.789-1.272,0-1.009.746-1.32,1.675-1.222" transform="translate(-118.663 -194.19)" fill="#9eb3cf" stroke="rgba(0,0,0,0)" stroke-width="1"/>
    <path id="Path_7212" data-name="Path 7212" d="M125.369,108.448c-.717-.454-1.455-.879-2.2-1.288-.372-.2-.667-.4-.674-.89-.031-2.215-.309-4.542,2.635-5.265a.449.449,0,0,0,.113-.072,3.036,3.036,0,0,0,1.21-4.368q-1.154-2.118-2.417-4.176a3.054,3.054,0,0,0-4.3-1.133c-.75.4-1.477.839-2.207,1.273a1,1,0,0,1-1.106.067c-2.048-1.036-3.917-2.144-3.148-4.955a.438.438,0,0,0,0-.134,3.064,3.064,0,0,0-3.012-3.157,45.554,45.554,0,0,0-5.24.008,3.039,3.039,0,0,0-2.953,3.2c-.026.806-.031,1.615,0,2.42a1.236,1.236,0,0,1-.65,1.165c-1.964,1.457-3.762,1.844-5.9.13a2.823,2.823,0,0,0-4.166,1.043c-.89,1.445-1.745,2.916-2.538,4.416a2.988,2.988,0,0,0,1.1,4.092c.753.481,1.537.917,2.323,1.342a1.026,1.026,0,0,1,.618.93c.226,3.444.235,3.444-2.692,5.237-.038.023-.075.049-.113.073a3,3,0,0,0-1.187,4.265q1.176,2.182,2.479,4.3a3.048,3.048,0,0,0,4.2,1.115c.753-.391,1.478-.837,2.207-1.272a1.1,1.1,0,0,1,1.223-.071c2.074,1.042,3.641,2.182,3.165,5-.309,1.824,1.116,3.083,3,3.23.846.066,1.7.011,2.554.011v.014c.762,0,1.526.033,2.286-.006a3.162,3.162,0,0,0,3.295-3.444,21.449,21.449,0,0,0-.011-2.15c-.059-.7.34-.933.831-1.32,1.966-1.553,3.84-1.721,5.747.036a.451.451,0,0,0,.121.057,3.042,3.042,0,0,0,3.991-1.125q1.342-2.163,2.545-4.412a2.987,2.987,0,0,0-1.134-4.181m-2.02,4.616c-.473.811-.936,1.628-1.408,2.44a.7.7,0,0,1-.709.464,11.82,11.82,0,0,1-1.541-.851c-1.857-1.384-3.668-1.522-5.478.063a.683.683,0,0,1-.231.135c-2.846.93-3.685,3.012-3.3,5.779.148,1.073-.28,1.424-1.347,1.343a32.4,32.4,0,0,0-3.631-.009c-.732.027-1.108-.187-1.033-.975.034-.356-.024-.72.01-1.075.219-2.317-.521-4.039-2.881-4.829a4.145,4.145,0,0,1-1.142-.7,3.454,3.454,0,0,0-4.232-.2c-2.631,1.541-2.652,1.506-4.181-1.164-1.474-2.574-1.49-2.6,1.141-4.093a3.331,3.331,0,0,0,1.951-3.49,7.338,7.338,0,0,1-.014-1.88c.348-2.2-.657-3.511-2.546-4.5-2.445-1.279-2.132-.866-.847-3.174.456-.82.965-1.612,1.407-2.439.327-.611.7-.773,1.271-.314,2.486,2,4.817,1.966,7.529.1,1.725-1.191,2.633-2.344,2.559-4.413-.086-2.392-.019-2.4,2.4-2.391,1.115.006,2.517-.34,3.268.2.834.6.212,2.087.312,3.183a3.352,3.352,0,0,0,2.044,3.058,5.625,5.625,0,0,1,1.409.763c1.866,1.576,3.634,1.392,5.625.1,1.864-1.208,1.567-1.482,2.825.688.493.851.948,1.726,1.488,2.545.442.671.44,1.2-.348,1.49-3.082,1.128-4,3.288-3.771,6.5.144,2.055.725,3.342,2.515,4.281,2.178,1.141,2.139,1.211.888,3.36" transform="translate(-64.611 -61.587)" fill="#9eb3cf" stroke="rgba(0,0,0,0)" stroke-width="1"/>
    <path id="Path_7213" data-name="Path 7213" d="M221.329,223.813c.008-1.188-.516-1.72-1.7-1.708-2.286.024-4.573.029-6.859,0a2.926,2.926,0,0,0-3.007,1.585,2.892,2.892,0,0,0,.6,3.446,2.98,2.98,0,1,1-4.359-.011,2.991,2.991,0,0,0,.6-3.361,2.821,2.821,0,0,0-2.957-1.659q-3.428.053-6.859,0c-1.245-.019-1.812.506-1.793,1.765.032,2.107.021,4.214,0,6.321,0,.414.248.981-.227,1.214-.419.2-.673-.331-.983-.55a5.5,5.5,0,1,0-6.442,8.925,5.582,5.582,0,0,0,6.521-.143c.281-.2.51-.646.891-.487.471.2.236.708.24,1.073.023,2.062.006,4.124.013,6.186.006,1.719.309,2.019,2.048,2.02q10.355,0,20.711,0c2.494,0,3.553-1.088,3.557-3.632q.007-5.111,0-10.221c0-3.586-.015-7.173.008-10.759m-2.461,2.331c-.076,3.048-.026,6.1-.026,9.148,0,3.139-.026,6.279.016,9.418.012.929-.29,1.259-1.237,1.254q-9.552-.046-19.1,0c-.789,0-.99-.255-.973-1,.044-1.882.037-3.767,0-5.65-.016-.906.362-2.111-.7-2.537a4.361,4.361,0,0,0-3.628.167,7.109,7.109,0,0,0-.854.646,2.976,2.976,0,1,1,.005-4.624,3.542,3.542,0,0,0,1.872.957,2.781,2.781,0,0,0,3.3-2.966c.06-1.792.041-3.588,0-5.381-.016-.683.152-.946.886-.923,1.657.053,3.318.012,4.977.021.3,0,.692-.125.868.173.247.42-.228.614-.422.877a5.5,5.5,0,1,0,8.708,6.735,5.6,5.6,0,0,0,.158-6.417c-.247-.377-.943-.67-.6-1.208.239-.372.839-.152,1.276-.158,1.345-.018,2.7.1,4.033-.036,1.269-.125,1.465.379,1.437,1.5" transform="translate(-135.199 -162.304)" fill="#9eb3cf" stroke="rgba(0,0,0,0)" stroke-width="1"/>
    <path id="Path_7214" data-name="Path 7214" d="M33.634,8.461a5.378,5.378,0,0,0-6.069.279c-.314.213-.564.748-1,.534-.488-.242-.227-.806-.232-1.221-.025-2.016-.005-4.033-.013-6.05C26.317.358,25.993.027,24.368.026Q13.881.019,3.395.027C1.132.031.019,1.152.011,3.42c-.012,3.451,0,6.9,0,10.353,0,3.585.013,7.171-.008,10.756-.006,1.038.272,1.8,1.458,1.8,2.6.015,5.2.067,7.8-.027a2.8,2.8,0,0,0,2.57-3.517,4.8,4.8,0,0,0-1.032-1.7,2.953,2.953,0,0,1,2.463-4.736,2.773,2.773,0,0,1,2.575,1.637,2.815,2.815,0,0,1-.512,3.356,2.973,2.973,0,0,0-.586,3.361A2.831,2.831,0,0,0,17.7,26.349q3.428-.053,6.857,0c1.254.019,1.8-.532,1.779-1.78-.032-2.151-.019-4.3,0-6.453,0-.368-.219-.873.235-1.077.386-.174.607.286.878.487a5.345,5.345,0,0,0,5.073.863A5.187,5.187,0,0,0,36.3,13.656a5.135,5.135,0,0,0-2.664-5.2m-.567,6.679a2.912,2.912,0,0,1-4.3.166,3.1,3.1,0,0,0-3.373-.543,2.865,2.865,0,0,0-1.619,2.987c0,1.658-.036,3.317.016,4.973.024.773-.114,1.123-1.005,1.08-1.609-.079-3.225-.012-4.838-.031-.323,0-.776.187-.933-.269-.121-.351.271-.523.447-.762a5.5,5.5,0,1,0-8.932-.49c.12.188.252.37.387.548.181.239.538.44.33.791-.19.32-.569.184-.866.186-1.568.011-3.139-.046-4.7.025-.92.041-1.228-.21-1.209-1.176.062-3.136.023-6.273.023-9.41s.032-6.274-.018-9.41c-.016-.993.3-1.325,1.308-1.319q9.477.054,18.955,0c.828,0,1.087.223,1.058,1.053-.06,1.7-.023,3.405-.016,5.108a2.907,2.907,0,0,0,1.655,2.968,2.959,2.959,0,0,0,3.337-.581,2.976,2.976,0,0,1,4.3,4.107" transform="translate(0 -0.016)" fill="#9eb3cf" stroke="rgba(0,0,0,0)" stroke-width="1"/>
    <path id="Path_7215" data-name="Path 7215" d="M133.61,123.918a9.7,9.7,0,1,0,9.711,9.659,9.583,9.583,0,0,0-9.711-9.659m0,16.964a7.262,7.262,0,1,1,7.27-7.287,7.394,7.394,0,0,1-7.27,7.287" transform="translate(-90.553 -90.555)" fill="#9eb3cf" stroke="rgba(0,0,0,0)" stroke-width="1"/>
    <path id="Path_7216" data-name="Path 7216" d="M147.559,142.974a4.572,4.572,0,1,0,4.554,4.555,4.681,4.681,0,0,0-4.554-4.555m-.023,6.571a2,2,0,1,1,2-2.062,1.977,1.977,0,0,1-2,2.062" transform="translate(-104.477 -104.48)" fill="#9eb3cf" stroke="rgba(0,0,0,0)" stroke-width="1"/>
  </g>
</svg>
