<svg id="Group_2300" data-name="Group 2300" xmlns="http://www.w3.org/2000/svg" xmlns:xlink="http://www.w3.org/1999/xlink" width="88.028" height="89.74" viewBox="0 0 88.028 89.74">
  <defs>
    <clipPath id="clip-path">
      <rect id="Rectangle_708" data-name="Rectangle 708" width="88.028" height="89.74" rx="7" fill="#9eb3cf" stroke="rgba(0,0,0,0)" stroke-width="1"/>
    </clipPath>
  </defs>
  <g id="Group_2299" data-name="Group 2299" clip-path="url(#clip-path)">
    <path id="Path_7188" data-name="Path 7188" d="M158.843,24.117c2.026,0,4.051.013,6.077-.006,1.08-.01,1.852.393,1.809,1.551-.041,1.09-.829,1.366-1.829,1.359-3.858-.025-7.717-.019-11.575-.007-2.3.007-3.442,1.158-3.454,3.478q-.019,3.69,0,7.38c0,1.037-.276,1.86-1.5,1.834-1.14-.024-1.4-.814-1.4-1.788.008-2.653-.038-5.306.016-7.958a5.864,5.864,0,0,1,5.923-5.837c1.977-.031,3.955-.006,5.932-.006" transform="translate(-104.403 -17.126)" fill="#9eb3cf" stroke="rgba(0,0,0,0)" stroke-width="1"/>
    <path id="Path_7189" data-name="Path 7189" d="M119.731,237.859c0,1.3.04,2.6-.008,3.9a5.859,5.859,0,0,1-5.729,5.734c-2.553.063-5.109.008-7.664.019-1,0-1.771-.354-1.783-1.431-.013-1.168.791-1.492,1.859-1.477,2.362.033,4.724.024,7.086.006a3.037,3.037,0,0,0,3.344-3.3c.025-2.507.013-5.014,0-7.521,0-1.02.219-1.878,1.455-1.874s1.454.87,1.445,1.886c-.012,1.35,0,2.7,0,4.05Z" transform="translate(-74.271 -164.762)" fill="#9eb3cf" stroke="rgba(0,0,0,0)" stroke-width="1"/>
    <path id="Path_7190" data-name="Path 7190" d="M50.23,135.211c-.769,0-1.541.045-2.306-.008a5.718,5.718,0,0,1-5.38-5.084,26.381,26.381,0,0,1-.1-3.452,1.373,1.373,0,0,1,1.4-1.519c.991-.015,1.45.624,1.468,1.582.016.865-.032,1.733.025,2.595a2.952,2.952,0,0,0,3.172,3c1.345.029,2.692.018,4.037,0,1.011-.012,1.737.362,1.733,1.455s-.737,1.465-1.744,1.446c-.769-.015-1.538,0-2.307,0v-.014" transform="translate(-30.147 -88.907)" fill="#9eb3cf" stroke="rgba(0,0,0,0)" stroke-width="1"/>
    <path id="Path_7191" data-name="Path 7191" d="M224.748,149.947c.721,0,1.444-.033,2.162.006a5.733,5.733,0,0,1,5.494,5.127,27.262,27.262,0,0,1,.1,3.309c-.006.933-.451,1.627-1.444,1.626s-1.423-.669-1.433-1.621c-.008-.817.029-1.636-.016-2.451a2.972,2.972,0,0,0-3.217-3.1c-1.345-.026-2.691-.013-4.037,0-1.022.008-1.714-.407-1.7-1.493.017-1.006.681-1.41,1.638-1.4.817.005,1.634,0,2.451,0Z" transform="translate(-156.759 -106.515)" fill="#9eb3cf" stroke="rgba(0,0,0,0)" stroke-width="1"/>
    <path id="Path_7192" data-name="Path 7192" d="M27.446,22.619c0-3.791-1.35-5.649-4.97-7.03-1.519-.58-3.148-.681-4.8-1.183a9.889,9.889,0,0,0,2.95-8.219A6.441,6.441,0,0,0,14.354.029c-3.805-.266-6.7,1.794-7.367,5.223a9.9,9.9,0,0,0,2.8,9.191,21.928,21.928,0,0,0-6.163,1.745A6.164,6.164,0,0,0,0,22.1c.051,2.747.005,5.5.013,8.243C.022,32.82,1.261,34.1,3.7,34.108q10.051.02,20.1,0c2.382-.005,3.618-1.266,3.637-3.679.02-2.6.006-5.206,0-7.81M10.128,4.85a4.079,4.079,0,0,1,4.584-1.873,3.424,3.424,0,0,1,2.992,3.2c.035.381.005.768.005,1.152a5.971,5.971,0,0,1-1.778,4.69,2.945,2.945,0,0,1-4.268.133,6.846,6.846,0,0,1-1.535-7.3m14.447,25.3c.032,1.129-.581,1.106-1.361,1.078-.715-.025-1.44.179-1.374-1.035.1-1.873.023-3.756.028-5.634,0-1.026-.319-1.921-1.47-1.9s-1.431.937-1.427,1.952c.008,1.879-.025,3.758.014,5.636.016.745-.216,1-.984.994-2.841-.039-5.684-.049-8.525,0-.895.017-1.021-.361-1.005-1.115.04-1.878-.013-3.757.023-5.635.02-1.02-.377-1.8-1.388-1.831C6,22.625,5.57,23.438,5.584,24.513c.023,1.782-.052,3.567.028,5.346.046,1.028-.166,1.411-1.314,1.409-1.183,0-1.49-.376-1.412-1.486.091-1.294.021-2.6.021-3.9,0-1.2.067-2.413-.015-3.612a3.414,3.414,0,0,1,2.414-3.678,22.939,22.939,0,0,1,10.627-1.369A20.183,20.183,0,0,1,22.1,18.544a3.635,3.635,0,0,1,2.471,3.8c-.092,2.6-.072,5.2,0,7.8" transform="translate(0 -0.004)" fill="#9eb3cf" stroke="rgba(0,0,0,0)" stroke-width="1"/>
    <path id="Path_7193" data-name="Path 7193" d="M236.636,22.593c0-3.719-1.343-5.61-4.849-6.976-1.561-.608-3.24-.716-4.913-1.2a9.84,9.84,0,0,0,2.8-9.06c-.658-3.535-3.546-5.619-7.415-5.329a6.457,6.457,0,0,0-6.237,6.192,9.993,9.993,0,0,0,2.923,8.18c-1.364.313-2.634.551-3.874.9-4.251,1.19-5.867,3.329-5.868,7.682,0,2.555-.028,5.111.009,7.665a3.188,3.188,0,0,0,3.416,3.455q10.268.04,20.536,0a3.241,3.241,0,0,0,3.468-3.551c.019-2.651,0-5.3,0-7.955M218.9,7.371c.012-3.633,2.7-5.443,5.895-4.156a3.649,3.649,0,0,1,2.188,3.451,6.739,6.739,0,0,1-1.508,4.971,3.091,3.091,0,0,1-5.161-.054A6.119,6.119,0,0,1,218.9,7.371m13.394,23.857c-.875.062-1.307-.114-1.257-1.148.088-1.829,0-3.665.033-5.5.017-1.058-.341-1.921-1.458-1.927s-1.477.84-1.455,1.908c.039,1.832-.027,3.667.027,5.5.025.841-.151,1.2-1.1,1.175-2.748-.064-5.5-.073-8.247,0-1.027.029-1.2-.366-1.174-1.255.055-1.783.009-3.569.018-5.354,0-1.009-.243-1.954-1.4-1.979-1.256-.027-1.5.955-1.5,2.02.011,1.833-.073,3.67.03,5.5.067,1.193-.627,1.039-1.361,1.052-.767.014-1.44.077-1.371-1.069.085-1.394.02-2.8.02-4.2,0-1.254.058-2.512-.014-3.762a3.414,3.414,0,0,1,2.478-3.64,23.259,23.259,0,0,1,10.65-1.325,19.489,19.489,0,0,1,6.175,1.352,3.6,3.6,0,0,1,2.38,3.728c-.1,2.6-.089,5.211,0,7.813.045,1.283-.716,1.051-1.478,1.105" transform="translate(-148.614 0)" fill="#9eb3cf" stroke="rgba(0,0,0,0)" stroke-width="1"/>
    <path id="Path_7194" data-name="Path 7194" d="M236.649,214.784c0-3.931-1.5-6-5.318-7.2-1.4-.44-2.861-.717-4.313-1.074,2.647-3.6,3.269-5.689,2.68-8.95-.65-3.6-3.481-5.7-7.326-5.443a6.47,6.47,0,0,0-6.346,6.389,9.966,9.966,0,0,0,2.959,8.02,36.508,36.508,0,0,0-4.787,1.136c-3.525,1.264-4.981,3.314-4.983,7.037,0,2.6-.014,5.207,0,7.81.017,2.418,1.248,3.683,3.617,3.687q10.123.02,20.246,0a3.258,3.258,0,0,0,3.562-3.6c.016-2.6,0-5.206,0-7.81m-17.518-17.3c.4-1.658,1.835-2.479,3.78-2.483,2.3-.006,3.574.986,3.986,3.294a6.406,6.406,0,0,1-1.675,5.719,2.919,2.919,0,0,1-4.557.03,6.653,6.653,0,0,1-1.534-6.559m13.163,25.835c-.842.071-1.309-.053-1.25-1.115.1-1.826.017-3.662.032-5.494.008-1.023-.237-1.9-1.436-1.917s-1.486.809-1.47,1.863c.029,1.88-.035,3.761.027,5.639.028.848-.266,1.064-1.067,1.031-1.444-.059-2.892-.016-4.652-.016-1.36-.122-3.662.724-4.538-.29-.842-.975-.227-3.209-.25-4.891-.009-.626.013-1.254-.025-1.879-.054-.889-.507-1.484-1.439-1.475a1.351,1.351,0,0,0-1.409,1.5c-.032,1.976-.09,3.956.007,5.928.053,1.083-.443,1.152-1.272,1.12-.785-.03-1.51.139-1.468-1.115.086-2.552.024-5.109.026-7.664,0-2.247.623-3.245,2.768-4.008a25.449,25.449,0,0,1,13.664-.729c.47.092.938.2,1.4.329,3.022.849,3.814,1.9,3.814,5.018,0,2.362-.071,4.727.028,7.086.055,1.316-.758,1.017-1.488,1.078" transform="translate(-148.626 -136.468)" fill="#9eb3cf" stroke="rgba(0,0,0,0)" stroke-width="1"/>
    <path id="Path_7195" data-name="Path 7195" d="M27.471,214.5c0-3.594-1.531-5.7-4.973-6.894a39.288,39.288,0,0,0-4.84-1.117,9.551,9.551,0,0,0,2.78-9.427c-.876-3.845-4.445-5.738-8.541-4.8-3.956.9-5.4,4.376-5.068,7.948a9.785,9.785,0,0,0,3.022,6.3A28.154,28.154,0,0,0,5.09,207.6c-3.6,1.275-5.053,3.326-5.053,7.13,0,2.555-.007,5.111,0,7.666.009,2.486,1.242,3.747,3.706,3.751q9.98.016,19.961,0c2.493,0,3.744-1.228,3.762-3.692.019-2.652.007-5.3,0-7.956M10.19,196.793c.753-1.451,2.614-2.147,4.652-1.74a3.414,3.414,0,0,1,2.885,3.135c.038.382.037.768.04.833a6.356,6.356,0,0,1-1.9,5.115,2.866,2.866,0,0,1-4.035.169,6.761,6.761,0,0,1-1.645-7.512M23.056,223.26c-.8.084-1.237-.044-1.19-1.045.088-1.876.029-3.759.023-5.639,0-1.02-.29-1.879-1.508-1.844-1.139.032-1.375.884-1.38,1.829-.009,1.784-.06,3.57.018,5.35.045,1.015-.134,1.479-1.3,1.371-1.338-.124-2.7-.029-4.046-.029-1.4,0-2.8-.036-4.193.015-.743.027-1.01-.183-.986-.963.054-1.83,0-3.664.025-5.5.017-1.053-.113-2.053-1.407-2.073-1.4-.021-1.513,1.044-1.5,2.139.02,1.832-.057,3.667.029,5.495.049,1.043-.567.945-1.177.868s-1.552.471-1.539-.842c.03-2.94-.035-5.882.029-8.822.039-1.762,1.319-2.595,2.789-3.108a25.355,25.355,0,0,1,13.663-.695,15.952,15.952,0,0,1,1.811.461c2.675.882,3.361,1.839,3.362,4.623,0,2.459-.054,4.919.021,7.375.041,1.34-.84.954-1.542,1.028" transform="translate(-0.025 -136.415)" fill="#9eb3cf" stroke="rgba(0,0,0,0)" stroke-width="1"/>
    <path id="Path_7196" data-name="Path 7196" d="M127.645,114.81c-.12-4.132.629-3.807-3.8-4.672a1.69,1.69,0,0,1-1.255-.937c-.886-1.412.273-2.147.822-3.035,1.317-2.128,1.343-2.122-.387-3.883-2.645-2.694-2.373-2.452-5.183-.472a2.263,2.263,0,0,1-2.725.118c-.826-.478-.587-1.457-.75-2.218-.549-2.572-.59-2.634-3.181-2.635-3.286,0-3.286,0-3.928,3.276-.415,2.121-1.574,2.578-3.413,1.386a7.412,7.412,0,0,0-2.637-1.452,1.958,1.958,0,0,0-.536.213c-1.233.994-2.624,1.938-3.208,3.426-.451,1.149.818,1.933,1.294,2.892.106.213.271.4.395.6a1.865,1.865,0,0,1-1.2,2.693c-.565.118-1.139.2-1.7.333-2.067.5-2.16.6-2.144,2.7.029,3.792-.553,3.526,3.623,4.377a1.842,1.842,0,0,1,1.244,3.032c-.447.685-.917,1.355-1.356,2.045a1.489,1.489,0,0,0,.161,1.859c2.52,3.3,3.049,3.4,6.489,1.21.041-.026.079-.055.12-.08a1.815,1.815,0,0,1,2.764,1.232,16.972,16.972,0,0,1,.377,1.835c.151,1.614,1.069,2.013,2.571,1.966,3.877-.123,3.593.56,4.461-3.722a1.819,1.819,0,0,1,2.953-1.2c.566.364,1.143.717,1.679,1.122a1.779,1.779,0,0,0,2.663-.246c3.416-3.463,3.078-2.6.8-6.2a1.83,1.83,0,0,1,1.265-2.832,17.363,17.363,0,0,1,1.831-.391c1.457-.137,1.933-.915,1.892-2.331m-3.624-.273c-3.2-.2-3.93,2.216-4.874,4.471a1.587,1.587,0,0,0,.207,1.612c.436.691.9,1.366,1.358,2.04.239.349.327.627-.039,1a.6.6,0,0,1-.986,0c-2.092-2.412-4.33-1.289-6.581-.325a1.716,1.716,0,0,0-1.068,1.415c-.142.8-.344,1.595-.49,2.4a.579.579,0,0,1-.672.561c-.4,0-.645-.119-.683-.542,0-.047-.036-.094-.033-.14.216-3.174-2.14-3.976-4.435-4.9a1.608,1.608,0,0,0-1.614.17c-.689.438-1.361.9-2.042,1.356-.328.218-.611.406-1,.012-.353-.359-.365-.675-.055-.984,1.87-1.867,1.832-3.827.569-6.048-.484-.851-.788-1.585-1.889-1.666a13.6,13.6,0,0,1-1.969-.417c-.368-.084-.726-.107-.746-.673-.022-.631.36-.743.8-.774a4.43,4.43,0,0,0,4.41-3.454,3.587,3.587,0,0,0-.363-3.534c-.389-.592-1.52-1.179-.766-2.006.9-.989,1.506.321,2.1.7,1.191.762,2.258,1.252,3.51.225a1.118,1.118,0,0,1,.534-.2c1.974-.28,2.65-1.621,2.811-3.4.026-.286.122-.565.156-.851.055-.465.276-.641.762-.632a.548.548,0,0,1,.614.62c-.019,2.739,1.568,4.021,4,4.771a2.306,2.306,0,0,0,2.382-.173,21.676,21.676,0,0,1,1.925-1.268c.729-.443.811.283,1.177.566-.478.737-.848,1.418-1.324,2.016a2.05,2.05,0,0,0-.189,2.857.579.579,0,0,1,.124.259c.363,2.479,2.013,3.359,4.291,3.5.422.026.832.118.812.76a.613.613,0,0,1-.729.672" transform="translate(-66.848 -68.963)" fill="#9eb3cf" stroke="rgba(0,0,0,0)" stroke-width="1"/>
    <path id="Path_7197" data-name="Path 7197" d="M133.418,128.869a7.552,7.552,0,1,0,7.609,7.494,7.391,7.391,0,0,0-7.609-7.494m.109,12.208a4.657,4.657,0,1,1,4.606-4.673,4.51,4.51,0,0,1-4.606,4.673" transform="translate(-89.458 -91.55)" fill="#9eb3cf" stroke="rgba(0,0,0,0)" stroke-width="1"/>
  </g>
</svg>
