<svg id="Group_2298" data-name="Group 2298" xmlns="http://www.w3.org/2000/svg" xmlns:xlink="http://www.w3.org/1999/xlink" width="72.061" height="97.26" viewBox="0 0 72.061 97.26">
  <defs>
    <clipPath id="clip-path">
      <rect id="Rectangle_706" data-name="Rectangle 706" width="72.061" height="97.26" rx="7" fill="#9eb3cf" stroke="rgba(0,0,0,0)" stroke-width="1"/>
    </clipPath>
  </defs>
  <g id="Group_2297" data-name="Group 2297" clip-path="url(#clip-path)">
    <path id="Path_7184" data-name="Path 7184" d="M70.274,35.221c-.921-.678-1.92-1.251-2.881-1.875-1.11-.722-1.133-1.533-.189-2.417.762-.714,1.567-1.388,2.28-2.148a4.223,4.223,0,0,0-1.964-7.168,31.673,31.673,0,0,0-3.542-.564c-1.275-.206-1.687-.881-1.259-2.083.3-.833.639-1.649.959-2.473a4.28,4.28,0,0,0-.7-4.8A4.533,4.533,0,0,0,58.1,10.476c-.852.23-1.679.565-2.538.758-1.186.266-1.926-.136-1.97-1.482-.036-1.1-.093-2.195-.229-3.282A4.346,4.346,0,0,0,46.311,3.48c-.836.624-1.6,1.338-2.429,1.976-1.161.9-1.715.773-2.461-.535-.464-.812-.867-1.66-1.333-2.471a4.662,4.662,0,0,0-8.19-.036c-.472.808-.884,1.652-1.319,2.482a1.358,1.358,0,0,1-2.3.5c-.833-.627-1.6-1.341-2.431-1.974a4.269,4.269,0,0,0-4.7-.492,4.323,4.323,0,0,0-2.549,3.844c-.061.937-.027,1.881-.068,2.82-.055,1.27-.737,1.774-1.963,1.478-.909-.219-1.8-.493-2.7-.748a4.385,4.385,0,0,0-4.834,1.318,4.2,4.2,0,0,0-.633,4.805,25.612,25.612,0,0,1,.975,2.464c.3.941.051,1.666-1.034,1.861-1.026.185-2.054.359-3.088.5a4.189,4.189,0,0,0-3.667,2.959,4.255,4.255,0,0,0,1.156,4.587c.68.719,1.466,1.337,2.177,2.026A1.327,1.327,0,0,1,4.7,33.17c-.862.587-1.77,1.107-2.641,1.68A4.17,4.17,0,0,0,.024,38.965,4.2,4.2,0,0,0,2.834,42.6c1.005.42,2.061.722,3.058,1.16,1.041.457,1.406,1.2.693,2.245-.615.9-1.248,1.8-1.8,2.743a4.209,4.209,0,0,0,.841,5.514,5.033,5.033,0,0,0,3.933.972c4.28-.082,4.47.067,3.6,3.893a4.6,4.6,0,0,0,.487,3.735,1.949,1.949,0,0,1,.173,2c-.929,2.593-1.863,5.185-2.782,7.782q-3.9,11.024-7.806,22.049c-.276.777-.485,1.509.23,2.154.778.7,1.538.394,2.293-.058.358-.214.72-.421,1.081-.629q14.007-8.079,28-16.176a2.158,2.158,0,0,1,2.505-.027c9.633,5.6,19.3,11.153,28.949,16.728.8.461,1.561.922,2.423.179.8-.691.494-1.474.206-2.288-3.432-9.7-6.839-19.416-10.292-29.112-.36-1.01-.728-1.825.155-2.819a2.991,2.991,0,0,0,.407-2.695,25.781,25.781,0,0,1-.513-2.765c-.163-1.387.367-1.946,1.752-1.891.991.039,1.979.205,2.968.2a4.406,4.406,0,0,0,4.145-2.313,4.141,4.141,0,0,0-.3-4.567q-.816-1.242-1.642-2.478c-.684-1.018-.454-1.755.673-2.216,1.107-.452,2.246-.838,3.322-1.353a4.274,4.274,0,0,0,.679-7.349M33.838,77.076C25.1,82.113,16.368,87.148,7.321,92.363c1.1-3.176,2.09-6.057,3.1-8.929,2-5.679,4.037-11.348,6.02-17.034.311-.893.617-1.445,1.736-1.574,1.388-.16,2.567-1.079,3.831-1.686,1.447-.7,2.031-.43,2.536,1.1.276.838.568,1.674.772,2.531a4.382,4.382,0,0,0,7.872,1.6c.378-.468.752-.939,1.368-1.709,0,3.407-.007,6.457.006,9.507,0,.532-.371.7-.727.905M64.607,91.571a2.572,2.572,0,0,1,.006.632L38.4,77.1c-.406-.234-.782-.442-.776-1.041.026-3.006.012-6.012.012-9.352.728.875,1.205,1.525,1.76,2.1a4.325,4.325,0,0,0,7.382-1.687c.342-1.034.642-2.083.928-3.135.351-1.291,1.107-1.48,2.248-.958,1.593.729,3.03,1.864,4.886,1.93.478.017.553.45.663.762q4.569,12.921,9.105,25.854M69,38.834c-.12.887-.872,1.074-1.561,1.332-.827.309-1.651.628-2.462.977a4.264,4.264,0,0,0-2.024,6.46c.516.843,1.1,1.643,1.622,2.484.864,1.4.372,2.305-1.257,2.341-.626.013-1.253,0-1.88,0a6.662,6.662,0,0,0-3.245.207,4.354,4.354,0,0,0-2.61,4.547c.093.928.362,1.837.525,2.76.1.56.221,1.115-.371,1.557a1.526,1.526,0,0,1-1.745.159c-.977-.486-1.95-.982-2.939-1.441a4.263,4.263,0,0,0-6.207,2.7c-.332,1.04-.555,2.117-.925,3.142-.485,1.345-1.544,1.524-2.495.442-.55-.626-1.014-1.326-1.531-1.981-2.252-2.851-5.365-2.83-7.618.05-.418.535-.827,1.076-1.234,1.619s-.843,1.085-1.653.96c-.91-.141-1.067-.9-1.279-1.59-.258-.845-.464-1.706-.727-2.549a4.345,4.345,0,0,0-6.205-2.8c-1,.441-1.971.938-2.944,1.431a1.461,1.461,0,0,1-1.617-.042,1.477,1.477,0,0,1-.55-1.667c.177-.867.413-1.726.53-2.6A4.477,4.477,0,0,0,12.13,52.11c-1.092-.029-2.187.165-3.282.174-1.525.013-2.065-.95-1.28-2.243.541-.89,1.169-1.729,1.706-2.621a4.284,4.284,0,0,0-2.032-6.368c-1.047-.458-2.154-.778-3.2-1.242-1.316-.586-1.392-1.643-.2-2.475.811-.564,1.679-1.045,2.5-1.6a4.3,4.3,0,0,0,.688-7.049c-.707-.694-1.49-1.316-2.158-2.045-.933-1.017-.517-2.146.85-2.388.923-.163,1.854-.281,2.784-.395a4.35,4.35,0,0,0,3.775-5.771c-.306-.989-.773-1.927-1.11-2.908-.471-1.372.182-2.19,1.611-1.955.97.159,1.908.506,2.866.748,3.19.8,5.457-.747,5.848-4.031.117-.983.093-1.982.178-2.969A1.387,1.387,0,0,1,24,5.865c.856.592,1.617,1.318,2.443,1.957a4.359,4.359,0,0,0,6.771-1.4c.431-.77.789-1.584,1.242-2.34a1.638,1.638,0,0,1,3.051.007c.492.858.912,1.757,1.4,2.614A4.291,4.291,0,0,0,45.576,8c.783-.608,1.514-1.283,2.3-1.88,1.331-1.005,2.406-.526,2.559,1.15.081.882.037,1.775.074,2.662a4.422,4.422,0,0,0,5.72,4.249c.9-.238,1.81-.478,2.7-.759a1.6,1.6,0,0,1,1.749.271c.606.584.36,1.254.125,1.89-.324.877-.745,1.72-1.036,2.607a4.211,4.211,0,0,0,3.368,5.731c1.021.2,2.053.373,3.088.482a1.507,1.507,0,0,1,1.443.993c.221.638-.147,1.089-.59,1.5-.766.709-1.547,1.4-2.275,2.152a4.291,4.291,0,0,0,.6,6.661c.72.51,1.511.92,2.245,1.412.629.421,1.479.714,1.344,1.719" transform="translate(0 0)" fill="#9eb3cf" stroke="rgba(0,0,0,0)" stroke-width="1"/>
    <path id="Path_7185" data-name="Path 7185" d="M65.491,39.742A22.641,22.641,0,1,0,88.182,62.364,22.61,22.61,0,0,0,65.491,39.742m.1,42.192A19.6,19.6,0,1,1,85.157,62.371,19.515,19.515,0,0,1,65.593,81.934" transform="translate(-29.449 -27.275)" fill="#9eb3cf" stroke="rgba(0,0,0,0)" stroke-width="1"/>
    <path id="Path_7186" data-name="Path 7186" d="M82.825,64.976A14.751,14.751,0,1,0,97.542,79.7,14.737,14.737,0,0,0,82.825,64.976m-.077,26.406A11.7,11.7,0,1,1,94.473,79.7,11.639,11.639,0,0,1,82.748,91.382" transform="translate(-46.689 -44.593)" fill="#9eb3cf" stroke="rgba(0,0,0,0)" stroke-width="1"/>
    <path id="Path_7187" data-name="Path 7187" d="M105.846,95.539a2.215,2.215,0,0,1-.81,1.463c-2.54,2.48-5.086,4.954-7.6,7.462a1.77,1.77,0,0,1-2.934-.017c-1.148-1.213-2.349-2.375-3.53-3.557a1.528,1.528,0,1,1,2.115-2.178c.752.725,1.529,1.432,2.207,2.222.568.661.905.506,1.447-.045,2.051-2.083,4.164-4.1,6.235-6.168a1.715,1.715,0,0,1,1.969-.552,1.534,1.534,0,0,1,.9,1.37" transform="translate(-62.004 -64.541)" fill="#9eb3cf" stroke="rgba(0,0,0,0)" stroke-width="1"/>
  </g>
</svg>
