<svg id="Group_2304" data-name="Group 2304" xmlns="http://www.w3.org/2000/svg" xmlns:xlink="http://www.w3.org/1999/xlink" width="89.223" height="89.275" viewBox="0 0 89.223 89.275">
  <defs>
    <clipPath id="clip-path">
      <rect id="Rectangle_710" data-name="Rectangle 710" width="89.223" height="89.275" rx="7" fill="#9eb3cf" stroke="rgba(0,0,0,0)" stroke-width="1"/>
    </clipPath>
  </defs>
  <g id="Group_2303" data-name="Group 2303" clip-path="url(#clip-path)">
    <path id="Path_7217" data-name="Path 7217" d="M80.263,212.5a7.288,7.288,0,0,0,5.876-7.238,51.7,51.7,0,0,0-.13-7.26,10.206,10.206,0,0,0-10.258-9.033c-3.806-.1-7.617-.009-11.425-.031-.9-.005-1.245.159-.894,1.187a11.218,11.218,0,0,1,.464,3.657c-.012,4.65,0,9.3-.007,13.95-.012,4.835-2.991,7.866-7.822,7.914-1.313.013-3.064.574-3.817-.25-.652-.713-.223-2.438-.225-3.716-.01-6.184.042-12.367-.042-18.55-.018-1.355.665-1.217,1.531-1.229.9-.013,1.529-.076,1.511,1.249-.085,6.034.01,12.07-.074,18.1-.018,1.321.413,1.538,1.578,1.449a4.408,4.408,0,0,0,4.385-4.61q.047-7.2.005-14.395a10.364,10.364,0,0,0-10.386-10.664q-5.856-.165-11.721,0c-6.261.168-10.507,4.578-10.532,10.814q-.027,6.974,0,13.95c.008,3.125,1.775,4.853,4.838,4.92.957.021,1.12-.293,1.114-1.166-.037-6.084.023-12.169-.055-18.253-.016-1.265.437-1.431,1.51-1.415,1.029.015,1.546.088,1.531,1.4q-.119,10.535,0,21.072c.012,1.186-.367,1.413-1.412,1.328-1.131-.092-2.275,0-3.41-.055-3.734-.19-6.878-2.866-6.982-6.558a141.553,141.553,0,0,1,.178-18.08c.2-2.049.294-2.04-1.9-2.04-3.165,0-6.331-.008-9.5,0-6.756.02-11.14,4.392-11.141,11.116a48.075,48.075,0,0,0,.1,6.224c.433,3.3,2.476,5.343,5.83,6.3,0-4.991.049-9.869-.033-14.745-.022-1.273.355-1.545,1.56-1.527,1.133.017,1.493.265,1.473,1.462-.077,4.55,0,9.1-.057,13.652-.014,1.052.283,1.3,1.307,1.283,3.659-.065,7.321.041,10.979-.06,1.363-.038,1.1.757,1.087,1.5-.015.7.363,1.556-1.029,1.531-4.648-.081-9.3.04-13.947-.054A10.212,10.212,0,0,1,.1,205.185c0-3.1-.429-6.251.463-9.293a13.175,13.175,0,0,1,12.884-9.879c4.4-.078,8.8-.208,13.2.121a1.333,1.333,0,0,0,1.335-.641,13.141,13.141,0,0,1,11.122-5.44c4.2,0,8.412-.073,12.606.131a12.2,12.2,0,0,1,9.317,5.072,2.035,2.035,0,0,0,1.961.846c5.183-.093,10.41-.642,15.539.277a12.861,12.861,0,0,1,10.52,11.98,38.274,38.274,0,0,1-.163,8.879,10,10,0,0,1-9.415,8.356c-4.892.145-9.792.025-14.688.089-1.389.018-.835-.929-.864-1.52-.031-.63-.416-1.514.918-1.49,3.709.065,7.419-.016,11.128.048,1.02.018,1.324-.224,1.31-1.281-.062-4.6.045-9.2-.068-13.8-.036-1.47.732-1.225,1.628-1.294,1.071-.083,1.432.191,1.413,1.354-.077,4.648-.032,9.3-.03,13.949,0,.279.03.559.047.853" transform="translate(0 -126.572)" fill="#9eb3cf" stroke="rgba(0,0,0,0)" stroke-width="1"/>
    <path id="Path_7218" data-name="Path 7218" d="M15.238,40.107c0-1.385-.018-2.77,0-4.154a4.469,4.469,0,0,1,4.6-4.73c1.482-.058,2.969-.054,4.45,0a1.276,1.276,0,0,0,1.508-1,25.13,25.13,0,0,1,1.638-3.946,1.222,1.222,0,0,0-.332-1.757c-1.119-1.047-2.2-2.135-3.249-3.253a4.341,4.341,0,0,1,.04-6.355c2.025-2.1,4.08-4.169,6.182-6.189a4.379,4.379,0,0,1,6.371.017c1.156,1.079,2.282,2.194,3.36,3.35a1.027,1.027,0,0,0,1.5.259,20.18,20.18,0,0,1,4.212-1.771,1.059,1.059,0,0,0,.9-1.237c-.067-1.53-.039-3.066-.016-4.6A4.376,4.376,0,0,1,50.756.085c3.012-.114,6.035-.11,9.047,0A4.387,4.387,0,0,1,64.2,4.7c.026,1.434.065,2.872-.016,4.3-.052.924.161,1.446,1.142,1.662a13.246,13.246,0,0,1,2.349.874c2.547,1.1,2.543,1.109,4.545-.89.665-.663,1.312-1.346,2.005-1.979a4.347,4.347,0,0,1,6.154-.072c2.231,2.1,4.393,4.274,6.5,6.5a4.3,4.3,0,0,1-.007,6.032C85.74,22.36,84.527,23.529,83.32,24.7a1.015,1.015,0,0,0-.235,1.4,41.166,41.166,0,0,1,1.761,4.217,1.125,1.125,0,0,0,1.273.905c1.482-.045,2.967-.043,4.45-.007a4.5,4.5,0,0,1,4.8,4.84c.018,2.819.029,5.638-.006,8.457a4.466,4.466,0,0,1-3.153,4.36c-.794.208-1.474.26-1.307-.963.118-.865-.247-1.828.987-2.271.516-.185.521-.891.519-1.454-.009-2.671-.029-5.342.007-8.012a1.713,1.713,0,0,0-1.969-2c-2.127,0-4.255-.048-6.379.023-.926.031-1.257-.284-1.477-1.169a24.6,24.6,0,0,0-3.1-7.315,1.048,1.048,0,0,1,.21-1.6c1.547-1.455,3.023-2.986,4.515-4.5,1.175-1.191,1.184-1.815.031-2.982q-2.709-2.743-5.446-5.457c-1.162-1.149-1.717-1.153-2.865-.026-1.517,1.49-3.052,2.964-4.494,4.524a1.213,1.213,0,0,1-1.861.206,23.206,23.206,0,0,0-7.334-3.037c-.9-.2-1.041-.609-1.025-1.4.045-2.126.029-4.253.011-6.38-.013-1.548-.478-2.025-2.049-2.04-2.621-.026-5.242,0-7.863-.008a1.711,1.711,0,0,0-1.965,2c.039,2.175-.02,4.353.027,6.528.016.768-.183,1.094-.989,1.28a23.37,23.37,0,0,0-7.334,3.039,1.291,1.291,0,0,1-1.972-.295c-1.411-1.522-2.913-2.96-4.4-4.412-1.156-1.131-1.717-1.13-2.872.01-1.863,1.841-3.687,3.722-5.563,5.55a1.683,1.683,0,0,0,0,2.782c1.555,1.52,3.055,3.1,4.629,4.6.549.522.717.895.261,1.6A24.184,24.184,0,0,0,28,33.14c-.211.87-.593,1.077-1.418,1.056-2.076-.054-4.154-.033-6.23-.013-1.679.016-2.138.467-2.147,2.094-.014,2.621,0,5.242-.007,7.864,0,.559-.027,1.281.485,1.468,1.3.474.924,1.488,1.018,2.407.1.961-.351,1.058-1.117.9a4.486,4.486,0,0,1-3.335-4.21c-.052-1.531-.01-3.066-.012-4.6" transform="translate(-10.703 0)" fill="#9eb3cf" stroke="rgba(0,0,0,0)" stroke-width="1"/>
    <path id="Path_7219" data-name="Path 7219" d="M101.286,65.153c10.289.567,18.093,7.172,20.13,16.776.133.626.157,1.274.244,1.91.288,2.108.257,2.063-1.836,2.114-1.073.026-1.009-.515-1.07-1.248a17.806,17.806,0,0,0-34.563-4.667,16.416,16.416,0,0,0-.974,4.916c-.088,1.879-1.456.718-2.2.93-.981.278-.788-.554-.768-1.111A20.874,20.874,0,0,1,95.057,66.032a22.781,22.781,0,0,1,6.229-.878" transform="translate(-56.395 -45.805)" fill="#9eb3cf" stroke="rgba(0,0,0,0)" stroke-width="1"/>
    <path id="Path_7220" data-name="Path 7220" d="M135.949,292.94c-1.627,0-3.259-.077-4.88.027-1.069.068-1.175-.488-1.012-1.227.143-.649-.67-1.8.912-1.786q5.029.053,10.059,0c1.5-.015.753,1.075.855,1.688s.288,1.391-.906,1.322c-1.671-.1-3.352-.024-5.028-.024" transform="translate(-91.375 -203.846)" fill="#9eb3cf" stroke="rgba(0,0,0,0)" stroke-width="1"/>
    <path id="Path_7221" data-name="Path 7221" d="M129.064,115.141a8.96,8.96,0,0,0-8.85,9.042,8.9,8.9,0,0,0,17.8-.248,8.96,8.96,0,0,0-8.947-8.794m.1,14.81a5.873,5.873,0,0,1-5.981-5.843,5.932,5.932,0,1,1,11.863-.1,5.87,5.87,0,0,1-5.882,5.942" transform="translate(-84.514 -80.947)" fill="#9eb3cf" stroke="rgba(0,0,0,0)" stroke-width="1"/>
    <path id="Path_7222" data-name="Path 7222" d="M44.181,135.133a8.964,8.964,0,0,0-8.916,8.828,8.9,8.9,0,1,0,17.8.032,8.958,8.958,0,0,0-8.882-8.86m.053,14.81a5.874,5.874,0,0,1-6-5.823,5.932,5.932,0,1,1,11.862-.14,5.872,5.872,0,0,1-5.861,5.963" transform="translate(-24.792 -95.002)" fill="#9eb3cf" stroke="rgba(0,0,0,0)" stroke-width="1"/>
    <path id="Path_7223" data-name="Path 7223" d="M214.031,135.133a8.963,8.963,0,0,0-8.869,9.024,8.9,8.9,0,0,0,17.8-.211,8.96,8.96,0,0,0-8.928-8.813m.042,14.81a5.869,5.869,0,0,1-5.944-5.881,5.932,5.932,0,1,1,11.864-.024,5.873,5.873,0,0,1-5.92,5.9" transform="translate(-144.235 -95.002)" fill="#9eb3cf" stroke="rgba(0,0,0,0)" stroke-width="1"/>
  </g>
</svg>
