<svg xmlns="http://www.w3.org/2000/svg" width="98.324" height="98.31" viewBox="0 0 98.324 98.31">
  <g id="fa0c8900d5ef92d7d3e68e059179470f" transform="translate(-1 -1.007)">
    <path id="Path_7235" data-name="Path 7235" d="M99.083,45.208l-8.749-2.892a40.513,40.513,0,0,0-1.463-5.475l6.143-6.889-.6-1.235a49.536,49.536,0,0,0-3.577-6.18l-.77-1.133-8.995,1.872a41.624,41.624,0,0,0-4.031-4.033l1.87-8.995-1.133-.77A49.275,49.275,0,0,0,71.595,5.9l-1.233-.6-6.885,6.143A40.845,40.845,0,0,0,58,9.985L55.109,1.236l-1.366-.1a49.739,49.739,0,0,0-7.161,0l-1.366.1L42.323,9.985a40.926,40.926,0,0,0-5.475,1.463L29.959,5.3l-1.235.6a49.536,49.536,0,0,0-6.18,3.577l-1.131.77,1.872,8.995a41.624,41.624,0,0,0-4.033,4.031l-8.993-1.872-.77,1.133a49.274,49.274,0,0,0-3.577,6.184l-.6,1.233,6.139,6.885a40.844,40.844,0,0,0-1.463,5.475L1.244,45.208l-.1,1.366C1.057,47.76,1,48.948,1,50.155s.057,2.395.143,3.581l.1,1.366,8.749,2.892a40.517,40.517,0,0,0,1.463,5.475L5.31,70.358l.6,1.235a49.536,49.536,0,0,0,3.577,6.18l.77,1.133,8.995-1.872a41.622,41.622,0,0,0,4.031,4.033l-1.87,8.995,1.133.77a49.276,49.276,0,0,0,6.184,3.577l1.233.6,6.887-6.139a40.846,40.846,0,0,0,5.475,1.463l2.892,8.749,1.366.1c1.184.084,2.372.141,3.579.141s2.395-.057,3.581-.143l1.366-.1L58,90.326a40.518,40.518,0,0,0,5.475-1.463l6.889,6.143,1.235-.6a49.535,49.535,0,0,0,6.18-3.577l1.133-.77-1.872-8.995a41.624,41.624,0,0,0,4.033-4.031L90.07,78.9l.77-1.133a49.275,49.275,0,0,0,3.577-6.184l.6-1.233L88.869,63.47a40.928,40.928,0,0,0,1.463-5.475L99.081,55.1l.1-1.366c.088-1.186.145-2.374.145-3.581s-.057-2.395-.143-3.581l-.1-1.366Zm-3.9,6.868-8.47,2.8-.2,1.227A36.537,36.537,0,0,1,84.613,63.2l-.438,1.159,5.936,6.661c-.588,1.127-1.231,2.235-1.917,3.312l-8.7-1.811-.787.963A37.314,37.314,0,0,1,73.486,78.7l-.963.787,1.813,8.7q-1.613,1.026-3.312,1.919l-6.661-5.94-1.161.442A36.6,36.6,0,0,1,56.109,86.5l-1.227.2-2.8,8.47c-1.272.063-2.573.063-3.845,0l-2.8-8.47-1.227-.2a36.4,36.4,0,0,1-7.092-1.895l-1.161-.44-6.661,5.938q-1.7-.887-3.312-1.917l1.811-8.7-.963-.787a37.312,37.312,0,0,1-5.219-5.221l-.787-.963-8.7,1.813q-1.028-1.616-1.919-3.312l5.94-6.661L15.7,63.2A36.6,36.6,0,0,1,13.811,56.1l-.2-1.227-8.47-2.8q-.09-1.92.006-3.843l8.47-2.8.2-1.227a36.4,36.4,0,0,1,1.895-7.092l.44-1.161-5.938-6.661c.588-1.127,1.231-2.235,1.917-3.312l8.7,1.811.787-.963a37.312,37.312,0,0,1,5.221-5.219l.963-.787-1.813-8.7Q27.6,11.094,29.3,10.2l6.661,5.938,1.159-.438a36.681,36.681,0,0,1,7.094-1.895l1.227-.2,2.8-8.47q1.921-.1,3.845,0l2.8,8.47,1.227.2A36.4,36.4,0,0,1,63.207,15.7l1.161.44L71.029,10.2c1.127.588,2.235,1.231,3.312,1.917l-1.811,8.7.963.787a37.312,37.312,0,0,1,5.219,5.221l.787.963,8.7-1.813q1.026,1.613,1.919,3.312l-5.94,6.661.442,1.161a36.6,36.6,0,0,1,1.893,7.092l.2,1.227,8.47,2.8q.09,1.92-.006,3.843Z" transform="translate(0 0)" fill="#9eb3cf"/>
    <path id="Path_7236" data-name="Path 7236" d="M34.888,11.006A20.743,20.743,0,0,0,15.012,30.828a20.382,20.382,0,0,0,7.063,16.119A14.732,14.732,0,0,1,27.29,58.111V68.354h6.145v4.1h4.1v-4.1h6.145V57.972A14.966,14.966,0,0,1,49,46.853,20.475,20.475,0,0,0,34.888,11.006Zm4.693,53.251H31.387v-4.1h8.194ZM46.3,43.772a19.342,19.342,0,0,0-6.6,12.291H37.532V36.427l5.545-5.545-2.9-2.9-4.7,4.7-4.7-4.7-2.9,2.9,5.545,5.545V56.063H31.285a18.914,18.914,0,0,0-6.53-12.213A16.31,16.31,0,0,1,19.1,30.955,16.588,16.588,0,0,1,35,15.1,16.384,16.384,0,0,1,51.871,31.482,16.355,16.355,0,0,1,46.3,43.772Z" transform="translate(14.678 10.479)" fill="#9eb3cf"/>
  </g>
</svg>
