<svg xmlns="http://www.w3.org/2000/svg" xmlns:xlink="http://www.w3.org/1999/xlink" width="219" height="405" viewBox="0 0 219 405">
  <defs>
    <clipPath id="clip-path">
      <rect id="Rectangle_7963" data-name="Rectangle 7963" width="219" height="405" transform="translate(0 3602)" fill="#fff" stroke="#707070" stroke-width="1"/>
    </clipPath>
    <clipPath id="clip-path-2">
      <rect id="Rectangle_7506" data-name="Rectangle 7506" width="593.336" height="240.416" fill="#fff" stroke="#fff" stroke-width="1"/>
    </clipPath>
  </defs>
  <g id="Mask_Group_183" data-name="Mask Group 183" transform="translate(0 -3602)" clip-path="url(#clip-path)">
    <g id="_158729168_f16113ba-09c8-47d4-88fd-75a98c891caf" data-name="158729168_f16113ba-09c8-47d4-88fd-75a98c891caf" transform="translate(-48.795 4208.293) rotate(-90)" opacity="0.3">
      <g id="Group_18725" data-name="Group 18725">
        <g id="Group_18724" data-name="Group 18724" clip-path="url(#clip-path-2)">
          <path id="Path_10890" data-name="Path 10890" d="M.845,2.335A1.179,1.179,0,0,1,.019.954,1.057,1.057,0,0,1,1.242.022,1.179,1.179,0,0,1,2.068,1.4,1.057,1.057,0,0,1,.845,2.335Z" transform="translate(33.233 -8.983)" fill="#fff" stroke="#fff" stroke-width="1"/>
          <path id="Path_10891" data-name="Path 10891" d="M.872,2.409A1.216,1.216,0,0,1,.02.984,1.09,1.09,0,0,1,1.282.022a1.216,1.216,0,0,1,.852,1.424A1.091,1.091,0,0,1,.872,2.409Z" transform="translate(21.643 -4.309)" fill="#fff" stroke="#fff" stroke-width="1"/>
          <path id="Path_10892" data-name="Path 10892" d="M.912,2.52A1.272,1.272,0,0,1,.021,1.03,1.141,1.141,0,0,1,1.341.023a1.272,1.272,0,0,1,.892,1.49A1.141,1.141,0,0,1,.912,2.52Z" transform="translate(13.238 -2.478)" fill="#fff" stroke="#fff" stroke-width="1"/>
          <path id="Path_10893" data-name="Path 10893" d="M.939,2.594A1.31,1.31,0,0,1,.021,1.06,1.174,1.174,0,0,1,1.38.024,1.31,1.31,0,0,1,2.3,1.558,1.175,1.175,0,0,1,.939,2.594Z" transform="translate(8.398 -3.413)" fill="#fff" stroke="#fff" stroke-width="1"/>
          <path id="Path_10894" data-name="Path 10894" d="M.792,2.187A1.1,1.1,0,0,1,.018.894.99.99,0,0,1,1.163.02a1.1,1.1,0,0,1,.774,1.293A.99.99,0,0,1,.792,2.187Z" transform="translate(78.418 -3.979)" fill="#fff" stroke="#fff" stroke-width="1"/>
          <path id="Path_10895" data-name="Path 10895" d="M.819,2.261A1.142,1.142,0,0,1,.019.924,1.024,1.024,0,0,1,1.2.021,1.141,1.141,0,0,1,2,1.358,1.024,1.024,0,0,1,.819,2.261Z" transform="translate(63.343 6.447)" fill="#fff" stroke="#fff" stroke-width="1"/>
          <path id="Path_10896" data-name="Path 10896" d="M.845,2.335A1.179,1.179,0,0,1,.019.954,1.057,1.057,0,0,1,1.242.022,1.179,1.179,0,0,1,2.069,1.4,1.057,1.057,0,0,1,.845,2.335Z" transform="translate(49.402 14.797)" fill="#fff" stroke="#fff" stroke-width="1"/>
          <path id="Path_10897" data-name="Path 10897" d="M.872,2.409A1.216,1.216,0,0,1,.02.984,1.091,1.091,0,0,1,1.282.022a1.216,1.216,0,0,1,.852,1.424A1.091,1.091,0,0,1,.872,2.409Z" transform="translate(37.781 20.341)" fill="#fff" stroke="#fff" stroke-width="1"/>
          <path id="Path_10898" data-name="Path 10898" d="M.9,2.483A1.254,1.254,0,0,1,.02,1.015a1.124,1.124,0,0,1,1.3-.992A1.254,1.254,0,0,1,2.2,1.491,1.124,1.124,0,0,1,.9,2.483Z" transform="translate(29.307 22.686)" fill="#fff" stroke="#fff" stroke-width="1"/>
          <path id="Path_10899" data-name="Path 10899" d="M.939,2.594A1.31,1.31,0,0,1,.021,1.06,1.174,1.174,0,0,1,1.38.024,1.31,1.31,0,0,1,2.3,1.558,1.175,1.175,0,0,1,.939,2.594Z" transform="translate(24.337 21.802)" fill="#fff" stroke="#fff" stroke-width="1"/>
          <path id="Path_10900" data-name="Path 10900" d="M.765,2.112A1.067,1.067,0,0,1,.017.863.956.956,0,0,1,1.124.02a1.067,1.067,0,0,1,.747,1.249A.957.957,0,0,1,.765,2.112Z" transform="translate(110.309 3.328)" fill="#fff" stroke="#fff" stroke-width="1"/>
          <path id="Path_10901" data-name="Path 10901" d="M.792,2.187A1.1,1.1,0,0,1,.018.894.99.99,0,0,1,1.163.02a1.1,1.1,0,0,1,.774,1.293A.99.99,0,0,1,.792,2.187Z" transform="translate(95.552 16.337)" fill="#fff" stroke="#fff" stroke-width="1"/>
          <path id="Path_10902" data-name="Path 10902" d="M.819,2.261A1.142,1.142,0,0,1,.019.924,1.024,1.024,0,0,1,1.2.021,1.142,1.142,0,0,1,2,1.358,1.024,1.024,0,0,1,.819,2.261Z" transform="translate(80.696 28.144)" fill="#fff" stroke="#fff" stroke-width="1"/>
          <path id="Path_10903" data-name="Path 10903" d="M.845,2.335A1.179,1.179,0,0,1,.019.954,1.057,1.057,0,0,1,1.242.022,1.179,1.179,0,0,1,2.068,1.4,1.057,1.057,0,0,1,.845,2.335Z" transform="translate(66.887 37.685)" fill="#fff" stroke="#fff" stroke-width="1"/>
          <path id="Path_10904" data-name="Path 10904" d="M.872,2.409A1.216,1.216,0,0,1,.02.984,1.091,1.091,0,0,1,1.282.022a1.216,1.216,0,0,1,.852,1.424A1.091,1.091,0,0,1,.872,2.409Z" transform="translate(55.3 44.112)" fill="#fff" stroke="#fff" stroke-width="1"/>
          <path id="Path_10905" data-name="Path 10905" d="M.912,2.52A1.272,1.272,0,0,1,.021,1.03,1.141,1.141,0,0,1,1.341.023a1.272,1.272,0,0,1,.892,1.49A1.141,1.141,0,0,1,.912,2.52Z" transform="translate(46.758 46.941)" fill="#fff" stroke="#fff" stroke-width="1"/>
          <path id="Path_10906" data-name="Path 10906" d="M.939,2.594A1.31,1.31,0,0,1,.021,1.06,1.175,1.175,0,0,1,1.38.024,1.31,1.31,0,0,1,2.3,1.558,1.175,1.175,0,0,1,.939,2.594Z" transform="translate(41.724 46.154)" fill="#fff" stroke="#fff" stroke-width="1"/>
          <path id="Path_10907" data-name="Path 10907" d="M.738,2.038A1.029,1.029,0,0,1,.017.833.923.923,0,0,1,1.084.019a1.029,1.029,0,0,1,.721,1.205A.923.923,0,0,1,.738,2.038Z" transform="translate(152.932 -7.552)" fill="#fff" stroke="#fff" stroke-width="1"/>
          <path id="Path_10908" data-name="Path 10908" d="M.751,2.075A1.048,1.048,0,0,1,.017.848.94.94,0,0,1,1.1.019a1.048,1.048,0,0,1,.734,1.227A.94.94,0,0,1,.751,2.075Z" transform="translate(141.399 6.444)" fill="#fff" stroke="#fff" stroke-width="1"/>
          <path id="Path_10909" data-name="Path 10909" d="M.765,2.112A1.067,1.067,0,0,1,.017.863.956.956,0,0,1,1.124.02a1.067,1.067,0,0,1,.747,1.249A.956.956,0,0,1,.765,2.112Z" transform="translate(128.145 21.13)" fill="#fff" stroke="#fff" stroke-width="1"/>
          <path id="Path_10910" data-name="Path 10910" d="M.792,2.187A1.1,1.1,0,0,1,.018.894.99.99,0,0,1,1.163.02a1.1,1.1,0,0,1,.774,1.293A.99.99,0,0,1,.792,2.187Z" transform="translate(113.775 35.614)" fill="#fff" stroke="#fff" stroke-width="1"/>
          <path id="Path_10911" data-name="Path 10911" d="M.805,2.224A1.123,1.123,0,0,1,.018.909,1.007,1.007,0,0,1,1.183.021,1.123,1.123,0,0,1,1.97,1.335,1.007,1.007,0,0,1,.805,2.224Z" transform="translate(99.252 48.842)" fill="#fff" stroke="#fff" stroke-width="1"/>
          <path id="Path_10912" data-name="Path 10912" d="M.845,2.335A1.179,1.179,0,0,1,.019.954,1.057,1.057,0,0,1,1.242.022,1.179,1.179,0,0,1,2.068,1.4,1.057,1.057,0,0,1,.845,2.335Z" transform="translate(85.658 59.577)" fill="#fff" stroke="#fff" stroke-width="1"/>
          <path id="Path_10913" data-name="Path 10913" d="M.872,2.409A1.216,1.216,0,0,1,.02.985,1.091,1.091,0,0,1,1.282.022a1.216,1.216,0,0,1,.852,1.424A1.091,1.091,0,0,1,.872,2.409Z" transform="translate(74.186 66.905)" fill="#fff" stroke="#fff" stroke-width="1"/>
          <path id="Path_10914" data-name="Path 10914" d="M.912,2.52A1.272,1.272,0,0,1,.021,1.03,1.141,1.141,0,0,1,1.341.023a1.272,1.272,0,0,1,.892,1.49A1.141,1.141,0,0,1,.912,2.52Z" transform="translate(65.636 70.266)" fill="#fff" stroke="#fff" stroke-width="1"/>
          <path id="Path_10915" data-name="Path 10915" d="M.939,2.594A1.31,1.31,0,0,1,.021,1.06,1.175,1.175,0,0,1,1.38.024,1.31,1.31,0,0,1,2.3,1.558,1.175,1.175,0,0,1,.939,2.594Z" transform="translate(60.521 69.556)" fill="#fff" stroke="#fff" stroke-width="1"/>
          <path id="Path_10916" data-name="Path 10916" d="M.738,2.038A1.029,1.029,0,0,1,.017.833.923.923,0,0,1,1.084.019a1.029,1.029,0,0,1,.721,1.205A.923.923,0,0,1,.738,2.038Z" transform="translate(179.789 -7.719)" fill="#fff" stroke="#fff" stroke-width="1"/>
          <path id="Path_10917" data-name="Path 10917" d="M.738,2.038A1.029,1.029,0,0,1,.017.833.923.923,0,0,1,1.084.019a1.029,1.029,0,0,1,.721,1.205A.923.923,0,0,1,.738,2.038Z" transform="translate(170.703 6.294)" fill="#fff" stroke="#fff" stroke-width="1"/>
          <path id="Path_10918" data-name="Path 10918" d="M.752,2.075A1.048,1.048,0,0,1,.017.848.939.939,0,0,1,1.1.019a1.048,1.048,0,0,1,.734,1.227A.939.939,0,0,1,.752,2.075Z" transform="translate(159.646 21.65)" fill="#fff" stroke="#fff" stroke-width="1"/>
          <path id="Path_10919" data-name="Path 10919" d="M.765,2.112A1.067,1.067,0,0,1,.017.863.956.956,0,0,1,1.124.02a1.067,1.067,0,0,1,.748,1.249A.957.957,0,0,1,.765,2.112Z" transform="translate(146.897 37.819)" fill="#fff" stroke="#fff" stroke-width="1"/>
          <path id="Path_10920" data-name="Path 10920" d="M.778,2.15A1.085,1.085,0,0,1,.018.879.973.973,0,0,1,1.144.02,1.086,1.086,0,0,1,1.9,1.291.973.973,0,0,1,.778,2.15Z" transform="translate(133.032 53.8)" fill="#fff" stroke="#fff" stroke-width="1"/>
          <path id="Path_10921" data-name="Path 10921" d="M.805,2.224A1.123,1.123,0,0,1,.018.909,1.007,1.007,0,0,1,1.183.021,1.123,1.123,0,0,1,1.97,1.335,1.007,1.007,0,0,1,.805,2.224Z" transform="translate(118.942 68.421)" fill="#fff" stroke="#fff" stroke-width="1"/>
          <path id="Path_10922" data-name="Path 10922" d="M.845,2.335A1.179,1.179,0,0,1,.019.954,1.057,1.057,0,0,1,1.242.022,1.179,1.179,0,0,1,2.068,1.4,1.057,1.057,0,0,1,.845,2.335Z" transform="translate(105.692 80.393)" fill="#fff" stroke="#fff" stroke-width="1"/>
          <path id="Path_10923" data-name="Path 10923" d="M.872,2.409A1.216,1.216,0,0,1,.02.984,1.091,1.091,0,0,1,1.282.022a1.216,1.216,0,0,1,.853,1.424A1.091,1.091,0,0,1,.872,2.409Z" transform="translate(94.398 88.655)" fill="#fff" stroke="#fff" stroke-width="1"/>
          <path id="Path_10924" data-name="Path 10924" d="M.913,2.52A1.273,1.273,0,0,1,.021,1.03,1.141,1.141,0,0,1,1.341.023a1.273,1.273,0,0,1,.892,1.49A1.141,1.141,0,0,1,.913,2.52Z" transform="translate(85.91 92.544)" fill="#fff" stroke="#fff" stroke-width="1"/>
          <path id="Path_10925" data-name="Path 10925" d="M.724,2A1.01,1.01,0,0,1,.016.818a.906.906,0,0,1,1.048-.8A1.01,1.01,0,0,1,1.773,1.2.907.907,0,0,1,.724,2Z" transform="translate(197.685 3.75)" fill="#fff" stroke="#fff" stroke-width="1"/>
          <path id="Path_10926" data-name="Path 10926" d="M.738,2.038A1.029,1.029,0,0,1,.017.833.923.923,0,0,1,1.084.019a1.029,1.029,0,0,1,.721,1.205A.923.923,0,0,1,.738,2.038Z" transform="translate(189.098 18.962)" fill="#fff" stroke="#fff" stroke-width="1"/>
          <path id="Path_10927" data-name="Path 10927" d="M.738,2.038A1.029,1.029,0,0,1,.017.833.923.923,0,0,1,1.084.019a1.029,1.029,0,0,1,.721,1.205A.923.923,0,0,1,.738,2.038Z" transform="translate(178.646 35.723)" fill="#fff" stroke="#fff" stroke-width="1"/>
          <path id="Path_10928" data-name="Path 10928" d="M.752,2.075A1.048,1.048,0,0,1,.017.848.94.94,0,0,1,1.1.019a1.048,1.048,0,0,1,.734,1.227A.939.939,0,0,1,.752,2.075Z" transform="translate(166.529 53.324)" fill="#fff" stroke="#fff" stroke-width="1"/>
          <path id="Path_10929" data-name="Path 10929" d="M.778,2.15A1.085,1.085,0,0,1,.018.879.973.973,0,0,1,1.144.02,1.085,1.085,0,0,1,1.9,1.291.973.973,0,0,1,.778,2.15Z" transform="translate(153.286 70.778)" fill="#fff" stroke="#fff" stroke-width="1"/>
          <path id="Path_10930" data-name="Path 10930" d="M.805,2.224A1.123,1.123,0,0,1,.018.909,1.007,1.007,0,0,1,1.183.021,1.123,1.123,0,0,1,1.97,1.336,1.007,1.007,0,0,1,.805,2.224Z" transform="translate(139.766 86.801)" fill="#fff" stroke="#fff" stroke-width="1"/>
          <path id="Path_10931" data-name="Path 10931" d="M.845,2.335A1.179,1.179,0,0,1,.019.954,1.057,1.057,0,0,1,1.242.022,1.179,1.179,0,0,1,2.068,1.4,1.057,1.057,0,0,1,.845,2.335Z" transform="translate(126.962 100.012)" fill="#fff" stroke="#fff" stroke-width="1"/>
          <path id="Path_10932" data-name="Path 10932" d="M.872,2.409A1.216,1.216,0,0,1,.02.985,1.09,1.09,0,0,1,1.282.022a1.216,1.216,0,0,1,.852,1.424A1.09,1.09,0,0,1,.872,2.409Z" transform="translate(115.962 109.215)" fill="#fff" stroke="#fff" stroke-width="1"/>
          <path id="Path_10933" data-name="Path 10933" d="M.912,2.52A1.272,1.272,0,0,1,.021,1.03,1.141,1.141,0,0,1,1.341.023a1.272,1.272,0,0,1,.892,1.49A1.141,1.141,0,0,1,.912,2.52Z" transform="translate(107.57 113.621)" fill="#fff" stroke="#fff" stroke-width="1"/>
          <path id="Path_10934" data-name="Path 10934" d="M.725,2A1.011,1.011,0,0,1,.016.818a.906.906,0,0,1,1.048-.8A1.011,1.011,0,0,1,1.773,1.2.906.906,0,0,1,.725,2Z" transform="translate(222.129 -0.544)" fill="#fff" stroke="#fff" stroke-width="1"/>
          <path id="Path_10935" data-name="Path 10935" d="M.725,2A1.011,1.011,0,0,1,.016.818a.906.906,0,0,1,1.048-.8A1.011,1.011,0,0,1,1.773,1.2.906.906,0,0,1,.725,2Z" transform="translate(216.012 13.965)" fill="#fff" stroke="#fff" stroke-width="1"/>
          <path id="Path_10936" data-name="Path 10936" d="M.725,2A1.01,1.01,0,0,1,.016.818a.906.906,0,0,1,1.048-.8A1.01,1.01,0,0,1,1.773,1.2.906.906,0,0,1,.725,2Z" transform="translate(208.092 30.423)" fill="#fff" stroke="#fff" stroke-width="1"/>
          <path id="Path_10937" data-name="Path 10937" d="M.738,2.038A1.029,1.029,0,0,1,.017.833.923.923,0,0,1,1.085.019a1.029,1.029,0,0,1,.721,1.205A.923.923,0,0,1,.738,2.038Z" transform="translate(198.342 48.485)" fill="#fff" stroke="#fff" stroke-width="1"/>
          <path id="Path_10938" data-name="Path 10938" d="M.752,2.075A1.048,1.048,0,0,1,.017.848.939.939,0,0,1,1.1.019a1.048,1.048,0,0,1,.735,1.227A.94.94,0,0,1,.752,2.075Z" transform="translate(186.99 67.529)" fill="#fff" stroke="#fff" stroke-width="1"/>
          <path id="Path_10939" data-name="Path 10939" d="M.778,2.149A1.086,1.086,0,0,1,.018.878.973.973,0,0,1,1.144.02,1.085,1.085,0,0,1,1.9,1.291.973.973,0,0,1,.778,2.149Z" transform="translate(174.524 86.449)" fill="#fff" stroke="#fff" stroke-width="1"/>
          <path id="Path_10940" data-name="Path 10940" d="M.805,2.224A1.123,1.123,0,0,1,.018.909,1.007,1.007,0,0,1,1.183.021,1.123,1.123,0,0,1,1.97,1.336,1.007,1.007,0,0,1,.805,2.224Z" transform="translate(161.691 103.878)" fill="#fff" stroke="#fff" stroke-width="1"/>
          <path id="Path_10941" data-name="Path 10941" d="M.845,2.335A1.179,1.179,0,0,1,.019.954,1.057,1.057,0,0,1,1.242.022,1.179,1.179,0,0,1,2.068,1.4,1.057,1.057,0,0,1,.845,2.335Z" transform="translate(149.455 118.3)" fill="#fff" stroke="#fff" stroke-width="1"/>
          <path id="Path_10942" data-name="Path 10942" d="M.872,2.409A1.216,1.216,0,0,1,.02.984,1.091,1.091,0,0,1,1.282.022a1.217,1.217,0,0,1,.853,1.424A1.091,1.091,0,0,1,.872,2.409Z" transform="translate(138.818 128.439)" fill="#fff" stroke="#fff" stroke-width="1"/>
          <path id="Path_10943" data-name="Path 10943" d="M.913,2.52A1.273,1.273,0,0,1,.021,1.03,1.141,1.141,0,0,1,1.341.023a1.273,1.273,0,0,1,.892,1.49A1.141,1.141,0,0,1,.913,2.52Z" transform="translate(130.601 133.397)" fill="#fff" stroke="#fff" stroke-width="1"/>
          <path id="Path_10944" data-name="Path 10944" d="M.725,2A1.011,1.011,0,0,1,.016.818a.906.906,0,0,1,1.048-.8A1.011,1.011,0,0,1,1.773,1.2.907.907,0,0,1,.725,2Z" transform="translate(244.072 -5.994)" fill="#fff" stroke="#fff" stroke-width="1"/>
          <path id="Path_10945" data-name="Path 10945" d="M.725,2A1.011,1.011,0,0,1,.016.818a.906.906,0,0,1,1.048-.8A1.011,1.011,0,0,1,1.773,1.2.905.905,0,0,1,.725,2Z" transform="translate(240.257 7.381)" fill="#fff" stroke="#fff" stroke-width="1"/>
          <path id="Path_10946" data-name="Path 10946" d="M.725,2A1.01,1.01,0,0,1,.016.818a.906.906,0,0,1,1.048-.8A1.01,1.01,0,0,1,1.773,1.2.905.905,0,0,1,.725,2Z" transform="translate(234.789 22.927)" fill="#fff" stroke="#fff" stroke-width="1"/>
          <path id="Path_10947" data-name="Path 10947" d="M.724,2A1.011,1.011,0,0,1,.016.818a.906.906,0,0,1,1.048-.8A1.011,1.011,0,0,1,1.773,1.2.906.906,0,0,1,.724,2Z" transform="translate(227.598 40.553)" fill="#fff" stroke="#fff" stroke-width="1"/>
          <path id="Path_10948" data-name="Path 10948" d="M.738,2.038A1.029,1.029,0,0,1,.017.833.923.923,0,0,1,1.084.019a1.029,1.029,0,0,1,.721,1.205A.923.923,0,0,1,.738,2.038Z" transform="translate(218.703 59.925)" fill="#fff" stroke="#fff" stroke-width="1"/>
          <path id="Path_10949" data-name="Path 10949" d="M.752,2.075A1.048,1.048,0,0,1,.017.848.939.939,0,0,1,1.1.019a1.048,1.048,0,0,1,.734,1.227A.94.94,0,0,1,.752,2.075Z" transform="translate(208.264 80.331)" fill="#fff" stroke="#fff" stroke-width="1"/>
          <path id="Path_10950" data-name="Path 10950" d="M.778,2.15A1.086,1.086,0,0,1,.018.879.973.973,0,0,1,1.144.02,1.085,1.085,0,0,1,1.9,1.291.973.973,0,0,1,.778,2.15Z" transform="translate(196.703 100.668)" fill="#fff" stroke="#fff" stroke-width="1"/>
          <path id="Path_10951" data-name="Path 10951" d="M.805,2.224A1.123,1.123,0,0,1,.018.909,1.007,1.007,0,0,1,1.183.021,1.123,1.123,0,0,1,1.97,1.336,1.006,1.006,0,0,1,.805,2.224Z" transform="translate(184.713 119.481)" fill="#fff" stroke="#fff" stroke-width="1"/>
          <path id="Path_10952" data-name="Path 10952" d="M.845,2.335A1.178,1.178,0,0,1,.019.954,1.057,1.057,0,0,1,1.242.022,1.179,1.179,0,0,1,2.068,1.4,1.057,1.057,0,0,1,.845,2.335Z" transform="translate(173.149 135.098)" fill="#fff" stroke="#fff" stroke-width="1"/>
          <path id="Path_10953" data-name="Path 10953" d="M.872,2.409A1.216,1.216,0,0,1,.02.985,1.09,1.09,0,0,1,1.282.023a1.216,1.216,0,0,1,.852,1.424A1.091,1.091,0,0,1,.872,2.409Z" transform="translate(162.978 146.157)" fill="#fff" stroke="#fff" stroke-width="1"/>
          <path id="Path_10954" data-name="Path 10954" d="M.913,2.52A1.272,1.272,0,0,1,.021,1.03,1.141,1.141,0,0,1,1.341.023a1.272,1.272,0,0,1,.892,1.49A1.141,1.141,0,0,1,.913,2.52Z" transform="translate(154.979 151.62)" fill="#fff" stroke="#fff" stroke-width="1"/>
          <path id="Path_10955" data-name="Path 10955" d="M.913,2.52A1.273,1.273,0,0,1,.021,1.03,1.141,1.141,0,0,1,1.341.023a1.272,1.272,0,0,1,.892,1.49A1.141,1.141,0,0,1,.913,2.52Z" transform="translate(211.725 -3.772)" fill="#fff" stroke="#fff" stroke-width="1"/>
          <path id="Path_10956" data-name="Path 10956" d="M.725,2A1.011,1.011,0,0,1,.016.818a.906.906,0,0,1,1.048-.8A1.011,1.011,0,0,1,1.773,1.2.907.907,0,0,1,.725,2Z" transform="translate(261.842 -0.205)" fill="#fff" stroke="#fff" stroke-width="1"/>
          <path id="Path_10957" data-name="Path 10957" d="M.711,1.964A.992.992,0,0,1,.016.8.889.889,0,0,1,1.045.018a.992.992,0,0,1,.7,1.161A.89.89,0,0,1,.711,1.964Z" transform="translate(258.66 14.028)" fill="#fff" stroke="#fff" stroke-width="1"/>
          <path id="Path_10958" data-name="Path 10958" d="M.711,1.964A.992.992,0,0,1,.016.8.889.889,0,0,1,1.045.018a.992.992,0,0,1,.7,1.161A.889.889,0,0,1,.711,1.964Z" transform="translate(253.936 30.555)" fill="#fff" stroke="#fff" stroke-width="1"/>
          <path id="Path_10959" data-name="Path 10959" d="M.725,2A1.011,1.011,0,0,1,.016.818a.906.906,0,0,1,1.048-.8A1.011,1.011,0,0,1,1.773,1.2.905.905,0,0,1,.725,2Z" transform="translate(247.613 49.29)" fill="#fff" stroke="#fff" stroke-width="1"/>
          <path id="Path_10960" data-name="Path 10960" d="M.738,2.038A1.029,1.029,0,0,1,.017.833.923.923,0,0,1,1.084.019a1.03,1.03,0,0,1,.721,1.205A.923.923,0,0,1,.738,2.038Z" transform="translate(239.673 69.88)" fill="#fff" stroke="#fff" stroke-width="1"/>
          <path id="Path_10961" data-name="Path 10961" d="M.752,2.075A1.048,1.048,0,0,1,.017.848.94.94,0,0,1,1.1.019a1.048,1.048,0,0,1,.734,1.227A.94.94,0,0,1,.752,2.075Z" transform="translate(230.288 91.621)" fill="#fff" stroke="#fff" stroke-width="1"/>
          <path id="Path_10962" data-name="Path 10962" d="M.778,2.149A1.085,1.085,0,0,1,.018.878.973.973,0,0,1,1.144.02,1.085,1.085,0,0,1,1.9,1.291.973.973,0,0,1,.778,2.149Z" transform="translate(219.777 113.311)" fill="#fff" stroke="#fff" stroke-width="1"/>
          <path id="Path_10963" data-name="Path 10963" d="M.805,2.224A1.123,1.123,0,0,1,.018.909,1.007,1.007,0,0,1,1.183.021,1.123,1.123,0,0,1,1.97,1.335,1.007,1.007,0,0,1,.805,2.224Z" transform="translate(208.745 133.42)" fill="#fff" stroke="#fff" stroke-width="1"/>
          <path id="Path_10964" data-name="Path 10964" d="M.845,2.335A1.179,1.179,0,0,1,.019.954,1.057,1.057,0,0,1,1.242.022,1.179,1.179,0,0,1,2.068,1.4,1.057,1.057,0,0,1,.845,2.335Z" transform="translate(197.99 150.222)" fill="#fff" stroke="#fff" stroke-width="1"/>
          <path id="Path_10965" data-name="Path 10965" d="M.886,2.446A1.235,1.235,0,0,1,.02,1,1.108,1.108,0,0,1,1.3.023a1.235,1.235,0,0,1,.866,1.446A1.107,1.107,0,0,1,.886,2.446Z" transform="translate(188.379 162.132)" fill="#fff" stroke="#fff" stroke-width="1"/>
          <path id="Path_10966" data-name="Path 10966" d="M.912,2.52A1.272,1.272,0,0,1,.021,1.03,1.141,1.141,0,0,1,1.341.023a1.272,1.272,0,0,1,.892,1.49A1.141,1.141,0,0,1,.912,2.52Z" transform="translate(180.682 168.114)" fill="#fff" stroke="#fff" stroke-width="1"/>
          <path id="Path_10967" data-name="Path 10967" d="M.912,2.52A1.272,1.272,0,0,1,.021,1.03,1.141,1.141,0,0,1,1.341.023a1.273,1.273,0,0,1,.892,1.49A1.141,1.141,0,0,1,.912,2.52Z" transform="translate(230.404 1.835)" fill="#fff" stroke="#fff" stroke-width="1"/>
          <path id="Path_10968" data-name="Path 10968" d="M.725,2A1.011,1.011,0,0,1,.016.818a.907.907,0,0,1,1.048-.8A1.01,1.01,0,0,1,1.773,1.2.905.905,0,0,1,.725,2Z" transform="translate(280.856 -8.257)" fill="#fff" stroke="#fff" stroke-width="1"/>
          <path id="Path_10969" data-name="Path 10969" d="M.711,1.964A.992.992,0,0,1,.016.8.889.889,0,0,1,1.045.018.992.992,0,0,1,1.74,1.18.889.889,0,0,1,.711,1.964Z" transform="translate(279.755 4.278)" fill="#fff" stroke="#fff" stroke-width="1"/>
          <path id="Path_10970" data-name="Path 10970" d="M.711,1.964A.992.992,0,0,1,.016.8.89.89,0,0,1,1.045.018a.992.992,0,0,1,.7,1.161A.89.89,0,0,1,.711,1.964Z" transform="translate(277.263 19.294)" fill="#fff" stroke="#fff" stroke-width="1"/>
          <path id="Path_10971" data-name="Path 10971" d="M.711,1.964A.991.991,0,0,1,.016.8.889.889,0,0,1,1.045.018a.992.992,0,0,1,.7,1.161A.89.89,0,0,1,.711,1.964Z" transform="translate(273.377 36.729)" fill="#fff" stroke="#fff" stroke-width="1"/>
          <path id="Path_10972" data-name="Path 10972" d="M.711,1.964A.992.992,0,0,1,.016.8.889.889,0,0,1,1.045.018a.992.992,0,0,1,.7,1.161A.889.889,0,0,1,.711,1.964Z" transform="translate(268.058 56.517)" fill="#fff" stroke="#fff" stroke-width="1"/>
          <path id="Path_10973" data-name="Path 10973" d="M.725,2A1.011,1.011,0,0,1,.016.818a.906.906,0,0,1,1.048-.8A1.01,1.01,0,0,1,1.773,1.2.907.907,0,0,1,.725,2Z" transform="translate(261.237 78.266)" fill="#fff" stroke="#fff" stroke-width="1"/>
          <path id="Path_10974" data-name="Path 10974" d="M.752,2.075A1.048,1.048,0,0,1,.017.848.939.939,0,0,1,1.1.019a1.048,1.048,0,0,1,.734,1.227A.939.939,0,0,1,.752,2.075Z" transform="translate(253.007 101.216)" fill="#fff" stroke="#fff" stroke-width="1"/>
          <path id="Path_10975" data-name="Path 10975" d="M.778,2.15A1.086,1.086,0,0,1,.018.879.973.973,0,0,1,1.144.02,1.085,1.085,0,0,1,1.9,1.291.973.973,0,0,1,.778,2.15Z" transform="translate(243.676 124.191)" fill="#fff" stroke="#fff" stroke-width="1"/>
          <path id="Path_10976" data-name="Path 10976" d="M.805,2.224A1.123,1.123,0,0,1,.018.909,1.007,1.007,0,0,1,1.183.021,1.123,1.123,0,0,1,1.97,1.336,1.006,1.006,0,0,1,.805,2.224Z" transform="translate(233.765 145.536)" fill="#fff" stroke="#fff" stroke-width="1"/>
          <path id="Path_10977" data-name="Path 10977" d="M.845,2.335A1.179,1.179,0,0,1,.019.954,1.057,1.057,0,0,1,1.242.022,1.179,1.179,0,0,1,2.068,1.4,1.058,1.058,0,0,1,.845,2.335Z" transform="translate(223.94 163.417)" fill="#fff" stroke="#fff" stroke-width="1"/>
          <path id="Path_10978" data-name="Path 10978" d="M.886,2.446A1.235,1.235,0,0,1,.02,1,1.108,1.108,0,0,1,1.3.023a1.235,1.235,0,0,1,.865,1.446A1.107,1.107,0,0,1,.886,2.446Z" transform="translate(214.979 176.155)" fill="#fff" stroke="#fff" stroke-width="1"/>
          <path id="Path_10979" data-name="Path 10979" d="M.912,2.52A1.273,1.273,0,0,1,.021,1.03,1.141,1.141,0,0,1,1.341.023a1.272,1.272,0,0,1,.892,1.49A1.14,1.14,0,0,1,.912,2.52Z" transform="translate(207.641 182.597)" fill="#fff" stroke="#fff" stroke-width="1"/>
          <path id="Path_10980" data-name="Path 10980" d="M.912,2.52A1.272,1.272,0,0,1,.021,1.03,1.141,1.141,0,0,1,1.341.023a1.272,1.272,0,0,1,.892,1.49A1.141,1.141,0,0,1,.912,2.52Z" transform="translate(249.231 5.988)" fill="#fff" stroke="#fff" stroke-width="1"/>
          <path id="Path_10981" data-name="Path 10981" d="M.725,2A1.011,1.011,0,0,1,.016.818a.906.906,0,0,1,1.048-.8A1.011,1.011,0,0,1,1.773,1.2.905.905,0,0,1,.725,2Z" transform="translate(298.182 -5.784)" fill="#fff" stroke="#fff" stroke-width="1"/>
          <path id="Path_10982" data-name="Path 10982" d="M.711,1.964A.991.991,0,0,1,.016.8.889.889,0,0,1,1.045.018a.992.992,0,0,1,.7,1.161A.89.89,0,0,1,.711,1.964Z" transform="translate(297.708 7.326)" fill="#fff" stroke="#fff" stroke-width="1"/>
          <path id="Path_10983" data-name="Path 10983" d="M.711,1.964A.992.992,0,0,1,.016.8.89.89,0,0,1,1.045.018a.992.992,0,0,1,.7,1.161A.89.89,0,0,1,.711,1.964Z" transform="translate(296.004 23.067)" fill="#fff" stroke="#fff" stroke-width="1"/>
          <path id="Path_10984" data-name="Path 10984" d="M.711,1.964A.992.992,0,0,1,.016.8.889.889,0,0,1,1.045.018a.992.992,0,0,1,.7,1.161A.89.89,0,0,1,.711,1.964Z" transform="translate(293.071 41.338)" fill="#fff" stroke="#fff" stroke-width="1"/>
          <path id="Path_10985" data-name="Path 10985" d="M.711,1.964A.992.992,0,0,1,.016.8.889.889,0,0,1,1.045.018a.992.992,0,0,1,.7,1.161A.889.889,0,0,1,.711,1.964Z" transform="translate(288.84 62.069)" fill="#fff" stroke="#fff" stroke-width="1"/>
          <path id="Path_10986" data-name="Path 10986" d="M.725,2A1.011,1.011,0,0,1,.016.818a.906.906,0,0,1,1.048-.8A1.011,1.011,0,0,1,1.773,1.2.9.9,0,0,1,.725,2Z" transform="translate(283.237 84.865)" fill="#fff" stroke="#fff" stroke-width="1"/>
          <path id="Path_10987" data-name="Path 10987" d="M.752,2.075A1.048,1.048,0,0,1,.017.848.94.94,0,0,1,1.1.019a1.048,1.048,0,0,1,.734,1.227A.94.94,0,0,1,.752,2.075Z" transform="translate(276.314 108.958)" fill="#fff" stroke="#fff" stroke-width="1"/>
          <path id="Path_10988" data-name="Path 10988" d="M.778,2.149A1.086,1.086,0,0,1,.018.879.973.973,0,0,1,1.144.02,1.085,1.085,0,0,1,1.9,1.291.973.973,0,0,1,.778,2.149Z" transform="translate(268.319 133.102)" fill="#fff" stroke="#fff" stroke-width="1"/>
          <path id="Path_10989" data-name="Path 10989" d="M.805,2.224A1.123,1.123,0,0,1,.018.909,1.007,1.007,0,0,1,1.183.021,1.123,1.123,0,0,1,1.97,1.336,1.006,1.006,0,0,1,.805,2.224Z" transform="translate(259.648 155.574)" fill="#fff" stroke="#fff" stroke-width="1"/>
          <path id="Path_10990" data-name="Path 10990" d="M.845,2.335A1.179,1.179,0,0,1,.019.954,1.057,1.057,0,0,1,1.242.022,1.179,1.179,0,0,1,2.068,1.4,1.056,1.056,0,0,1,.845,2.335Z" transform="translate(250.864 174.464)" fill="#fff" stroke="#fff" stroke-width="1"/>
          <path id="Path_10991" data-name="Path 10991" d="M.886,2.446A1.235,1.235,0,0,1,.02,1,1.108,1.108,0,0,1,1.3.023a1.236,1.236,0,0,1,.866,1.446A1.106,1.106,0,0,1,.886,2.446Z" transform="translate(242.684 187.962)" fill="#fff" stroke="#fff" stroke-width="1"/>
          <path id="Path_10992" data-name="Path 10992" d="M.926,2.557a1.291,1.291,0,0,1-.9-1.512A1.158,1.158,0,0,1,1.361.024a1.291,1.291,0,0,1,.9,1.512A1.158,1.158,0,0,1,.926,2.557Z" transform="translate(235.749 194.801)" fill="#fff" stroke="#fff" stroke-width="1"/>
          <path id="Path_10993" data-name="Path 10993" d="M.9,2.483A1.254,1.254,0,0,1,.02,1.015a1.124,1.124,0,0,1,1.3-.992A1.254,1.254,0,0,1,2.2,1.491,1.124,1.124,0,0,1,.9,2.483Z" transform="translate(268.156 8.598)" fill="#fff" stroke="#fff" stroke-width="1"/>
          <path id="Path_10994" data-name="Path 10994" d="M.711,1.964A.992.992,0,0,1,.016.8.889.889,0,0,1,1.045.018a.992.992,0,0,1,.7,1.161A.89.89,0,0,1,.711,1.964Z" transform="translate(315.435 -4.721)" fill="#fff" stroke="#fff" stroke-width="1"/>
          <path id="Path_10995" data-name="Path 10995" d="M.711,1.964A.992.992,0,0,1,.016.8.889.889,0,0,1,1.045.018.991.991,0,0,1,1.74,1.179.889.889,0,0,1,.711,1.964Z" transform="translate(315.644 8.905)" fill="#fff" stroke="#fff" stroke-width="1"/>
          <path id="Path_10996" data-name="Path 10996" d="M.7,1.927A.974.974,0,0,1,.016.788a.873.873,0,0,1,1.01-.77.973.973,0,0,1,.682,1.139A.872.872,0,0,1,.7,1.927Z" transform="translate(314.826 25.292)" fill="#fff" stroke="#fff" stroke-width="1"/>
          <path id="Path_10997" data-name="Path 10997" d="M.7,1.927A.973.973,0,0,1,.016.788a.873.873,0,0,1,1.01-.77.973.973,0,0,1,.682,1.139A.873.873,0,0,1,.7,1.927Z" transform="translate(312.912 44.319)" fill="#fff" stroke="#fff" stroke-width="1"/>
          <path id="Path_10998" data-name="Path 10998" d="M.711,1.964A.992.992,0,0,1,.016.8.889.889,0,0,1,1.045.018a.992.992,0,0,1,.7,1.161A.889.889,0,0,1,.711,1.964Z" transform="translate(309.854 65.863)" fill="#fff" stroke="#fff" stroke-width="1"/>
          <path id="Path_10999" data-name="Path 10999" d="M.725,2A1.011,1.011,0,0,1,.016.818a.907.907,0,0,1,1.049-.8A1.011,1.011,0,0,1,1.773,1.2.907.907,0,0,1,.725,2Z" transform="translate(305.596 89.582)" fill="#fff" stroke="#fff" stroke-width="1"/>
          <path id="Path_11000" data-name="Path 11000" d="M.738,2.038A1.029,1.029,0,0,1,.017.833.923.923,0,0,1,1.084.019a1.029,1.029,0,0,1,.721,1.205A.923.923,0,0,1,.738,2.038Z" transform="translate(300.138 114.695)" fill="#fff" stroke="#fff" stroke-width="1"/>
          <path id="Path_11001" data-name="Path 11001" d="M.778,2.15A1.085,1.085,0,0,1,.018.879.973.973,0,0,1,1.144.02,1.086,1.086,0,0,1,1.9,1.291.973.973,0,0,1,.778,2.15Z" transform="translate(293.567 139.859)" fill="#fff" stroke="#fff" stroke-width="1"/>
          <path id="Path_11002" data-name="Path 11002" d="M.805,2.224A1.123,1.123,0,0,1,.018.909,1.007,1.007,0,0,1,1.183.021,1.123,1.123,0,0,1,1.97,1.335,1.007,1.007,0,0,1,.805,2.224Z" transform="translate(286.275 163.338)" fill="#fff" stroke="#fff" stroke-width="1"/>
          <path id="Path_11003" data-name="Path 11003" d="M.845,2.335A1.179,1.179,0,0,1,.019.954,1.057,1.057,0,0,1,1.242.022,1.179,1.179,0,0,1,2.068,1.4,1.057,1.057,0,0,1,.845,2.335Z" transform="translate(278.672 183.115)" fill="#fff" stroke="#fff" stroke-width="1"/>
          <path id="Path_11004" data-name="Path 11004" d="M.886,2.446A1.235,1.235,0,0,1,.02,1,1.107,1.107,0,0,1,1.3.023a1.235,1.235,0,0,1,.865,1.446A1.106,1.106,0,0,1,.886,2.446Z" transform="translate(271.34 197.275)" fill="#fff" stroke="#fff" stroke-width="1"/>
          <path id="Path_11005" data-name="Path 11005" d="M.926,2.557a1.291,1.291,0,0,1-.9-1.512A1.158,1.158,0,0,1,1.36.024a1.291,1.291,0,0,1,.905,1.512A1.158,1.158,0,0,1,.926,2.557Z" transform="translate(264.872 204.444)" fill="#fff" stroke="#fff" stroke-width="1"/>
          <path id="Path_11006" data-name="Path 11006" d="M.9,2.483A1.254,1.254,0,0,1,.02,1.015a1.124,1.124,0,0,1,1.3-.992A1.254,1.254,0,0,1,2.2,1.491,1.124,1.124,0,0,1,.9,2.483Z" transform="translate(287.028 9.542)" fill="#fff" stroke="#fff" stroke-width="1"/>
          <path id="Path_11007" data-name="Path 11007" d="M.859,2.372A1.2,1.2,0,0,1,.019.969,1.074,1.074,0,0,1,1.262.022a1.2,1.2,0,0,1,.839,1.4A1.073,1.073,0,0,1,.859,2.372Z" transform="translate(295.11 -9.292)" fill="#fff" stroke="#fff" stroke-width="1"/>
          <path id="Path_11008" data-name="Path 11008" d="M.711,1.964A.992.992,0,0,1,.016.8.889.889,0,0,1,1.045.018a.992.992,0,0,1,.7,1.161A.889.889,0,0,1,.711,1.964Z" transform="translate(332.484 -5.165)" fill="#fff" stroke="#fff" stroke-width="1"/>
          <path id="Path_11009" data-name="Path 11009" d="M.7,1.927A.973.973,0,0,1,.016.788.873.873,0,0,1,1.025.018a.973.973,0,0,1,.682,1.139A.872.872,0,0,1,.7,1.927Z" transform="translate(333.458 8.947)" fill="#fff" stroke="#fff" stroke-width="1"/>
          <path id="Path_11010" data-name="Path 11010" d="M.7,1.927A.973.973,0,0,1,.016.788a.873.873,0,0,1,1.01-.77.973.973,0,0,1,.682,1.139A.872.872,0,0,1,.7,1.927Z" transform="translate(333.559 25.863)" fill="#fff" stroke="#fff" stroke-width="1"/>
          <path id="Path_11011" data-name="Path 11011" d="M.7,1.927A.973.973,0,0,1,.016.788.873.873,0,0,1,1.025.018a.973.973,0,0,1,.682,1.139A.873.873,0,0,1,.7,1.927Z" transform="translate(332.772 45.499)" fill="#fff" stroke="#fff" stroke-width="1"/>
          <path id="Path_11012" data-name="Path 11012" d="M.711,1.964A.992.992,0,0,1,.016.8.889.889,0,0,1,1.045.018a.992.992,0,0,1,.7,1.161A.889.889,0,0,1,.711,1.964Z" transform="translate(330.994 67.741)" fill="#fff" stroke="#fff" stroke-width="1"/>
          <path id="Path_11013" data-name="Path 11013" d="M.725,2A1.011,1.011,0,0,1,.016.818a.906.906,0,0,1,1.048-.8A1.011,1.011,0,0,1,1.773,1.2.907.907,0,0,1,.725,2Z" transform="translate(328.188 92.253)" fill="#fff" stroke="#fff" stroke-width="1"/>
          <path id="Path_11014" data-name="Path 11014" d="M.738,2.038A1.029,1.029,0,0,1,.017.833.923.923,0,0,1,1.084.019a1.029,1.029,0,0,1,.721,1.205A.923.923,0,0,1,.738,2.038Z" transform="translate(324.27 118.218)" fill="#fff" stroke="#fff" stroke-width="1"/>
          <path id="Path_11015" data-name="Path 11015" d="M.765,2.112A1.067,1.067,0,0,1,.017.863.956.956,0,0,1,1.124.02a1.067,1.067,0,0,1,.748,1.249A.956.956,0,0,1,.765,2.112Z" transform="translate(319.289 144.259)" fill="#fff" stroke="#fff" stroke-width="1"/>
          <path id="Path_11016" data-name="Path 11016" d="M.805,2.224A1.123,1.123,0,0,1,.018.909,1.007,1.007,0,0,1,1.183.021,1.123,1.123,0,0,1,1.97,1.336,1.008,1.008,0,0,1,.805,2.224Z" transform="translate(313.472 168.578)" fill="#fff" stroke="#fff" stroke-width="1"/>
          <path id="Path_11017" data-name="Path 11017" d="M.845,2.335A1.179,1.179,0,0,1,.019.954,1.057,1.057,0,0,1,1.242.022,1.179,1.179,0,0,1,2.069,1.4,1.056,1.056,0,0,1,.845,2.335Z" transform="translate(307.142 189.089)" fill="#fff" stroke="#fff" stroke-width="1"/>
          <path id="Path_11018" data-name="Path 11018" d="M.886,2.446A1.235,1.235,0,0,1,.02,1,1.108,1.108,0,0,1,1.3.023a1.235,1.235,0,0,1,.866,1.446A1.106,1.106,0,0,1,.886,2.446Z" transform="translate(300.763 203.8)" fill="#fff" stroke="#fff" stroke-width="1"/>
          <path id="Path_11019" data-name="Path 11019" d="M.926,2.557a1.291,1.291,0,0,1-.9-1.512A1.158,1.158,0,0,1,1.36.024a1.291,1.291,0,0,1,.9,1.512A1.157,1.157,0,0,1,.926,2.557Z" transform="translate(294.82 211.237)" fill="#fff" stroke="#fff" stroke-width="1"/>
          <path id="Path_11020" data-name="Path 11020" d="M.9,2.483A1.254,1.254,0,0,1,.021,1.015a1.124,1.124,0,0,1,1.3-.992A1.254,1.254,0,0,1,2.2,1.491,1.124,1.124,0,0,1,.9,2.483Z" transform="translate(305.741 8.757)" fill="#fff" stroke="#fff" stroke-width="1"/>
          <path id="Path_11021" data-name="Path 11021" d="M.711,1.964A.991.991,0,0,1,.016.8.889.889,0,0,1,1.045.018a.992.992,0,0,1,.7,1.161A.889.889,0,0,1,.711,1.964Z" transform="translate(349.229 -7.162)" fill="#fff" stroke="#fff" stroke-width="1"/>
          <path id="Path_11022" data-name="Path 11022" d="M.7,1.927A.974.974,0,0,1,.016.788a.873.873,0,0,1,1.01-.77.973.973,0,0,1,.682,1.139A.872.872,0,0,1,.7,1.927Z" transform="translate(351.015 7.319)" fill="#fff" stroke="#fff" stroke-width="1"/>
          <path id="Path_11023" data-name="Path 11023" d="M.7,1.927A.973.973,0,0,1,.016.788.873.873,0,0,1,1.025.018a.974.974,0,0,1,.682,1.139A.873.873,0,0,1,.7,1.927Z" transform="translate(352.103 24.679)" fill="#fff" stroke="#fff" stroke-width="1"/>
          <path id="Path_11024" data-name="Path 11024" d="M.7,1.927A.973.973,0,0,1,.016.788.872.872,0,0,1,1.025.018a.973.973,0,0,1,.682,1.139A.872.872,0,0,1,.7,1.927Z" transform="translate(352.495 44.82)" fill="#fff" stroke="#fff" stroke-width="1"/>
          <path id="Path_11025" data-name="Path 11025" d="M.7,1.927A.973.973,0,0,1,.016.788.872.872,0,0,1,1.025.018a.973.973,0,0,1,.682,1.139A.872.872,0,0,1,.7,1.927Z" transform="translate(352.122 67.651)" fill="#fff" stroke="#fff" stroke-width="1"/>
          <path id="Path_11026" data-name="Path 11026" d="M.725,2A1.011,1.011,0,0,1,.016.818a.906.906,0,0,1,1.049-.8A1.011,1.011,0,0,1,1.773,1.2.906.906,0,0,1,.725,2Z" transform="translate(350.811 92.761)" fill="#fff" stroke="#fff" stroke-width="1"/>
          <path id="Path_11027" data-name="Path 11027" d="M.738,2.038A1.029,1.029,0,0,1,.017.833.923.923,0,0,1,1.084.019a1.029,1.029,0,0,1,.721,1.205A.924.924,0,0,1,.738,2.038Z" transform="translate(348.539 119.371)" fill="#fff" stroke="#fff" stroke-width="1"/>
          <path id="Path_11028" data-name="Path 11028" d="M.764,2.112A1.067,1.067,0,0,1,.017.863.956.956,0,0,1,1.124.02a1.066,1.066,0,0,1,.747,1.249A.957.957,0,0,1,.764,2.112Z" transform="translate(345.246 146.104)" fill="#fff" stroke="#fff" stroke-width="1"/>
          <path id="Path_11029" data-name="Path 11029" d="M.805,2.224A1.123,1.123,0,0,1,.018.909,1.007,1.007,0,0,1,1.183.021,1.123,1.123,0,0,1,1.97,1.336,1.007,1.007,0,0,1,.805,2.224Z" transform="translate(341.016 171.094)" fill="#fff" stroke="#fff" stroke-width="1"/>
          <path id="Path_11030" data-name="Path 11030" d="M.845,2.335A1.179,1.179,0,0,1,.019.954,1.057,1.057,0,0,1,1.242.022,1.179,1.179,0,0,1,2.068,1.4,1.058,1.058,0,0,1,.845,2.335Z" transform="translate(336.055 192.191)" fill="#fff" stroke="#fff" stroke-width="1"/>
          <path id="Path_11031" data-name="Path 11031" d="M.886,2.446A1.235,1.235,0,0,1,.02,1,1.107,1.107,0,0,1,1.3.023a1.235,1.235,0,0,1,.866,1.446A1.109,1.109,0,0,1,.886,2.446Z" transform="translate(330.688 207.296)" fill="#fff" stroke="#fff" stroke-width="1"/>
          <path id="Path_11032" data-name="Path 11032" d="M.926,2.557a1.291,1.291,0,0,1-.9-1.512A1.158,1.158,0,0,1,1.361.024a1.291,1.291,0,0,1,.9,1.512A1.158,1.158,0,0,1,.926,2.557Z" transform="translate(325.325 214.897)" fill="#fff" stroke="#fff" stroke-width="1"/>
          <path id="Path_11033" data-name="Path 11033" d="M.939,2.594A1.31,1.31,0,0,1,.021,1.06,1.175,1.175,0,0,1,1.38.024,1.31,1.31,0,0,1,2.3,1.558,1.175,1.175,0,0,1,.939,2.594Z" transform="translate(318.977 33.051)" fill="#fff" stroke="#fff" stroke-width="1"/>
          <path id="Path_11034" data-name="Path 11034" d="M.886,2.446A1.235,1.235,0,0,1,.02,1,1.108,1.108,0,0,1,1.3.023a1.236,1.236,0,0,1,.866,1.446A1.107,1.107,0,0,1,.886,2.446Z" transform="translate(324.157 6.17)" fill="#fff" stroke="#fff" stroke-width="1"/>
          <path id="Path_11035" data-name="Path 11035" d="M.7,1.927A.974.974,0,0,1,.016.788.873.873,0,0,1,1.025.018a.973.973,0,0,1,.682,1.139A.873.873,0,0,1,.7,1.927Z" transform="translate(368.169 4.021)" fill="#fff" stroke="#fff" stroke-width="1"/>
          <path id="Path_11036" data-name="Path 11036" d="M.684,1.89A.954.954,0,0,1,.016.772a.856.856,0,0,1,.99-.755.954.954,0,0,1,.669,1.118A.855.855,0,0,1,.684,1.89Z" transform="translate(370.331 21.727)" fill="#fff" stroke="#fff" stroke-width="1"/>
          <path id="Path_11037" data-name="Path 11037" d="M.7,1.927A.973.973,0,0,1,.016.788.872.872,0,0,1,1.025.018a.973.973,0,0,1,.682,1.139A.872.872,0,0,1,.7,1.927Z" transform="translate(371.945 42.196)" fill="#fff" stroke="#fff" stroke-width="1"/>
          <path id="Path_11038" data-name="Path 11038" d="M.7,1.927A.973.973,0,0,1,.016.788.873.873,0,0,1,1.025.018a.974.974,0,0,1,.682,1.139A.873.873,0,0,1,.7,1.927Z" transform="translate(372.987 65.432)" fill="#fff" stroke="#fff" stroke-width="1"/>
          <path id="Path_11039" data-name="Path 11039" d="M.711,1.964A.992.992,0,0,1,.016.8.889.889,0,0,1,1.045.018a.992.992,0,0,1,.7,1.161A.89.89,0,0,1,.711,1.964Z" transform="translate(373.307 90.989)" fill="#fff" stroke="#fff" stroke-width="1"/>
          <path id="Path_11040" data-name="Path 11040" d="M.738,2.038A1.029,1.029,0,0,1,.017.833.923.923,0,0,1,1.084.019a1.029,1.029,0,0,1,.721,1.205A.923.923,0,0,1,.738,2.038Z" transform="translate(372.742 118.052)" fill="#fff" stroke="#fff" stroke-width="1"/>
          <path id="Path_11041" data-name="Path 11041" d="M.765,2.112A1.067,1.067,0,0,1,.017.863.957.957,0,0,1,1.124.02a1.067,1.067,0,0,1,.747,1.249A.957.957,0,0,1,.765,2.112Z" transform="translate(371.222 145.269)" fill="#fff" stroke="#fff" stroke-width="1"/>
          <path id="Path_11042" data-name="Path 11042" d="M.805,2.224A1.123,1.123,0,0,1,.018.909,1.007,1.007,0,0,1,1.183.021,1.123,1.123,0,0,1,1.97,1.335,1.006,1.006,0,0,1,.805,2.224Z" transform="translate(368.655 170.698)" fill="#fff" stroke="#fff" stroke-width="1"/>
          <path id="Path_11043" data-name="Path 11043" d="M.845,2.335A1.179,1.179,0,0,1,.019.954,1.057,1.057,0,0,1,1.243.022,1.179,1.179,0,0,1,2.068,1.4,1.057,1.057,0,0,1,.845,2.335Z" transform="translate(365.133 192.167)" fill="#fff" stroke="#fff" stroke-width="1"/>
          <path id="Path_11044" data-name="Path 11044" d="M.886,2.446A1.235,1.235,0,0,1,.02,1,1.108,1.108,0,0,1,1.3.023a1.235,1.235,0,0,1,.865,1.446A1.106,1.106,0,0,1,.886,2.446Z" transform="translate(360.851 207.527)" fill="#fff" stroke="#fff" stroke-width="1"/>
          <path id="Path_11045" data-name="Path 11045" d="M.926,2.557a1.291,1.291,0,0,1-.9-1.512A1.158,1.158,0,0,1,1.361.024a1.291,1.291,0,0,1,.9,1.512A1.157,1.157,0,0,1,.926,2.557Z" transform="translate(356.086 215.183)" fill="#fff" stroke="#fff" stroke-width="1"/>
          <path id="Path_11046" data-name="Path 11046" d="M.926,2.557a1.291,1.291,0,0,1-.9-1.512A1.158,1.158,0,0,1,1.361.024a1.291,1.291,0,0,1,.9,1.512A1.158,1.158,0,0,1,.926,2.557Z" transform="translate(338.715 28.772)" fill="#fff" stroke="#fff" stroke-width="1"/>
          <path id="Path_11047" data-name="Path 11047" d="M.886,2.446A1.235,1.235,0,0,1,.02,1,1.108,1.108,0,0,1,1.3.023a1.235,1.235,0,0,1,.865,1.446A1.107,1.107,0,0,1,.886,2.446Z" transform="translate(342.083 1.708)" fill="#fff" stroke="#fff" stroke-width="1"/>
          <path id="Path_11048" data-name="Path 11048" d="M.684,1.89A.954.954,0,0,1,.016.772a.855.855,0,0,1,.99-.755.955.955,0,0,1,.669,1.118A.856.856,0,0,1,.684,1.89Z" transform="translate(384.783 -0.941)" fill="#fff" stroke="#fff" stroke-width="1"/>
          <path id="Path_11049" data-name="Path 11049" d="M.684,1.89A.955.955,0,0,1,.016.772a.856.856,0,0,1,.99-.755.954.954,0,0,1,.669,1.118A.855.855,0,0,1,.684,1.89Z" transform="translate(388.011 16.926)" fill="#fff" stroke="#fff" stroke-width="1"/>
          <path id="Path_11050" data-name="Path 11050" d="M.684,1.89A.955.955,0,0,1,.016.772a.856.856,0,0,1,.99-.755.955.955,0,0,1,.669,1.118A.856.856,0,0,1,.684,1.89Z" transform="translate(390.937 37.64)" fill="#fff" stroke="#fff" stroke-width="1"/>
          <path id="Path_11051" data-name="Path 11051" d="M.7,1.927A.973.973,0,0,1,.016.788.872.872,0,0,1,1.025.018a.974.974,0,0,1,.682,1.139A.874.874,0,0,1,.7,1.927Z" transform="translate(393.445 61.066)" fill="#fff" stroke="#fff" stroke-width="1"/>
          <path id="Path_11052" data-name="Path 11052" d="M.711,1.964A.992.992,0,0,1,.016.8.889.889,0,0,1,1.045.018a.992.992,0,0,1,.7,1.161A.89.89,0,0,1,.711,1.964Z" transform="translate(395.413 86.851)" fill="#fff" stroke="#fff" stroke-width="1"/>
          <path id="Path_11053" data-name="Path 11053" d="M.738,2.038A1.029,1.029,0,0,1,.017.833.922.922,0,0,1,1.084.019a1.029,1.029,0,0,1,.721,1.205A.923.923,0,0,1,.738,2.038Z" transform="translate(396.629 114.151)" fill="#fff" stroke="#fff" stroke-width="1"/>
          <path id="Path_11054" data-name="Path 11054" d="M.765,2.112A1.067,1.067,0,0,1,.017.863.956.956,0,0,1,1.124.02a1.066,1.066,0,0,1,.747,1.249A.956.956,0,0,1,.765,2.112Z" transform="translate(396.923 141.612)" fill="#fff" stroke="#fff" stroke-width="1"/>
          <path id="Path_11055" data-name="Path 11055" d="M.806,2.224A1.123,1.123,0,0,1,.018.909,1.007,1.007,0,0,1,1.183.021,1.123,1.123,0,0,1,1.97,1.335,1.006,1.006,0,0,1,.806,2.224Z" transform="translate(396.09 167.268)" fill="#fff" stroke="#fff" stroke-width="1"/>
          <path id="Path_11056" data-name="Path 11056" d="M.845,2.335A1.179,1.179,0,0,1,.019.954,1.057,1.057,0,0,1,1.242.022,1.179,1.179,0,0,1,2.068,1.4,1.058,1.058,0,0,1,.845,2.335Z" transform="translate(394.076 188.894)" fill="#fff" stroke="#fff" stroke-width="1"/>
          <path id="Path_11057" data-name="Path 11057" d="M.886,2.446A1.236,1.236,0,0,1,.02,1,1.108,1.108,0,0,1,1.3.023a1.235,1.235,0,0,1,.866,1.446A1.107,1.107,0,0,1,.886,2.446Z" transform="translate(390.896 204.324)" fill="#fff" stroke="#fff" stroke-width="1"/>
          <path id="Path_11058" data-name="Path 11058" d="M.926,2.557a1.291,1.291,0,0,1-.9-1.512A1.158,1.158,0,0,1,1.36.024a1.292,1.292,0,0,1,.9,1.512A1.157,1.157,0,0,1,.926,2.557Z" transform="translate(386.739 211.883)" fill="#fff" stroke="#fff" stroke-width="1"/>
          <path id="Path_11059" data-name="Path 11059" d="M.926,2.557A1.292,1.292,0,0,1,.021,1.045,1.158,1.158,0,0,1,1.361.024a1.291,1.291,0,0,1,.9,1.512A1.157,1.157,0,0,1,.926,2.557Z" transform="translate(357.802 22.354)" fill="#fff" stroke="#fff" stroke-width="1"/>
          <path id="Path_11060" data-name="Path 11060" d="M.872,2.409A1.216,1.216,0,0,1,.02.984,1.091,1.091,0,0,1,1.282.022a1.217,1.217,0,0,1,.852,1.424A1.09,1.09,0,0,1,.872,2.409Z" transform="translate(359.366 -4.593)" fill="#fff" stroke="#fff" stroke-width="1"/>
          <path id="Path_11061" data-name="Path 11061" d="M.684,1.89A.954.954,0,0,1,.016.772a.856.856,0,0,1,.99-.755.954.954,0,0,1,.669,1.118A.855.855,0,0,1,.684,1.89Z" transform="translate(400.675 -7.618)" fill="#fff" stroke="#fff" stroke-width="1"/>
          <path id="Path_11062" data-name="Path 11062" d="M.685,1.89A.954.954,0,0,1,.016.772a.855.855,0,0,1,.99-.755.955.955,0,0,1,.669,1.118A.855.855,0,0,1,.685,1.89Z" transform="translate(405.005 10.318)" fill="#fff" stroke="#fff" stroke-width="1"/>
          <path id="Path_11063" data-name="Path 11063" d="M.684,1.89A.954.954,0,0,1,.016.772a.855.855,0,0,1,.99-.755.955.955,0,0,1,.669,1.118A.856.856,0,0,1,.684,1.89Z" transform="translate(409.225 31.067)" fill="#fff" stroke="#fff" stroke-width="1"/>
          <path id="Path_11064" data-name="Path 11064" d="M.7,1.927A.973.973,0,0,1,.016.788.873.873,0,0,1,1.025.018a.974.974,0,0,1,.682,1.139A.873.873,0,0,1,.7,1.927Z" transform="translate(413.244 54.538)" fill="#fff" stroke="#fff" stroke-width="1"/>
          <path id="Path_11065" data-name="Path 11065" d="M.711,1.964A.992.992,0,0,1,.016.8.889.889,0,0,1,1.045.018.991.991,0,0,1,1.74,1.18.889.889,0,0,1,.711,1.964Z" transform="translate(416.899 80.329)" fill="#fff" stroke="#fff" stroke-width="1"/>
          <path id="Path_11066" data-name="Path 11066" d="M.738,2.038A1.029,1.029,0,0,1,.017.833.923.923,0,0,1,1.084.019a1.029,1.029,0,0,1,.721,1.205A.923.923,0,0,1,.738,2.038Z" transform="translate(419.933 107.646)" fill="#fff" stroke="#fff" stroke-width="1"/>
          <path id="Path_11067" data-name="Path 11067" d="M.765,2.112A1.067,1.067,0,0,1,.017.863.956.956,0,0,1,1.124.02a1.067,1.067,0,0,1,.748,1.249A.956.956,0,0,1,.765,2.112Z" transform="translate(422.073 135.072)" fill="#fff" stroke="#fff" stroke-width="1"/>
          <path id="Path_11068" data-name="Path 11068" d="M.8,2.224A1.123,1.123,0,0,1,.018.909,1.007,1.007,0,0,1,1.183.021,1.123,1.123,0,0,1,1.97,1.335,1.007,1.007,0,0,1,.8,2.224Z" transform="translate(423 160.694)" fill="#fff" stroke="#fff" stroke-width="1"/>
          <path id="Path_11069" data-name="Path 11069" d="M.845,2.335A1.179,1.179,0,0,1,.019.954,1.057,1.057,0,0,1,1.242.022,1.179,1.179,0,0,1,2.068,1.4,1.057,1.057,0,0,1,.845,2.335Z" transform="translate(422.482 182.248)" fill="#fff" stroke="#fff" stroke-width="1"/>
          <path id="Path_11070" data-name="Path 11070" d="M.886,2.446A1.235,1.235,0,0,1,.02,1,1.108,1.108,0,0,1,1.3.023a1.235,1.235,0,0,1,.866,1.446A1.107,1.107,0,0,1,.886,2.446Z" transform="translate(420.438 197.564)" fill="#fff" stroke="#fff" stroke-width="1"/>
          <path id="Path_11071" data-name="Path 11071" d="M.926,2.557a1.292,1.292,0,0,1-.9-1.512A1.158,1.158,0,0,1,1.361.024a1.291,1.291,0,0,1,.9,1.512A1.157,1.157,0,0,1,.926,2.557Z" transform="translate(416.89 204.913)" fill="#fff" stroke="#fff" stroke-width="1"/>
          <path id="Path_11072" data-name="Path 11072" d="M.913,2.52A1.272,1.272,0,0,1,.021,1.03,1.141,1.141,0,0,1,1.341.023a1.273,1.273,0,0,1,.892,1.49A1.142,1.142,0,0,1,.913,2.52Z" transform="translate(376.032 13.879)" fill="#fff" stroke="#fff" stroke-width="1"/>
          <path id="Path_11073" data-name="Path 11073" d="M.671,1.853A.936.936,0,0,1,.015.757.839.839,0,0,1,.986.017a.936.936,0,0,1,.656,1.1A.839.839,0,0,1,.671,1.853Z" transform="translate(421.122 1.97)" fill="#fff" stroke="#fff" stroke-width="1"/>
          <path id="Path_11074" data-name="Path 11074" d="M.684,1.89A.955.955,0,0,1,.016.772a.856.856,0,0,1,.99-.755.955.955,0,0,1,.669,1.118A.856.856,0,0,1,.684,1.89Z" transform="translate(426.642 22.589)" fill="#fff" stroke="#fff" stroke-width="1"/>
          <path id="Path_11075" data-name="Path 11075" d="M.684,1.89A.955.955,0,0,1,.016.772a.856.856,0,0,1,.99-.755.954.954,0,0,1,.669,1.118A.856.856,0,0,1,.684,1.89Z" transform="translate(432.194 45.896)" fill="#fff" stroke="#fff" stroke-width="1"/>
          <path id="Path_11076" data-name="Path 11076" d="M.711,1.964A.992.992,0,0,1,.016.8.889.889,0,0,1,1.045.018.992.992,0,0,1,1.74,1.18.889.889,0,0,1,.711,1.964Z" transform="translate(437.519 71.467)" fill="#fff" stroke="#fff" stroke-width="1"/>
          <path id="Path_11077" data-name="Path 11077" d="M.724,2A1.011,1.011,0,0,1,.016.818a.906.906,0,0,1,1.048-.8A1.011,1.011,0,0,1,1.773,1.2.906.906,0,0,1,.724,2Z" transform="translate(442.371 98.548)" fill="#fff" stroke="#fff" stroke-width="1"/>
          <path id="Path_11078" data-name="Path 11078" d="M.765,2.112A1.067,1.067,0,0,1,.017.863.957.957,0,0,1,1.124.02a1.066,1.066,0,0,1,.747,1.249A.957.957,0,0,1,.765,2.112Z" transform="translate(446.344 125.693)" fill="#fff" stroke="#fff" stroke-width="1"/>
          <path id="Path_11079" data-name="Path 11079" d="M.806,2.224A1.123,1.123,0,0,1,.018.909,1.007,1.007,0,0,1,1.183.021,1.123,1.123,0,0,1,1.97,1.335,1.006,1.006,0,0,1,.806,2.224Z" transform="translate(449.031 150.995)" fill="#fff" stroke="#fff" stroke-width="1"/>
          <path id="Path_11080" data-name="Path 11080" d="M.845,2.335A1.179,1.179,0,0,1,.019.954,1.057,1.057,0,0,1,1.243.022,1.179,1.179,0,0,1,2.068,1.4,1.057,1.057,0,0,1,.845,2.335Z" transform="translate(450.031 172.253)" fill="#fff" stroke="#fff" stroke-width="1"/>
          <path id="Path_11081" data-name="Path 11081" d="M.886,2.446A1.235,1.235,0,0,1,.02,1,1.108,1.108,0,0,1,1.3.023a1.236,1.236,0,0,1,.866,1.446A1.107,1.107,0,0,1,.886,2.446Z" transform="translate(449.076 187.215)" fill="#fff" stroke="#fff" stroke-width="1"/>
          <path id="Path_11082" data-name="Path 11082" d="M.926,2.557a1.292,1.292,0,0,1-.9-1.512A1.158,1.158,0,0,1,1.361.024a1.291,1.291,0,0,1,.9,1.512A1.157,1.157,0,0,1,.926,2.557Z" transform="translate(446.104 194.254)" fill="#fff" stroke="#fff" stroke-width="1"/>
          <path id="Path_11083" data-name="Path 11083" d="M.913,2.52A1.273,1.273,0,0,1,.021,1.03,1.141,1.141,0,0,1,1.341.023a1.273,1.273,0,0,1,.892,1.49A1.141,1.141,0,0,1,.913,2.52Z" transform="translate(393.135 3.39)" fill="#fff" stroke="#fff" stroke-width="1"/>
          <path id="Path_11084" data-name="Path 11084" d="M.671,1.853A.935.935,0,0,1,.015.757a.839.839,0,0,1,.97-.74.936.936,0,0,1,.656,1.1A.838.838,0,0,1,.671,1.853Z" transform="translate(436.17 -8.053)" fill="#fff" stroke="#fff" stroke-width="1"/>
          <path id="Path_11085" data-name="Path 11085" d="M.671,1.853A.936.936,0,0,1,.015.757a.839.839,0,0,1,.97-.74.936.936,0,0,1,.656,1.1A.84.84,0,0,1,.671,1.853Z" transform="translate(443.026 12.282)" fill="#fff" stroke="#fff" stroke-width="1"/>
          <path id="Path_11086" data-name="Path 11086" d="M.684,1.89A.954.954,0,0,1,.016.772a.856.856,0,0,1,.99-.755.954.954,0,0,1,.669,1.118A.855.855,0,0,1,.684,1.89Z" transform="translate(450.04 35.208)" fill="#fff" stroke="#fff" stroke-width="1"/>
          <path id="Path_11087" data-name="Path 11087" d="M.7,1.927A.974.974,0,0,1,.016.788.872.872,0,0,1,1.025.018a.973.973,0,0,1,.682,1.139A.872.872,0,0,1,.7,1.927Z" transform="translate(457.027 60.357)" fill="#fff" stroke="#fff" stroke-width="1"/>
          <path id="Path_11088" data-name="Path 11088" d="M.725,2A1.011,1.011,0,0,1,.016.818a.907.907,0,0,1,1.049-.8A1.011,1.011,0,0,1,1.773,1.2.905.905,0,0,1,.725,2Z" transform="translate(463.652 86.916)" fill="#fff" stroke="#fff" stroke-width="1"/>
          <path id="Path_11089" data-name="Path 11089" d="M.765,2.112A1.067,1.067,0,0,1,.017.863.956.956,0,0,1,1.124.02a1.067,1.067,0,0,1,.748,1.249A.957.957,0,0,1,.765,2.112Z" transform="translate(469.442 113.505)" fill="#fff" stroke="#fff" stroke-width="1"/>
          <path id="Path_11090" data-name="Path 11090" d="M.792,2.187A1.1,1.1,0,0,1,.018.894.99.99,0,0,1,1.163.02a1.1,1.1,0,0,1,.774,1.293A.989.989,0,0,1,.792,2.187Z" transform="translate(473.841 138.283)" fill="#fff" stroke="#fff" stroke-width="1"/>
          <path id="Path_11091" data-name="Path 11091" d="M.846,2.335A1.179,1.179,0,0,1,.019.954,1.057,1.057,0,0,1,1.243.022,1.178,1.178,0,0,1,2.068,1.4,1.058,1.058,0,0,1,.846,2.335Z" transform="translate(476.293 158.947)" fill="#fff" stroke="#fff" stroke-width="1"/>
          <path id="Path_11092" data-name="Path 11092" d="M.886,2.446A1.235,1.235,0,0,1,.02,1,1.108,1.108,0,0,1,1.3.023a1.236,1.236,0,0,1,.866,1.446A1.108,1.108,0,0,1,.886,2.446Z" transform="translate(476.405 173.382)" fill="#fff" stroke="#fff" stroke-width="1"/>
          <path id="Path_11093" data-name="Path 11093" d="M.926,2.557a1.291,1.291,0,0,1-.9-1.512A1.158,1.158,0,0,1,1.361.024a1.291,1.291,0,0,1,.9,1.512A1.157,1.157,0,0,1,.926,2.557Z" transform="translate(473.97 179.947)" fill="#fff" stroke="#fff" stroke-width="1"/>
          <path id="Path_11094" data-name="Path 11094" d="M.9,2.483A1.254,1.254,0,0,1,.021,1.015a1.125,1.125,0,0,1,1.3-.992A1.254,1.254,0,0,1,2.2,1.491,1.124,1.124,0,0,1,.9,2.483Z" transform="translate(408.95 -8.908)" fill="#fff" stroke="#fff" stroke-width="1"/>
          <path id="Path_11095" data-name="Path 11095" d="M.671,1.853A.936.936,0,0,1,.015.757.839.839,0,0,1,.986.017a.936.936,0,0,1,.656,1.1A.839.839,0,0,1,.671,1.853Z" transform="translate(458.113 0.267)" fill="#fff" stroke="#fff" stroke-width="1"/>
          <path id="Path_11096" data-name="Path 11096" d="M.684,1.89A.954.954,0,0,1,.016.772a.856.856,0,0,1,.99-.755.954.954,0,0,1,.669,1.118A.856.856,0,0,1,.684,1.89Z" transform="translate(466.575 22.633)" fill="#fff" stroke="#fff" stroke-width="1"/>
          <path id="Path_11097" data-name="Path 11097" d="M.7,1.927A.973.973,0,0,1,.016.788.873.873,0,0,1,1.025.018a.974.974,0,0,1,.682,1.139A.874.874,0,0,1,.7,1.927Z" transform="translate(475.18 47.107)" fill="#fff" stroke="#fff" stroke-width="1"/>
          <path id="Path_11098" data-name="Path 11098" d="M.724,2A1.01,1.01,0,0,1,.016.818a.906.906,0,0,1,1.048-.8A1.011,1.011,0,0,1,1.773,1.2.907.907,0,0,1,.724,2Z" transform="translate(483.519 72.917)" fill="#fff" stroke="#fff" stroke-width="1"/>
          <path id="Path_11099" data-name="Path 11099" d="M.752,2.075A1.048,1.048,0,0,1,.017.848.94.94,0,0,1,1.1.019a1.048,1.048,0,0,1,.734,1.227A.94.94,0,0,1,.752,2.075Z" transform="translate(491.065 98.725)" fill="#fff" stroke="#fff" stroke-width="1"/>
          <path id="Path_11100" data-name="Path 11100" d="M.792,2.187A1.1,1.1,0,0,1,.018.894.99.99,0,0,1,1.163.02a1.1,1.1,0,0,1,.774,1.293A.99.99,0,0,1,.792,2.187Z" transform="translate(497.095 122.643)" fill="#fff" stroke="#fff" stroke-width="1"/>
          <path id="Path_11101" data-name="Path 11101" d="M.832,2.3A1.161,1.161,0,0,1,.019.939a1.041,1.041,0,0,1,1.2-.918A1.16,1.16,0,0,1,2.036,1.38,1.041,1.041,0,0,1,.832,2.3Z" transform="translate(500.93 142.521)" fill="#fff" stroke="#fff" stroke-width="1"/>
          <path id="Path_11102" data-name="Path 11102" d="M.886,2.446A1.235,1.235,0,0,1,.02,1,1.108,1.108,0,0,1,1.3.023a1.235,1.235,0,0,1,.865,1.446A1.107,1.107,0,0,1,.886,2.446Z" transform="translate(502.008 156.238)" fill="#fff" stroke="#fff" stroke-width="1"/>
          <path id="Path_11103" data-name="Path 11103" d="M.926,2.557a1.291,1.291,0,0,1-.9-1.512A1.157,1.157,0,0,1,1.36.024a1.291,1.291,0,0,1,.9,1.512A1.158,1.158,0,0,1,.926,2.557Z" transform="translate(500.061 162.224)" fill="#fff" stroke="#fff" stroke-width="1"/>
          <path id="Path_11104" data-name="Path 11104" d="M.926,2.557a1.291,1.291,0,0,1-.9-1.512A1.158,1.158,0,0,1,1.36.024a1.292,1.292,0,0,1,.9,1.512A1.158,1.158,0,0,1,.926,2.557Z" transform="translate(431.6 7.155)" fill="#fff" stroke="#fff" stroke-width="1"/>
          <path id="Path_11105" data-name="Path 11105" d="M.671,1.853A.936.936,0,0,1,.015.757a.839.839,0,0,1,.97-.74.936.936,0,0,1,.656,1.1A.839.839,0,0,1,.671,1.853Z" transform="translate(481.664 8.367)" fill="#fff" stroke="#fff" stroke-width="1"/>
          <path id="Path_11106" data-name="Path 11106" d="M.7,1.927A.973.973,0,0,1,.016.788a.873.873,0,0,1,1.01-.77.973.973,0,0,1,.682,1.139A.874.874,0,0,1,.7,1.927Z" transform="translate(491.784 31.957)" fill="#fff" stroke="#fff" stroke-width="1"/>
          <path id="Path_11107" data-name="Path 11107" d="M.725,2A1.011,1.011,0,0,1,.016.818a.906.906,0,0,1,1.048-.8A1.01,1.01,0,0,1,1.773,1.2.9.9,0,0,1,.725,2Z" transform="translate(501.745 56.769)" fill="#fff" stroke="#fff" stroke-width="1"/>
          <path id="Path_11108" data-name="Path 11108" d="M.752,2.075A1.048,1.048,0,0,1,.017.848.94.94,0,0,1,1.1.019a1.048,1.048,0,0,1,.734,1.227A.939.939,0,0,1,.752,2.075Z" transform="translate(510.91 81.503)" fill="#fff" stroke="#fff" stroke-width="1"/>
          <path id="Path_11109" data-name="Path 11109" d="M.792,2.187A1.1,1.1,0,0,1,.018.894.991.991,0,0,1,1.164.02a1.1,1.1,0,0,1,.774,1.293A.99.99,0,0,1,.792,2.187Z" transform="translate(518.458 104.343)" fill="#fff" stroke="#fff" stroke-width="1"/>
          <path id="Path_11110" data-name="Path 11110" d="M.832,2.3A1.16,1.16,0,0,1,.019.939a1.04,1.04,0,0,1,1.2-.918A1.16,1.16,0,0,1,2.036,1.38,1.04,1.04,0,0,1,.832,2.3Z" transform="translate(523.584 123.189)" fill="#fff" stroke="#fff" stroke-width="1"/>
          <path id="Path_11111" data-name="Path 11111" d="M.872,2.409A1.216,1.216,0,0,1,.02.985,1.091,1.091,0,0,1,1.282.022a1.216,1.216,0,0,1,.852,1.424A1.091,1.091,0,0,1,.872,2.409Z" transform="translate(525.57 136.053)" fill="#fff" stroke="#fff" stroke-width="1"/>
          <path id="Path_11112" data-name="Path 11112" d="M.913,2.52A1.272,1.272,0,0,1,.021,1.03,1.141,1.141,0,0,1,1.341.023a1.273,1.273,0,0,1,.892,1.49A1.141,1.141,0,0,1,.913,2.52Z" transform="translate(524.006 141.38)" fill="#fff" stroke="#fff" stroke-width="1"/>
          <path id="Path_11113" data-name="Path 11113" d="M.926,2.557a1.291,1.291,0,0,1-.9-1.512A1.158,1.158,0,0,1,1.361.024a1.291,1.291,0,0,1,.9,1.512A1.157,1.157,0,0,1,.926,2.557Z" transform="translate(446.054 -9.626)" fill="#fff" stroke="#fff" stroke-width="1"/>
          <path id="Path_11114" data-name="Path 11114" d="M.671,1.853A.935.935,0,0,1,.015.757.839.839,0,0,1,.986.017a.936.936,0,0,1,.656,1.1A.838.838,0,0,1,.671,1.853Z" transform="translate(495.112 -7.377)" fill="#fff" stroke="#fff" stroke-width="1"/>
          <path id="Path_11115" data-name="Path 11115" d="M.684,1.89A.954.954,0,0,1,.016.772a.856.856,0,0,1,.99-.755.955.955,0,0,1,.669,1.118A.855.855,0,0,1,.684,1.89Z" transform="translate(506.654 15.129)" fill="#fff" stroke="#fff" stroke-width="1"/>
          <path id="Path_11116" data-name="Path 11116" d="M.711,1.964A.992.992,0,0,1,.016.8.89.89,0,0,1,1.045.018a.992.992,0,0,1,.7,1.161A.89.89,0,0,1,.711,1.964Z" transform="translate(518.123 38.728)" fill="#fff" stroke="#fff" stroke-width="1"/>
          <path id="Path_11117" data-name="Path 11117" d="M.752,2.075A1.048,1.048,0,0,1,.017.848.94.94,0,0,1,1.1.019a1.048,1.048,0,0,1,.734,1.227A.94.94,0,0,1,.752,2.075Z" transform="translate(528.776 62.153)" fill="#fff" stroke="#fff" stroke-width="1"/>
          <path id="Path_11118" data-name="Path 11118" d="M.778,2.149A1.086,1.086,0,0,1,.018.879.973.973,0,0,1,1.144.02,1.085,1.085,0,0,1,1.9,1.291.973.973,0,0,1,.778,2.149Z" transform="translate(537.724 83.715)" fill="#fff" stroke="#fff" stroke-width="1"/>
          <path id="Path_11119" data-name="Path 11119" d="M.832,2.3A1.16,1.16,0,0,1,.019.939a1.04,1.04,0,0,1,1.2-.918A1.161,1.161,0,0,1,2.036,1.38,1.042,1.042,0,0,1,.832,2.3Z" transform="translate(543.97 101.342)" fill="#fff" stroke="#fff" stroke-width="1"/>
          <path id="Path_11120" data-name="Path 11120" d="M.872,2.409A1.216,1.216,0,0,1,.02.985,1.09,1.09,0,0,1,1.282.022a1.217,1.217,0,0,1,.852,1.424A1.092,1.092,0,0,1,.872,2.409Z" transform="translate(546.711 113.153)" fill="#fff" stroke="#fff" stroke-width="1"/>
          <path id="Path_11121" data-name="Path 11121" d="M.913,2.52A1.273,1.273,0,0,1,.021,1.03,1.141,1.141,0,0,1,1.341.023a1.273,1.273,0,0,1,.892,1.49A1.141,1.141,0,0,1,.913,2.52Z" transform="translate(545.473 117.751)" fill="#fff" stroke="#fff" stroke-width="1"/>
          <path id="Path_11122" data-name="Path 11122" d="M.684,1.89A.954.954,0,0,1,.016.773a.856.856,0,0,1,.99-.755.954.954,0,0,1,.669,1.118A.856.856,0,0,1,.684,1.89Z" transform="translate(519.665 -3.073)" fill="#fff" stroke="#fff" stroke-width="1"/>
          <path id="Path_11123" data-name="Path 11123" d="M.711,1.964A.992.992,0,0,1,.016.8.889.889,0,0,1,1.045.018.991.991,0,0,1,1.74,1.18.889.889,0,0,1,.711,1.964Z" transform="translate(532.474 19.105)" fill="#fff" stroke="#fff" stroke-width="1"/>
          <path id="Path_11124" data-name="Path 11124" d="M.738,2.038A1.029,1.029,0,0,1,.017.833.922.922,0,0,1,1.085.019a1.029,1.029,0,0,1,.721,1.205A.923.923,0,0,1,.738,2.038Z" transform="translate(544.48 41.05)" fill="#fff" stroke="#fff" stroke-width="1"/>
          <path id="Path_11125" data-name="Path 11125" d="M.778,2.15A1.086,1.086,0,0,1,.018.879.973.973,0,0,1,1.144.02,1.085,1.085,0,0,1,1.9,1.291.972.972,0,0,1,.778,2.15Z" transform="translate(554.634 61.09)" fill="#fff" stroke="#fff" stroke-width="1"/>
          <path id="Path_11126" data-name="Path 11126" d="M.819,2.261A1.142,1.142,0,0,1,.019.924,1.024,1.024,0,0,1,1.2.021,1.142,1.142,0,0,1,2,1.358,1.024,1.024,0,0,1,.819,2.261Z" transform="translate(561.875 77.35)" fill="#fff" stroke="#fff" stroke-width="1"/>
          <path id="Path_11127" data-name="Path 11127" d="M.859,2.372A1.2,1.2,0,0,1,.02.969,1.074,1.074,0,0,1,1.262.022a1.2,1.2,0,0,1,.839,1.4A1.074,1.074,0,0,1,.859,2.372Z" transform="translate(565.246 88.041)" fill="#fff" stroke="#fff" stroke-width="1"/>
          <path id="Path_11128" data-name="Path 11128" d="M.9,2.483A1.254,1.254,0,0,1,.021,1.015a1.124,1.124,0,0,1,1.3-.992A1.254,1.254,0,0,1,2.2,1.491,1.124,1.124,0,0,1,.9,2.483Z" transform="translate(564.212 91.846)" fill="#fff" stroke="#fff" stroke-width="1"/>
          <path id="Path_11129" data-name="Path 11129" d="M.926,2.557a1.291,1.291,0,0,1-.9-1.512A1.157,1.157,0,0,1,1.36.024a1.291,1.291,0,0,1,.9,1.512A1.157,1.157,0,0,1,.926,2.557Z" transform="translate(558.686 88.227)" fill="#fff" stroke="#fff" stroke-width="1"/>
          <path id="Path_11130" data-name="Path 11130" d="M.7,1.927A.973.973,0,0,1,.016.788.872.872,0,0,1,1.025.018a.973.973,0,0,1,.682,1.139A.872.872,0,0,1,.7,1.927Z" transform="translate(544.743 -1.739)" fill="#fff" stroke="#fff" stroke-width="1"/>
          <path id="Path_11131" data-name="Path 11131" d="M.738,2.038A1.029,1.029,0,0,1,.017.833.923.923,0,0,1,1.085.019a1.03,1.03,0,0,1,.721,1.205A.923.923,0,0,1,.738,2.038Z" transform="translate(557.88 18.515)" fill="#fff" stroke="#fff" stroke-width="1"/>
          <path id="Path_11132" data-name="Path 11132" d="M.765,2.112A1.067,1.067,0,0,1,.017.863.957.957,0,0,1,1.124.02a1.067,1.067,0,0,1,.747,1.249A.957.957,0,0,1,.765,2.112Z" transform="translate(569.091 36.934)" fill="#fff" stroke="#fff" stroke-width="1"/>
          <path id="Path_11133" data-name="Path 11133" d="M.805,2.224A1.123,1.123,0,0,1,.018.909,1.007,1.007,0,0,1,1.183.021,1.123,1.123,0,0,1,1.97,1.335,1.008,1.008,0,0,1,.805,2.224Z" transform="translate(577.133 51.674)" fill="#fff" stroke="#fff" stroke-width="1"/>
          <path id="Path_11134" data-name="Path 11134" d="M.859,2.372A1.2,1.2,0,0,1,.02.969,1.074,1.074,0,0,1,1.262.022a1.2,1.2,0,0,1,.839,1.4A1.074,1.074,0,0,1,.859,2.372Z" transform="translate(580.984 61.122)" fill="#fff" stroke="#fff" stroke-width="1"/>
          <path id="Path_11135" data-name="Path 11135" d="M.886,2.446A1.235,1.235,0,0,1,.02,1,1.108,1.108,0,0,1,1.3.023a1.235,1.235,0,0,1,.865,1.446A1.107,1.107,0,0,1,.886,2.446Z" transform="translate(580.054 64.145)" fill="#fff" stroke="#fff" stroke-width="1"/>
          <path id="Path_11136" data-name="Path 11136" d="M.926,2.557a1.291,1.291,0,0,1-.9-1.512A1.157,1.157,0,0,1,1.36.024a1.292,1.292,0,0,1,.9,1.512A1.158,1.158,0,0,1,.926,2.557Z" transform="translate(574.237 60.238)" fill="#fff" stroke="#fff" stroke-width="1"/>
          <path id="Path_11137" data-name="Path 11137" d="M.725,2A1.011,1.011,0,0,1,.016.818a.906.906,0,0,1,1.048-.8A1.011,1.011,0,0,1,1.773,1.2.906.906,0,0,1,.725,2Z" transform="translate(568.959 -5.027)" fill="#fff" stroke="#fff" stroke-width="1"/>
          <path id="Path_11138" data-name="Path 11138" d="M.765,2.112A1.066,1.066,0,0,1,.017.863.956.956,0,0,1,1.124.02a1.066,1.066,0,0,1,.747,1.249A.957.957,0,0,1,.765,2.112Z" transform="translate(580.981 11.592)" fill="#fff" stroke="#fff" stroke-width="1"/>
          <path id="Path_11139" data-name="Path 11139" d="M.805,2.224A1.123,1.123,0,0,1,.018.909,1.007,1.007,0,0,1,1.183.021,1.123,1.123,0,0,1,1.97,1.336,1.007,1.007,0,0,1,.805,2.224Z" transform="translate(589.648 24.755)" fill="#fff" stroke="#fff" stroke-width="1"/>
          <path id="Path_11140" data-name="Path 11140" d="M.845,2.335A1.179,1.179,0,0,1,.019.954,1.057,1.057,0,0,1,1.242.022,1.179,1.179,0,0,1,2.068,1.4,1.057,1.057,0,0,1,.845,2.335Z" transform="translate(593.834 32.958)" fill="#fff" stroke="#fff" stroke-width="1"/>
          <path id="Path_11141" data-name="Path 11141" d="M.886,2.446A1.235,1.235,0,0,1,.02,1,1.108,1.108,0,0,1,1.3.023a1.234,1.234,0,0,1,.865,1.446A1.107,1.107,0,0,1,.886,2.446Z" transform="translate(592.922 35.17)" fill="#fff" stroke="#fff" stroke-width="1"/>
          <path id="Path_11142" data-name="Path 11142" d="M.913,2.52A1.273,1.273,0,0,1,.021,1.03,1.141,1.141,0,0,1,1.341.023a1.273,1.273,0,0,1,.892,1.49A1.141,1.141,0,0,1,.913,2.52Z" transform="translate(586.804 31.06)" fill="#fff" stroke="#fff" stroke-width="1"/>
          <path id="Path_11143" data-name="Path 11143" d="M.926,2.557a1.291,1.291,0,0,1-.9-1.512A1.158,1.158,0,0,1,1.361.024a1.291,1.291,0,0,1,.9,1.512A1.158,1.158,0,0,1,.926,2.557Z" transform="translate(575.928 20.877)" fill="#fff" stroke="#fff" stroke-width="1"/>
          <path id="Path_11144" data-name="Path 11144" d="M.792,2.187A1.1,1.1,0,0,1,.018.894.99.99,0,0,1,1.163.02a1.1,1.1,0,0,1,.774,1.293A.989.989,0,0,1,.792,2.187Z" transform="translate(599.44 -2.897)" fill="#fff" stroke="#fff" stroke-width="1"/>
          <path id="Path_11145" data-name="Path 11145" d="M.832,2.3A1.161,1.161,0,0,1,.019.939a1.041,1.041,0,0,1,1.2-.918A1.161,1.161,0,0,1,2.036,1.38,1.041,1.041,0,0,1,.832,2.3Z" transform="translate(603.827 4.036)" fill="#fff" stroke="#fff" stroke-width="1"/>
          <path id="Path_11146" data-name="Path 11146" d="M.872,2.409A1.216,1.216,0,0,1,.02.984,1.09,1.09,0,0,1,1.282.022a1.217,1.217,0,0,1,.852,1.424A1.091,1.091,0,0,1,.872,2.409Z" transform="translate(602.825 5.504)" fill="#fff" stroke="#fff" stroke-width="1"/>
          <path id="Path_11147" data-name="Path 11147" d="M.9,2.483A1.254,1.254,0,0,1,.021,1.015a1.124,1.124,0,0,1,1.3-.992A1.253,1.253,0,0,1,2.2,1.491,1.125,1.125,0,0,1,.9,2.483Z" transform="translate(596.378 1.246)" fill="#fff" stroke="#fff" stroke-width="1"/>
          <path id="Path_11148" data-name="Path 11148" d="M.913,2.52A1.272,1.272,0,0,1,.021,1.03,1.141,1.141,0,0,1,1.341.023a1.273,1.273,0,0,1,.892,1.49A1.141,1.141,0,0,1,.913,2.52Z" transform="translate(584.944 -8.449)" fill="#fff" stroke="#fff" stroke-width="1"/>
        </g>
      </g>
    </g>
  </g>
</svg>
