<svg id="Group_2235" data-name="Group 2235" xmlns="http://www.w3.org/2000/svg" xmlns:xlink="http://www.w3.org/1999/xlink" width="50.59" height="50.564" viewBox="0 0 50.59 50.564">
  <defs>
    <clipPath id="clip-path">
      <rect id="Rectangle_645" data-name="Rectangle 645" width="50.59" height="50.564" fill="#9eb3cf"/>
    </clipPath>
  </defs>
  <g id="Group_2234" data-name="Group 2234" clip-path="url(#clip-path)">
    <path id="Path_7149" data-name="Path 7149" d="M45.852,43.827a4.4,4.4,0,0,0,4.737-4.753c-.1-4.157-.027-8.318-.027-12.478q0-9.359,0-18.718a4.214,4.214,0,0,0-3.845-4.494,5.627,5.627,0,0,0-1.26-.033c-.562.044-.907-.057-.8-.737a1.87,1.87,0,0,0-.08-.7A2.52,2.52,0,0,0,42.091,0a2.622,2.622,0,0,0-2.44,1.989c-.092.442.255,1.057-.216,1.293a3.481,3.481,0,0,1-1.4.057,6.67,6.67,0,0,0-.868.007c-.711.1-1.01-.08-.979-.9A2.409,2.409,0,0,0,33.9.009,2.573,2.573,0,0,0,31.231,2c-.108.444.21,1.068-.243,1.3a3.443,3.443,0,0,1-1.4.046c-.421,0-.845-.027-1.263.008s-.566-.112-.523-.529a2.511,2.511,0,0,0-.392-1.656A2.489,2.489,0,0,0,24.591.117,2.382,2.382,0,0,0,22.781,2.5c.02.677-.131.94-.848.858a10.753,10.753,0,0,0-1.893-.005c-.5.031-.667-.1-.665-.637A2.527,2.527,0,0,0,17.762.164a2.472,2.472,0,0,0-3.385,2.36c.013.749-.242.889-.891.829a8.6,8.6,0,0,0-1.656,0c-.7.072-.927-.134-.919-.88a2.5,2.5,0,1,0-4.992.135c.015.665-.228.819-.8.736a2.234,2.234,0,0,0-.316,0c-3.078,0-4.8,1.709-4.8,4.766Q0,19.955,0,31.8c0,2.58-.013,5.16,0,7.74a4.156,4.156,0,0,0,3.363,4.184,14.755,14.755,0,0,0,2.57.024,12.218,12.218,0,0,0-1.567,4.417c-.233,1.688.389,2.4,2.115,2.4h18.4q9.713,0,19.427,0c1.489,0,2.111-.681,1.972-2.169a10.369,10.369,0,0,0-1.049-3.605c-.474-.97-.466-1.031.612-.961M41.278,2.594a.806.806,0,0,1,.892-.876c.588.028.805.41.815.944s0,1.046,0,1.57.006,1.047,0,1.57a.824.824,0,0,1-.845.927.834.834,0,0,1-.867-.917c-.028-1.072-.035-2.146,0-3.217m-8.418.08c.008-.531.214-.92.8-.956a.8.8,0,0,1,.9.863c.042,1.1.041,2.2,0,3.3a.809.809,0,0,1-.923.848.821.821,0,0,1-.779-.911c-.008-.523,0-1.047,0-1.57s-.006-1.047,0-1.57m-8.4-.157a.743.743,0,0,1,.788-.8.762.762,0,0,1,.858.811c.028.55.006,1.1.005,1.654,0,.577.014,1.155-.006,1.732A.823.823,0,0,1,24.46,5.9q-.03-1.692,0-3.386M16,2.581a.8.8,0,0,1,.9-.863c.588.036.795.425.8.957s0,1.047,0,1.57.009,1.047,0,1.57a.824.824,0,0,1-.857.915A.811.811,0,0,1,16,5.877c-.037-1.1-.042-2.2,0-3.3m-8.415.013a.8.8,0,0,1,.8-.878.778.778,0,0,1,.89.789c.053,1.122.046,2.25.01,3.373a.81.81,0,0,1-.849.851.824.824,0,0,1-.854-.917c-.01-.523,0-1.046,0-1.57,0-.549-.017-1.1.005-1.648M1.7,9.356c.053-.6,0-1.21.015-1.815a2.461,2.461,0,0,1,2.44-2.471c.131-.005.263-.006.395,0,.418.013.918-.106,1.23.084s.083.726.147,1.108A2.5,2.5,0,0,0,8.61,8.4a2.362,2.362,0,0,0,2.3-2.417c-.024-.78.2-1.008.956-.926a10.428,10.428,0,0,0,1.893,0c.513-.038.6.164.6.629a2.448,2.448,0,0,0,2.494,2.721,2.475,2.475,0,0,0,2.517-2.72c0-.552.191-.652.674-.628a15.669,15.669,0,0,0,2.052,0c.582-.046.679.18.676.708a2.509,2.509,0,1,0,5.011.007c-.011-.623.19-.78.753-.709a7.776,7.776,0,0,0,.947.007,3.748,3.748,0,0,1,1.481.046c.489.235.15.892.271,1.356a2.531,2.531,0,0,0,2.781,1.917,2.337,2.337,0,0,0,2.167-2.378c-.038-.848.258-1.035,1.011-.951a7.346,7.346,0,0,0,1.577,0c.669-.071.9.107.88.839a2.494,2.494,0,1,0,4.987-.023c-.013-.761.266-.882.895-.811.468.053.955-.009,1.412.085a2.42,2.42,0,0,1,1.9,2.31c.018.6-.04,1.216.019,1.815.067.673-.118.872-.838.869-6.712-.033-13.424-.02-20.137-.02H25.286c-7.607,0-15.214-.008-22.822.015-.629,0-.818-.168-.764-.78m40.991,39.5q-17.961,0-35.922.012c-.655,0-.826-.093-.681-.815.777-3.845,3.219-6.4,6.387-8.4A23.815,23.815,0,0,1,21.387,36.5a.752.752,0,0,1,1,.577A15.641,15.641,0,0,0,23,38.525a.843.843,0,1,0,1.524-.7c-.212-.476-.407-.96-.651-1.539a25.119,25.119,0,0,1,7.312.586,19.845,19.845,0,0,1,3.744,1.172c.251.109.8.1.636.467-.195.441-.273,1.13-1.026,1.124-.947-.008-1.895,0-2.842,0-1.368,0-2.737,0-4.105,0a1.44,1.44,0,0,0-1.045.26,10.947,10.947,0,0,0-2.016,2.885.7.7,0,0,0,.39.929.763.763,0,0,0,1.052-.221c.4-.549.793-1.113,1.146-1.7a.962.962,0,0,1,.944-.535c2.1.027,4.211.022,6.316,0a.887.887,0,0,1,.9.468c.329.566.709,1.1,1.084,1.642a.809.809,0,0,0,1.219.292.823.823,0,0,0,.168-1.25c-.341-.53-.681-1.061-1.054-1.567A.634.634,0,0,1,36.678,40c.689-1.044.371-1.035,1.474-.354a13.456,13.456,0,0,1,6.039,7.024c.759,2.183.744,2.188-1.5,2.188m1.3-6.692a.948.948,0,0,1-.784-.434,18.909,18.909,0,0,0-2.339-2.23A19.476,19.476,0,0,0,38.1,37.678c.212-.37.422-.7.6-1.055a.77.77,0,0,0-.309-1.09.8.8,0,0,0-1.114.229c-.3.337-.325,1.014-.835,1.028a3.9,3.9,0,0,1-1.319-.473,26.687,26.687,0,0,0-11.211-1.7.933.933,0,0,1-1.095-.685c-.741-1.82-1.542-3.616-2.333-5.416-.177-.4-.333-.735.328-.776a7.6,7.6,0,0,0,4.866-2.109,4.86,4.86,0,0,1,3.416-.972c.489,0,.964.033,1.184-.535.2-.529-.164-.845-.457-1.166a11.04,11.04,0,0,0-7.035-3.511A13.175,13.175,0,0,0,9.226,27.427a11.1,11.1,0,0,0-.687,5.11.81.81,0,0,0,.525.8.846.846,0,0,0,1-.254,6.431,6.431,0,0,1,5.426-2.367,1.116,1.116,0,0,0,.89-.422,9.3,9.3,0,0,1,1.85-1.462c.354-.226.492-.179.661.226.737,1.765,1.514,3.515,2.288,5.265.158.358.179.517-.312.6-5.245.854-9.916,2.848-13.525,6.913-.137.154-.25.335-.5.324a20.787,20.787,0,0,1-3.071-.09,2.375,2.375,0,0,1-2.049-2.418Q1.705,26.021,1.7,12.394c0-.507.157-.6.623-.6q22.948.018,45.9,0c.523,0,.647.147.646.655q-.023,13.509-.013,27.018a2.5,2.5,0,0,1-2.574,2.682c-.762.035-1.528-.013-2.29.015M22,25.784a12.3,12.3,0,0,0-5.778,2.393c-.24.183-.351.137-.43-.153a6.348,6.348,0,0,1,.388-5.167,1.262,1.262,0,0,1,1.551-.681c2.021.453,3.218,1.84,4.269,3.608m-1.918-4.49c1.859-.684,5.576.232,7.336,1.841a8.087,8.087,0,0,0-3.535,1.638c-.26.209-.4.263-.583-.085a9.13,9.13,0,0,0-3.218-3.394M13.843,26.97a8.95,8.95,0,0,0,.491,2.07,8.779,8.779,0,0,0-3.988,1.476c-.247-1.806,1.449-5.037,3.4-6.533.076-.117.163-.136.164.026a1.714,1.714,0,0,1-.137.833c.023.709.025,1.42.073,2.127" transform="translate(0 0)" fill="#9eb3cf"/>
    <path id="Path_7150" data-name="Path 7150" d="M218.3,106.325a.854.854,0,0,0-.825-.8c-.391-.068-.852.222-1.13-.4-.3-.672.28-.81.519-1.153a1.164,1.164,0,0,0,.2-.716c.028-.231-.157-.468-.466-.62-.468-.23-.8.021-1.116.327-.25.243-.421.574-.907.366-.442-.189-.471-.484-.451-.867.032-.6-.206-1.113-.829-1.129-.681-.018-.928.5-.868,1.142a.705.705,0,0,1-.461.85c-.433.185-.624-.03-.856-.283-.417-.454-.889-.731-1.413-.2-.489.5-.244.951.195,1.351.272.248.482.462.3.924-.193.493-.528.424-.877.407-.621-.03-1.088.224-1.095.85s.479.879,1.082.878a1.76,1.76,0,0,0,.315,0c.334-.062.461.14.559.4.091.246.224.482-.067.7a3.142,3.142,0,0,0-.337.331c-.384.386-.516.821-.1,1.245.434.447.89.333,1.311-.066.288-.272.478-.652,1.041-.4.522.233.4.606.4.973.006.545.2.945.79.974.633.031.871-.385.915-.951.031-.394-.12-.8.46-1.023.559-.216.7.2.96.433.4.368.837.509,1.252.107.432-.419.341-.879-.055-1.314-.239-.263-.646-.408-.423-.964.214-.534.573-.43.949-.443a1.179,1.179,0,0,0,.312-.031c.435-.139.76-.387.715-.9m-5.018,1.747a1.7,1.7,0,0,1-1.694-1.694,1.66,1.66,0,0,1,1.626-1.667,1.685,1.685,0,0,1,1.736,1.641,1.712,1.712,0,0,1-1.668,1.72" transform="translate(-175.307 -85.313)" fill="#9eb3cf"/>
  </g>
</svg>
