<svg id="Group_2239" data-name="Group 2239" xmlns="http://www.w3.org/2000/svg" xmlns:xlink="http://www.w3.org/1999/xlink" width="67.052" height="67.09" viewBox="0 0 67.052 67.09">
  <defs>
    <clipPath id="clip-path">
      <rect id="Rectangle_647" data-name="Rectangle 647" width="67.052" height="67.09" fill="#9eb3cf"/>
    </clipPath>
  </defs>
  <g id="Group_2238" data-name="Group 2238" clip-path="url(#clip-path)">
    <path id="Path_7154" data-name="Path 7154" d="M66.258,37.954c-.885-1.166-1.721-2.372-2.65-3.5-.521-.634-.628-1.085-.042-1.772.972-1.137,1.822-2.379,2.722-3.578a3.166,3.166,0,0,0-2.638-5.2c-2.3.029-4.609-.022-6.913.026-.721.015-.87-.2-.77-.872C56.51,19.408,57,15.748,57.554,12.1c.34-2.243-.321-2.915-2.542-2.578-3.651.552-7.312,1.037-10.962,1.593a2.056,2.056,0,0,1-2.194-.991c-2.216-3.042-4.491-6.042-6.763-9.043C34-.369,33.052-.359,31.941,1.106,29.751,4,27.518,6.855,25.432,9.818a2.565,2.565,0,0,1-2.983,1.22c-1.635-.336-3.306-.5-4.962-.727a.962.962,0,0,0-1.122.563.909.909,0,0,0,.2,1.061,1.9,1.9,0,0,0,1.159.414c1.722.259,3.457.433,5.173.723a3.57,3.57,0,0,0,3.766-1.638c2.077-2.843,4.235-5.627,6.31-8.471.491-.673.691-.563,1.128.03,2.128,2.892,4.309,5.745,6.448,8.629a3.352,3.352,0,0,0,3.436,1.466c3.583-.531,7.175-1.005,10.756-1.552.784-.119.913.08.8.817-.517,3.338-.987,6.683-1.472,10.026-.225,1.549-.226,1.479-1.674,1.558-.94.052-.913-.385-.811-1.046.3-1.927.589-3.856.852-5.789A2.038,2.038,0,0,0,49.94,14.65c-2.658.359-5.318.713-7.967,1.133A1.723,1.723,0,0,1,40.1,15c-1.522-2.083-3.077-4.142-4.635-6.2-1.267-1.673-2.618-1.67-3.886.007C30,10.9,28.429,12.984,26.879,15.09a1.585,1.585,0,0,1-1.7.7c-2.651-.407-5.31-.767-7.968-1.128a2.062,2.062,0,0,0-2.571,2.551c.267,1.932.573,3.859.837,5.791.038.28.238.769-.1.837a5.106,5.106,0,0,1-1.969.029c-.466-.094-.319-.7-.375-1.084-.494-3.342-.965-6.686-1.453-10.029-.11-.756-.366-1.539.957-1.211a.85.85,0,0,0,1.081-.852.913.913,0,0,0-.906-1.056c-.519-.068-1.033-.182-1.554-.215A1.5,1.5,0,0,0,9.4,11.111c.062.9.222,1.8.349,2.694.445,3.139.888,6.278,1.35,9.414.079.535-.045.729-.627.709-1.255-.044-2.513-.014-3.771-.014-1.082,0-2.166.029-3.247-.007a3.074,3.074,0,0,0-3.09,1.727A3.11,3.11,0,0,0,.8,29.149c.885,1.167,1.723,2.371,2.651,3.5a1.153,1.153,0,0,1,.038,1.771c-.994,1.165-1.874,2.427-2.782,3.663a3.034,3.034,0,0,0-.313,3.433A3.025,3.025,0,0,0,3.3,43.191c2.339-.017,4.679.027,7.018-.023.731-.016.864.216.766.877C10.545,47.7,10.052,51.356,9.5,55.006c-.34,2.242.321,2.907,2.552,2.569,3.65-.553,7.311-1.041,10.962-1.589a1.984,1.984,0,0,1,2.131.91c2.15,2.961,4.365,5.875,6.558,8.8,1.377,1.84,2.259,1.852,3.618.041,2.2-2.927,4.409-5.843,6.562-8.8a1.943,1.943,0,0,1,2.108-.959c1.2.214,2.414.346,3.621.518,2.655.38,5.309.777,7.967,1.139,1.142.156,1.856-.259,2.048-1.125a4.318,4.318,0,0,0-.089-1.558c-.519-3.62-1.021-7.243-1.567-10.859-.111-.732.057-.944.818-.927,2.268.051,4.539-.008,6.808.027a3.174,3.174,0,0,0,2.662-5.242M17.351,16.619c2.511.386,5.034.7,7.54,1.108a3.371,3.371,0,0,0,3.54-1.437c1.493-2.014,3.038-3.992,4.493-6.034.523-.733.761-.616,1.222.03,1.233,1.729,2.651,3.338,3.769,5.136,1.384,2.225,3.242,2.662,5.635,2.168,2.042-.422,4.126-.641,6.188-.972.588-.094.828.041.728.688-.3,1.927-.567,3.858-.828,5.79-.083.614-.332.84-1,.836-5.058-.034-10.117-.019-15.176-.019-4.989,0-9.978-.013-14.966.015-.674,0-1-.151-1.087-.865-.233-1.9-.511-3.8-.809-5.687-.105-.669.076-.863.755-.759M54.674,55.553C51.1,55,47.507,54.525,43.925,54a3.279,3.279,0,0,0-3.344,1.435c-2.138,2.882-4.322,5.73-6.449,8.62-.454.616-.648.792-1.191.039-2.061-2.852-4.225-5.628-6.3-8.469a3.6,3.6,0,0,0-3.78-1.6c-3.542.551-7.1,1-10.644,1.541-.692.1-.813-.03-.71-.715.55-3.648,1.085-7.3,1.549-10.96.126-1,.775-.629,1.2-.707,1.4,0,1.363-.007,1.147,1.313q-.464,2.834-.81,5.687A2.024,2.024,0,0,0,17,52.463c2.623-.349,5.247-.7,7.857-1.13a1.976,1.976,0,0,1,2.212.908c1.431,2.017,2.952,3.971,4.441,5.947,1.355,1.8,2.67,1.812,4.012.036,1.512-2,3.034-4,4.506-6.028a1.844,1.844,0,0,1,2.025-.878c2.61.432,5.235.769,7.857,1.124a2.049,2.049,0,0,0,2.513-2.52c-.259-1.9-.531-3.792-.841-5.681-.124-.756-.04-1.059.88-1.1,1.146-.047,1.5.288,1.628,1.434.391,3.387.915,6.76,1.452,10.128.136.854-.051.975-.867.849M64.963,40.546c-.364.72-1.024.733-1.706.733q-19.219-.005-38.438,0a7.168,7.168,0,0,0-1.045.034.828.828,0,0,0-.739.875.866.866,0,0,0,.755.972,5.381,5.381,0,0,0,.94.027c7.925,0,15.85.016,23.775-.021.822,0,1.074.269,1.165,1.021.222,1.832.491,3.66.784,5.483.115.717-.087.914-.8.8-2.478-.384-4.97-.678-7.442-1.1a3.421,3.421,0,0,0-3.623,1.479c-1.468,1.992-2.986,3.948-4.436,5.952-.46.635-.7.782-1.222.035C31.707,55.1,30.273,53.5,29.156,51.7c-1.407-2.27-3.281-2.7-5.725-2.166-2.037.446-4.13.63-6.195.953-.595.093-.73-.128-.648-.674q.434-2.894.826-5.794c.082-.6.3-.954.992-.844a4.154,4.154,0,0,0,1.149-.01.941.941,0,0,0,.015-1.861,6.928,6.928,0,0,0-.941-.027q-7.384,0-14.768,0c-.711,0-1.414.018-1.785-.769-.342-.725.158-1.182.525-1.677q1.462-1.974,2.939-3.938a2.02,2.02,0,0,0,.005-2.679c-1.007-1.336-2-2.683-3-4.02-.381-.507-.812-.994-.426-1.69.365-.657.988-.677,1.634-.677q14.872.006,29.745,0H62.925c.279,0,.56-.019.838.005a1.21,1.21,0,0,1,.973,2.054c-.975,1.36-2.011,2.675-3,4.021s-1.006,1.908-.009,3.266c.907,1.237,1.838,2.456,2.756,3.685.373.5.844.974.484,1.684" transform="translate(0 0)" fill="#9eb3cf"/>
    <path id="Path_7155" data-name="Path 7155" d="M88.9,144.305a1.262,1.262,0,0,1,.359-.834c.743-1.052,1.435-2.142,2.227-3.155a.85.85,0,0,0-.032-1.253c-.656-.855-1.243-1.763-1.869-2.642-.4-.569-.446-1.133.16-1.541.562-.379,1.063-.134,1.433.388.523.738,1.06,1.467,1.554,2.224.272.417.455.434.733.014.5-.754,1.02-1.495,1.552-2.226.4-.543.912-.808,1.514-.344.547.422.471.951.1,1.475-.645.907-1.256,1.841-1.936,2.721a.8.8,0,0,0,.015,1.166c.8,1.054,1.521,2.163,2.29,3.238.389.544.555,1.1-.038,1.561-.651.5-1.164.158-1.573-.423-.6-.854-1.254-1.676-1.787-2.57-.46-.771-.7-.452-1.041.059-.622.923-1.272,1.829-1.924,2.731a.938.938,0,0,1-1.2.339.836.836,0,0,1-.534-.926" transform="translate(-70.268 -106.466)" fill="#9eb3cf"/>
    <path id="Path_7156" data-name="Path 7156" d="M50.776,140.2c0-1.324.028-2.649-.01-3.973-.027-.926.341-1.357,1.285-1.33,1.045.03,2.091.008,3.137.008.649,0,1.107.267,1.113.958s-.424.982-1.084.981a7.564,7.564,0,0,1-1.253-.01c-1.083-.188-1.324.26-1.3,1.289.023.859.21,1.212,1.089,1.061a4.954,4.954,0,0,1,.835-.007c.7,0,1.415.062,1.437.968s-.677,1.011-1.387,1.013a11.788,11.788,0,0,1-1.254-.008c-.56-.059-.765.159-.684.7a1.313,1.313,0,0,1,0,.417c-.174.973.152,1.417,1.2,1.247a7.321,7.321,0,0,1,1.462-.005.882.882,0,0,1,.937.91.853.853,0,0,1-.848.991c-1.288.043-2.58.05-3.866-.007-.637-.028-.822-.531-.816-1.125.013-1.359,0-2.718,0-4.078" transform="translate(-40.125 -106.624)" fill="#9eb3cf"/>
    <path id="Path_7157" data-name="Path 7157" d="M143.136,140.785c0-1.116-.024-2.233.01-3.349.017-.533-.127-.776-.693-.7a2.836,2.836,0,0,1-.835-.012.907.907,0,0,1-.84-1.008.818.818,0,0,1,.82-.9q2.509-.052,5.021,0a.845.845,0,0,1,.85.987.964.964,0,0,1-.941.942c-.471.062-1.128-.237-1.369.168a3.286,3.286,0,0,0-.109,1.527c-.008,1.849-.012,3.7,0,5.547,0,.717-.057,1.42-.98,1.392-.908-.027-.952-.739-.94-1.449.017-1.046,0-2.093,0-3.14" transform="translate(-111.275 -106.538)" fill="#9eb3cf"/>
    <path id="Path_7158" data-name="Path 7158" d="M188.23,141.134c.2-.1.357-.183.511-.258a3.255,3.255,0,0,0,1.95-3.557,3.324,3.324,0,0,0-3.139-2.6c-.764-.046-1.533-.019-2.3-.018-.823,0-1.193.423-1.19,1.241q.015,4.078,0,8.157c0,.686.245,1.194.992,1.2s.99-.548,1.007-1.2c.019-.714,0-1.429,0-2.434,1.06,1.2,1.924,2.177,2.787,3.155.449.509.977.736,1.54.241s.373-1.055-.069-1.555c-.687-.779-1.376-1.557-2.095-2.37m-2.143-3.2c.009-.669-.268-1.408.9-1.289,1.126.114,1.783.508,1.754,1.331-.028.781-.643,1.116-1.74,1.229-1.255.129-.853-.72-.911-1.271" transform="translate(-145.486 -106.464)" fill="#9eb3cf"/>
    <path id="Path_7159" data-name="Path 7159" d="M236.015,144.336a.8.8,0,0,0-.022-.207c-1.087-2.892-2.167-5.787-3.276-8.671a1.062,1.062,0,0,0-1.1-.662,1.1,1.1,0,0,0-1.055.731q-1.627,4.231-3.222,8.475a.91.91,0,0,0,.49,1.3.883.883,0,0,0,1.314-.627c.252-1.371,1.116-1.472,2.271-1.43,1.253.046,2.521-.2,2.8,1.58.075.481.6.661,1.1.527a.879.879,0,0,0,.695-1.019m-4.8-5.066c.124-.318.273-.626.463-1.059l1.155,3.089c-2.451.1-2.453.1-1.619-2.03" transform="translate(-179.619 -106.545)" fill="#9eb3cf"/>
  </g>
</svg>
