<svg id="Group_2229" data-name="Group 2229" xmlns="http://www.w3.org/2000/svg" xmlns:xlink="http://www.w3.org/1999/xlink" width="52.27" height="52.419" viewBox="0 0 52.27 52.419">
  <defs>
    <clipPath id="clip-path">
      <rect id="Rectangle_642" data-name="Rectangle 642" width="52.27" height="52.419" fill="#9eb3cf"/>
    </clipPath>
  </defs>
  <g id="Group_2228" data-name="Group 2228" clip-path="url(#clip-path)">
    <path id="Path_7128" data-name="Path 7128" d="M47.925,23.429a6.577,6.577,0,0,0-7.8,2.825.673.673,0,0,1-.828.377c-1.794-.351-3.6-.657-5.395-.983-.45-.082-.753-.24-.759-.817a2.912,2.912,0,0,0-.52-1.64c-.3-.421-.147-.638.157-.94q3.935-3.907,7.84-7.843a.791.791,0,0,1,.967-.244,4.889,4.889,0,0,0,5.9-2.093,5.063,5.063,0,0,0-7.025-6.919A4.916,4.916,0,0,0,38.419,11a.778.778,0,0,1-.206.97q-3.876,3.84-7.72,7.713a.716.716,0,0,1-.967.169,6.313,6.313,0,0,0-5.473-.033.843.843,0,0,1-1.119-.2q-4.584-4.55-9.217-9.051a.718.718,0,0,1-.142-1.026,6.269,6.269,0,0,0,.774-2.74A6.743,6.743,0,0,0,8.571.093,6.621,6.621,0,0,0,2.635,11.1a6.418,6.418,0,0,0,7.475,1.582.738.738,0,0,1,1.024.149c3.008,3.042,6.04,6.062,9.066,9.087.221.221.555.436.231.782-.372.4-.105,1.286-1.054,1.249-1.279-.05-2.562-.04-3.841,0a1.151,1.151,0,0,1-1.206-.7,4.959,4.959,0,0,0-5.455-2.331,5.048,5.048,0,0,0-.67,9.669,4.668,4.668,0,0,0,5.655-1.647,2.656,2.656,0,0,1,2.96-1.353c.173.017.349,0,.524,0,.757,0,1.514.012,2.27,0,.918-.019.623.9,1.012,1.289.33.332-.034.5-.219.688q-4.9,4.913-9.8,9.828a.782.782,0,0,1-1.04.172A6.71,6.71,0,0,0,.083,44.83a6.6,6.6,0,0,0,8.556,7.251A6.571,6.571,0,0,0,12.726,43.1c-.147-.359-.36-.629.061-1.044q4.974-4.9,9.877-9.872a.716.716,0,0,1,.974-.155,5.675,5.675,0,0,0,2.514.62c.517,0,.67.214.812.668q1.234,3.938,2.544,7.853a1.149,1.149,0,0,1-.3,1.29,5.005,5.005,0,0,0-.46,5.988,5.061,5.061,0,1,0,4.918-7.72c-.4-.07-.68-.109-.816-.575Q31.662,36.068,30.408,32c-.115-.376-.137-.614.23-.867a5.16,5.16,0,0,0,1.593-1.823.6.6,0,0,1,.812-.372c1.6.393,3.214.788,4.845,1.03.85.127,1.115.515,1.264,1.273A6.637,6.637,0,0,0,46.08,36.5a6.771,6.771,0,0,0,6.163-5.994,6.966,6.966,0,0,0-4.318-7.081M43.1,7.695A1.56,1.56,0,0,1,44.73,9.236a1.592,1.592,0,0,1-1.5,1.6A1.621,1.621,0,0,1,41.59,9.281,1.585,1.585,0,0,1,43.1,7.695M7.451,9.963A3.211,3.211,0,0,1,4.392,6.6a3.139,3.139,0,1,1,6.277.127A3.291,3.291,0,0,1,7.451,9.963M9.988,27.43A1.617,1.617,0,0,1,8.4,25.82a1.584,1.584,0,0,1,1.651-1.531,1.56,1.56,0,0,1,1.49,1.6A1.59,1.59,0,0,1,9.988,27.43M6.629,48.905A3.139,3.139,0,1,1,9.8,45.821a3.024,3.024,0,0,1-3.167,3.084M26.564,28.987a3.139,3.139,0,1,1,3.151-3.149,3.111,3.111,0,0,1-3.151,3.149m6.6,15.2a1.615,1.615,0,0,1,1.618,1.489,1.577,1.577,0,0,1-3.149.173,1.608,1.608,0,0,1,1.531-1.661m12.6-11.36a3.132,3.132,0,1,1,3.158-3.138,3.1,3.1,0,0,1-3.158,3.138" transform="translate(0 0)" fill="#9eb3cf"/>
  </g>
</svg>
