<svg id="Group_2233" data-name="Group 2233" xmlns="http://www.w3.org/2000/svg" xmlns:xlink="http://www.w3.org/1999/xlink" width="53.698" height="59.25" viewBox="0 0 53.698 59.25">
  <defs>
    <clipPath id="clip-path">
      <rect id="Rectangle_644" data-name="Rectangle 644" width="53.698" height="59.25" fill="#9eb3cf"/>
    </clipPath>
  </defs>
  <g id="Group_2232" data-name="Group 2232" clip-path="url(#clip-path)">
    <path id="Path_7135" data-name="Path 7135" d="M62.419,206.419c-1.478,0-2.956-.01-4.433,0-.61.006-1.156-.073-1.174-.826s.491-.893,1.121-.891q4.526.012,9.052,0c.624,0,1.144.143,1.129.884s-.553.841-1.167.834c-1.509-.016-3.017-.005-4.526-.005" transform="translate(-46.283 -166.774)" fill="#9eb3cf"/>
    <path id="Path_7136" data-name="Path 7136" d="M62.388,229.292c-1.479,0-2.957-.01-4.436,0-.628.006-1.143-.139-1.144-.871s.522-.869,1.146-.867q4.528.014,9.057,0c.59,0,1.075.145,1.1.822.024.725-.456.92-1.1.915-1.54-.012-3.08,0-4.621,0" transform="translate(-46.281 -185.392)" fill="#9eb3cf"/>
    <path id="Path_7137" data-name="Path 7137" d="M178.27,229.288c-1.511,0-3.022-.01-4.534,0-.631.006-1.148-.158-1.145-.878s.538-.862,1.16-.86q4.487.014,8.975,0c.616,0,1.176.114,1.2.829.021.772-.551.917-1.211.91-1.48-.016-2.961-.005-4.441-.005" transform="translate(-140.611 -185.388)" fill="#9eb3cf"/>
    <path id="Path_7138" data-name="Path 7138" d="M178.253,183.561c-1.509,0-3.019,0-4.528,0-.61,0-1.165-.111-1.148-.863.016-.733.556-.85,1.174-.848q4.482.014,8.964,0c.614,0,1.173.113,1.2.829.027.805-.592.884-1.223.881-1.479-.006-2.957,0-4.436,0" transform="translate(-140.598 -148.155)" fill="#9eb3cf"/>
    <path id="Path_7139" data-name="Path 7139" d="M178.254,206.422c-1.542,0-3.083-.01-4.624.005-.615.006-1.063-.2-1.053-.863s.476-.855,1.079-.854q4.578.01,9.156,0c.594,0,1.087.179,1.1.835.016.715-.485.892-1.127.884-1.511-.02-3.021-.006-4.532-.006" transform="translate(-140.598 -166.777)" fill="#9eb3cf"/>
    <path id="Path_7140" data-name="Path 7140" d="M62.373,183.562c-1.477,0-2.954,0-4.43,0-.605,0-1.157-.09-1.148-.855.009-.747.539-.857,1.156-.855q4.476.013,8.953,0c.6,0,1.164.068,1.194.817.033.826-.574.894-1.2.892-1.508,0-3.015,0-4.523,0" transform="translate(-46.27 -148.156)" fill="#9eb3cf"/>
    <path id="Path_7141" data-name="Path 7141" d="M53.256,159.58c-1.327,0-2.653-.01-3.98,0-.645.007-1.155-.221-1.135-.9.017-.606.493-.865,1.1-.864q4.026.009,8.051,0c.644,0,1.144.261,1.137.923-.007.619-.495.851-1.1.844-1.357-.014-2.715,0-4.072,0" transform="translate(-39.22 -128.573)" fill="#9eb3cf"/>
    <path id="Path_7142" data-name="Path 7142" d="M192.01,157.818c1.293,0,2.586.006,3.878,0,.632,0,1.237.086,1.271.862.034.8-.563.906-1.206.9q-3.924-.009-7.849,0c-.6,0-1.161-.093-1.173-.844-.013-.793.557-.923,1.2-.921,1.293,0,2.585,0,3.878,0" transform="translate(-152.292 -128.572)" fill="#9eb3cf"/>
    <path id="Path_7143" data-name="Path 7143" d="M48.921,17.167a1.286,1.286,0,0,1,.441.168c.68.572,1.355,1.152,2,1.759a.781.781,0,0,1,.06,1.157.792.792,0,0,1-1.219.1c-.655-.553-1.3-1.117-1.927-1.706a.727.727,0,0,1-.212-.913.948.948,0,0,1,.852-.568" transform="translate(-39.093 -13.986)" fill="#9eb3cf"/>
    <path id="Path_7144" data-name="Path 7144" d="M48.915,59a.857.857,0,0,1-.811-.491.692.692,0,0,1,.123-.922c.664-.633,1.361-1.234,2.07-1.819a.775.775,0,0,1,.948-.01.821.821,0,0,1,.369.878A7.61,7.61,0,0,1,48.915,59" transform="translate(-39.09 -45.297)" fill="#9eb3cf"/>
    <path id="Path_7145" data-name="Path 7145" d="M226.249,18.03a.843.843,0,0,1-.27.658c-.645.565-1.275,1.146-1.936,1.691a.776.776,0,0,1-1.2-.14.768.768,0,0,1,.084-1.146c.622-.589,1.272-1.15,1.927-1.7a.855.855,0,0,1,1.4.642" transform="translate(-181.368 -13.999)" fill="#9eb3cf"/>
    <path id="Path_7146" data-name="Path 7146" d="M226.244,57.984a.837.837,0,0,1-.42.856.759.759,0,0,1-.938-.069c-.673-.577-1.349-1.153-2-1.76a.768.768,0,0,1-.081-1.08.733.733,0,0,1,.968-.3,10.721,10.721,0,0,1,2.4,2.1.476.476,0,0,1,.069.256" transform="translate(-181.374 -45.249)" fill="#9eb3cf"/>
    <path id="Path_7147" data-name="Path 7147" d="M53.69,108.955a1.9,1.9,0,0,0-1.968-1.9c-.987-.022-1.975-.014-2.963,0-.356.005-.521-.057-.585-.484-.189-1.266-.774-1.73-2.067-1.735-2.1-.008-4.2.008-6.3-.009-.626-.005-1.178.139-1.2.836-.029.775.551.9,1.21.893,1.975-.019,3.951.012,5.926-.019.556-.009.756.126.738.716-.043,1.418-.014,2.839-.014,4.259,0,1.852.01,3.7-.005,5.556,0,.6.285.973.848,1,.584.025.884-.357.886-.949,0-.216,0-.432,0-.648,0-2.315.026-4.63-.016-6.945-.012-.663.193-.861.83-.805a9.375,9.375,0,0,0,1.849,0c.886-.1,1.136.214,1.133,1.11-.032,9.6-.019,19.2-.02,28.8,0,2.885-1.433,4.319-4.315,4.32q-20.788,0-41.576,0c-2.952,0-4.366-1.412-4.366-4.36q0-14.353,0-28.7c0-.154.012-.31,0-.463-.045-.511.156-.723.692-.7a13.23,13.23,0,0,0,2.22-.008c.857-.1.989.237.987,1.015q-.041,14.121-.017,28.242c0,1.92.852,2.781,2.744,2.781q18.566,0,37.132,0c1.86,0,2.721-.848,2.724-2.695q.009-5.741,0-11.482,0-2.731,0-5.463c0-.466-.122-.86-.633-1a.84.84,0,0,0-.959.377,1.34,1.34,0,0,0-.134.894c-.006,3.735-.025,7.47.015,11.2.008.712-.195.864-.875.858-3.981-.033-7.964.022-11.945-.032a7.515,7.515,0,0,0-5.892,2.032v-1.068q0-4.908,0-9.815c0-.652-.122-1.227-.917-1.2-.751.028-.8.607-.8,1.206q.013,4.954,0,9.908c0,.255.11.54-.124.819a6.817,6.817,0,0,0-3.131-1.687,27.975,27.975,0,0,0-5.356-.156.8.8,0,0,0-.833.914.844.844,0,0,0,.929.832c1.358.014,2.717-.012,4.074.014a4.423,4.423,0,0,1,4.255,3.651c-.052.027-.1.076-.156.076q-8.843.008-17.686.016c-.543,0-.694-.256-.684-.741.015-.8.033-1.606-.006-2.407-.024-.5.153-.621.629-.613,1.759.026,3.519,0,5.278.016.669.006,1.332-.072,1.351-.879.019-.833-.666-.906-1.325-.9-1.7,0-3.4-.04-5.092.021-.726.026-.846-.218-.844-.88q.034-12.547,0-25.093c0-.8.246-.962.99-.941,1.912.054,3.827.012,5.74.021.619,0,1.154-.12,1.14-.869-.013-.672-.5-.851-1.089-.851-2.222,0-4.445,0-6.667,0-.787,0-1.582.375-1.643,1.082-.113,1.316-.9,1.168-1.75,1.135-.555-.021-1.111-.005-1.667,0C.644,107.057,0,107.7,0,109.464q0,14.723,0,29.446a5.364,5.364,0,0,0,5.709,5.741q21.112.007,42.224,0c3.534,0,5.755-2.236,5.757-5.788q.006-14.676,0-29.353c0-.185.009-.371,0-.555M28.068,138.182a4.593,4.593,0,0,1,4.268-2.97c4.466-.014,8.933.008,13.4-.021.636,0,.781.208.743.785a14.489,14.489,0,0,0,0,2.031c.054.724-.205.968-.942.959-2.8-.036-5.606-.014-8.409-.014-2.834,0-5.668-.014-8.5.011-.648.006-.815-.135-.559-.78" transform="translate(0 -85.404)" fill="#9eb3cf"/>
    <path id="Path_7148" data-name="Path 7148" d="M103.023,9.287a12.4,12.4,0,0,0-24.317,1.6c-.05.61-.033,1.193.687,1.277.765.089.923-.483,1.014-1.135a10.7,10.7,0,0,1,10.8-9.31,10.311,10.311,0,0,1,9.253,5.766,10.3,10.3,0,0,1-.568,10.87q-2.569,4.056-5.2,8.075a2.979,2.979,0,0,0-.65,2.055c.036.288.045.632-.435.73a3.3,3.3,0,0,1-.033-.439c.152-2.462.354-4.923.441-7.387.037-1.053.155-1.637,1.472-1.6s2.194-1.238,2.145-2.717a2.528,2.528,0,0,0-5.036-.226c-.178,1.279-.178,1.279-1.444,1.279h-.185c-1.439,0-1.439,0-1.678-1.431a2.533,2.533,0,0,0-5.014.253,2.522,2.522,0,0,0,2.663,2.919c.395.013.851-.171.879.567.09,2.372.251,4.741.385,7.111a2.757,2.757,0,0,1,.036,1.624c-.382-.41-.263-.92-.225-1.413a1.836,1.836,0,0,0-.428-.906c-1.742-2.722-3.474-5.45-5.246-8.152a12.244,12.244,0,0,1-1.7-3.66c-.154-.6-.448-.978-1.08-.833-.72.165-.74.725-.581,1.322a12.518,12.518,0,0,0,1.59,3.613c1.74,2.688,3.459,5.389,5.2,8.075a2.459,2.459,0,0,1,.5,1.541,1.745,1.745,0,0,0,.684,1.638,1.365,1.365,0,0,1,.591,1.416,2.777,2.777,0,0,0,1.334,2.848,4.539,4.539,0,0,0,4.1.092,2.837,2.837,0,0,0,1.526-3.1c-.019-.29-.162-.7.118-.866a2.6,2.6,0,0,0,1.172-2.628,1.53,1.53,0,0,1,.351-.73c1.763-2.746,3.547-5.478,5.3-8.233a12.011,12.011,0,0,0,1.588-9.907m-7.873,7.12a.756.756,0,0,1,.8.825c-.012.7-.472.893-1.112.908-.489.012-.689-.131-.571-.594-.024-.653.167-1.142.886-1.138m-8.078,1.732c-.642-.014-1.1-.214-1.105-.913a.755.755,0,0,1,.8-.819c.721,0,.9.494.881,1.145.122.473-.1.6-.577.587m4.4,1.708c.74-.017.923.171.864.922-.2,2.577-.36,5.16-.44,7.743-.026.846-.48.71-1,.747-.593.043-.858-.08-.882-.769-.079-2.245-.243-4.486-.375-6.729-.067-1.906-.066-1.871,1.832-1.914m1.308,11.9c-.065,1.176-.305,1.569-1.277,1.606-.337.013-.675.014-1.012,0A1.5,1.5,0,0,1,89.3,31.176c.119-.211.306-.166.478-.17.429-.009.859,0,1.288,0a4.213,4.213,0,0,1,.552,0c.493.065,1.221-.327,1.162.737" transform="translate(-64.108 -0.001)" fill="#9eb3cf"/>
  </g>
</svg>
