<svg id="Group_2237" data-name="Group 2237" xmlns="http://www.w3.org/2000/svg" xmlns:xlink="http://www.w3.org/1999/xlink" width="43.399" height="61.907" viewBox="0 0 43.399 61.907">
  <defs>
    <clipPath id="clip-path">
      <rect id="Rectangle_646" data-name="Rectangle 646" width="43.399" height="61.907" fill="#9eb3cf"/>
    </clipPath>
  </defs>
  <g id="Group_2236" data-name="Group 2236" clip-path="url(#clip-path)">
    <path id="Path_7151" data-name="Path 7151" d="M40.518.153A4.428,4.428,0,0,0,35.8,2.233a.843.843,0,0,0,.1,1.07.8.8,0,0,0,1.128.151,9.926,9.926,0,0,0,.92-.85c1.012-.981,2.109-1.068,2.989-.233a2.009,2.009,0,0,1-.14,3.063c-2.5,2.516-5.018,5.008-7.507,7.532-.4.4-.646.5-1.06.028a20.3,20.3,0,0,0-1.771-1.779c-.448-.4-.514-.66-.026-1.118,1.244-1.167,2.429-2.4,3.631-3.609.414-.417.562-.892.1-1.356a.872.872,0,0,0-1.36.058q-.243.235-.481.475-2.8,2.8-5.6,5.6a6.876,6.876,0,0,1-5.3,2.119,7.011,7.011,0,0,1-4.86-2.238C13.247,7.82,9.939,4.477,6.581,1.185A3.792,3.792,0,0,0,.12,2.964a3.781,3.781,0,0,0,1.2,3.764Q6.9,12.29,12.464,17.868a3.156,3.156,0,0,1,.35,4.242,10.8,10.8,0,0,0-2.122,6.2,11.024,11.024,0,0,0,9.276,11.136c.518.091.628.2.512.718-.954,4.261-1.9,8.524-2.79,12.8-.119.572-.344.639-.819.632-1.45-.021-2.9-.058-4.35.012-.872.042-.961-.232-.817-1.023.742-4.077,1.417-8.166,2.125-12.249.1-.6.069-1.128-.648-1.262-.759-.142-1.022.347-1.132.992-.461,2.691-.892,5.389-1.4,8.071C10.1,50.987,10,53.954,8.568,56.6a15.5,15.5,0,0,0-.822,1.845,2.428,2.428,0,0,0,2.287,3.441c1.772.036,3.545.028,5.317,0a2.615,2.615,0,0,0,2.685-2.17c.538-2.346,1.043-4.7,1.557-7.051q1.014-4.636,2.02-9.273l.173.012c1.192,5.42,2.374,10.843,3.582,16.259A2.626,2.626,0,0,0,28.2,61.888c1.644.015,3.287.012,4.931,0,2.223-.015,3.4-1.752,2.382-3.741a30.117,30.117,0,0,1-2.623-9.1c-.7-4.314-1.489-8.611-2.244-12.915a2.093,2.093,0,0,1,.3-1.63,10.822,10.822,0,0,0-.36-12.4,3.173,3.173,0,0,1,.368-4.246q5.364-5.366,10.731-10.73A8.376,8.376,0,0,0,42.769,5.9,3.773,3.773,0,0,0,40.518.153M17.041,55.943c-.251,1.126-.476,2.258-.749,3.38a1.05,1.05,0,0,1-1.172.788c-.8,0-1.608,0-2.412,0-.836,0-1.673.026-2.508-.008-.792-.032-1.013-.4-.7-1.128.45-1.061.938-2.106,1.378-3.17a.657.657,0,0,1,.72-.467c1.64.018,3.28.025,4.92,0,.492-.008.627.158.526.61m-6-42.83c-.289.306-.483.3-.778,0-2.61-2.629-5.24-5.239-7.849-7.87a1.9,1.9,0,0,1-.412-2.23A2.081,2.081,0,0,1,3.827,1.79a2.457,2.457,0,0,1,1.545.723q3.817,3.833,7.655,7.645c.388.383.406.61,0,.979-.689.628-1.341,1.3-1.983,1.977m21.711,43.15A26.619,26.619,0,0,0,33.931,59c.335.723.018,1.081-.661,1.1-1.7.041-3.408.023-5.112.007a1.025,1.025,0,0,1-1.076-.9c-.225-1.066-.468-2.128-.705-3.192-.1-.458-.038-.716.547-.677.8.053,1.607.013,2.411.013.643,0,1.291.048,1.928-.012a1.221,1.221,0,0,1,1.495.931M31.729,52.71c.114.612.105.927-.686.892-1.51-.067-3.026-.026-4.539-.015-.416,0-.663-.017-.778-.564-.9-4.3-1.857-8.589-2.792-12.882-.056-.259-.254-.6.233-.663a11.5,11.5,0,0,0,5.787-2.6c.556,3.178,1.09,6.232,1.624,9.287.381,2.181.746,4.365,1.151,6.541M29.407,16.832a4.143,4.143,0,0,0-1.243,2.795,12.763,12.763,0,0,0-4.6-1.9,15.192,15.192,0,0,0-2.886-.118c-.651.01-1.166.248-1.107,1.016s.6.872,1.252.812a9.12,9.12,0,1,1-4.213,1.475,3.438,3.438,0,0,0,.616-.455.814.814,0,0,0,.018-1.143.767.767,0,0,0-1.025-.257c-.307.169-.61.345-1.066.6.1-1.947-1.208-2.96-2.362-4.006-.739-.669-.833-1.095-.021-1.741.676-.538,1.158-1.524,1.891-1.731.751-.212,1.223.908,1.882,1.371a8.7,8.7,0,0,0,11.3-.867c.586-.574.947-.775,1.54-.033s1.8,1.358,1.861,2.1-1.184,1.372-1.833,2.072" transform="translate(0 0)" fill="#9eb3cf"/>
    <path id="Path_7152" data-name="Path 7152" d="M94.9,6.251c0-.5.04-1.08-.007-1.656A4.284,4.284,0,0,0,90.938.776c-.9-.04-1.8-.037-2.706-.009A4.266,4.266,0,0,0,84.08,4.9c-.033.869-.032,1.741,0,2.609a5.414,5.414,0,0,0,8.175,4.418A5.506,5.506,0,0,0,94.9,6.251M92.639,9.01a3.509,3.509,0,0,1-4.011,1.758,3.722,3.722,0,0,1-2.8-3.4c-.021-.384,0-.771,0-1.269A5.538,5.538,0,0,1,86,4.306a2.537,2.537,0,0,1,2.493-1.755c1.62.021,3.569-.508,4.364,1.516a5.881,5.881,0,0,1-.214,4.942" transform="translate(-67.792 -0.601)" fill="#9eb3cf"/>
    <path id="Path_7153" data-name="Path 7153" d="M86.793,122.327a2.715,2.715,0,0,0-3.956.1c-.945.919-1.895,1.836-2.789,2.8-.446.483-.728.447-1.12-.028a11.637,11.637,0,0,0-1.159-1.159,2.423,2.423,0,0,0-1.6-.729,2.738,2.738,0,0,0-2.7,1.545,2.489,2.489,0,0,0,.473,3.022q1.72,1.824,3.545,3.548a2.782,2.782,0,0,0,4.062-.04q2.637-2.548,5.19-5.183a2.649,2.649,0,0,0,.055-3.88m-1.484,2.754c-1.615,1.618-3.226,3.24-4.852,4.847-.7.693-1.21.7-1.9.024-1.062-1.032-2.1-2.085-3.148-3.135a.918.918,0,0,1-.084-1.436c.455-.445.938-.289,1.356.125.595.589,1.174,1.194,1.786,1.765.789.736,1.344.715,2.158-.083,1.171-1.149,2.328-2.314,3.483-3.48a.949.949,0,0,1,1.124-.3.786.786,0,0,1,.5.851c.044.369-.2.6-.424.823" transform="translate(-58.999 -98.007)" fill="#9eb3cf"/>
  </g>
</svg>
