<svg xmlns="http://www.w3.org/2000/svg" xmlns:xlink="http://www.w3.org/1999/xlink" width="143" height="143" viewBox="0 0 143 143">
  <defs>
    <linearGradient id="linear-gradient" x1="0.522" y1="1" x2="0.519" gradientUnits="objectBoundingBox">
      <stop offset="0" stop-color="#13224f"/>
      <stop offset="0" stop-color="#010d33"/>
      <stop offset="0.515" stop-color="#010d34"/>
      <stop offset="1" stop-color="#020b2a"/>
    </linearGradient>
  </defs>
  <g id="Group_142257" data-name="Group 142257" transform="translate(-160.459 -3642.459)">
    <g id="Ellipse_1973" data-name="Ellipse 1973" transform="translate(160.459 3642.459)" stroke="#1a2758" stroke-width="1" fill="url(#linear-gradient)">
      <circle cx="71.5" cy="71.5" r="71.5" stroke="none"/>
      <circle cx="71.5" cy="71.5" r="71" fill="none"/>
    </g>
    <g id="Group_18667" data-name="Group 18667" transform="translate(179.585 3662.288)">
      <path id="Path_10806" data-name="Path 10806" d="M93.25,31.188a7.249,7.249,0,0,0-7.241-7.241h-7.7a9.37,9.37,0,0,0-2.743-1.44,9.158,9.158,0,0,0-3.95-9,9.125,9.125,0,0,0-5.13-1.572c-.017,0-.031.009-.048.01a9.257,9.257,0,0,0-2.789.444c-.053-.086-.119-.163-.174-.247s-.1-.143-.152-.216A9.515,9.515,0,0,0,62.3,10.69c-.02-.02-.037-.042-.057-.062A9.559,9.559,0,0,0,60.924,9.54c-.066-.046-.134-.087-.2-.131A9.566,9.566,0,0,0,59.238,8.6L59.225,8.6a9.5,9.5,0,0,0-1.688-.525c-.07-.015-.14-.028-.21-.042a9.358,9.358,0,0,0-9.538,3.765A7.553,7.553,0,0,0,36.433,17.35a7.492,7.492,0,0,0-8.593,6.6h-9.1A7.249,7.249,0,0,0,11.5,31.188V80.12H7.117v8.146a7.249,7.249,0,0,0,7.241,7.241H90.39a7.249,7.249,0,0,0,7.241-7.241V80.12H93.25V31.188ZM43.92,14.353a3.924,3.924,0,0,1,3.012,1.4,1.81,1.81,0,0,0,3.073-.507,5.9,5.9,0,0,1,5.478-3.786c.013,0,.024.007.037.007a5.912,5.912,0,0,1,1.152.116c.037.007.073.018.11.026a5.871,5.871,0,0,1,.947.295c.052.021.1.041.155.063A5.937,5.937,0,0,1,59.693,13.2c.01.01.018.021.028.031a5.969,5.969,0,0,1,.636.771c.046.067.09.135.134.2a5.9,5.9,0,0,1,.385.708c.044.1.09.188.129.286a5.864,5.864,0,0,1,.43,2.186,1.81,1.81,0,0,0,3.621,0,9.458,9.458,0,0,0-.158-1.566,5.592,5.592,0,0,1,1.6-.25,5.56,5.56,0,0,1-.008,11.12,1.81,1.81,0,0,0,0,3.621,9.151,9.151,0,0,0,7.791-4.391,5.878,5.878,0,0,1,4.346,5.672,4.5,4.5,0,0,1-.116,1.088,5.85,5.85,0,0,1-5.768,4.8H31.067a3.643,3.643,0,0,1-3.638-3.639,2.6,2.6,0,0,1,.033-.433c.006-.043.008-.079.018-.129a3.6,3.6,0,0,1,3.391-3.061,1.811,1.811,0,0,0,1.335-2.944,3.642,3.642,0,0,1-.758-1.766,1.789,1.789,0,0,0-.036-.181,2.186,2.186,0,0,1-.036-.483,3.941,3.941,0,0,1,3.943-3.94c.057,0,.11.014.167.017a3.846,3.846,0,0,1,.8.118c.1.025.194.058.289.09a4.069,4.069,0,0,1,.77.354,3.937,3.937,0,0,1,1.919,3.369,1.81,1.81,0,1,0,3.62,0,7.524,7.524,0,0,0-2.792-5.823,3.489,3.489,0,0,1-.1-.7,3.951,3.951,0,0,1,3.928-3.964Zm9.1,49.638a2.489,2.489,0,1,1-2.48,2.48A2.492,2.492,0,0,1,53.017,63.99Zm-37.9-32.8a3.624,3.624,0,0,1,3.621-3.621H27.4c-.007,0-.013.01-.02.014a7.261,7.261,0,0,0-1.142.845c-.055.049-.112.1-.166.146a7.224,7.224,0,0,0-.9,1.033c-.048.067-.094.135-.14.2a7.057,7.057,0,0,0-.658,1.219c-.025.061-.043.123-.067.185a6.909,6.909,0,0,0-.391,1.433,6,6,0,0,0-.106,1.184,7.267,7.267,0,0,0,7.259,7.26h6.884v16L34.1,60.941a6.039,6.039,0,0,0-2.54-.571,6.11,6.11,0,1,0,6.1,6.1,6.034,6.034,0,0,0-.874-3.1l4.254-4.253a1.811,1.811,0,0,0,.53-1.28V41.091h9.644v19.2a1.725,1.725,0,0,0,.072.359,6.116,6.116,0,1,0,3.475,0,1.726,1.726,0,0,0,.073-.362v-19.2H64.48V57.84a1.81,1.81,0,0,0,.53,1.28l4.254,4.254a6.035,6.035,0,0,0-.874,3.1,6.11,6.11,0,1,0,6.1-6.1,6.037,6.037,0,0,0-2.539.571L68.1,57.09v-16H72.74a9.437,9.437,0,0,0,9.309-7.67c0-.018.006-.039.01-.058s.009-.027.011-.041,0-.015,0-.023a7.761,7.761,0,0,0,.175-1.713,9.535,9.535,0,0,0-.057-1.04c-.013-.116-.039-.229-.056-.344-.033-.225-.063-.451-.112-.672-.031-.139-.076-.272-.113-.409-.052-.194-.1-.389-.162-.578-.044-.13-.1-.254-.151-.381-.074-.191-.143-.384-.229-.57,0-.008-.006-.017-.01-.025h4.657a3.624,3.624,0,0,1,3.621,3.621V80.12H85.665V35.714a1.81,1.81,0,0,0-3.621,0V80.12H22.7V35.714a1.81,1.81,0,0,0-3.621,0V80.12H15.118ZM34.041,66.471a2.489,2.489,0,1,1-2.48-2.48A2.492,2.492,0,0,1,34.041,66.471Zm40.45-2.48a2.489,2.489,0,1,1-2.479,2.48A2.492,2.492,0,0,1,74.491,63.99ZM94.01,88.266a3.624,3.624,0,0,1-3.621,3.621H14.358a3.624,3.624,0,0,1-3.621-3.621V83.741H94.01Z" transform="translate(0)" fill="#9eb3cf"/>
      <path id="Path_10807" data-name="Path 10807" d="M38.729,47.359H28.244a1.81,1.81,0,0,0,0,3.621H38.729a1.81,1.81,0,0,0,0-3.621Z" transform="translate(18.887 38.645)" fill="#9eb3cf"/>
      <path id="Path_10808" data-name="Path 10808" d="M32.338,25.433c.139,0,.279,0,.422-.011a1.81,1.81,0,1,0-.191-3.615,3.621,3.621,0,0,1-3.589-2.74,1.81,1.81,0,0,0-3.5.935,7.228,7.228,0,0,0,6.855,5.432Z" transform="translate(17.899 9.674)" fill="#9eb3cf"/>
      <path id="Path_10809" data-name="Path 10809" d="M29.655,19.191A7.988,7.988,0,0,0,33.515,20.2a6.7,6.7,0,0,0,5.119-2.319,1.81,1.81,0,1,0-2.691-2.422,3.621,3.621,0,0,1-4.474.6,1.81,1.81,0,0,0-1.813,3.133Z" transform="translate(21.159 6.865)" fill="#9eb3cf"/>
    </g>
  </g>
</svg>
