<svg xmlns="http://www.w3.org/2000/svg" xmlns:xlink="http://www.w3.org/1999/xlink" width="143" height="143" viewBox="0 0 143 143">
  <defs>
    <linearGradient id="linear-gradient" x1="0.522" y1="1" x2="0.519" gradientUnits="objectBoundingBox">
      <stop offset="0" stop-color="#13224f"/>
      <stop offset="0" stop-color="#010d33"/>
      <stop offset="0.515" stop-color="#010d34"/>
      <stop offset="1" stop-color="#020b2a"/>
    </linearGradient>
  </defs>
  <g id="Group_142260" data-name="Group 142260" transform="translate(-577 -4115.541)">
    <g id="Ellipse_1975" data-name="Ellipse 1975" transform="translate(577 4115.541)" stroke="#1a2758" stroke-width="1" fill="url(#linear-gradient)">
      <circle cx="71.5" cy="71.5" r="71.5" stroke="none"/>
      <circle cx="71.5" cy="71.5" r="71" fill="none"/>
    </g>
    <path id="Path_10847" data-name="Path 10847" d="M85.035,65.628a2.829,2.829,0,0,0-1.462-1.795,3.09,3.09,0,0,0-2.523-.128l-8.16,3.156a3.053,3.053,0,0,0-1.758,3.93l.445,1.168c-2.117.863-3.728,1.272-5.892.171a8.294,8.294,0,0,0-8.313.294,8.278,8.278,0,0,0-8.317-.373c-2.155,1.065-3.753.645-5.845-.232l.464-1.165A3.057,3.057,0,0,0,41.986,66.7l-8.107-3.279a3.094,3.094,0,0,0-2.537.088,2.822,2.822,0,0,0-1.487,1.77L24.441,84.735a3.085,3.085,0,0,0,1.743,3.8l6.1,2.461h0a3.052,3.052,0,0,0,3.96-1.7l.429-1.076,1.209.5A2.393,2.393,0,0,1,39,89.956l-1.485,2.48a4.1,4.1,0,0,0-.128,4.2,4.628,4.628,0,0,0,3.282,2.277,4.326,4.326,0,0,0,.133,1.166,4.285,4.285,0,0,0,4.146,3.217,4.334,4.334,0,0,0,1.639-.324,4.58,4.58,0,0,0,3.786,2.026,4.123,4.123,0,0,0,1.674-.35,4.265,4.265,0,0,0,3.572,1.926,4.324,4.324,0,0,0,2.761-1l.779.464a4.249,4.249,0,0,0,2.179.6,4.336,4.336,0,0,0,1.073-.136,4.254,4.254,0,0,0,2.627-1.963,4.314,4.314,0,0,0,.54-1.445A4.332,4.332,0,0,0,69.7,101.03a4.254,4.254,0,0,0,.592-1.89,4.279,4.279,0,0,0,3.862-4.893,4.278,4.278,0,0,0,2.671-5.082c-.024-.093-.054-.182-.084-.272l1.123-.448.419,1.1A3.044,3.044,0,0,0,82.213,91.3h0l6.138-2.363a3.1,3.1,0,0,0,1.8-3.763L85.035,65.628ZM33.34,88l-5.853-2.363a.374.374,0,0,1,.01-.043L32.832,66.42l7.847,3.174L34.344,85.481c-.006.014-.014.028-.02.042s-.019.054-.029.08L33.34,88Zm6.818,7.091a.949.949,0,0,1,.078-1.021L42.5,90.286a1.074,1.074,0,0,1,1.583-.338,1.007,1.007,0,0,1,.521,1.29c-.038.058-.079.113-.115.173l-2.3,3.856a.944.944,0,0,1-.854.523A1.451,1.451,0,0,1,40.158,95.089Zm4.218,4.87a1.087,1.087,0,0,1-.5-.673,1.1,1.1,0,0,1,.117-.842l.917-1.537.026-.041c.005-.009.009-.018.014-.026l2.079-3.485a1.589,1.589,0,0,0,.189-.255c.049-.082.094-.163.137-.245a1.118,1.118,0,0,1,.55-.327,1.143,1.143,0,0,1,.283-.036,1.111,1.111,0,0,1,.95,1.674L46.57,98.477c-.008.012-.016.023-.024.036s-.031.055-.046.082l-.581.977a1.14,1.14,0,0,1-1.542.386Zm5.3,1.668a1,1,0,0,1-.421-1.449l2.509-4.216a1.593,1.593,0,0,0,.123-.175c.394-.659.773-.655.9-.651a1.382,1.382,0,0,1,1.087.712.991.991,0,0,1-.029,1.065L52.46,99.225l-.01.015-.491.826-.715,1.2a1.065,1.065,0,0,1-1.571.362Zm5.376,1.615a1.107,1.107,0,0,1-.383-1.52l.067-.113L56.528,98.6c.011-.016.023-.031.033-.048l.475-.8a1.135,1.135,0,0,1,1.541-.4,1.1,1.1,0,0,1,.508.685,1.089,1.089,0,0,1-.12.833l-2.379,3.976a1.138,1.138,0,0,1-1.536.389Zm7.254-.319a1.12,1.12,0,0,1-1.524.389l-.567-.338,1.145-1.913.593.352a1.13,1.13,0,0,1,.354,1.51ZM73.627,90.794a1.119,1.119,0,0,1-1.528.39l-7.381-4.393a1.587,1.587,0,0,0-1.624,2.728l7.383,4.394h0a1.119,1.119,0,0,1,.388,1.526,1.13,1.13,0,0,1-1.531.383L68.2,95.153h0L59.93,90.236a1.587,1.587,0,0,0-1.622,2.729l8.271,4.917h0a1.12,1.12,0,0,1,.388,1.525,1.124,1.124,0,0,1-1.491.409c-.447-.245-.923-.536-1.384-.816l-.471-.286,0,0-.005,0-1.345-.8a4.35,4.35,0,0,0-.107-.644,4.269,4.269,0,0,0-5.542-3,4.544,4.544,0,0,0-3.792-2.308,3.871,3.871,0,0,0-.677.047,4.265,4.265,0,0,0-4.574-2.646,4.513,4.513,0,0,0-1.867-2.139,4.353,4.353,0,0,0-4.667.056,5.321,5.321,0,0,0-1.829-1.437l-.074-.033-1.3-.539,4.188-10.5c2.481,1.029,5.116,1.766,8.429.129a5.2,5.2,0,0,1,4.242-.279c-1.629,1.335-3.235,2.445-4.8,3.522-.389.268-.771.532-1.137.788a3.988,3.988,0,0,0-1.707,2.812,3.089,3.089,0,0,0,.942,2.5c1.494,1.479,4.4,2.7,9.737.12a8.809,8.809,0,0,1,8.136.536q1.833,1.088,3.666,2.179t3.693,2.195h0a1.12,1.12,0,0,1,.388,1.525Zm.916-4.443-2.928-1.741-.448-.266L68.577,82.8l-1.1-.655h0l-.048-.028a11.989,11.989,0,0,0-11-.652l-.042.02c-2.034.985-4.751,1.869-6.143.491l0,0a1,1,0,0,1,.347-.443q.552-.386,1.129-.782a64.481,64.481,0,0,0,6.03-4.544c.037-.032.072-.066.106-.1a5.226,5.226,0,0,1,6.4-1.146c3.308,1.682,5.959.971,8.459-.037L76.731,85.48l-2.187.872ZM81.2,88.29,74.144,69.78l7.9-3.054,5.041,19.251a.346.346,0,0,1,.009.044Zm.357-14.631a1.587,1.587,0,1,1-2.947,1.181L77.44,71.923a1.587,1.587,0,1,1,2.947-1.181l1.169,2.916ZM33.878,75.713a1.587,1.587,0,0,1-.851-2.077l1.214-2.9a1.587,1.587,0,1,1,2.928,1.226l-1.214,2.9a1.586,1.586,0,0,1-2.077.851ZM57.287,69.8a4.534,4.534,0,0,0,4.526-4.531v-9.19h1.211a2.959,2.959,0,0,0,2.194-4.945l-5.739-6.346a2.951,2.951,0,0,0-4.387,0L49.355,51.13a2.959,2.959,0,0,0,2.194,4.945h1.211v9.19A4.534,4.534,0,0,0,57.286,69.8ZM52.035,52.9l5.251-5.807L62.538,52.9H60.225a1.587,1.587,0,0,0-1.587,1.587V65.265a1.351,1.351,0,1,1-2.7,0V54.488A1.587,1.587,0,0,0,54.348,52.9H52.035Zm51.2-12.828h-.978q-.169-.454-.373-.9l.692-.692a3.211,3.211,0,0,0,0-4.536l-1.984-1.99a3.222,3.222,0,0,0-4.538,0l-.692.692q-.442-.2-.9-.373V31.31A3.215,3.215,0,0,0,91.258,28.1h-2.8a3.215,3.215,0,0,0-3.211,3.211v.972q-.454.169-.9.373l-.692-.692a3.212,3.212,0,0,0-4.537,0l-1.983,1.983a3.212,3.212,0,0,0,0,4.537l.692.692q-.2.442-.373.9h-.972a3.215,3.215,0,0,0-3.211,3.211v2.8a3.215,3.215,0,0,0,3.211,3.211h.972q.169.454.373.9l-.692.692a3.225,3.225,0,0,0,0,4.545L79.123,57.4a3.212,3.212,0,0,0,4.537,0l.692-.692q.442.2.9.373v.978a3.215,3.215,0,0,0,3.211,3.211h2.8a3.215,3.215,0,0,0,3.211-3.211v-.978q.454-.169.9-.373l.692.692a3.224,3.224,0,0,0,4.543,0l1.983-1.983a3.223,3.223,0,0,0,0-4.538l-.692-.692q.2-.442.373-.9h.978a3.215,3.215,0,0,0,3.211-3.211v-2.8a3.215,3.215,0,0,0-3.211-3.211Zm.037,6.009a.042.042,0,0,1-.037.036H101.1A1.587,1.587,0,0,0,99.569,47.3a9.914,9.914,0,0,1-1,2.4,1.587,1.587,0,0,0,.252,1.917l1.511,1.511a.049.049,0,0,1,0,.053l-1.973,1.973a.05.05,0,0,1-.058,0l-1.511-1.511a1.587,1.587,0,0,0-1.916-.252,9.917,9.917,0,0,1-2.4,1,1.587,1.587,0,0,0-1.178,1.534v2.135a.042.042,0,0,1-.037.037h-2.8a.042.042,0,0,1-.037-.037V55.926a1.588,1.588,0,0,0-1.178-1.534,9.928,9.928,0,0,1-2.4-1,1.588,1.588,0,0,0-1.917.252l-1.512,1.511a.043.043,0,0,1-.049,0l-1.977-1.971a.05.05,0,0,1,0-.058L80.9,51.615a1.587,1.587,0,0,0,.252-1.917,9.922,9.922,0,0,1-1-2.4,1.587,1.587,0,0,0-1.534-1.178h-2.13a.042.042,0,0,1-.036-.036v-2.8a.042.042,0,0,1,.036-.036h2.13a1.587,1.587,0,0,0,1.534-1.178,9.914,9.914,0,0,1,1-2.4A1.587,1.587,0,0,0,80.9,37.75l-1.511-1.511a.044.044,0,0,1,0-.048l1.983-1.983a.044.044,0,0,1,.048,0l1.511,1.511a1.587,1.587,0,0,0,1.916.252,9.917,9.917,0,0,1,2.4-1,1.587,1.587,0,0,0,1.178-1.534V31.31a.042.042,0,0,1,.037-.036h2.8a.042.042,0,0,1,.037.036V33.44a1.588,1.588,0,0,0,1.178,1.534,9.928,9.928,0,0,1,2.4,1,1.587,1.587,0,0,0,1.916-.252L98.3,34.208a.05.05,0,0,1,.052,0l1.979,1.985a.044.044,0,0,1,0,.048l-1.511,1.511a1.588,1.588,0,0,0-.252,1.917,9.922,9.922,0,0,1,1,2.4,1.587,1.587,0,0,0,1.534,1.178h2.135a.042.042,0,0,1,.037.036v2.8ZM89.859,38.409a6.273,6.273,0,1,0,6.273,6.273A6.281,6.281,0,0,0,89.859,38.409Zm0,9.372a3.1,3.1,0,1,1,3.1-3.1A3.1,3.1,0,0,1,89.859,47.781ZM29.325,58.061v-.978q.454-.169.9-.373l.692.692a3.212,3.212,0,0,0,4.536,0l1.99-1.984a3.223,3.223,0,0,0,0-4.538l-.692-.692q.2-.442.373-.9h.972A3.215,3.215,0,0,0,41.3,46.082v-2.8a3.215,3.215,0,0,0-3.211-3.211h-.972q-.169-.454-.373-.9l.692-.692a3.212,3.212,0,0,0,0-4.537l-1.983-1.983a3.212,3.212,0,0,0-4.537,0l-.692.692q-.442-.2-.9-.373v-.972A3.215,3.215,0,0,0,26.114,28.1h-2.8A3.215,3.215,0,0,0,20.1,31.309v.972q-.454.169-.9.373l-.692-.692a3.225,3.225,0,0,0-4.545,0l-1.976,1.982a3.212,3.212,0,0,0,0,4.537l.692.692q-.2.442-.373.9h-.978a3.215,3.215,0,0,0-3.211,3.211v2.8a3.215,3.215,0,0,0,3.211,3.211h.978q.169.454.373.9l-.692.692a3.224,3.224,0,0,0,0,4.543l1.983,1.983a3.223,3.223,0,0,0,4.538,0l.692-.692q.442.2.9.373v.978a3.215,3.215,0,0,0,3.211,3.211h2.8a3.215,3.215,0,0,0,3.211-3.211Zm-6.046,0V55.926A1.588,1.588,0,0,0,22.1,54.392a9.928,9.928,0,0,1-2.4-1,1.588,1.588,0,0,0-1.917.252l-1.512,1.511a.049.049,0,0,1-.053,0l-1.973-1.973a.05.05,0,0,1,0-.058l1.511-1.511A1.588,1.588,0,0,0,16,49.7a9.922,9.922,0,0,1-1-2.4,1.587,1.587,0,0,0-1.534-1.178H11.336a.042.042,0,0,1-.037-.036v-2.8a.042.042,0,0,1,.037-.036h2.135A1.587,1.587,0,0,0,15,42.069a9.914,9.914,0,0,1,1-2.4,1.588,1.588,0,0,0-.252-1.917l-1.511-1.511a.044.044,0,0,1,0-.049l1.971-1.977a.05.05,0,0,1,.058,0l1.511,1.511a1.587,1.587,0,0,0,1.916.252,9.917,9.917,0,0,1,2.4-1,1.587,1.587,0,0,0,1.178-1.534V31.31a.042.042,0,0,1,.037-.036h2.8a.042.042,0,0,1,.037.036v2.129a1.588,1.588,0,0,0,1.178,1.534,9.928,9.928,0,0,1,2.4,1,1.587,1.587,0,0,0,1.916-.252l1.512-1.511a.043.043,0,0,1,.048,0l1.983,1.983a.044.044,0,0,1,0,.048L33.677,37.75a1.587,1.587,0,0,0-.252,1.917,9.922,9.922,0,0,1,1,2.4,1.587,1.587,0,0,0,1.534,1.178h2.13a.042.042,0,0,1,.036.036v2.8a.042.042,0,0,1-.036.036h-2.13A1.587,1.587,0,0,0,34.423,47.3a9.914,9.914,0,0,1-1,2.4,1.587,1.587,0,0,0,.252,1.917l1.511,1.511a.05.05,0,0,1,0,.052L33.2,55.157a.044.044,0,0,1-.048,0l-1.511-1.511a1.587,1.587,0,0,0-1.916-.252,9.917,9.917,0,0,1-2.4,1,1.587,1.587,0,0,0-1.178,1.534v2.135a.042.042,0,0,1-.037.037h-2.8a.042.042,0,0,1-.037-.037Zm20.63-28.45h.978q.169.455.372.9l-.692.692a3.212,3.212,0,0,0,0,4.539l1.977,1.971a3.205,3.205,0,0,0,4.54.007l.693-.69q.441.2.9.372v.974a3.215,3.215,0,0,0,3.211,3.211h2.8A3.215,3.215,0,0,0,61.9,38.373V37.4q.457-.17.9-.372l.686.683a3.2,3.2,0,0,0,4.541.007l1.985-1.979a3.212,3.212,0,0,0,0-4.537l-.692-.692q.2-.442.372-.9h.978A3.212,3.212,0,0,0,73.871,26.4V23.6a3.212,3.212,0,0,0-3.205-3.211h-.977q-.169-.456-.373-.9l.7-.694a3.231,3.231,0,0,0-.007-4.539l-1.982-1.976a3.212,3.212,0,0,0-4.537,0l-.692.692q-.442-.2-.9-.373v-.978a3.215,3.215,0,0,0-3.211-3.211h-2.8a3.215,3.215,0,0,0-3.211,3.211V12.6q-.454.169-.9.373l-.692-.692a3.212,3.212,0,0,0-4.536,0l-1.99,1.984a3.231,3.231,0,0,0,.007,4.54l.689.687q-.2.443-.373.9h-.977A3.215,3.215,0,0,0,40.7,23.6v2.8a3.215,3.215,0,0,0,3.211,3.211ZM43.872,23.6a.049.049,0,0,1,.036-.037h2.135a1.588,1.588,0,0,0,1.534-1.178,9.95,9.95,0,0,1,1-2.408,1.587,1.587,0,0,0-.254-1.919l-1.5-1.5a.047.047,0,0,1-.007-.057L48.8,14.526a.044.044,0,0,1,.048,0l1.511,1.511a1.588,1.588,0,0,0,1.917.252,9.922,9.922,0,0,1,2.4-1,1.587,1.587,0,0,0,1.178-1.534V11.622a.042.042,0,0,1,.036-.037h2.8a.042.042,0,0,1,.036.037v2.135A1.587,1.587,0,0,0,59.9,15.291a9.914,9.914,0,0,1,2.4,1,1.587,1.587,0,0,0,1.917-.252l1.511-1.511a.044.044,0,0,1,.049,0L67.757,16.5a.048.048,0,0,1,.007.056l-1.511,1.506A1.588,1.588,0,0,0,66,19.979a9.95,9.95,0,0,1,1,2.408,1.587,1.587,0,0,0,1.534,1.178h2.135a.043.043,0,0,1,.031.037v2.8a.043.043,0,0,1-.031.037H68.53A1.587,1.587,0,0,0,67,27.612a9.987,9.987,0,0,1-1,2.4,1.587,1.587,0,0,0,.252,1.916l1.511,1.512a.045.045,0,0,1,0,.046l-1.99,1.984a.035.035,0,0,1-.045-.007l-1.511-1.506a1.588,1.588,0,0,0-1.915-.25,10.146,10.146,0,0,1-2.41,1,1.587,1.587,0,0,0-1.17,1.531v2.129a.042.042,0,0,1-.036.037h-2.8a.042.042,0,0,1-.036-.037V36.244a1.587,1.587,0,0,0-1.17-1.531,10.159,10.159,0,0,1-2.41-1,1.587,1.587,0,0,0-1.915.25l-1.519,1.513a.035.035,0,0,1-.044-.007l-1.982-1.976a.044.044,0,0,1,0-.048l1.511-1.511a1.587,1.587,0,0,0,.252-1.916,9.987,9.987,0,0,1-1-2.4,1.587,1.587,0,0,0-1.533-1.175H43.909a.049.049,0,0,1-.036-.037V23.6Zm13.415,7.672A6.273,6.273,0,1,0,51.014,25,6.281,6.281,0,0,0,57.287,31.274Zm0-9.372a3.1,3.1,0,1,1-3.1,3.1A3.1,3.1,0,0,1,57.287,21.9Zm-26.3,22.781a6.273,6.273,0,1,0-6.273,6.273A6.281,6.281,0,0,0,30.988,44.683Zm-6.273,3.1a3.1,3.1,0,1,1,3.1-3.1A3.1,3.1,0,0,1,24.715,47.782Z" transform="translate(591.213 4131.551)" fill="#9eb3cf"/>
  </g>
</svg>
