<svg xmlns="http://www.w3.org/2000/svg" xmlns:xlink="http://www.w3.org/1999/xlink" width="143" height="143" viewBox="0 0 143 143">
  <defs>
    <linearGradient id="linear-gradient" x1="0.522" y1="1" x2="0.519" gradientUnits="objectBoundingBox">
      <stop offset="0" stop-color="#13224f"/>
      <stop offset="0" stop-color="#010d33"/>
      <stop offset="0.515" stop-color="#010d34"/>
      <stop offset="1" stop-color="#020b2a"/>
    </linearGradient>
  </defs>
  <g id="Group_142259" data-name="Group 142259" transform="translate(-577 -3878.676)">
    <g id="Ellipse_1974" data-name="Ellipse 1974" transform="translate(577 3878.676)" stroke="#1a2758" stroke-width="1" fill="url(#linear-gradient)">
      <circle cx="71.5" cy="71.5" r="71.5" stroke="none"/>
      <circle cx="71.5" cy="71.5" r="71" fill="none"/>
    </g>
    <g id="Group_18687" data-name="Group 18687" transform="translate(596.978 3896.31)">
      <g id="CIRCLE_87_" transform="translate(42.149 7)">
        <g id="Group_18669" data-name="Group 18669">
          <path id="Path_10829" data-name="Path 10829" d="M36.373,25.746A9.5,9.5,0,0,1,27,16.373a9.373,9.373,0,1,1,18.746,0A9.5,9.5,0,0,1,36.373,25.746Zm0-15A5.624,5.624,0,1,0,42,16.373,5.7,5.7,0,0,0,36.373,10.749Z" transform="translate(-27 -7)" fill="#9eb3cf"/>
        </g>
      </g>
      <g id="CIRCLE_86_" transform="translate(42.149 81.985)">
        <g id="Group_18670" data-name="Group 18670">
          <path id="Path_10830" data-name="Path 10830" d="M36.373,65.746a9.373,9.373,0,1,1,9.373-9.373A9.5,9.5,0,0,1,36.373,65.746Zm0-15A5.624,5.624,0,1,0,42,56.373,5.7,5.7,0,0,0,36.373,50.749Z" transform="translate(-27 -47)" fill="#9eb3cf"/>
        </g>
      </g>
      <g id="CIRCLE_85_" transform="translate(9.68 25.746)">
        <g id="Group_18671" data-name="Group 18671">
          <path id="Path_10831" data-name="Path 10831" d="M19.053,35.746a9.373,9.373,0,0,1,0-18.746,9.373,9.373,0,1,1,0,18.746Zm0-15a5.624,5.624,0,1,0,5.624,5.624A5.7,5.7,0,0,0,19.053,20.749Z" transform="translate(-9.68 -17)" fill="#9eb3cf"/>
        </g>
      </g>
      <g id="CIRCLE_84_" transform="translate(9.68 63.239)">
        <g id="Group_18672" data-name="Group 18672">
          <path id="Path_10832" data-name="Path 10832" d="M19.053,55.746a9.373,9.373,0,1,1,0-18.746,9.373,9.373,0,1,1,0,18.746Zm0-15a5.624,5.624,0,1,0,5.624,5.624A5.7,5.7,0,0,0,19.053,40.749Z" transform="translate(-9.68 -37)" fill="#9eb3cf"/>
        </g>
      </g>
      <g id="CIRCLE_83_" transform="translate(74.617 63.239)">
        <g id="Group_18673" data-name="Group 18673" transform="translate(0)">
          <path id="Path_10833" data-name="Path 10833" d="M53.693,55.746a9.373,9.373,0,1,1,9.373-9.373A9.5,9.5,0,0,1,53.693,55.746Zm0-15a5.624,5.624,0,1,0,5.624,5.624A5.7,5.7,0,0,0,53.693,40.749Z" transform="translate(-44.32 -37)" fill="#9eb3cf"/>
        </g>
      </g>
      <g id="CIRCLE_82_" transform="translate(74.617 25.746)">
        <g id="Group_18674" data-name="Group 18674" transform="translate(0)">
          <path id="Path_10834" data-name="Path 10834" d="M53.693,35.746a9.373,9.373,0,1,1,9.373-9.373A9.5,9.5,0,0,1,53.693,35.746Zm0-15a5.624,5.624,0,1,0,5.624,5.624A5.7,5.7,0,0,0,53.693,20.749Z" transform="translate(-44.32 -17)" fill="#9eb3cf"/>
        </g>
      </g>
      <g id="LINE_959_" transform="translate(23.67 74.485)">
        <g id="Group_18675" data-name="Group 18675">
          <path id="Path_10835" data-name="Path 10835" d="M38.5,58a1.87,1.87,0,0,1-.935-.251L18.081,46.5a1.875,1.875,0,0,1,1.875-3.247L39.438,54.5A1.875,1.875,0,0,1,38.5,58Z" transform="translate(-17.143 -42.999)" fill="#9eb3cf"/>
        </g>
      </g>
      <g id="LINE_958_" transform="translate(17.179 40.743)">
        <g id="Group_18676" data-name="Group 18676">
          <path id="Path_10836" data-name="Path 10836" d="M15.555,51.245A1.875,1.875,0,0,1,13.68,49.37v-22.5a1.875,1.875,0,1,1,3.749,0v22.5A1.875,1.875,0,0,1,15.555,51.245Z" transform="translate(-13.68 -25)" fill="#9eb3cf"/>
        </g>
      </g>
      <g id="LINE_957_" transform="translate(82.116 40.743)">
        <g id="Group_18677" data-name="Group 18677" transform="translate(0)">
          <path id="Path_10837" data-name="Path 10837" d="M50.195,51.245A1.875,1.875,0,0,1,48.32,49.37v-22.5a1.875,1.875,0,1,1,3.749,0v22.5A1.874,1.874,0,0,1,50.195,51.245Z" transform="translate(-48.32 -25)" fill="#9eb3cf"/>
        </g>
      </g>
      <g id="LINE_956_" transform="translate(56.139 18.246)">
        <g id="Group_18678" data-name="Group 18678">
          <path id="Path_10838" data-name="Path 10838" d="M55.819,28a1.87,1.87,0,0,1-.935-.251L35.4,16.5a1.875,1.875,0,1,1,1.875-3.247L56.758,24.5a1.875,1.875,0,0,1-.939,3.5Z" transform="translate(-34.463 -12.999)" fill="#9eb3cf"/>
        </g>
      </g>
      <g id="LWPOLYLINE_131_" transform="translate(27.152 29.498)">
        <g id="Group_18679" data-name="Group 18679">
          <path id="Path_10839" data-name="Path 10839" d="M43.37,67.739a24.471,24.471,0,0,1-4-.332l-.754-.126a1.874,1.874,0,0,1-1.565-1.848V62.681A20.356,20.356,0,0,1,34.188,61.5l-1.948,1.946a1.878,1.878,0,0,1-2.416.2L29.2,63.2a24.293,24.293,0,0,1-5.665-5.665l-.442-.619a1.878,1.878,0,0,1,.2-2.416l1.946-1.948a20.451,20.451,0,0,1-1.185-2.859h-2.75a1.874,1.874,0,0,1-1.848-1.565l-.126-.752a24.338,24.338,0,0,1,0-8.01l.126-.754a1.874,1.874,0,0,1,1.848-1.565h2.752a20.357,20.357,0,0,1,1.185-2.859L23.3,32.239a1.873,1.873,0,0,1-.2-2.416l.442-.621a24.293,24.293,0,0,1,5.665-5.665l.619-.442a1.874,1.874,0,0,1,2.416.2l1.948,1.946a20.451,20.451,0,0,1,2.859-1.185V21.3a1.874,1.874,0,0,1,1.565-1.848l.752-.126a24.544,24.544,0,0,1,8.01,0l.754.126A1.874,1.874,0,0,1,49.693,21.3v2.752a20.358,20.358,0,0,1,2.859,1.185L54.5,23.3a1.871,1.871,0,0,1,2.416-.2l.621.442A24.293,24.293,0,0,1,63.2,29.2l.442.619a1.878,1.878,0,0,1-.2,2.416L61.5,34.187a20.451,20.451,0,0,1,1.185,2.859h2.752a1.874,1.874,0,0,1,1.848,1.565l.126.752a24.338,24.338,0,0,1,0,8.01l-.126.754a1.874,1.874,0,0,1-1.848,1.565H62.685A20.359,20.359,0,0,1,61.5,52.551L63.446,54.5a1.873,1.873,0,0,1,.2,2.416l-.442.621A24.294,24.294,0,0,1,57.537,63.2l-.619.442a1.876,1.876,0,0,1-2.416-.2L52.554,61.5A20.451,20.451,0,0,1,49.7,62.683v2.752a1.874,1.874,0,0,1-1.565,1.848l-.752.126a24.757,24.757,0,0,1-4.008.33Zm-2.576-3.91a20.762,20.762,0,0,0,5.15,0V61.27a1.873,1.873,0,0,1,1.423-1.818,16.581,16.581,0,0,0,4.548-1.884,1.872,1.872,0,0,1,2.293.281l1.809,1.809a20.466,20.466,0,0,0,3.641-3.641l-1.809-1.809a1.875,1.875,0,0,1-.281-2.293,16.582,16.582,0,0,0,1.884-4.548,1.873,1.873,0,0,1,1.818-1.423h2.559a20.582,20.582,0,0,0,0-5.15H61.269a1.873,1.873,0,0,1-1.818-1.423,16.582,16.582,0,0,0-1.884-4.548,1.875,1.875,0,0,1,.281-2.293l1.809-1.809a20.465,20.465,0,0,0-3.641-3.641l-1.809,1.809a1.875,1.875,0,0,1-2.293.281,16.581,16.581,0,0,0-4.548-1.884,1.873,1.873,0,0,1-1.423-1.818V22.911a20.761,20.761,0,0,0-5.15,0V25.47a1.873,1.873,0,0,1-1.423,1.818,16.582,16.582,0,0,0-4.548,1.884,1.875,1.875,0,0,1-2.293-.281l-1.809-1.809a20.465,20.465,0,0,0-3.641,3.641l1.809,1.809a1.875,1.875,0,0,1,.281,2.293,16.581,16.581,0,0,0-1.884,4.548A1.873,1.873,0,0,1,25.469,40.8H22.91a20.583,20.583,0,0,0,0,5.15h2.559a1.873,1.873,0,0,1,1.818,1.423,16.581,16.581,0,0,0,1.884,4.548,1.875,1.875,0,0,1-.281,2.293l-1.809,1.809a20.466,20.466,0,0,0,3.641,3.641l1.809-1.809a1.872,1.872,0,0,1,2.293-.281,16.582,16.582,0,0,0,4.548,1.884,1.873,1.873,0,0,1,1.423,1.818Z" transform="translate(-19 -19.001)" fill="#9eb3cf"/>
        </g>
      </g>
      <g id="LINE_955_" transform="translate(39.095 18.247)">
        <g id="Group_18680" data-name="Group 18680">
          <path id="Path_10840" data-name="Path 10840" d="M27.248,19.093a1.875,1.875,0,0,1-.939-3.5l4.06-2.343A1.875,1.875,0,1,1,32.243,16.5l-4.06,2.343a1.87,1.87,0,0,1-.935.251Z" transform="translate(-25.371 -13)" fill="#9eb3cf"/>
        </g>
      </g>
      <g id="LINE_954_" transform="translate(32.601 23.403)">
        <g id="Group_18681" data-name="Group 18681">
          <path id="Path_10841" data-name="Path 10841" d="M23.784,20.437a1.875,1.875,0,0,1-.939-3.5L24.468,16a1.875,1.875,0,0,1,1.875,3.247l-1.623.937a1.87,1.87,0,0,1-.935.251Z" transform="translate(-21.907 -15.75)" fill="#9eb3cf"/>
        </g>
      </g>
      <g id="LINE_953_" transform="translate(23.672 27.151)">
        <g id="Group_18682" data-name="Group 18682">
          <path id="Path_10842" data-name="Path 10842" d="M19.021,23.843a1.875,1.875,0,0,1-.939-3.5L22.14,18a1.875,1.875,0,1,1,1.875,3.247l-4.059,2.343a1.87,1.87,0,0,1-.935.251Z" transform="translate(-17.144 -17.75)" fill="#9eb3cf"/>
        </g>
      </g>
      <g id="CIRCLE_81_" transform="translate(38.699 41.043)">
        <g id="Group_18683" data-name="Group 18683" transform="translate(0 0)">
          <path id="Path_10843" data-name="Path 10843" d="M37.982,50.8A12.822,12.822,0,1,1,50.8,37.982,12.993,12.993,0,0,1,37.982,50.8Zm0-21.9a9.073,9.073,0,1,0,9.073,9.073A9.194,9.194,0,0,0,37.982,28.909Z" transform="translate(-25.16 -25.16)" fill="#9eb3cf"/>
        </g>
      </g>
      <g id="LINE_952_" transform="translate(56.141 83.39)">
        <g id="Group_18684" data-name="Group 18684">
          <path id="Path_10844" data-name="Path 10844" d="M36.341,53.843a1.875,1.875,0,0,1-.939-3.5L39.462,48a1.875,1.875,0,1,1,1.875,3.247l-4.06,2.343A1.87,1.87,0,0,1,36.341,53.843Z" transform="translate(-34.464 -47.749)" fill="#9eb3cf"/>
        </g>
      </g>
      <g id="LINE_951_" transform="translate(65.07 79.641)">
        <g id="Group_18685" data-name="Group 18685" transform="translate(0)">
          <path id="Path_10845" data-name="Path 10845" d="M41.1,50.437a1.875,1.875,0,0,1-.939-3.5L41.788,46a1.875,1.875,0,0,1,1.875,3.247l-1.623.937A1.87,1.87,0,0,1,41.1,50.437Z" transform="translate(-39.227 -45.75)" fill="#9eb3cf"/>
        </g>
      </g>
      <g id="LINE_950_" transform="translate(71.563 74.487)">
        <g id="Group_18686" data-name="Group 18686" transform="translate(0)">
          <path id="Path_10846" data-name="Path 10846" d="M44.568,49.093a1.875,1.875,0,0,1-.939-3.5l4.059-2.343A1.875,1.875,0,1,1,49.562,46.5L45.5,48.841A1.86,1.86,0,0,1,44.568,49.093Z" transform="translate(-42.691 -43)" fill="#9eb3cf"/>
        </g>
      </g>
    </g>
  </g>
</svg>
