<svg xmlns="http://www.w3.org/2000/svg" xmlns:xlink="http://www.w3.org/1999/xlink" width="143" height="143" viewBox="0 0 143 143">
  <defs>
    <linearGradient id="linear-gradient" x1="0.522" y1="1" x2="0.519" gradientUnits="objectBoundingBox">
      <stop offset="0" stop-color="#13224f"/>
      <stop offset="0" stop-color="#010d33"/>
      <stop offset="0.515" stop-color="#010d34"/>
      <stop offset="1" stop-color="#020b2a"/>
    </linearGradient>
  </defs>
  <g id="Group_142258" data-name="Group 142258" transform="translate(-577 -3631.148)">
    <g id="Ellipse_1902" data-name="Ellipse 1902" transform="translate(577 3631.148)" stroke="#1a2758" stroke-width="1" fill="url(#linear-gradient)">
      <circle cx="71.5" cy="71.5" r="71.5" stroke="none"/>
      <circle cx="71.5" cy="71.5" r="71" fill="none"/>
    </g>
    <g id="Group_18668" data-name="Group 18668" transform="translate(606.201 3660.805)">
      <path id="Path_10810" data-name="Path 10810" d="M229.753,201.676a1.4,1.4,0,0,0,1.521-.3l10.85-10.85a1.407,1.407,0,0,0,.4-.86l.941-10.35,9.507-9.507c4.842-4.842,4.372-14.465,4.351-14.872a1.4,1.4,0,0,0-1.316-1.316c-.409-.022-10.029-.49-14.873,4.351l-9.507,9.507-10.35.941a1.4,1.4,0,0,0-.86.4l-10.85,10.85a1.4,1.4,0,0,0,.986,2.386h7.929l-1.36,4.083a1.4,1.4,0,0,0-.021.8c-1.579,1.589-2.684,6.717-2.984,8.253a1.4,1.4,0,0,0,1.374,1.653,1.348,1.348,0,0,0,.268-.027c1.535-.3,6.675-1.406,8.26-2.991l.008-.01a1.341,1.341,0,0,0,.34.068,1.387,1.387,0,0,0,.442-.072l4.083-1.36v7.934a1.4,1.4,0,0,0,.855,1.289ZM224.745,190.9l-4.7-4.7.985-2.959,6.672,6.673Zm.61-13.2,7.892,7.892-2.963,2.961-7.889-7.889Zm14.44,11.209-8.117,8.112V191.1l8.7-8.7Zm1.431-11.3-6,6-7.892-7.892,14.788-14.786,7.892,7.892Zm10.661-10.864-7.688-7.688c3.178-2.232,8.039-2.618,10.353-2.663-.042,2.316-.428,7.172-2.665,10.353Zm-37.961,12.523,8.112-8.112,6.512-.592-8.7,8.7Zm5.036,9.8,2.921,2.922a17.69,17.69,0,0,1-4.545,1.62,17.713,17.713,0,0,1,1.624-4.547Zm0,0" transform="translate(-174.584 -128.487)" fill="#9eb3cf"/>
      <path id="Path_10811" data-name="Path 10811" d="M402.685,226.509a1.4,1.4,0,0,0,0,1.973l1.98,1.973a1.4,1.4,0,0,0,1.973-1.973l-1.973-1.973a1.4,1.4,0,0,0-1.98,0Zm0,0" transform="translate(-336.131 -189.136)" fill="#9eb3cf"/>
      <path id="Path_10812" data-name="Path 10812" d="M380.613,250.746a1.4,1.4,0,0,0-1.973,1.973l1.973,1.973a1.395,1.395,0,0,0,1.972-1.973Zm0,0" transform="translate(-316.031 -209.427)" fill="#9eb3cf"/>
      <path id="Path_10813" data-name="Path 10813" d="M296.136,322.187a20.871,20.871,0,0,0,3.182-22.727,1.4,1.4,0,1,0-2.521,1.2,17.952,17.952,0,0,1,1.745,7.77,18.135,18.135,0,0,1-31.089,12.695,1.4,1.4,0,0,0-1.992,1.953,20.87,20.87,0,0,0,28.7,1.084l8.973,8.973a1.4,1.4,0,0,0,1.973-1.973Zm0,0" transform="translate(-221.36 -249.839)" fill="#9eb3cf"/>
      <path id="Path_10814" data-name="Path 10814" d="M4.642,251.163h30.69a1.4,1.4,0,1,0,0-2.79H4.642a1.4,1.4,0,0,1-1.4-1.4v-13.95a1.4,1.4,0,0,1,1.4-1.4h30.69a1.395,1.395,0,1,0,0-2.79H8.826v-5.58a1.4,1.4,0,1,0-2.79,0v5.58H4.642a4.185,4.185,0,0,0-4.185,4.185v13.95a4.185,4.185,0,0,0,4.185,4.185Zm0,0" transform="translate(0 -185.597)" fill="#9eb3cf"/>
      <path id="Path_10815" data-name="Path 10815" d="M34.59,300.063v8.37a1.4,1.4,0,1,0,2.79,0v-8.37a1.4,1.4,0,1,0-2.79,0Zm0,0" transform="translate(-28.553 -249.842)" fill="#9eb3cf"/>
      <path id="Path_10816" data-name="Path 10816" d="M195.166,9.765a1.4,1.4,0,0,0,1.4-1.395V5.58h7.232a4.185,4.185,0,1,0,0-2.79H190.981a2.79,2.79,0,0,0-2.79,2.79V8.37a1.4,1.4,0,0,0,2.79,0V5.58h2.79V8.37a1.4,1.4,0,0,0,1.395,1.395ZM207.721,2.79a1.4,1.4,0,1,1-1.395,1.395A1.395,1.395,0,0,1,207.721,2.79Zm0,0" transform="translate(-157.044 0)" fill="#9eb3cf"/>
      <path id="Path_10817" data-name="Path 10817" d="M188.191,76.637a1.395,1.395,0,1,0,2.79,0v-2.79h2.79v2.79a1.395,1.395,0,1,0,2.79,0v-2.79h7.232a4.185,4.185,0,1,0,0-2.79H190.981a2.79,2.79,0,0,0-2.79,2.79Zm19.53-5.58a1.4,1.4,0,1,1-1.395,1.395A1.395,1.395,0,0,1,207.721,71.057Zm0,0" transform="translate(-157.044 -57.107)" fill="#9eb3cf"/>
      <path id="Path_10818" data-name="Path 10818" d="M35.985,170.668a1.4,1.4,0,0,0-1.4,1.4v2.79a1.4,1.4,0,0,0,2.79,0v-2.79A1.4,1.4,0,0,0,35.985,170.668Zm0,0" transform="translate(-28.553 -142.768)" fill="#9eb3cf"/>
      <path id="Path_10819" data-name="Path 10819" d="M37.38,120.864a1.4,1.4,0,1,0-2.79,0v2.79a1.4,1.4,0,0,0,2.79,0Zm0,0" transform="translate(-28.553 -99.938)" fill="#9eb3cf"/>
      <path id="Path_10820" data-name="Path 10820" d="M37.38,69.664a1.4,1.4,0,0,0-2.79,0v2.79a1.4,1.4,0,1,0,2.79,0Zm0,0" transform="translate(-28.553 -57.109)" fill="#9eb3cf"/>
      <path id="Path_10821" data-name="Path 10821" d="M141.177,17.07h-2.79a1.4,1.4,0,0,0,0,2.79h2.79a1.4,1.4,0,1,0,0-2.79Zm0,0" transform="translate(-114.215 -14.28)" fill="#9eb3cf"/>
      <path id="Path_10822" data-name="Path 10822" d="M89.975,17.07h-2.79a1.4,1.4,0,1,0,0,2.79h2.79a1.4,1.4,0,1,0,0-2.79Zm0,0" transform="translate(-71.383 -14.28)" fill="#9eb3cf"/>
      <path id="Path_10823" data-name="Path 10823" d="M141.177,85.336h-2.79a1.4,1.4,0,0,0,0,2.79h2.79a1.395,1.395,0,1,0,0-2.79Zm0,0" transform="translate(-114.215 -71.386)" fill="#9eb3cf"/>
      <path id="Path_10824" data-name="Path 10824" d="M75.7,85.336h-5.58a1.4,1.4,0,1,0,0,2.79H75.7a1.395,1.395,0,1,0,0-2.79Zm0,0" transform="translate(-57.106 -71.386)" fill="#9eb3cf"/>
      <path id="Path_10825" data-name="Path 10825" d="M195.166,146.3a1.4,1.4,0,0,0,1.4-1.4v-2.79h7.232a4.185,4.185,0,1,0,0-2.79H190.981a2.79,2.79,0,0,0-2.79,2.79v2.79a1.4,1.4,0,1,0,2.79,0v-2.79h2.79v2.79a1.4,1.4,0,0,0,1.395,1.4Zm12.555-6.975a1.4,1.4,0,1,1-1.395,1.4A1.4,1.4,0,0,1,207.721,139.325Zm0,0" transform="translate(-157.044 -114.215)" fill="#9eb3cf"/>
      <path id="Path_10826" data-name="Path 10826" d="M141.177,153.6h-2.79a1.4,1.4,0,0,0,0,2.79h2.79a1.4,1.4,0,1,0,0-2.79Zm0,0" transform="translate(-114.215 -128.492)" fill="#9eb3cf"/>
      <path id="Path_10827" data-name="Path 10827" d="M75.7,153.6h-5.58a1.4,1.4,0,1,0,0,2.79H75.7a1.4,1.4,0,1,0,0-2.79Zm0,0" transform="translate(-57.106 -128.492)" fill="#9eb3cf"/>
      <path id="Path_10828" data-name="Path 10828" d="M38.775,19.86a1.4,1.4,0,0,0,0-2.79,4.185,4.185,0,0,0-4.185,4.185,1.4,1.4,0,1,0,2.79,0,1.4,1.4,0,0,1,1.4-1.395Zm0,0" transform="translate(-28.553 -14.28)" fill="#9eb3cf"/>
    </g>
  </g>
</svg>
