<svg id="Group_2271" data-name="Group 2271" xmlns="http://www.w3.org/2000/svg" xmlns:xlink="http://www.w3.org/1999/xlink" width="40.492" height="39.018" viewBox="0 0 40.492 39.018">
  <defs>
    <clipPath id="clip-path">
      <rect id="Rectangle_634" data-name="Rectangle 634" width="40.492" height="39.018" fill="#fff"/>
    </clipPath>
  </defs>
  <g id="Group_2207" data-name="Group 2207" clip-path="url(#clip-path)">
    <path id="Path_4939" data-name="Path 4939" d="M79.653,114.794c-.96-1.66-1.912-3.324-2.887-4.975a.812.812,0,0,1-.019-.986,10.881,10.881,0,0,0,1.488-7.856,11.145,11.145,0,0,0-10.964-9.111c-.508.034-1.021.034-1.524.105a11.129,11.129,0,0,0-7.963,16.854.82.82,0,0,1-.008.987c-.989,1.67-1.948,3.356-2.924,5.033-.181.312-.335.605-.1.963s.594.322.936.271c.731-.11,1.461-.23,2.186-.372.621-.122,1.144-.136,1.523.535A9.634,9.634,0,0,0,60.48,117.6c.59.7,1.032.672,1.493-.116.642-1.1,1.283-2.193,1.9-3.3.18-.322.321-.463.746-.351a10.244,10.244,0,0,0,5.285,0c.416-.109.566.013.75.342.642,1.149,1.3,2.287,1.979,3.418.38.637.835.674,1.32.115.455-.524.9-1.061,1.313-1.616a.892.892,0,0,1,1.038-.434c.808.189,1.636.3,2.46.415.36.052.74.127,1.011-.255s.062-.7-.124-1.022m-17-1.256q-.688,1.156-1.352,2.327c-.149.262-.263.253-.439.023-.308-.4-.667-.77-.949-1.19a1.169,1.169,0,0,0-1.316-.5,7.09,7.09,0,0,1-1.9.237l2.278-3.944a11.632,11.632,0,0,0,3.525,2.587c.235.107.3.225.156.46m4.6-.766a9.746,9.746,0,1,1,9.76-9.745,9.766,9.766,0,0,1-9.76,9.745m8.756,1.436a1.283,1.283,0,0,0-1.477.583c-.309.456-.691.863-1.118,1.385-.552-.947-1.054-1.822-1.571-2.688-.143-.24-.012-.318.169-.4a11.6,11.6,0,0,0,3.543-2.605l2.266,3.938a5.189,5.189,0,0,1-1.811-.213" transform="translate(-47.031 -79.084)" fill="#fff"/>
    <path id="Path_4940" data-name="Path 4940" d="M222.734,48.67c-.727-.13-1.461-.231-2.2-.3a.97.97,0,0,1-.934-.648c-.268-.661-.617-1.29-.919-1.938-.144-.31-.319-.57-.7-.579-.419-.01-.6.285-.755.61-.309.645-.657,1.274-.92,1.937a.852.852,0,0,1-.816.587c-.757.08-1.51.2-2.265.3a.719.719,0,0,0-.676.5.739.739,0,0,0,.284.8c.585.56,1.159,1.132,1.754,1.68a.665.665,0,0,1,.221.728c-.186.832-.32,1.677-.473,2.516a.7.7,0,0,0,1.1.641c.722-.359,1.434-.743,2.132-1.147a.72.72,0,0,1,.818,0c.678.394,1.376.753,2.065,1.127a.745.745,0,0,0,.847.027.712.712,0,0,0,.276-.795c-.13-.7-.24-1.411-.393-2.11a1.032,1.032,0,0,1,.348-1.158,20.633,20.633,0,0,0,1.609-1.53c.525-.541.337-1.121-.407-1.254m-2.744,4.988a2.655,2.655,0,0,0-3.962.078c-.031-.881.431-1.581.21-2.258s-.99-.991-1.523-1.734c1.837.278,2.825-.546,3.257-2.25.458,1.654,1.377,2.56,3.229,2.328-1.42.986-1.993,2.157-1.211,3.837" transform="translate(-182.948 -38.914)" fill="#fff"/>
    <path id="Path_4941" data-name="Path 4941" d="M117.121,3.884c-.14-.385-.5-.443-.853-.49-.733-.1-1.466-.211-2.2-.276a.653.653,0,0,1-.617-.44c-.321-.715-.681-1.413-1.016-2.122-.147-.311-.326-.556-.714-.556s-.567.243-.715.555c-.336.709-.7,1.405-1.02,2.12a.659.659,0,0,1-.619.441c-.782.073-1.562.184-2.34.293a.735.735,0,0,0-.441,1.339c.56.52,1.091,1.071,1.663,1.577a.835.835,0,0,1,.291.908c-.172.789-.3,1.588-.43,2.286-.02.773.429,1.1,1.036.8.747-.363,1.478-.76,2.2-1.174a.654.654,0,0,1,.753,0c.7.4,1.412.785,2.133,1.149.682.344,1.176.028,1.094-.729a20.967,20.967,0,0,0-.377-2.113,1.065,1.065,0,0,1,.354-1.219c.524-.416.966-.932,1.464-1.381a.846.846,0,0,0,.357-.967m-3.133,1.68a1.279,1.279,0,0,0-.516,1.515,13.483,13.483,0,0,1,.265,1.478c-1.379-1.221-2.666-1.252-3.959-.051-.032-.892.452-1.6.2-2.279-.238-.646-.962-.97-1.471-1.595.472-.057.886-.12,1.3-.154a1.335,1.335,0,0,0,1.311-.932,11.955,11.955,0,0,1,.555-1.185c.488.577.528,1.409,1.078,1.827.577.438,1.384.263,2.178.482-.337.322-.621.634-.947.894" transform="translate(-91.48 0)" fill="#fff"/>
    <path id="Path_4942" data-name="Path 4942" d="M10.554,50a.721.721,0,0,0-.4-1.331c-.779-.1-1.554-.228-2.333-.317a.73.73,0,0,1-.668-.484c-.324-.738-.7-1.455-1.046-2.181a.7.7,0,0,0-.633-.464.707.707,0,0,0-.685.482c-.342.73-.727,1.441-1.056,2.177a.655.655,0,0,1-.607.448c-.8.085-1.6.22-2.4.327a.741.741,0,0,0-.68.5.716.716,0,0,0,.268.8c.515.5,1.006,1.03,1.564,1.475a1.065,1.065,0,0,1,.371,1.217c-.158.721-.278,1.45-.4,2.089-.036.79.43,1.1,1.081.781.682-.337,1.358-.69,2.006-1.087A.907.907,0,0,1,6,54.45c.631.38,1.292.711,1.941,1.061a.715.715,0,0,0,1.113-.783c-.149-.77-.249-1.55-.432-2.312a.7.7,0,0,1,.226-.787c.58-.53,1.137-1.086,1.7-1.63m-3.1,3.671a2.784,2.784,0,0,0-4,0,2.79,2.79,0,0,0-1.243-3.806,2.687,2.687,0,0,0,3.21-2.371c.472,1.67,1.393,2.588,3.246,2.373a2.747,2.747,0,0,0-1.217,3.808" transform="translate(0 -38.929)" fill="#fff"/>
    <path id="Path_4943" data-name="Path 4943" d="M103.2,122.82a6.837,6.837,0,1,0,6.793,6.865,6.813,6.813,0,0,0-6.793-6.865m-.06,12.282a5.443,5.443,0,1,1,5.46-5.441,5.4,5.4,0,0,1-5.46,5.441" transform="translate(-82.917 -105.73)" fill="#fff"/>
    <path id="Path_4944" data-name="Path 4944" d="M123.557,162.418a.754.754,0,0,1-.612-.4c-.439-.759-.861-1.528-1.3-2.284a.631.631,0,0,1,.228-.947.62.62,0,0,1,.944.237,8.008,8.008,0,0,1,.656,1.139c.2.434.362.346.635.064.9-.929,1.83-1.836,2.744-2.754.289-.291.622-.456.987-.2a.631.631,0,0,1,.1,1.062c-1.267,1.284-2.548,2.556-3.825,3.831a.755.755,0,0,1-.554.25" transform="translate(-104.606 -135.278)" fill="#fff"/>
  </g>
</svg>
