<svg id="Group_627" data-name="Group 627" xmlns="http://www.w3.org/2000/svg" width="30.885" height="46.167" viewBox="0 0 30.885 46.167">
  <path id="Path_3485" data-name="Path 3485" d="M19.625,46.227l5.64-1.629,3.845,4.436a.769.769,0,0,0,.581.265.787.787,0,0,0,.164-.017.771.771,0,0,0,.575-.533l3.653-12.331,3.653,12.331a.77.77,0,0,0,.575.533.787.787,0,0,0,.164.017.769.769,0,0,0,.581-.265L42.9,44.6l5.64,1.629a.769.769,0,0,0,.95-.956L44.686,29.039l.06-1.26a1.541,1.541,0,0,1,1-1.372l1.574-.594a3.084,3.084,0,0,0,1.489-4.576l-.923-1.406a1.538,1.538,0,0,1,0-1.693l.923-1.408a3.084,3.084,0,0,0-1.489-4.576l-1.574-.594a1.544,1.544,0,0,1-1-1.37l-.081-1.681A3.082,3.082,0,0,0,40.774,5.68l-1.624.444A1.546,1.546,0,0,1,37.538,5.6L36.486,4.287a3.082,3.082,0,0,0-4.809,0L30.624,5.6a1.541,1.541,0,0,1-1.612.523l-1.624-.444A3.082,3.082,0,0,0,23.5,8.506l-.081,1.681a1.536,1.536,0,0,1-1,1.37l-1.574.594a3.084,3.084,0,0,0-1.489,4.576l.923,1.406a1.538,1.538,0,0,1,0,1.693l-.923,1.408a3.084,3.084,0,0,0,1.489,4.576l1.574.594a1.547,1.547,0,0,1,1,1.372l.06,1.26L18.671,45.269a.769.769,0,0,0,.95.956Zm23.23-3.245a.768.768,0,0,0-.794.235l-3.247,3.745L35.157,34.622a3.052,3.052,0,0,0,1.331-.945l1.052-1.314a1.541,1.541,0,0,1,1.612-.523l1.624.442a2.955,2.955,0,0,0,3.02-.841l3.822,12.912-4.761-1.375ZM22.968,24.967l-1.574-.594a1.543,1.543,0,0,1-.744-2.289l.923-1.406a3.079,3.079,0,0,0,0-3.384l-.923-1.406a1.543,1.543,0,0,1,.744-2.289L22.968,13a3.078,3.078,0,0,0,1.989-2.737l.081-1.681a1.544,1.544,0,0,1,1.949-1.416l1.624.444a3.077,3.077,0,0,0,3.218-1.046l1.052-1.314a1.591,1.591,0,0,1,2.408,0l1.052,1.314A3.085,3.085,0,0,0,39.56,7.613l1.624-.444a1.544,1.544,0,0,1,1.949,1.416l.081,1.681A3.078,3.078,0,0,0,45.2,13l1.574.594a1.543,1.543,0,0,1,.744,2.289L46.6,17.293a3.079,3.079,0,0,0,0,3.384l.923,1.406a1.543,1.543,0,0,1-.744,2.289l-1.574.594A3.078,3.078,0,0,0,43.213,27.7l-.063,1.331v.006l-.015.344A1.544,1.544,0,0,1,41.185,30.8l-1.624-.442a3.079,3.079,0,0,0-3.218,1.046l-1.052,1.314a1.591,1.591,0,0,1-2.408,0l-1.052-1.314a3.079,3.079,0,0,0-2.4-1.154,3.025,3.025,0,0,0-.814.11l-1.624.444a1.544,1.544,0,0,1-1.949-1.416l-.015-.344v-.006l-.063-1.331a3.076,3.076,0,0,0-1.989-2.737Zm1.4,6.479a2.955,2.955,0,0,0,3.02.841l1.624-.444a1.545,1.545,0,0,1,1.612.523l1.052,1.314a3.048,3.048,0,0,0,1.331.943L29.353,46.962l-3.247-3.745a.766.766,0,0,0-.794-.235L20.55,44.358l3.822-12.912Z" transform="translate(-18.639 -3.133)" fill="#fff"/>
  <path id="Path_3486" data-name="Path 3486" d="M40.384,35.034a9.126,9.126,0,1,0-9.126-9.126A9.136,9.136,0,0,0,40.384,35.034Zm0-16.713A7.587,7.587,0,1,1,32.8,25.907,7.595,7.595,0,0,1,40.384,18.32Z" transform="translate(-25.043 -10.06)" fill="#fff"/>
</svg>
