<svg id="Group_2319" data-name="Group 2319" xmlns="http://www.w3.org/2000/svg" xmlns:xlink="http://www.w3.org/1999/xlink" width="45.047" height="45.057" viewBox="0 0 45.047 45.057">
  <defs>
    <clipPath id="clip-path">
      <rect id="Rectangle_750" data-name="Rectangle 750" width="45.047" height="45.057" fill="#9eb3cf" stroke="rgba(0,0,0,0)" stroke-width="1"/>
    </clipPath>
    <clipPath id="clip-path-3">
      <rect id="Rectangle_748" data-name="Rectangle 748" width="18.308" height="23.961" fill="#9eb3cf" stroke="rgba(0,0,0,0)" stroke-width="1"/>
    </clipPath>
  </defs>
  <g id="Group_2318" data-name="Group 2318" clip-path="url(#clip-path)">
    <g id="Group_2317" data-name="Group 2317">
      <g id="Group_2316" data-name="Group 2316" clip-path="url(#clip-path)">
        <path id="Path_7250" data-name="Path 7250" d="M120.379,201.608c2.475,0,4.95.018,7.425-.014.553-.007.649.178.644.677s-.054.733-.672.729q-7.425-.046-14.85,0c-.581,0-.688-.174-.7-.715-.016-.6.2-.692.731-.686,2.475.027,4.95.012,7.425.012" transform="translate(-95.366 -171.313)" fill="#9eb3cf" stroke="rgba(0,0,0,0)" stroke-width="1"/>
        <path id="Path_7251" data-name="Path 7251" d="M120.4,220.251c2.472,0,4.945.026,7.417-.018.642-.012.646.269.654.748s-.062.695-.633.692q-7.454-.036-14.909,0c-.519,0-.7-.128-.674-.662.023-.469,0-.783.653-.773,2.5.038,4.994.015,7.492.015" transform="translate(-95.393 -187.153)" fill="#9eb3cf" stroke="rgba(0,0,0,0)" stroke-width="1"/>
        <path id="Path_7252" data-name="Path 7252" d="M137.663,259.039c-2.027,0-4.054-.027-6.08.016-.63.013-.583-.3-.594-.73-.011-.455.009-.712.61-.707q6.08.045,12.16,0c.677-.006.6.325.63.764.035.51-.1.684-.646.675-2.026-.035-4.053-.014-6.08-.014" transform="translate(-111.312 -218.92)" fill="#9eb3cf" stroke="rgba(0,0,0,0)" stroke-width="1"/>
        <path id="Path_7253" data-name="Path 7253" d="M118.248,240.3c-1.776,0-3.552-.026-5.327.014-.6.014-.629-.274-.615-.726.013-.416-.054-.754.589-.748q5.4.046,10.805,0c.622-.006.6.288.6.723.008.478,0,.774-.651.756-1.8-.051-3.6-.018-5.4-.018" transform="translate(-95.434 -202.964)" fill="#9eb3cf" stroke="rgba(0,0,0,0)" stroke-width="1"/>
        <path id="Path_7254" data-name="Path 7254" d="M201.882,238.8c.695-.175.644.27.691.756.066.68-.29.662-.789.7-.679.056-.666-.294-.7-.795-.05-.671.268-.762.8-.664" transform="translate(-170.872 -202.895)" fill="#9eb3cf" stroke="rgba(0,0,0,0)" stroke-width="1"/>
        <path id="Path_7255" data-name="Path 7255" d="M112.98,257.628c.748-.19.644.3.692.758.068.655-.3.608-.754.649-.642.058-.694-.233-.725-.768-.04-.69.292-.743.787-.638" transform="translate(-95.338 -218.895)" fill="#9eb3cf" stroke="rgba(0,0,0,0)" stroke-width="1"/>
        <path id="Path_7256" data-name="Path 7256" d="M68.823,16.486c.012-.693-.3-1.016-.989-1.009-.85.009-1.7-.04-2.551.017-.586.039-.69-.167-.686-.709q.036-5.816.009-11.632A2.938,2.938,0,0,0,61.474,0L38.434.009c-2.276,0-4.553-.017-6.829.006a3.479,3.479,0,0,0-3.6,3.376c-.032,6.679-.015,13.358-.013,20.038,0,.164-.073.432.116.463a2.69,2.69,0,0,0,1.114,0c.33-.091.167-.474.168-.722q.014-9.456.007-18.912c0-2.156.678-2.843,2.806-2.843H58.4c.15,0,.3.009.45,0,.351-.024.457.1.3.437a3.608,3.608,0,0,0-.2,1.547q0,9.756,0,19.512c0,6.629-.014,13.259.02,19.888,0,.754-.218.881-.915.878-6.729-.028-13.458-.011-20.187-.028-.524,0-.74.074-.731.676.008.585.157.737.745.735,7.054-.022,14.109-.014,21.163-.014,1.228,0,1.351-.125,1.351-1.384,0-6.8.008-13.609-.014-20.413,0-.6.166-.749.747-.733,1.575.043,3.152.029,4.727.018a2.81,2.81,0,0,0,2.961-2.894c.023-1.05-.009-2.1.009-3.152M60.8,21.146c-.5.014-.4-.324-.4-.606,0-1.551,0-3.1,0-4.654q0-6.3,0-12.61A2.319,2.319,0,0,1,60.5,2.241a1.3,1.3,0,0,1,1.4-.787,1.359,1.359,0,0,1,1.241,1.214,4.8,4.8,0,0,1,.029.824c0,4.6-.013,9.207.01,13.811a9.663,9.663,0,0,0,.319,3.836c-.962,0-1.833-.017-2.7.007m6.6-1.428a1.43,1.43,0,0,1-1.439,1.416,1.406,1.406,0,0,1-1.351-1.484c-.013-.373,0-.747,0-1.12,0-1.615,0-1.615,1.614-1.615,1.192,0,1.193,0,1.192,1.161,0,.548.024,1.1-.014,1.642" transform="translate(-23.777 0)" fill="#9eb3cf" stroke="rgba(0,0,0,0)" stroke-width="1"/>
        <g id="Group_2315" data-name="Group 2315" transform="translate(11.263 4.22)" opacity="0.98">
          <g id="Group_2314" data-name="Group 2314">
            <g id="Group_2313" data-name="Group 2313" clip-path="url(#clip-path-3)">
              <path id="Path_7257" data-name="Path 7257" d="M87.6,45.729a9.159,9.159,0,0,0-3.628-17.635c-.409.043-.987.069-1.551.169a9.175,9.175,0,0,0-5.683,14.386,8.671,8.671,0,0,0,4.114,3.128c.485.172.468.478.473.863,0,.33-.053.532-.444.487-.24-.028-.3.147-.275.34.046.334-.155.935.12.96.86.076.57.651.583,1.075.031.984.141,1.161,1.144,1.095.78-.052,1.093.181.958.967-.1.587.334.494.669.478s.859.176.755-.474c-.143-.893.288-1.017,1.047-.969.9.057,1.032-.129,1.047-1.038,0-.125,0-.25,0-.375,0-.339-.1-.725.486-.691.314.018.222-.289.207-.458-.027-.3.171-.836-.142-.858-.656-.046-.525-.427-.555-.811-.039-.511.368-.511.674-.636m-2.418,3.517c-.718-.01-1.436-.008-2.154,0-.258,0-.344-.114-.34-.36,0-.23.057-.384.326-.381.4,0,.792,0,1.188,0,.322,0,.645.013.966,0s.365.145.367.409-.107.341-.353.337m-.108-2.115c-.62-.026-1.242-.023-1.862,0-.361.012-.553-.058-.529-.482s.289-.3.52-.284c.3.015.6.027.893.04.323-.014.647-.011.967-.048.264-.03.476-.091.477.315,0,.357-.108.475-.466.46m.42-2.245c-.444.073-.7.06-.66-.512a21.658,21.658,0,0,0,0-2.324c-.021-.476.161-.614.607-.58.423.032.85,0,1.275.009.615.018.958-.235.912-.883a1.817,1.817,0,0,1,.779-1.889,1.982,1.982,0,0,0-.023-2.983,2.107,2.107,0,1,0-2.795,3.151,2.2,2.2,0,0,0,.433.29c.346.17.229.477.2.724-.037.293-.316.175-.49.176-1.05.011-2.1.014-3.15,0-.187,0-.5.155-.534-.21-.029-.284-.072-.56.286-.76a1.971,1.971,0,0,0,1.074-1.841,2.058,2.058,0,0,0-1.644-2.038A2.092,2.092,0,0,0,79.437,36.3a1.952,1.952,0,0,0,.536,2.55,1.388,1.388,0,0,1,.637,1.426c-.029,1.071.123,1.2,1.2,1.2,1.6,0,1.6,0,1.6,1.586v1.865a7.725,7.725,0,1,1,8.407-6.682,7.826,7.826,0,0,1-6.322,6.64m.764-7.643a.629.629,0,0,1,.654-.669.654.654,0,0,1,.723.67.665.665,0,0,1-.7.719.65.65,0,0,1-.681-.72m-4.947.724a.663.663,0,0,1-.692-.724.635.635,0,0,1,.657-.672c.45-.023.662.269.756.677-.084.4-.277.727-.722.719" transform="translate(-74.984 -28.094)" fill="#9eb3cf" stroke="rgba(0,0,0,0)" stroke-width="1"/>
            </g>
          </g>
        </g>
        <path id="Path_7258" data-name="Path 7258" d="M14.773,167.595c-.354-.278-.421-.528-.032-.828a1.662,1.662,0,0,0,.624-1.995,1.724,1.724,0,0,0-1.7-1.229c-.433-.017-.627-.233-.509-.7a1.685,1.685,0,0,0-.68-1.918,1.747,1.747,0,0,0-2.041-.1c-.512.307-.8.2-1.034-.356a1.675,1.675,0,0,0-1.61-1.032,1.69,1.69,0,0,0-1.7,1c-.255.57-.536.7-1.088.37a1.72,1.72,0,0,0-1.977.1,1.668,1.668,0,0,0-.708,1.9c.123.466-.036.7-.462.722A1.748,1.748,0,0,0,.1,164.8a1.7,1.7,0,0,0,.645,1.991c.3.238.319.5.015.745A1.719,1.719,0,0,0,.1,169.522a1.772,1.772,0,0,0,1.736,1.293c.424.028.613.21.489.7a1.646,1.646,0,0,0,.824,1.98.7.7,0,0,1,.358.727c-.009,1.726,0,3.452-.005,5.178,0,.434-.012.882.474,1.081.461.189.744-.135,1.03-.422.777-.779,1.573-1.541,2.328-2.34.3-.322.475-.376.808-.017.782.842,1.622,1.63,2.428,2.45.261.265.537.476.921.341.436-.154.465-.539.464-.929,0-.9,0-1.8,0-2.7,0-.85.017-1.7-.008-2.551a.813.813,0,0,1,.433-.845,1.6,1.6,0,0,0,.8-1.858c-.139-.585.054-.775.6-.816a1.7,1.7,0,0,0,1.6-1.257,1.656,1.656,0,0,0-.605-1.936m-4.227,10.361-.174.057c-.627-.644-1.246-1.295-1.881-1.931s-.879-.627-1.487-.02c-.636.634-1.256,1.285-1.867,1.911-.3-.1-.2-.31-.2-.461-.009-1.149.008-2.3-.012-3.446-.007-.381.107-.634.485-.719.343-.077.491.15.61.42A1.757,1.757,0,0,0,7.714,174.9a1.753,1.753,0,0,0,1.752-1.16c.115-.279.291-.484.624-.392a.545.545,0,0,1,.463.583c-.015,1.34-.006,2.681-.006,4.021m3.2-9.386c.155.152.393.26.285.537-.1.245-.31.273-.549.305a1.808,1.808,0,0,0-1.72,2.289c.042.247.071.429-.145.59s-.415.036-.62-.063a1.851,1.851,0,0,0-2.762.831c-.342.584-.666.575-1.012-.029a1.839,1.839,0,0,0-2.707-.822c-.231.114-.436.261-.685.062a.4.4,0,0,1-.155-.463c.145-1.609-.21-2.092-1.792-2.4a.524.524,0,0,1-.456-.329c-.07-.2.085-.313.208-.44,1.076-1.116,1.077-1.813.006-2.933-.121-.127-.295-.243-.221-.436a.59.59,0,0,1,.516-.365c1.5-.239,1.919-.809,1.744-2.348-.053-.468.227-.667.693-.493,1.593.6,2.027.465,2.913-.883.3-.452.613-.444.9.022.8,1.29,1.428,1.486,2.858.882a.55.55,0,0,1,.627.016c.189.156.119.334.084.541a1.771,1.771,0,0,0,1.726,2.262.6.6,0,0,1,.544.32c.126.278-.117.4-.269.547a1.76,1.76,0,0,0-.015,2.8" transform="translate(0 -135.488)" fill="#9eb3cf" stroke="rgba(0,0,0,0)" stroke-width="1"/>
        <path id="Path_7259" data-name="Path 7259" d="M141.95,49.263c-.7.166-.852-.06-.9-.618a5.559,5.559,0,0,0-4.892-4.9.959.959,0,0,1-.627-1.34c.1-.162.26-.106.4-.1a7.124,7.124,0,0,1,6.589,6.593c.007.671-.465.317-.576.367" transform="translate(-115.089 -35.94)" fill="#9eb3cf" stroke="rgba(0,0,0,0)" stroke-width="1"/>
        <path id="Path_7260" data-name="Path 7260" d="M27.594,182.789a4.217,4.217,0,1,0-.068,8.434,4.217,4.217,0,0,0,.068-8.434m-.058,7.045a2.819,2.819,0,1,1,2.829-2.792,2.816,2.816,0,0,1-2.829,2.792" transform="translate(-19.823 -155.333)" fill="#9eb3cf" stroke="rgba(0,0,0,0)" stroke-width="1"/>
      </g>
    </g>
  </g>
</svg>
