<svg id="Group_2310" data-name="Group 2310" xmlns="http://www.w3.org/2000/svg" xmlns:xlink="http://www.w3.org/1999/xlink" width="48.781" height="45.495" viewBox="0 0 48.781 45.495">
  <defs>
    <clipPath id="clip-path">
      <rect id="Rectangle_746" data-name="Rectangle 746" width="48.781" height="45.495" rx="22.747" fill="#9eb3cf" stroke="rgba(0,0,0,0)" stroke-width="1"/>
    </clipPath>
  </defs>
  <g id="Group_2309" data-name="Group 2309" clip-path="url(#clip-path)">
    <path id="Path_7240" data-name="Path 7240" d="M48.769,22.472a2.959,2.959,0,0,0-2.5-2.674,2.878,2.878,0,0,0-3.2,1.753.6.6,0,0,1-.65.46q-4.383-.018-8.765,0c-.379,0-.536-.1-.564-.5a8.771,8.771,0,0,0-.419-1.923,12.741,12.741,0,0,0-1.448-2.915c2.257,0,4.406-.02,6.555.01a2.681,2.681,0,0,0,2.163-.9c.238-.264.518-.49.746-.761a.7.7,0,0,1,.977-.222,2.4,2.4,0,0,0,1.783.1,3,3,0,0,0,2.083-3.823,3.05,3.05,0,0,0-3.882-1.872,3.005,3.005,0,0,0-1.716,3.94c.056.155.2.287.1.5a3.972,3.972,0,0,1-2.489,1.621c-2.312,0-4.624-.009-6.936.007a1.666,1.666,0,0,1-1.169-.4,9.106,9.106,0,0,0-5-2.2c-.788-.075-1.1-.368-.964-1.168a4.1,4.1,0,0,0,0-1.14c-.052-.475.115-.6.586-.593,1.88.027,3.764-.066,5.639.036a3.723,3.723,0,0,0,3.464-1.465.934.934,0,0,1,1.172-.318A3,3,0,0,0,37.923,4.8a2.916,2.916,0,0,0-2.2-2.542,2.8,2.8,0,0,0-3.025.915A2.87,2.87,0,0,0,32.3,6.5c.073.152.223.282.163.486A3.561,3.561,0,0,1,30.5,8.378c-2.134,0-4.268-.015-6.4.014-.525.007-.624-.176-.619-.655.023-2.235.013-4.471.009-6.706,0-.9-.136-1.021-1.009-1.029A19.449,19.449,0,0,0,18.1.474,22.5,22.5,0,0,0,2.819,11.767c-.254.443-.451.911.122,1.251.6.355.874-.1,1.114-.535A24.6,24.6,0,0,1,6.26,9.2c.285-.364.477-.382.851-.118a22.09,22.09,0,0,0,4.25,2.346c.521.216.533.423.331.885a25.75,25.75,0,0,0-2.083,9.129c-.023.46-.13.6-.6.6Q5.5,22.007,2,22.043c-.509.006-.565-.166-.531-.617a21.623,21.623,0,0,1,1.086-5.5c.156-.451.149-.9-.361-1.088-.545-.2-.831.128-1,.633A20.83,20.83,0,0,0,.173,19.829,22.7,22.7,0,0,0,3.189,34.371a22.455,22.455,0,0,0,6.589,7.076c.595.414,1.161.332,1.315-.179a.81.81,0,0,0-.436-.954,18.412,18.412,0,0,1-3.013-2.544,28.121,28.121,0,0,1,4.41-2.476c.405-.187.58-.133.8.273a24.5,24.5,0,0,0,2.821,4.14,28.146,28.146,0,0,0,4.447,4.208c-.232-.013-.324-.009-.414-.024a22.1,22.1,0,0,1-5.941-1.79.708.708,0,0,0-1,.2c-.323.435-.133.859.537,1.162A21.816,21.816,0,0,0,22.424,45.5c.934,0,1.06-.117,1.061-1.053,0-2.235,0-4.471,0-6.707,0-.283-.112-.627.4-.623,2.287.014,4.574-.024,6.859.026.786.017,1.144.79,1.63,1.281.324.327-.15.63-.252.939a2.987,2.987,0,0,0,4.631,3.382,2.978,2.978,0,0,0,.943-3.477,2.778,2.778,0,0,0-3.01-1.829,1.717,1.717,0,0,1-1.974-.735,2.838,2.838,0,0,0-2.43-1c-1.574.046-3.15.027-4.725.006-.676-.009-1.574.3-1.963-.139-.333-.374-.055-1.258-.126-1.907-.063-.573.165-.723.691-.779a9.9,9.9,0,0,0,5.478-2.409,1.145,1.145,0,0,1,.842-.234c2.058,0,4.12.081,6.172-.029a3.268,3.268,0,0,1,3.04,1.274c.254.327.4.537.221.977a2.915,2.915,0,0,0,1.148,3.53,2.974,2.974,0,0,0,3.708-.382,3.022,3.022,0,0,0,.445-3.7,2.92,2.92,0,0,0-3.509-1.212c-.441.167-.752.164-1.04-.232a3.931,3.931,0,0,0-3.987-1.643,9.743,9.743,0,0,1-1.294.009H31.223c.158-.255.25-.4.338-.548a3.316,3.316,0,0,0,.3-.526.7.7,0,0,0-.276-.929.647.647,0,0,0-.926.214,4.941,4.941,0,0,0-.29.446,8.636,8.636,0,0,1-5.237,3.778c-1.652.424-1.647.386-1.652-1.31,0-.454.087-.62.594-.7a6.608,6.608,0,0,0-.023-13.038c-.457-.074-.569-.241-.571-.679-.01-1.663-.025-1.664,1.6-1.308.148.032.293.08.438.122a8.751,8.751,0,0,1,6.159,9.582c-.057.51-.005.977.577,1.046.616.073.85-.375.841-.922-.008-.5.195-.635.683-.631q4.268.033,8.536,0a.711.711,0,0,1,.778.515,2.92,2.92,0,0,0,3.669,1.608,2.981,2.981,0,0,0,2.013-3.071m-6.039-12.03a1.6,1.6,0,0,1,1.5,1.6,1.545,1.545,0,0,1-3.089-.017,1.6,1.6,0,0,1,1.591-1.584M34.958,3.559a1.527,1.527,0,0,1,1.511,1.558,1.5,1.5,0,0,1-1.513,1.544,1.533,1.533,0,0,1-1.567-1.507,1.564,1.564,0,0,1,1.569-1.595M22.074,12.017c0,.312-.124.393-.408.378A26.928,26.928,0,0,1,14.3,11.038c-.586-.2-.156-.485-.048-.679a23.956,23.956,0,0,1,5.675-6.785c.641-.532,1.322-1.014,2.143-1.64,0,3.5,0,6.791.005,10.083M7.619,7.71A21.413,21.413,0,0,1,19.983,1.58c-.09.284-.337.376-.519.521a25.355,25.355,0,0,0-6.542,7.715c-.287.524-.532.549-1.02.32A28.491,28.491,0,0,1,7.619,7.71m3.832,26.318a22.977,22.977,0,0,0-4.379,2.411c-.366.256-.539.171-.789-.137A21.36,21.36,0,0,1,1.457,23.927c-.026-.405.119-.462.459-.458,1.218.013,2.436.005,3.654.005,1.167,0,2.335.013,3.5-.007.381-.007.515.091.534.5A25.817,25.817,0,0,0,11.746,33.3c.178.4.083.57-.294.727M22.069,43.5a24.048,24.048,0,0,1-5.2-4.6,27.081,27.081,0,0,1-2.66-3.79c-.249-.418-.183-.605.266-.744A29.566,29.566,0,0,1,21.48,33.1c.371-.021.6-.008.6.494-.022,3.247-.011,6.494-.011,9.9m-.724-21.455c-.706-.061-1.421-.014-2.132-.014-.488,0-.888.172-.891.713s.4.722.883.726c.787.007,1.575.021,2.361-.005.407-.014.513.133.511.525q-.024,3.58,0,7.16c0,.446-.165.567-.572.572a25.653,25.653,0,0,0-7.814,1.427c-.393.13-.475,0-.6-.289a25.889,25.889,0,0,1-2.074-8.9c-.025-.444.16-.5.524-.493,1.269.014,2.539,0,3.809.006.518,0,1.029-.077,1.027-.727s-.513-.718-1.031-.717c-1.244,0-2.489-.013-3.732.009-.438.008-.628-.064-.6-.578a25.868,25.868,0,0,1,2.047-8.752c.153-.352.243-.5.7-.345a24.721,24.721,0,0,0,7.664,1.4c.556,0,.665.233.651.732-.033,1.142-.01,2.285-.01,3.427,0,1.117-.029,2.235.012,3.351.021.571-.1.826-.736.771m13.631,16.79A1.5,1.5,0,0,1,36.469,40.4a1.533,1.533,0,0,1-1.53,1.54,1.569,1.569,0,0,1-1.549-1.615,1.53,1.53,0,0,1,1.586-1.487m7.676-6.916a1.559,1.559,0,0,1,1.576,1.509,1.546,1.546,0,1,1-3.089.063,1.559,1.559,0,0,1,1.513-1.572M24.023,17.608a5.217,5.217,0,0,1-.073,10.228c-.4.084-.473.007-.469-.368.014-1.575.006-3.15.006-4.724,0-1.549.011-3.1-.007-4.648,0-.416.056-.6.544-.488m21.8,6.668a1.55,1.55,0,1,1-.033-3.1,1.549,1.549,0,1,1,.033,3.1" transform="translate(0 -0.001)" fill="#9eb3cf" stroke="rgba(0,0,0,0)" stroke-width="1"/>
  </g>
</svg>
