<svg id="Group_2312" data-name="Group 2312" xmlns="http://www.w3.org/2000/svg" xmlns:xlink="http://www.w3.org/1999/xlink" width="49.188" height="49.153" viewBox="0 0 49.188 49.153">
  <defs>
    <clipPath id="clip-path">
      <rect id="Rectangle_747" data-name="Rectangle 747" width="49.188" height="49.153" fill="#9eb3cf" stroke="rgba(0,0,0,0)" stroke-width="1"/>
    </clipPath>
  </defs>
  <g id="Group_2311" data-name="Group 2311" clip-path="url(#clip-path)">
    <path id="Path_7241" data-name="Path 7241" d="M195.231,189.7c-.354.522-.2,1.378-.887,1.432-.336.026-1.179-.169-1.118-.759.041-.4.034-1.216.768-1.2a1.55,1.55,0,0,1,1.237.531" transform="translate(-161.546 -158.16)" fill="#9eb3cf" stroke="rgba(0,0,0,0)" stroke-width="1"/>
    <path id="Path_7242" data-name="Path 7242" d="M76.995,77.428c-2.376-9-11.327-15.168-21.105-12.166-9.442,2.9-13.6,12.811-9.5,21.168A13.5,13.5,0,0,0,67.573,90.8c.22-.2.832-.406.246-.831-.379-.275-.5-1.14-1.356-.4a11.224,11.224,0,0,1-11.886,2.247c-6.613-2.44-9.854-10.183-7.19-16.89,2.789-7.022,11.225-10.61,18.507-7.871,8.024,3.018,12.206,12.633,9.059,20.827A17.95,17.95,0,0,1,55.975,99.015c-1.261-.176-1.261-.176-1.055-1.418.127-.768-.348-1.226-1.092-.993-1.114.35-2.217.737-3.314,1.136-.778.283-.926.782-.426,1.451.685.917,1.41,1.8,2.106,2.713a.946.946,0,0,0,.957.49c.444-.083.593-.434.7-.814a2.3,2.3,0,0,0,.152-.549c.012-.606.371-.637.826-.539a14.163,14.163,0,0,0,3.416.286,17.441,17.441,0,0,0,5.794-.848c9.775-3.07,15.569-12.6,12.954-22.5M52.642,99.717c-.285-.227-.6-.423-.529-.712.077-.318.513-.154.831-.234l-.3.947" transform="translate(-37.468 -53.921)" fill="#9eb3cf" stroke="rgba(0,0,0,0)" stroke-width="1"/>
    <path id="Path_7243" data-name="Path 7243" d="M103.188,107.365a.814.814,0,0,0-.86-.884,5.465,5.465,0,0,0-.736-.012.578.578,0,0,1-.633-.377c-.167-.34.044-.5.237-.694.116-.115.226-.237.346-.349a.892.892,0,0,0,.024-1.472q-1.021-1-2.024-2.024a.887.887,0,0,0-1.419-.043,6.835,6.835,0,0,1-.6.553.529.529,0,0,1-.876-.359,5.081,5.081,0,0,1,0-.736c.019-.714-.322-1.055-1.039-1.045-.791.011-1.583,0-2.374,0-1.37,0-1.467.089-1.511,1.477-.011.339-.013.63-.412.779s-.529-.168-.745-.345a2.484,2.484,0,0,1-.232-.231.922.922,0,0,0-1.536-.02c-.414.434-.848.848-1.272,1.273-1.278,1.281-1.278,1.281-.23,2.708a.543.543,0,0,1-.385.91,4.711,4.711,0,0,1-.654,0c-.756-.032-1.1.325-1.085,1.082s0,1.528,0,2.292c0,1.419.068,1.494,1.519,1.551.312.012.559.033.717.377.18.392-.1.544-.294.754-.129.14-.276.264-.4.4a.814.814,0,0,0-.02,1.234q1.11,1.145,2.255,2.256a.821.821,0,0,0,1.237-.009c.225-.2.426-.426.663-.607a.527.527,0,0,1,.877.355,4.944,4.944,0,0,1,0,.736.894.894,0,0,0,1.037,1.047c.791-.011,1.582,0,2.374,0,1.368,0,1.47-.094,1.513-1.476.011-.338.01-.63.411-.78s.534.161.747.342c.3.259.518.653,1.059.645a.647.647,0,0,0,.526-.224c.773-.769,1.553-1.531,2.31-2.316a.791.791,0,0,0-.015-1.171c-.2-.226-.421-.429-.607-.663a.535.535,0,0,1,.379-.906c.271-.024.545,0,.818-.007a.832.832,0,0,0,.915-.916c.008-1.037.011-2.074,0-3.111m-2.255,2.438c-1.395.1-2.2,2.2-1.371,3.335.123.169.491.286.255.578-.287.356-.628.669-.955,1.012-.163-.135-.263-.225-.371-.306a2.18,2.18,0,0,0-3.464,1.448c-.071.7-.516.44-.8.416-.3-.025-.805.356-.887-.412a2.155,2.155,0,0,0-3.45-1.438c-.538.435-.684-.038-.869-.263-.2-.24-.822-.329-.349-.928a2.162,2.162,0,0,0-1.484-3.473c-.341-.047-.381-.161-.385-.445-.01-.66-.15-1.2.9-1.346,1.274-.173,1.911-2.275,1.049-3.253-.456-.518-.119-.7.169-.948s.439-.8,1.064-.269a2.169,2.169,0,0,0,3.34-1.387c.06-.741.472-.557.858-.556s.8-.192.859.554a2.171,2.171,0,0,0,3.339,1.391c.623-.536.773.01,1.064.267s.629.421.173.947a2.168,2.168,0,0,0,1.358,3.349c.638.055.616.335.58.758s.225.906-.621.97" transform="translate(-71.203 -83.541)" fill="#9eb3cf" stroke="rgba(0,0,0,0)" stroke-width="1"/>
    <path id="Path_7244" data-name="Path 7244" d="M198.095,54.844c-.591-.147-.607-.444-.434-.936a26.184,26.184,0,0,0,1.418-8.295,26.708,26.708,0,0,0-2.34-11.3c-3.339-7.26-8.7-12.268-16.475-14.521-.367-.106-.75-.253-.77.36-.014.442-.648,1.017.343,1.241a17.812,17.812,0,0,1,3.743,1.372c10.777,5.159,16.328,18.068,12.8,29.832-.4,1.317-.414,1.312-1.746.867-.882-.295-1.409.15-1.217,1.052.231,1.09.47,2.178.738,3.259.22.887.708,1.072,1.5.593.886-.532,1.761-1.083,2.64-1.626.4-.245.837-.469.775-1.04s-.536-.746-.977-.855m-2.564,1.713-.2-.954a1.757,1.757,0,0,1,1,.314c-.168.33-.508.366-.8.64" transform="translate(-149.891 -16.465)" fill="#9eb3cf" stroke="rgba(0,0,0,0)" stroke-width="1"/>
    <path id="Path_7245" data-name="Path 7245" d="M19.133,11.334c-1.3-.476-2.617-.911-3.947-1.294-.656-.19-1.135.406-.945,1.081a2.884,2.884,0,0,0,.2.62c.377.681.089.923-.559,1.233C5.183,17.127.416,23.943,0,32.348c.012,5.861,1.317,10,3.844,13.762.18.269.326.9.865.344.333-.343,1.143-.36.518-1.267A19.5,19.5,0,0,1,1.9,30.509c1.2-7.225,5.378-12.341,11.83-15.664,1.422-.733,1.433-.71,2.024.769.3.757,1.032.918,1.5.279.791-1.074,1.536-2.182,2.272-3.295a.771.771,0,0,0-.391-1.264M16.8,13.615,16.38,12.37c.427-.226.989-.041,1.052.159.117.371-.3.689-.634,1.086" transform="translate(0 -8.364)" fill="#9eb3cf" stroke="rgba(0,0,0,0)" stroke-width="1"/>
    <path id="Path_7246" data-name="Path 7246" d="M133.5,0a3.275,3.275,0,1,0,3.239,3.31A3.283,3.283,0,0,0,133.5,0m-.006,4.91a1.636,1.636,0,0,1-.06-3.271,1.654,1.654,0,0,1,1.666,1.646,1.657,1.657,0,0,1-1.606,1.625" transform="translate(-108.842 -0.001)" fill="#9eb3cf" stroke="rgba(0,0,0,0)" stroke-width="1"/>
    <path id="Path_7247" data-name="Path 7247" d="M33.545,234.885a3.275,3.275,0,1,0,3.239,3.309,3.282,3.282,0,0,0-3.239-3.309m0,4.91a1.636,1.636,0,1,1,1.6-1.629,1.658,1.658,0,0,1-1.6,1.629" transform="translate(-25.278 -196.378)" fill="#9eb3cf" stroke="rgba(0,0,0,0)" stroke-width="1"/>
    <path id="Path_7248" data-name="Path 7248" d="M238.415,259.873a3.275,3.275,0,1,0,3.266,3.283,3.282,3.282,0,0,0-3.266-3.283m-.114,4.908a1.636,1.636,0,1,1,1.741-1.569,1.659,1.659,0,0,1-1.741,1.569" transform="translate(-196.585 -217.27)" fill="#9eb3cf" stroke="rgba(0,0,0,0)" stroke-width="1"/>
    <path id="Path_7249" data-name="Path 7249" d="M119.3,129.937a4.094,4.094,0,1,0,4.081,4.045,4.1,4.1,0,0,0-4.081-4.045m-.05,6.549a2.455,2.455,0,1,1,2.492-2.48,2.466,2.466,0,0,1-2.492,2.48" transform="translate(-96.308 -108.635)" fill="#9eb3cf" stroke="rgba(0,0,0,0)" stroke-width="1"/>
  </g>
</svg>
