<svg id="Group_2321" data-name="Group 2321" xmlns="http://www.w3.org/2000/svg" xmlns:xlink="http://www.w3.org/1999/xlink" width="44.678" height="44.679" viewBox="0 0 44.678 44.679">
  <defs>
    <clipPath id="clip-path">
      <rect id="Rectangle_751" data-name="Rectangle 751" width="44.678" height="44.679" fill="#9eb3cf" stroke="rgba(0,0,0,0)" stroke-width="1"/>
    </clipPath>
  </defs>
  <g id="Group_2320" data-name="Group 2320" clip-path="url(#clip-path)">
    <path id="Path_7261" data-name="Path 7261" d="M40.749,39.195a.612.612,0,0,1-.818-.168c-.8-.839-1.618-1.671-2.468-2.464-.367-.343-.388-.533-.038-.927a19.641,19.641,0,0,0,4.758-9.971.677.677,0,0,1,.5-.631,2.825,2.825,0,0,0,.015-5.391.63.63,0,0,1-.507-.549A19.8,19.8,0,0,0,37.35,8.94c-.251-.283-.284-.435.011-.712.745-.7,1.479-1.416,2.163-2.176.468-.519.9-.875,1.61-.438a1.189,1.189,0,0,0,.518.1A2.97,2.97,0,0,0,44.53,3.783,2.868,2.868,0,0,0,43.444.516,2.838,2.838,0,0,0,40.068.6a2.737,2.737,0,0,0-.9,3.243.73.73,0,0,1-.231.985c-.8.777-1.6,1.56-2.363,2.372-.326.346-.515.427-.926.06A19.566,19.566,0,0,0,25.68,2.5a.724.724,0,0,1-.664-.559,2.825,2.825,0,0,0-5.369.021.677.677,0,0,1-.606.533A19.6,19.6,0,0,0,9.01,7.276c-.372.331-.565.278-.873-.043Q6.931,5.974,5.671,4.766A.669.669,0,0,1,5.5,3.891,2.841,2.841,0,0,0,.255,1.7,2.8,2.8,0,0,0,.773,4.8a2.717,2.717,0,0,0,3.055.716.735.735,0,0,1,.99.205q1.2,1.263,2.465,2.466c.3.283.318.443.029.767a19.773,19.773,0,0,0-4.83,10.087.619.619,0,0,1-.464.584,2.824,2.824,0,0,0-.012,5.41.624.624,0,0,1,.474.576A19.79,19.79,0,0,0,7.3,35.708c.274.309.3.47-.011.768-.877.832-1.724,1.7-2.566,2.563a.583.583,0,0,1-.759.176,2.808,2.808,0,0,0-3.5,1.024A2.864,2.864,0,0,0,4.41,44.219a2.821,2.821,0,0,0,1.067-3.487.583.583,0,0,1,.137-.764c.874-.835,1.735-1.685,2.562-2.567.324-.345.5-.29.822,0A19.7,19.7,0,0,0,19.03,42.184a.677.677,0,0,1,.615.523,2.825,2.825,0,0,0,5.391-.025.631.631,0,0,1,.566-.488A19.791,19.791,0,0,0,35.75,37.335c.305-.272.457-.228.712.039.755.789,1.514,1.579,2.32,2.314.442.4.681.758.309,1.325a1.193,1.193,0,0,0-.121.538,2.908,2.908,0,0,0,1.807,2.935,2.856,2.856,0,0,0,3.347-1,2.812,2.812,0,0,0-.023-3.372,2.75,2.75,0,0,0-3.353-.917m1.044-37.9a1.652,1.652,0,0,1,1.592,1.537A1.584,1.584,0,0,1,41.849,4.4a1.542,1.542,0,0,1-1.575-1.518,1.586,1.586,0,0,1,1.519-1.591M2.872,4.4A1.588,1.588,0,0,1,1.289,2.874,1.649,1.649,0,0,1,2.835,1.291,1.588,1.588,0,0,1,4.4,2.835,1.545,1.545,0,0,1,2.872,4.4M2.826,43.385A1.653,1.653,0,0,1,1.29,41.792a1.584,1.584,0,0,1,1.592-1.518A1.54,1.54,0,0,1,4.4,41.85a1.585,1.585,0,0,1-1.573,1.535M43.385,22.311a1.57,1.57,0,0,1-1.536,1.562,1.535,1.535,0,1,1-.054-3.069,1.568,1.568,0,0,1,1.59,1.507M22.372,1.292a1.568,1.568,0,0,1,1.5,1.6A1.535,1.535,0,1,1,20.8,2.82a1.572,1.572,0,0,1,1.569-1.529M1.29,22.356A1.567,1.567,0,0,1,2.835,20.8a1.535,1.535,0,1,1,.036,3.069A1.57,1.57,0,0,1,1.29,22.356M22.362,43.385a1.569,1.569,0,0,1-1.558-1.54,1.535,1.535,0,1,1,3.069-.048,1.571,1.571,0,0,1-1.511,1.588m4.332-2.748c-.158.036-.312.088-.469.13a1.186,1.186,0,0,1-1.608-.59,2.761,2.761,0,0,0-4.74.234.724.724,0,0,1-.9.461A19.063,19.063,0,0,1,4.049,26.764c-.04-.181-.093-.358-.141-.537-.18-.674-.253-1.21.6-1.6a2.779,2.779,0,0,0-.3-4.776c-.483-.236-.461-.53-.382-.934A18.716,18.716,0,0,1,9.712,8.421,18.6,18.6,0,0,1,18.86,3.833a.788.788,0,0,1,1.028.446A2.8,2.8,0,0,0,24.8,4.262a.757.757,0,0,1,.969-.447A18.985,18.985,0,0,1,40.637,17.982c.036.158.089.312.13.468a1.189,1.189,0,0,1-.59,1.609,2.755,2.755,0,0,0,.237,4.736.754.754,0,0,1,.445.968A18.986,18.986,0,0,1,26.694,40.636m15.148,2.749a1.59,1.59,0,0,1-1.567-1.543A1.543,1.543,0,0,1,41.8,40.274,1.587,1.587,0,0,1,43.386,41.8a1.653,1.653,0,0,1-1.544,1.586" transform="translate(0 -0.001)" fill="#9eb3cf" stroke="rgba(0,0,0,0)" stroke-width="1"/>
    <path id="Path_7262" data-name="Path 7262" d="M85.778,69.567a14.25,14.25,0,0,0-12.5-11.946,14,14,0,0,0-13.477,6.2,3.139,3.139,0,0,0-.32.535.591.591,0,0,0,.247.788.584.584,0,0,0,.816-.116,3.488,3.488,0,0,0,.444-.623c.182-.338.349-.378.692-.154a14.1,14.1,0,0,0,2.594,1.327c.259.1.391.186.309.541a22.324,22.324,0,0,0-.6,4.689c-.006.391-.216.383-.49.382-1.442,0-2.885-.016-4.328.006-.407.006-.517-.12-.474-.514a13.626,13.626,0,0,1,.614-2.921c.16-.472.111-.855-.388-1.015-.482-.155-.712.172-.849.588a13.834,13.834,0,0,0-.4,7.488A14.182,14.182,0,0,0,73.948,85.933a13.883,13.883,0,0,0,10.8-8.273c.193-.4.294-.834-.222-1.07-.544-.249-.8.113-1,.556A14.089,14.089,0,0,1,82.3,79.321c-.214.317-.349.309-.644.119a14.473,14.473,0,0,0-2.595-1.326c-.3-.116-.406-.23-.319-.6a22.024,22.024,0,0,0,.59-4.62c.007-.377.187-.4.476-.4.721.011,1.442,0,2.164,0h1.256c1.379,0,1.379,0,1.282,1.391,0,.023,0,.047-.005.07-.058.448.046.82.563.856.441.03.636-.233.709-.677a14.443,14.443,0,0,0,0-4.576M69.617,59.545a1.965,1.965,0,0,1,.289-.19c.325-.162.677-.516,1-.329.248.143.08.6.086.919.016.812.005,1.624.005,2.437,0,.951-.015,1.9.008,2.854.009.367-.1.486-.47.457a19.007,19.007,0,0,1-3.891-.675c-.254-.074-.372-.143-.276-.412a10.1,10.1,0,0,1,3.248-5.061M71,70.758c.006.334-.1.44-.432.431-.812-.021-1.625-.007-2.438-.007-.789,0-1.58-.017-2.368.008-.384.012-.543-.083-.507-.5a37.139,37.139,0,0,1,.531-4.066c.071-.356.228-.437.579-.332a16.3,16.3,0,0,0,4.1.682c.425.015.551.16.54.581-.029,1.067-.021,2.136,0,3.2m-6.548-6.5a21.905,21.905,0,0,1-2.323-1.27,12.844,12.844,0,0,1,5.5-3.506,16.149,16.149,0,0,0-1.72,2.8c-.22.533-.486,1.051-.658,1.6-.146.464-.315.623-.795.378M61.077,79.4a13.094,13.094,0,0,1-2.389-6.513c-.028-.323.093-.4.387-.391.744.015,1.489,0,2.233,0s1.489.014,2.233-.006c.331-.009.437.1.444.431a22.741,22.741,0,0,0,.594,4.618c.076.331,0,.446-.285.555a14.81,14.81,0,0,0-2.715,1.392c-.229.147-.348.127-.5-.091M62.151,80.7a13.281,13.281,0,0,1,2.576-1.363c.163-.066.284-.158.369.09a16.588,16.588,0,0,0,2.386,4.645A12.017,12.017,0,0,1,62.151,80.7m8.847.67c0,.9,0,1.81,0,2.715,0,.732-.046.761-.727.443a5.043,5.043,0,0,1-1.684-1.32,12.285,12.285,0,0,1-2.179-4c-.113-.317-.092-.465.3-.571a20.859,20.859,0,0,1,3.825-.65c.372-.029.479.09.47.457-.023.974-.008,1.949-.008,2.924m-.148-4.81c-.4.366-1.275.219-1.941.293a14.309,14.309,0,0,0-2.507.523c-.383.114-.54.046-.618-.352a37.607,37.607,0,0,1-.521-3.994c-.032-.368.043-.539.47-.533,1.6.023,3.2.019,4.8,0,.36,0,.49.094.469.464-.029.532-.008,1.067-.008,1.719-.08.565.312,1.462-.148,1.878m1.459-11.51c.039-.927.011-1.856.011-2.784,0-.952.015-1.9-.007-2.854-.01-.446.122-.519.524-.349a5.248,5.248,0,0,1,1.968,1.5,12.6,12.6,0,0,1,2.1,3.886c.14.38.039.5-.345.6a23.843,23.843,0,0,1-3.617.638c-.556.064-.657-.143-.636-.644m.005,2.4c0-.326.1-.451.432-.465a17.663,17.663,0,0,0,4.3-.716c.266-.079.4.009.45.256a32.644,32.644,0,0,1,.558,4.271c.029.4-.2.391-.473.389-.813-.005-1.625,0-2.438,0-.789,0-1.579-.018-2.368.008-.369.012-.475-.1-.468-.469.023-1.091.018-2.182,0-3.273m-.006,5.6c-.019-.485.162-.574.592-.557.764.03,1.531.009,2.3.009.812,0,1.624.012,2.436-.006.332-.007.451.1.425.438a35.609,35.609,0,0,1-.532,4.132c-.073.374-.249.409-.588.311a16.487,16.487,0,0,0-4.1-.674c-.441-.014-.538-.183-.528-.59.027-1.02.037-2.043,0-3.062m1.075,11.29a4.64,4.64,0,0,1-.621.307c-.329.148-.453.041-.447-.323.016-1,.006-2,.006-2.993,0-.975.012-1.95-.007-2.924-.006-.334.1-.445.434-.423a18.5,18.5,0,0,1,3.959.683c.222.065.335.129.25.37-.736,2.075-1.625,4.048-3.574,5.3m7.8-3.639a12.63,12.63,0,0,1-5.575,3.5,13.9,13.9,0,0,0,2.562-4.644c.1-.292.193-.333.485-.207A14.925,14.925,0,0,1,81.181,80.7M78.1,63.99a13.141,13.141,0,0,0-2.493-4.513,12.691,12.691,0,0,1,5.56,3.5,16.5,16.5,0,0,1-2.392,1.309c-.387.19-.55.1-.676-.3m6.066,7.2c-.719-.021-1.438-.006-2.158-.006-.742,0-1.485-.013-2.227.006-.321.008-.443-.078-.451-.423a22.118,22.118,0,0,0-.591-4.606c-.087-.37.03-.48.321-.595a15.154,15.154,0,0,0,2.646-1.36c.251-.161.372-.153.549.1a13.171,13.171,0,0,1,2.37,6.431c.038.4-.113.467-.46.457" transform="translate(-49.321 -49.502)" fill="#9eb3cf" stroke="rgba(0,0,0,0)" stroke-width="1"/>
  </g>
</svg>
