<svg xmlns="http://www.w3.org/2000/svg" width="80.666" height="80.667" viewBox="0 0 80.666 80.667">
  <path id="Path_165209" data-name="Path 165209" d="M54.489,23.625c.017-.025.03-.053.049-.077a1.709,1.709,0,0,1,2.335-.32h.017a1.7,1.7,0,0,1,.3,2.37c-.019.024-.045.043-.066.067a1.7,1.7,0,0,1-1.262.59A1.76,1.76,0,0,1,54.84,25.9a1.665,1.665,0,0,1-.351-2.277Zm35.844,33.1A1.7,1.7,0,0,1,89.744,58L77.98,68.082a1.694,1.694,0,0,1-1.8.253,1.69,1.69,0,0,1-.975-1.53V63.444H65.481a18.553,18.553,0,0,1-10.439,7.7v4.393a3.5,3.5,0,0,1,1.681,3.132v9.986a1.681,1.681,0,1,1-3.361,0V78.666c0-.034,0-.067-.005-.1H46.645c0,.03-.005.063-.005.1v9.986a1.681,1.681,0,1,1-3.361,0V78.666a3.5,3.5,0,0,1,1.68-3.132V71.141a18.549,18.549,0,0,1-10.439-7.7H11.347a1.681,1.681,0,0,1,0-3.361H32.785c-.083-.212-.163-.426-.238-.642a27.11,27.11,0,0,1-6.873-6.08H11.347a1.681,1.681,0,0,1,0-3.361H23.37A26.882,26.882,0,1,1,73.527,36.555c-.016,4.975-.169,9.427-2.1,13.445h3.781V46.639a1.686,1.686,0,0,1,.975-1.53,1.7,1.7,0,0,1,1.8.252L89.744,55.444A1.7,1.7,0,0,1,90.333,56.722Zm-4.268,0-7.5-6.437v1.4a1.663,1.663,0,0,1-1.68,1.68h-8.4a18.384,18.384,0,0,1-1.272,6.722H76.89a1.663,1.663,0,0,1,1.68,1.681v1.4Zm-23.5,5.042a15.133,15.133,0,0,0,2.557-8.4v0a15.117,15.117,0,0,0-3.14-9.21A14.968,14.968,0,0,0,59.366,41.5a15.1,15.1,0,0,0-22.455,4.3,15.264,15.264,0,0,0-.811,1.6,14.889,14.889,0,0,0-.613,1.709q-.129.441-.232.891a14.985,14.985,0,0,0-.285,1.68,15.263,15.263,0,0,0-.1,1.679v0a14.971,14.971,0,0,0,1.3,6.128q.134.3.279.593a15.159,15.159,0,0,0,.975,1.681l.047.071a15.337,15.337,0,0,0,1.26,1.609,15.1,15.1,0,0,0,22.52,0,14.882,14.882,0,0,0,1.309-1.679ZM48.319,75.208H51.68V71.847H48.319ZM31.558,54.574c-.026-.4-.044-.805-.044-1.213v0c0-.567.03-1.126.08-1.679s.13-1.128.231-1.68a18.357,18.357,0,0,1,1.109-3.742A16.81,16.81,0,0,1,50.167,20.119h.017a1.71,1.71,0,0,1,1.042.722,1.8,1.8,0,0,1,.235,1.279c-.007.031-.021.06-.029.091a1.709,1.709,0,0,1-1.971,1.2,13.176,13.176,0,0,0-2.822-.3A13.505,13.505,0,0,0,33.194,36.555a13.366,13.366,0,0,0,1.6,6.313,18.451,18.451,0,0,1,25.232-5.031c.031-.42.056-.845.061-1.283a13.212,13.212,0,0,0-1.462-6.1,1.674,1.674,0,0,1,.659-2.2c.027-.016.051-.036.079-.051a1.7,1.7,0,0,1,2.253.722,16.749,16.749,0,0,1,1.831,7.63,20.976,20.976,0,0,1-.341,3.778,18.481,18.481,0,0,1,4.92,8.929C70,45.7,70.165,41.217,70.165,36.554A23.528,23.528,0,1,0,27.367,50c.406.579.835,1.141,1.291,1.68q.74.879,1.562,1.681.646.633,1.338,1.214ZM56.51,46.623a6.724,6.724,0,0,0-10.832-3.456,6.715,6.715,0,0,0-2.4,5.15A1.695,1.695,0,0,0,44.957,50a1.639,1.639,0,0,0,.428-.062,1.677,1.677,0,0,0,1.253-1.619,3.364,3.364,0,0,1,3.985-3.305A3.4,3.4,0,0,1,53.3,47.692a3.478,3.478,0,0,1-.012,1.247,3.317,3.317,0,0,1-1.674,2.322c-.028.015-.051.035-.079.05a6.836,6.836,0,0,0-.579.367,6.315,6.315,0,0,0-1.638,1.681,6.029,6.029,0,0,0-1.005,3.36A1.618,1.618,0,0,0,50,58.325a1.743,1.743,0,0,0,1.68-1.753,2.768,2.768,0,0,1,1.563-2.366,6.8,6.8,0,0,0,2.571-2.528,6.808,6.808,0,0,0,.8-4.567c-.028-.164-.064-.327-.106-.488ZM50,61.764a1.681,1.681,0,1,0,1.68,1.68A1.685,1.685,0,0,0,50,61.764Z" transform="translate(-9.667 -9.666)" fill="#9eb3cf"/>
</svg>
