<svg xmlns="http://www.w3.org/2000/svg" width="56.55" height="73" viewBox="0 0 56.55 73">
  <path id="Path_165227" data-name="Path 165227" d="M103.389,45.535a4.441,4.441,0,0,0-3.173,1.269l-5.049,4.941a4.1,4.1,0,0,0-3.94-2.991H84.291c-3.385-2.48-7.027-2.319-10.553.475-.018.014-.036.029-.052.045l-4.273,3.895L68,51.754a1,1,0,0,0-.706-.293h0a1,1,0,0,0-.706.292l-5.9,5.9a1,1,0,0,0,0,1.412L74.82,73.208a1,1,0,0,0,1.412,0l5.9-5.9a1,1,0,0,0,0-1.411L80.42,64.178l1.061-1.061,12.518,0a5.552,5.552,0,0,0,3.989-1.63l8.474-8.293a4.462,4.462,0,0,0-3.073-7.656ZM75.526,71.089,62.8,58.364l4.493-4.493,1.347,1.347c.011.012.021.025.033.036l4.981,4.979L80.015,66.6Zm29.54-19.327-8.475,8.293A3.569,3.569,0,0,1,94,61.117l-12.929,0a1,1,0,0,0-.706.292L79.01,62.765l-4.132-4.13-4.052-4.053L75,50.772c2.929-2.309,5.579-2.382,8.339-.233a1,1,0,0,0,.613.211h7.271a2.1,2.1,0,0,1,2.093,2.093c0,.064,0,.126-.01.188,0,.016,0,.031,0,.047-.007.059-.015.117-.027.175,0,.015-.007.029-.01.044-.01.045-.021.088-.034.132-.006.02-.011.04-.018.059-.016.05-.034.1-.054.148-.01.024-.021.048-.032.072s-.024.05-.036.075-.03.058-.046.087l0,0a2.093,2.093,0,0,1-1.82,1.063H81.067a1,1,0,0,0,0,2h10.16a4.091,4.091,0,0,0,3.481-1.946l6.9-6.757a2.447,2.447,0,0,1,1.725-.7h.029a2.468,2.468,0,0,1,1.7,4.231Zm2.141-41.339a19.95,19.95,0,0,0-18.8-3.393,17.053,17.053,0,0,0-3.646-3.465,1,1,0,0,0-1.279.111L82.194,4.968a14.34,14.34,0,0,0-3.382-1.4V1.74a1,1,0,0,0-.826-.983,17.088,17.088,0,0,0-5.9,0,1,1,0,0,0-.826.983V3.565a14.289,14.289,0,0,0-3.382,1.4L66.589,3.677a1,1,0,0,0-1.28-.111,17.1,17.1,0,0,0-4.167,4.167,1,1,0,0,0,.111,1.28L62.544,10.3a14.248,14.248,0,0,0-1.4,3.383H59.316a1,1,0,0,0-.983.826,17.006,17.006,0,0,0,0,5.9,1,1,0,0,0,.983.826h1.825a14.284,14.284,0,0,0,1.4,3.382l-1.291,1.291a1,1,0,0,0-.111,1.28,17.1,17.1,0,0,0,4.167,4.167,1,1,0,0,0,1.28-.111l1.29-1.29a14.2,14.2,0,0,0,3.383,1.4v1.825a1,1,0,0,0,.826.983,17.163,17.163,0,0,0,2.949.258c.516,0,1.042-.027,1.569-.075A19.7,19.7,0,0,0,78.1,37.012l-.634,7.695a1,1,0,0,0,1.14,1.07l8.732-1.286a20.111,20.111,0,0,0,12.168.815,19.761,19.761,0,0,0,10.718-6.841,19.968,19.968,0,0,0-3.012-28.041Zm-32.17,22a15.037,15.037,0,0,1-1.778-.106V30.571a1,1,0,0,0-.791-.977,12.253,12.253,0,0,1-4.191-1.738,1,1,0,0,0-1.253.129l-1.237,1.237a15.083,15.083,0,0,1-2.513-2.513l1.237-1.237a1,1,0,0,0,.13-1.251A12.322,12.322,0,0,1,62.9,20.03a1,1,0,0,0-.977-.791H60.178a14.947,14.947,0,0,1,0-3.556h1.749a1,1,0,0,0,.977-.791A12.3,12.3,0,0,1,64.642,10.7a1,1,0,0,0-.13-1.251L63.274,8.211A15.087,15.087,0,0,1,65.787,5.7l1.237,1.237a1,1,0,0,0,1.251.13,12.327,12.327,0,0,1,4.192-1.739,1,1,0,0,0,.791-.977V2.6a14.988,14.988,0,0,1,3.556,0V4.35a1,1,0,0,0,.791.977A12.377,12.377,0,0,1,81.8,7.067a1,1,0,0,0,1.25-.131L84.287,5.7a15.053,15.053,0,0,1,2.168,2.095,19.778,19.778,0,0,0-5.08,3.313A8.975,8.975,0,1,0,74.76,26.43,20.148,20.148,0,0,0,75.831,32.4c-.267.014-.532.024-.794.024Zm-.231-7.992a6.979,6.979,0,1,1,5.152-11.921q-.407.447-.792.922A19.745,19.745,0,0,0,74.807,24.434Zm33.858,12.777a18.045,18.045,0,0,1-20.827,5.33,1,1,0,0,0-.527-.065l-7.757,1.142.56-6.794a1,1,0,0,0-.175-.651,17.947,17.947,0,1,1,28.725,1.038ZM97.516,12.526h-6.9a1,1,0,0,0-1,1.076l1.241,15.83a1,1,0,0,0,1,.92h4.417a1,1,0,0,0,1-.92L98.511,13.6a1,1,0,0,0-1-1.076Zm-2.164,15.83H92.781L91.7,14.523h4.74Zm-1.283,3.835a3.4,3.4,0,1,0,3.4,3.4A3.4,3.4,0,0,0,94.068,32.192Zm0,4.8a1.4,1.4,0,1,1,1.4-1.4A1.4,1.4,0,0,1,94.068,36.993Z" transform="translate(-58.075 -0.5)" fill="#9eb3cf"/>
</svg>
