<svg xmlns="http://www.w3.org/2000/svg" width="84.782" height="73.512" viewBox="0 0 84.782 73.512">
  <path id="Path_165226" data-name="Path 165226" d="M67.519,60.781V38.349L81.626,49.567ZM48.5,54.054a1.325,1.325,0,0,0-1.325,1.325V70.6a15.584,15.584,0,0,1-3.416-3.429,1.325,1.325,0,0,0-2.144,0A15.6,15.6,0,0,1,38.2,70.6V55.379a1.325,1.325,0,0,0-1.325-1.325H20.507V45.079H64.869v8.975ZM58.232,76.1A17.945,17.945,0,0,1,42.69,70.067,17.955,17.955,0,0,1,27.147,76.1c.879,17.6,7.9,24.373,15.543,28.837C50.336,100.475,57.35,93.7,58.231,76.1ZM17.858,60.782,3.75,49.567,17.857,38.349V60.781ZM84.58,48.528,67.019,34.567a1.325,1.325,0,0,0-2.15,1.036V42.43H20.507V35.6a1.325,1.325,0,0,0-2.149-1.036L.8,48.528A1.328,1.328,0,0,0,.8,50.6l17.56,13.959a1.319,1.319,0,0,0,.824.289,1.3,1.3,0,0,0,.576-.132,1.32,1.32,0,0,0,.749-1.192V56.7H35.551V72.165a15.039,15.039,0,0,1-9.511,1.071,1.327,1.327,0,0,0-1.606,1.332c.25,8.967,1.933,15.974,5.143,21.424,2.762,4.69,6.722,8.385,12.459,11.627a1.315,1.315,0,0,0,1.3,0c5.737-3.242,9.7-6.937,12.46-11.627,3.209-5.45,4.891-12.458,5.142-21.424a1.326,1.326,0,0,0-1.605-1.332,15.053,15.053,0,0,1-9.511-1.071V56.7H64.87v6.823a1.325,1.325,0,0,0,.749,1.192,1.3,1.3,0,0,0,.576.132,1.319,1.319,0,0,0,.825-.289L84.579,50.6a1.324,1.324,0,0,0,0-2.075ZM42.69,84.259a2.948,2.948,0,1,1-2.949,2.949,2.948,2.948,0,0,1,2.949-2.949Zm-5.6,2.949a5.6,5.6,0,1,1,5.6,5.6A5.6,5.6,0,0,1,37.091,87.208Zm4.694-7.227.2-1.046h1.412l.2,1.046a1.321,1.321,0,0,0,.927,1.026,6.436,6.436,0,0,1,1.256.523,1.327,1.327,0,0,0,1.383-.07l.879-.6,1,1-.6.883a1.329,1.329,0,0,0-.07,1.382,6.45,6.45,0,0,1,.519,1.253,1.321,1.321,0,0,0,1.026.929l1.051.2v1.412l-1.055.2a1.327,1.327,0,0,0-1.026.926,6.478,6.478,0,0,1-.519,1.248,1.32,1.32,0,0,0,.069,1.381l.608.892-1,1-.893-.612a1.323,1.323,0,0,0-1.379-.069,6.569,6.569,0,0,1-1.244.515,1.322,1.322,0,0,0-.926,1.024l-.2,1.064H41.983l-.2-1.064a1.318,1.318,0,0,0-.925-1.024,6.556,6.556,0,0,1-1.243-.515,1.327,1.327,0,0,0-1.382.069l-.892.612-1-1,.608-.892a1.325,1.325,0,0,0,.069-1.382,6.45,6.45,0,0,1-.519-1.247,1.325,1.325,0,0,0-1.026-.926l-1.056-.2V86.5l1.051-.2a1.324,1.324,0,0,0,1.027-.929,6.581,6.581,0,0,1,.518-1.255,1.323,1.323,0,0,0-.07-1.379l-.6-.883,1-1,.879.6a1.327,1.327,0,0,0,1.383.07,6.393,6.393,0,0,1,1.258-.523A1.322,1.322,0,0,0,41.785,79.982Zm-2.251-2.366a1.631,1.631,0,0,1,1.6-1.33H44.24a1.631,1.631,0,0,1,1.6,1.33l.212,1.121c.081.032.163.067.245.1l.943-.643a1.631,1.631,0,0,1,2.073.193l2.194,2.194a1.631,1.631,0,0,1,.194,2.071l-.647.948c.032.079.067.161.1.24l1.127.212a1.633,1.633,0,0,1,1.327,1.6V88.76a1.629,1.629,0,0,1-1.327,1.6l-1.136.214c-.032.078-.064.155-.1.232l.653.956a1.628,1.628,0,0,1-.194,2.071l-2.195,2.193a1.628,1.628,0,0,1-2.071.194l-.957-.655c-.077.033-.152.064-.227.094L45.842,96.8a1.63,1.63,0,0,1-1.6,1.329H41.135a1.63,1.63,0,0,1-1.6-1.329l-.214-1.141c-.076-.03-.151-.06-.226-.094l-.959.655a1.628,1.628,0,0,1-2.071-.194l-2.2-2.193a1.633,1.633,0,0,1-.194-2.071l.653-.955c-.034-.078-.065-.155-.1-.233l-1.136-.214a1.631,1.631,0,0,1-1.328-1.6V85.655a1.635,1.635,0,0,1,1.328-1.6l1.127-.212c.033-.079.067-.161.1-.24l-.647-.948a1.633,1.633,0,0,1,.194-2.071l2.2-2.2a1.631,1.631,0,0,1,2.07-.193l.944.645c.08-.034.163-.07.246-.1Z" transform="translate(-0.298 -34.279)" fill="#9eb3cf" fill-rule="evenodd"/>
</svg>
